<svg xmlns="http://www.w3.org/2000/svg" viewBox="0 0 54.51 100"><defs><style>.cls-1{fill:#ed004c;}.cls-2{fill:#ed663e;}.cls-3{fill:#eda960;}.cls-4{fill:#edd4b8;}.cls-5{fill:#980030;}.cls-6{fill:#fff;}</style></defs><title>Asset 42</title><g id="Layer_2" data-name="Layer 2"><g id="layout"><path class="cls-1" d="M49.13,29.28A27.26,27.26,0,0,1,27.26,72.8L22.71,36.4,27.26,0Z"/><path class="cls-2" d="M27.26,72.8A27.26,27.26,0,0,1,5.38,29.28L27.26,0Z"/><path class="cls-3" d="M39.48,41.7a15.07,15.07,0,0,1,3,9.07A15.23,15.23,0,0,1,27.26,66L20.44,45.66l6.81-20.32Z"/><path class="cls-4" d="M27.26,25.34V66A15.23,15.23,0,0,1,12,50.77a15.07,15.07,0,0,1,3-9.08Z"/><path class="cls-5" d="M27.26,42.92,25,66.39l10.22-2.65V50.87A8,8,0,0,0,27.26,42.92Z"/><path class="cls-1" d="M19.31,50.87V63.74l8,2.65V42.92A8,8,0,0,0,19.31,50.87Z"/><path class="cls-4" d="M23.88,81.81,27.26,100a52.66,52.66,0,0,0,8-.6V63.74h-8Z"/><path class="cls-6" d="M19.31,63.74V99.4a52.66,52.66,0,0,0,8,.6V63.74Z"/></g></g></svg>