<?xml version="1.0" encoding="utf-8"?>
<!-- Generator: Adobe Illustrator 21.1.0, SVG Export Plug-In . SVG Version: 6.00 Build 0)  -->
<svg version="1.1" id="Layer_1" xmlns="http://www.w3.org/2000/svg" xmlns:xlink="http://www.w3.org/1999/xlink" x="0px" y="0px"
	 viewBox="0 0 87.4 100" style="enable-background:new 0 0 87.4 100;" xml:space="preserve">
<style type="text/css">
	.st0{fill:#3FA9F5;}
</style>
<title>Asset 81</title>
<g id="Layer_2">
	<g id="layout">
		<path class="st0" d="M11.5,37.4L0.7,45.9C0.3,46.3,0,46.8,0,47.4v50.7c0,1,0.9,1.9,1.9,1.9c0,0,0,0,0,0h10.8c1,0,1.9-0.9,1.9-1.9
			l0,0V38.9c0-1-0.8-1.9-1.9-1.9C12.3,37,11.9,37.2,11.5,37.4z"/>
		<path class="st0" d="M84.5,0H23.1c-1.6,0-2.9,1.3-2.9,2.9c0,0,0,0,0,0v94.1c0,1.6,1.3,2.9,2.9,2.9h0h26.7V86h8v14l0,0l0,0h26.7
			c1.6,0,2.9-1.3,2.9-2.9c0,0,0,0,0,0V2.9C87.4,1.3,86.1,0,84.5,0C84.5,0,84.5,0,84.5,0z M75.5,25.2h-9.3v-11h9.3V25.2z M75.5,45.4
			h-9.3v-11h9.3V45.4z M75.5,65.6h-9.3v-11h9.3V65.6z M75.5,74.8v11h-9.3v-11H75.5z M58.5,25.2h-9.3v-11h9.3L58.5,25.2z M58.5,45.4
			h-9.3v-11h9.3L58.5,45.4z M58.5,54.6v11h-9.3v-11H58.5z M41.4,14.2v11h-9.3v-11L41.4,14.2z M41.4,34.4v11h-9.3v-11H41.4z
			 M41.4,54.6v11h-9.3v-11H41.4z M41.4,74.8v11h-9.3v-11H41.4z"/>
	</g>
</g>
</svg>
