<svg xmlns="http://www.w3.org/2000/svg" viewBox="0 0 52.08 60"><defs><style>.cls-1{fill:#4d4d4d;}</style></defs><title>Asset 74</title><g id="Layer_2" data-name="Layer 2"><g id="layout"><path class="cls-1" d="M52,45l-2.38-10.3a5.64,5.64,0,0,0-2.12-3.23V14.28a12.26,12.26,0,0,0-12.46-12H31.7V1.13A1.13,1.13,0,0,0,30.57,0H21.51a1.13,1.13,0,0,0-1.13,1.13V2.26H17a12.26,12.26,0,0,0-12.46,12V31.5a5.64,5.64,0,0,0-2.12,3.23h0L0,45a1.13,1.13,0,0,0,1.4,1.35c.06,0,4.8-1.3,8.8-1.91L14.77,59.2s0,0,0,.07a1.05,1.05,0,0,0,0,.1l.06.08.08.12.14.14.1.08.19.1.1,0a1.07,1.07,0,0,0,.34.06H37.36a1.13,1.13,0,0,0,1.08-.8l4.48-14.56c3.73.65,7.67,1.72,7.73,1.73A1.13,1.13,0,0,0,52,45Zm-17-40.5a10,10,0,0,1,10.19,9.75V30.45a5.7,5.7,0,0,0-2.43,0,107.73,107.73,0,0,1-11.16,2V4.53ZM29.43,35.09h1.13a1.13,1.13,0,0,0,.8-.33c3.58-.39,7.1-1.05,9.39-1.54v3a2.26,2.26,0,0,1-2.26,2.26H29.43Zm0-32.83V32.67c-1.16.1-2.3.16-3.37.16H26c-1.07,0-2.21-.06-3.37-.16V2.26Zm-18.11,31c2.3.48,5.81,1.14,9.39,1.54a1.13,1.13,0,0,0,.8.33h1.13v3.4H13.58a2.26,2.26,0,0,1-2.26-2.26Zm-4.53-19A10,10,0,0,1,17,4.53h3.39V32.45a108,108,0,0,1-11.19-2,5.67,5.67,0,0,0-2.4,0ZM21.74,49.13l-5.46,7.28L12.52,44.2c.38,0,.74,0,1.06,0,1.79,0,3.68,1,5.69,2.13A29.73,29.73,0,0,0,22.81,48,6.45,6.45,0,0,0,21.74,49.13Zm-3.63,8.61,3.4-4.53v4.53Zm5.66,0V50.24a3.39,3.39,0,0,1,1.13-.86v8.35Zm3.4,0V49.38a3.39,3.39,0,0,1,1.13.86v7.49Zm3.4,0V53.21L34,57.74Zm6-.25-6.26-8.35A6.45,6.45,0,0,0,29.26,48a29.74,29.74,0,0,0,3.54-1.73c2-1.09,3.9-2.13,5.68-2.13a19,19,0,0,1,2.16.15Zm1.89-15.59c-2.36,0-4.6,1.22-6.77,2.4-2,1.09-3.89,2.12-5.68,2.12h0c-1.78,0-3.68-1-5.68-2.12-2.17-1.18-4.4-2.4-6.77-2.4-3.08,0-8.21,1.16-10.93,1.84l2-8.49h0a3.46,3.46,0,0,1,2.06-2.41h.12v0a3.39,3.39,0,0,1,1.89-.15l.37.09v3.5a4.53,4.53,0,0,0,4.52,4.53H23.77a1.13,1.13,0,0,0,1.13-1.13V35.09h2.26v4.53a1.13,1.13,0,0,0,1.13,1.13H38.49A4.53,4.53,0,0,0,43,36.23v-3.5l.35-.08a3.42,3.42,0,0,1,1.92.14v0h.13a3.44,3.44,0,0,1,2.05,2.41l2,8.49C46.7,43,41.57,41.89,38.49,41.89Z"/></g></g></svg>