<svg xmlns="http://www.w3.org/2000/svg" viewBox="0 0 111.15 120"><defs><style>.cls-1{fill:#4d4d4d;}</style></defs><title>Asset 76</title><g id="Layer_2" data-name="Layer 2"><g id="layout"><path class="cls-1" d="M91.43,48.29h0A10.77,10.77,0,0,0,80.67,37.54H55.57A10.77,10.77,0,0,0,44.82,48.29v1.79H38.19a19.7,19.7,0,1,0-13.1,3.49v9.05H53.78V120H82.46V98.49H104V73.39H91.43ZM10.76,34A16.13,16.13,0,1,1,26.89,50.09,16.15,16.15,0,0,1,10.76,34Zm43,14.34V59H28.68V53.67H48.4V48.29a7.18,7.18,0,0,1,7.17-7.17h25.1a7.18,7.18,0,0,1,7.17,7.17v25.1H82.46V48.29H78.88V68H57.37V48.29H53.78ZM57.36,71.6H78.88v1.79H71.71v25.1h7.17v9h-9V78.77H66.33v28.68h-9Zm9,44.82h-9V111h9Zm12.55,0h-9V111h9ZM100.39,94.9H75.29v-9h3.59v1.79h3.59V85.94H93.22v1.79H96.8V85.94h3.59Zm0-17.93v5.38H96.8V80.56H93.22v1.79H82.46V80.56H78.88v1.79H75.29V77h25.1ZM29.58,23.2h-.9V19.61H25.1V23.2h-.9a6.27,6.27,0,0,0,0,12.55h5.38a2.69,2.69,0,1,1,0,5.38H24.2a2.69,2.69,0,0,1-2.69-2.69v-.9H17.93v.9a6.28,6.28,0,0,0,6.27,6.27h.9v3.59h3.59V44.71h.9a6.27,6.27,0,1,0,0-12.55H24.2a2.69,2.69,0,0,1,0-5.38h5.38a2.69,2.69,0,0,1,2.69,2.69v.9h3.59v-.9A6.28,6.28,0,0,0,29.58,23.2ZM66.33,62.63h3.59V48.29h1.79V44.71H64.54v3.59h1.79Zm39.44-48.4V8.85h-3.59v5.38h3.59v3.59h-3.59V23.2h3.59V17.82h5.38V14.23Zm-9,0h5.38v3.59H96.8ZM14.34,59H9V53.67H5.38V59H0v3.59H5.38V59H9v3.59h5.38Zm-9,3.59H9V68H5.38Zm12.55,0h3.59v3.59H17.93Zm3.59,3.59H25.1v3.59H21.51Zm-3.59,3.59h3.59v3.59H17.93Zm-3.59-3.59h3.59v3.59H14.34ZM95,26.78H98.6v3.59H95Zm3.59,3.59h3.59V34H98.6ZM95,34H98.6v3.59H95Zm-3.59-3.59H95V34H91.43ZM61.35,9.62l-1.5.44V7.8h1.5ZM59.84,7.8h1.5V9.62l-1.5.44ZM51.93,0V6.9h4.39v8.15a14.34,14.34,0,1,0,23.6,0V6.9h2.73V14H85V6.9h1.52V0ZM68.12,34A10.76,10.76,0,1,1,78.88,23.2,10.77,10.77,0,0,1,68.12,34Zm0-25.1a14.28,14.28,0,0,0-9.55,3.66V6.9H77.68v5.61A14.29,14.29,0,0,0,68.12,8.85ZM84.2,4.49h-30V2.41h30ZM61.35,7.8V9.62l-1.5.44V7.8Z"/></g></g></svg>