<?xml version="1.0" encoding="utf-8"?>
<!-- Generator: Adobe Illustrator 19.2.0, SVG Export Plug-In . SVG Version: 6.00 Build 0)  -->
<svg version="1.1" id="Layer_1" xmlns="http://www.w3.org/2000/svg" xmlns:xlink="http://www.w3.org/1999/xlink" x="0px" y="0px"
	 viewBox="0 0 100 100" style="enable-background:new 0 0 100 100;" xml:space="preserve">
<style type="text/css">
	.st0{fill:#FFFFFF;}
	.st1{fill:#273B7A;}
	.st2{fill:#121149;}
	.st3{fill:#C8EBED;}
	.st4{fill:#71E2EF;}
	.st5{fill:#FFC61B;}
	.st6{fill:#EAA22F;}
	.st7{fill:#FF5419;}
	.st8{fill:#C92F00;}
	.st9{fill:#FEE187;}
	.st10{fill:#930000;}
</style>
<title>Asset 87</title>
<g>
	<rect class="st0" width="100" height="100"/>
	<g>
		<path class="st1" d="M78,32.3v47.4H47.6V32.3c0-1.9,1.5-3.4,3.4-3.4h11.6v1H74v-1h0.7C76.5,29,78,30.5,78,32.3L78,32.3z"/>
		<path class="st2" d="M78,32.3v47.4H62.5V29.9H74v-1h0.7C76.5,29,78,30.5,78,32.3z"/>
		<rect x="51.7" y="35.2" class="st3" width="22.3" height="5.6"/>
		<rect x="51.7" y="42.5" class="st3" width="22.3" height="5.6"/>
		<rect x="51.7" y="57.4" class="st3" width="22.3" height="5.6"/>
		<rect x="51.7" y="50" class="st3" width="22.3" height="5.6"/>
		<rect x="51.7" y="42.5" class="st3" width="10.9" height="5.6"/>
		<rect x="62.5" y="42.5" class="st4" width="11.5" height="5.6"/>
		<rect x="62.5" y="57.4" class="st4" width="11.5" height="5.6"/>
		<rect x="51.7" y="57.4" class="st3" width="10.9" height="5.6"/>
		<rect x="51.7" y="50" class="st3" width="10.9" height="5.6"/>
		<rect x="62.5" y="50" class="st4" width="11.5" height="5.6"/>
		<path class="st1" d="M42.6,79.7H22.3V26.8c0-1.6,1.2-2.9,2.9-2.9l0,0h14.6c1.6,0,2.9,1.2,2.9,2.9V79.7z"/>
		<path class="st2" d="M42.6,26.8c0-1.6-1.2-2.9-2.9-2.9h-7.4v55.7h10.2V26.8z"/>
		<path class="st5" d="M63,79.7H41.3V42.4c0-1.4,1.1-2.5,2.5-2.5h16.7c1.4,0,2.5,1.1,2.5,2.5V79.7z"/>
		<path class="st6" d="M63,42.4c0-1.4-1.1-2.5-2.5-2.5h-8.7v39.8H63V42.4z"/>
		<rect x="44.5" y="43.3" class="st7" width="5.6" height="5.6"/>
		<rect x="54.3" y="43.3" class="st8" width="5.6" height="5.6"/>
		<rect x="44.5" y="51.6" class="st7" width="5.6" height="5.6"/>
		<rect x="54.3" y="51.6" class="st8" width="5.6" height="5.6"/>
		<rect x="44.5" y="59.9" class="st7" width="5.6" height="5.6"/>
		<rect x="54.3" y="59.9" class="st8" width="5.6" height="5.6"/>
		<rect x="24.6" y="17" class="st9" width="6.1" height="4.1"/>
		<rect x="34" y="17" class="st5" width="6.1" height="4.1"/>
		<rect x="24.6" y="23.2" class="st9" width="6.1" height="4.1"/>
		<rect x="34" y="23.2" class="st5" width="6.1" height="4.1"/>
		<rect x="24.6" y="40" class="st9" width="6.1" height="4.1"/>
		<rect x="34" y="40" class="st5" width="6.1" height="4.1"/>
		<rect x="24.6" y="46.3" class="st9" width="6.1" height="4.1"/>
		<rect x="34" y="46.3" class="st5" width="6.1" height="4.1"/>
		<rect x="24.6" y="52.4" class="st9" width="6.1" height="4.1"/>
		<rect x="34" y="52.4" class="st5" width="6.1" height="4.1"/>
		<rect x="24.6" y="58.6" class="st9" width="6.1" height="4.1"/>
		<rect x="34" y="58.6" class="st5" width="6.1" height="4.1"/>
		<rect x="46.6" y="68.6" class="st8" width="11.1" height="11.1"/>
		<rect x="51.7" y="68.6" class="st10" width="6" height="11.1"/>
		<rect x="28" y="68.6" class="st5" width="8.7" height="11.1"/>
		<rect x="32.4" y="68.6" class="st6" width="4.5" height="11.1"/>
		<path class="st7" d="M80.8,83H19.5c-1.5,0-2.7-1.2-2.7-2.7l0,0l0,0c0-1.5,1.2-2.7,2.7-2.7l0,0h61.2c1.5,0,2.7,1.2,2.9,2.7l0,0l0,0
			C83.6,81.7,82.4,82.9,80.8,83C80.9,83,80.9,83,80.8,83z"/>
		<path class="st8" d="M80.8,77.4H50.2V83h30.6c1.5,0,2.7-1.2,2.7-2.7S82.4,77.4,80.8,77.4L80.8,77.4z"/>
	</g>
</g>
</svg>
