<svg xmlns="http://www.w3.org/2000/svg" viewBox="0 0 59.77 60"><defs><style>.cls-1{fill:#4d4d4d;}</style></defs><title>Asset 73</title><g id="Layer_2" data-name="Layer 2"><g id="layout"><path class="cls-1" d="M19.44,28.52a1.08,1.08,0,0,0,1.08-1.08,1.62,1.62,0,0,1,3.24,0v6.83l-3-.74a1.08,1.08,0,1,0-.52,2.1l4.32,1.08a1,1,0,0,0,.26,0,1.08,1.08,0,0,0,.92-1.64,1,1,0,0,0,.15-.52V27.44a3.78,3.78,0,0,0-7.56,0A1.08,1.08,0,0,0,19.44,28.52Z"/><path class="cls-1" d="M59.17,27.34l-1.06-3a1.71,1.71,0,0,0,.14-1.15c-.45-1.94-3.72-1.91-6.4-1.29s-5.63,2-5.18,4a1.7,1.7,0,0,0,.64,1L47.67,30A7.58,7.58,0,0,0,48,31.5l-2.14,1.17c-.47-4.19-1.13-10-1.52-13.22h7.49a1.08,1.08,0,0,0,.61-2l-5.89-4,.2-4.37a8.56,8.56,0,0,0-8.11-9,12.19,12.19,0,0,0-4.8.32c-3.17.7-13.58,5.86-14,6.07a7.06,7.06,0,0,0-3.07,3.13L10.34,9A3.38,3.38,0,0,0,7,10.19,3.45,3.45,0,0,0,7,13.8l2.35,4.66L7.27,33.66A4.83,4.83,0,0,0,4.86,33a4.85,4.85,0,0,0-2.94,8.72,11.75,11.75,0,0,0-.84,4.34C1.08,53.75,8.68,60,18,60a19.14,19.14,0,0,0,11-3.35A14.68,14.68,0,0,0,38.62,60c7.3,0,13.23-4.89,13.23-10.89A9.19,9.19,0,0,0,51,45.34a5,5,0,0,0,2.12-4.14,4.84,4.84,0,0,0-4.69-5,4.47,4.47,0,0,0-2.12.54L46.14,35l2.75-1.5a9.31,9.31,0,0,0,1.47,2L51.89,37a3.37,3.37,0,0,0,2.32.86,3.29,3.29,0,0,0,.88-.12l1.9-.53a3.35,3.35,0,0,0,2.3-2.33l.3-1.51A13.27,13.27,0,0,0,59.17,27.34ZM8.73,11.42c.18-.27.71-.39,1.38-.32l6.09.64V13a1.08,1.08,0,1,0,2.16,0V11.32a1,1,0,0,0,.09-.14A5.1,5.1,0,0,1,20.8,8.44C23.74,7,31.9,3.07,34.32,2.54a10.14,10.14,0,0,1,3.91-.31l.25,0a6.39,6.39,0,0,1,5.21,3.05,6.67,6.67,0,0,1,.92,3.85L44.38,14a1.08,1.08,0,0,0,.47.94l3.5,2.39h-37l-.23-.14L8.92,12.82A1.56,1.56,0,0,1,8.73,11.42ZM2.16,37.86a2.69,2.69,0,0,1,4.42-2.06,14.53,14.53,0,0,0-3.65,3.94A2.69,2.69,0,0,1,2.16,37.86Zm46.29.54A2.68,2.68,0,0,1,51,41.2a2.9,2.9,0,0,1-1.05,2.27,11.86,11.86,0,0,0-3.13-2.94l-.15-1.26A2.39,2.39,0,0,1,48.46,38.4Zm-4.35-2.16a1.26,1.26,0,0,0,0,.14l.09.73.09.82a1.13,1.13,0,0,0,0,.15l.4,3.24a1.08,1.08,0,0,0,.52.8c2.83,1.67,4.45,4.22,4.45,7,0,4.82-5,8.73-11.07,8.73a12.27,12.27,0,0,1-8.72-3.36,1.08,1.08,0,0,0-1.44-.08A16.77,16.77,0,0,1,18,57.84c-8.15,0-14.79-5.28-14.79-11.78,0-3.52,2-6.83,5.38-9.08a1.08,1.08,0,0,0,.48-.76l.08-.61.09-.07-.07-.08,2.2-16H42.18c.41,3.4,1.16,10,1.65,14.34L37,37.5c-.12-.14-.24-.27-.36-.4a1.08,1.08,0,0,0,.07-.37V34a2.67,2.67,0,0,0-.06-.55h.06a1.08,1.08,0,0,0,1.08-1.08A4.08,4.08,0,0,0,34,28.09a4.08,4.08,0,0,0-3.78,4.32,1.08,1.08,0,0,0,1.08,1.08h.06a2.73,2.73,0,0,0-.06.55v.57l-.54,0a1.08,1.08,0,1,0,0,2.16,5.94,5.94,0,1,1-5.94,5.94,1.08,1.08,0,0,0-2.16,0A8.09,8.09,0,0,0,23,44.94c-4.09-2.61-7.39-3.4-9.84-2.36-3,1.27-3.42,4.68-3.44,4.83a1.08,1.08,0,0,0,.94,1.2h.13a1.08,1.08,0,0,0,1.07-1A4.21,4.21,0,0,1,14,44.56c1.49-.63,4.47-.48,10.18,3.83a1.06,1.06,0,0,0,1,.14,8.09,8.09,0,0,0,13-9.19l5.93-3.23S44.1,36.2,44.11,36.24ZM34,31.33a2.68,2.68,0,0,0-1.55.5A1.8,1.8,0,0,1,34,30.25a1.8,1.8,0,0,1,1.55,1.58A2.68,2.68,0,0,0,34,31.33Zm.54,2.7v1.2l-1.08-.36V34a.53.53,0,0,1,.54-.54A.55.55,0,0,1,34.57,34ZM52.34,24a9.36,9.36,0,0,1,3.46-.24,9.38,9.38,0,0,1-3.21,1.3h0a9.38,9.38,0,0,1-3.46.24A9.38,9.38,0,0,1,52.34,24Zm5.13,9-.3,1.51a1.28,1.28,0,0,1-.77.68l-1.9.53a1.4,1.4,0,0,1-1.08-.19L51.89,34a8.46,8.46,0,0,1-2.08-4.24l-.25-2.22.49,0a13.82,13.82,0,0,0,3-.37,12.78,12.78,0,0,0,3.31-1.23l.76,2.12A11.1,11.1,0,0,1,57.48,33Z"/></g></g></svg>