<svg xmlns="http://www.w3.org/2000/svg" viewBox="0 0 100 100"><defs><style>.cls-1{fill:#3fa9f5;}</style></defs><title>Asset 48</title><g id="Layer_2" data-name="Layer 2"><g id="layout"><path class="cls-1" d="M50,2A48,48,0,1,1,2,50,48.05,48.05,0,0,1,50,2M64,34.55a9.93,9.93,0,0,0-6.43-2.27,10.06,10.06,0,0,0-10.11,9.48,20.82,20.82,0,0,1-12.89-7.33l-1.84-2.26L31.31,34.7A9.79,9.79,0,0,0,30,39.76a10,10,0,0,0,.2,2l-.37-.25v3.91A9.36,9.36,0,0,0,30.5,49a11,11,0,0,0,1.36,2.35L32.74,54A10,10,0,0,0,37,59.38a14.68,14.68,0,0,1-4.87.81,5.46,5.46,0,0,1-1.46-.12l-11.6-2.9,10,6.52a24.58,24.58,0,0,0,13.45,3.86C57.21,67.54,64.86,57.1,67,48.14A24,24,0,0,0,67.54,43a13.81,13.81,0,0,0,3.73-3.92l4.18-6.27-5,2.48,1.24-4.56-4.15,2.31A16.87,16.87,0,0,1,64,34.55M50,0a50,50,0,1,0,50,50A50,50,0,0,0,50,0Zm-.35,44a5.44,5.44,0,0,1-.18-1.77,8.07,8.07,0,0,1,8.12-7.95,7.72,7.72,0,0,1,5.83,2.47,18,18,0,0,0,5.12-1.94A8,8,0,0,1,65,39.23,13.62,13.62,0,0,0,69.61,38a10.73,10.73,0,0,1-4.06,3.89v1.06A21.92,21.92,0,0,1,65,47.7c-2.12,9-9.71,17.84-22.43,17.84A22.51,22.51,0,0,1,30.22,62a7.24,7.24,0,0,0,1.94.18,16.43,16.43,0,0,0,10.07-3.36,8,8,0,0,1-7.59-5.48,4.89,4.89,0,0,0,1.59.18,8.86,8.86,0,0,0,2.12-.35,8.18,8.18,0,0,1-6-4.95,7.32,7.32,0,0,1-.53-2.83v-.18a7,7,0,0,0,3.71,1.06A8,8,0,0,1,33,35.69,23,23,0,0,0,49.65,44Z"/></g></g></svg>