<svg xmlns="http://www.w3.org/2000/svg" viewBox="0 0 96.43 100"><defs><style>.cls-1{fill:#4d4d4d;}</style></defs><title>Asset 67</title><g id="Layer_2" data-name="Layer 2"><g id="layout"><rect class="cls-1" x="28.57" y="10.71" width="3.57" height="14.43"/><rect class="cls-1" x="42.86" y="62.5" width="10.71" height="3.57"/><circle class="cls-1" cx="39.29" cy="44.64" r="3.57"/><path class="cls-1" d="M87.51,82.14h-25V72.62A26.76,26.76,0,0,0,75,50V46.27c4.07-.75,7.14-4,7.14-7.87S79.07,31.27,75,30.52v-.16h0V8.93h5.36V26.79h3.57V8.93h5.36a1.79,1.79,0,0,0,1.79-1.79V1.79A1.79,1.79,0,0,0,89.29,0H16.07a1.79,1.79,0,0,0-1.79,1.79V7.14a1.79,1.79,0,0,0,1.79,1.79h5.36V30.35h0v.16c-4.07.75-7.14,4-7.14,7.87s3.07,7.13,7.14,7.87V50a26.76,26.76,0,0,0,12.5,22.61v9.52h-25A8.93,8.93,0,0,0,0,91.07v7.14A1.79,1.79,0,0,0,1.79,100H94.64a1.79,1.79,0,0,0,1.79-1.79V91.07A8.93,8.93,0,0,0,87.51,82.14ZM78.57,38.39A4.6,4.6,0,0,1,75,42.58V34.2A4.6,4.6,0,0,1,78.57,38.39ZM17.86,3.57H87.5V5.36H17.86ZM71.43,8.93V28.57H25V8.93ZM17.86,38.39a4.6,4.6,0,0,1,3.57-4.19v8.38A4.6,4.6,0,0,1,17.86,38.39ZM25,50V32.14H71.43V50A23.21,23.21,0,0,1,25,50ZM37.5,74.53a26.62,26.62,0,0,0,21.43,0v7.61H37.5ZM54,85.71l-5.78,4.82-5.78-4.82ZM92.86,96.43H3.57V91.07a5.36,5.36,0,0,1,5.35-5.36H36.85l10.22,8.52a1.79,1.79,0,0,0,2.29,0l10.22-8.52H87.51a5.36,5.36,0,0,1,5.35,5.36Z"/><circle class="cls-1" cx="57.14" cy="44.64" r="3.57"/></g></g></svg>