<svg xmlns="http://www.w3.org/2000/svg" viewBox="0 0 99.14 100"><defs><style>.cls-1{fill:#4d4d4d;}</style></defs><title>Asset 70</title><g id="Layer_2" data-name="Layer 2"><g id="layout"><path class="cls-1" d="M0,42.09c0-1,.12-4.12,2.26-4.93S6.61,38.59,7,39A1.33,1.33,0,1,1,5.1,40.86a3.67,3.67,0,0,0-1.89-1.2s-.48.4-.54,2.51c-.18,6,4.49,7.59,4.54,7.61a1.33,1.33,0,1,1-.84,2.52A10.15,10.15,0,0,1,0,42.09ZM1.33,29.14H16.9c8,0,8.41,5,8.42,5.23a1.33,1.33,0,0,0,1.33,1.27h0A1.33,1.33,0,0,0,28,34.27c0-.08-.39-7.79-11.08-7.79H1.33a1.33,1.33,0,1,0,0,2.66Zm0-4.07H17.91a1.33,1.33,0,1,0,0-2.66H1.33a1.33,1.33,0,1,0,0,2.66ZM27.56,41.92a1.33,1.33,0,0,0-1.33,1.33V60.87h-2.7A1.33,1.33,0,0,0,22.2,62.3a11.6,11.6,0,0,1-.51,3.77c-2.59-.62-6.36-2.07-6.36-4a1.33,1.33,0,0,0-2.66,0c0,3.88,5.05,5.74,7.88,6.48a8.14,8.14,0,0,1-.83,1.06c-1.84,2-4.65,3-8.35,3a1.33,1.33,0,0,0,0,2.66c4.49,0,8-1.3,10.32-3.85a12.83,12.83,0,0,0,3.15-7.84h2.72a1.33,1.33,0,0,0,1.33-1.33V43.25A1.33,1.33,0,0,0,27.56,41.92Zm62.62-.68c-2.13-.81-4.35,1.42-4.77,1.88a1.33,1.33,0,1,0,1.94,1.82,3.87,3.87,0,0,1,1.88-1.21s.49.4.55,2.52c.17,5.89-4.34,7.54-4.54,7.61a1.33,1.33,0,0,0,.85,2.52,10.15,10.15,0,0,0,6.36-10.21C92.41,45.15,92.32,42.05,90.18,41.24ZM81.08,78c-4.49,0-8-1.3-10.32-3.85a12.83,12.83,0,0,1-3.15-7.84H64.89a1.33,1.33,0,0,1-1.33-1.33V52.34a1.33,1.33,0,1,1,2.66,0V63.62h2.7a1.33,1.33,0,0,1,1.33,1.43,11.45,11.45,0,0,0,.28,2.88,5.45,5.45,0,0,0,4.08-5,4,4,0,0,1,4-3.55l.43,0a4,4,0,0,1,3.53,4.4,13.37,13.37,0,0,1-6.86,10.56,13.86,13.86,0,0,0,5.41,1,1.33,1.33,0,0,1,0,2.66Zm-8.35-5.64c.1.11.22.21.33.31a10.74,10.74,0,0,0,6.83-9.16A1.33,1.33,0,0,0,78.71,62h-.14a1.34,1.34,0,0,0-1.33,1.18,8.11,8.11,0,0,1-5.84,7.22A8.41,8.41,0,0,0,72.73,72.34ZM67.18,42.4a1.33,1.33,0,0,0-1.33-1.33H61.52a1.33,1.33,0,0,0-1.33,1.33v9.14a1.33,1.33,0,1,0,2.66,0V43.73h3A1.33,1.33,0,0,0,67.18,42.4Zm15.57,1.33a1.33,1.33,0,0,0,0-2.66H68.84a1.33,1.33,0,0,0,0,2.66ZM81.09,21.6h0C71.94,21.6,64,29,63,38.35a1.33,1.33,0,1,0,2.64.28c.84-8.06,7.6-14.37,15.4-14.37h0c7.79,0,14.56,6.31,15.4,14.37a1.33,1.33,0,0,0,1.32,1.19h.14a1.33,1.33,0,0,0,1.18-1.46C98.15,29,90.23,21.6,81.09,21.6ZM3.18,78.09A1.33,1.33,0,0,0,3,80.74c.14,0,14,1.22,14,11.84v6.09a1.33,1.33,0,1,0,2.66,0v-6.1C19.6,82.14,8.86,78.53,3.18,78.09ZM88.57,81c-5.68.45-16.41,4-16.41,14.49v3.09a1.33,1.33,0,1,0,2.66,0V95.44c0-10.59,13.39-11.79,14-11.84A1.33,1.33,0,0,0,88.57,81ZM60.92,29.48a8,8,0,0,1-3.58-1.15,16.67,16.67,0,0,1-24-.06c-3,1.64-5,1.55-5.93.06-.56-.89-.8-2.44,2.1-6.45a16.54,16.54,0,0,1-.84-5.18,16.7,16.7,0,1,1,32.5,5.36c2.77,3.89,2.52,5.4,2,6.27A2.52,2.52,0,0,1,60.92,29.48Zm-.13-2.67a12.75,12.75,0,0,0-2.17-3.75,1.33,1.33,0,0,1-.17-1.28,14,14,0,1,0-26.2-.15,1.33,1.33,0,0,1-.18,1.27,13.26,13.26,0,0,0-2.29,3.9,8.41,8.41,0,0,0,3.15-1.36,1.33,1.33,0,0,1,1.71.28,14,14,0,0,0,21.43.07,1.33,1.33,0,0,1,1.69-.28A8.18,8.18,0,0,0,60.79,26.81ZM50.85,16.26a5.44,5.44,0,1,1-5.44-5.44A5.45,5.45,0,0,1,50.85,16.26Zm-2,0a3.45,3.45,0,1,0-3.45,3.45A3.45,3.45,0,0,0,48.85,16.26ZM45.29,8.7a1,1,0,0,0,1-1v-2a1,1,0,0,0-2,0v2A1,1,0,0,0,45.29,8.7ZM56,15.15H54a1,1,0,1,0,0,2h2a1,1,0,0,0,0-2Zm-19.13.24h-2a1,1,0,0,0,0,2h2a1,1,0,0,0,0-2ZM53.26,8.24a.67.67,0,0,0-.94,0L50.91,9.65a.67.67,0,0,0,.94.94l1.41-1.41A.66.66,0,0,0,53.26,8.24Zm-14.94.17a.66.66,0,0,0-.94.94l1.41,1.41a.67.67,0,0,0,.94-.94ZM47.53,22.3a6.16,6.16,0,0,1-4.25,0,.67.67,0,0,0-.45,1.25,7.48,7.48,0,0,0,5.15,0,.67.67,0,0,0-.45-1.25Zm0,1.82a6.16,6.16,0,0,1-4.25,0,.67.67,0,0,0-.45,1.25,7.48,7.48,0,0,0,5.15,0,.67.67,0,0,0-.45-1.25ZM46.39,26.3a3.34,3.34,0,0,1-2,0A.67.67,0,1,0,44,27.57a4.67,4.67,0,0,0,2.75,0,.67.67,0,1,0-.39-1.27Z"/></g></g></svg>