<svg xmlns="http://www.w3.org/2000/svg" viewBox="0 0 99.98 100"><defs><style>.cls-1{fill:#4d4d4d;}</style></defs><title>Asset 72</title><g id="Layer_2" data-name="Layer 2"><g id="layout"><path class="cls-1" d="M64.08,0A35.93,35.93,0,0,0,37.49,60.11L32.56,65a7.5,7.5,0,0,0-4-1.15,7.65,7.65,0,0,0-5.39,2.23L2.23,87a7.64,7.64,0,0,0,0,10.78A7.56,7.56,0,0,0,7.62,100,7.65,7.65,0,0,0,13,97.77L33.89,76.89a7.63,7.63,0,0,0,.9-9.69l4.86-4.86A35.94,35.94,0,1,0,64.08,0ZM31.71,74.68,10.82,95.57a4.48,4.48,0,0,1-6.37,0,4.48,4.48,0,0,1,0-6.37L25.34,68.31A4.51,4.51,0,0,1,33,71.5,4.49,4.49,0,0,1,31.71,74.68Zm32.37-5.92A32.82,32.82,0,1,1,96.89,35.94,32.86,32.86,0,0,1,64.08,68.76Z"/><path class="cls-1" d="M92.07,26A29.72,29.72,0,0,0,85,14.91a30.17,30.17,0,0,0-11.17-7,1.56,1.56,0,0,0-1,2.95A26.85,26.85,0,0,1,89.12,27.08a1.55,1.55,0,0,0,1.47,1,1.26,1.26,0,0,0,.53-.1A1.52,1.52,0,0,0,92.07,26Z"/><path class="cls-1" d="M79.25,20.1a.82.82,0,0,0-.12-.49c-.12-.2-2.58-4.1-11.26-5.24v0a.85.85,0,0,0-.63-.27H57.86a.85.85,0,0,0-.63.27s-.06.12-.1.16c-8,1.27-10.89,4.81-11,5a.78.78,0,0,0-.18.59l.84,13.54V46.66c0,4,2,7.56,6.19,11l0,.06a.87.87,0,0,0,.55.59.67.67,0,0,0,.27,0,.81.81,0,0,0,.51-.18l1.45-1.09,1.49,1.82a.87.87,0,0,0,.67.31h9.3a.91.91,0,0,0,.67-.31L69.41,57l1.66,1.15a.87.87,0,0,0,.49.16.8.8,0,0,0,.3-.06s0,0,.06,0l0,0,0,0a.69.69,0,0,0,.28-.25l.32-.27c3.88-3.52,5.86-7.23,5.86-11v-13ZM76.66,32.82v.76l-.14,2c-.43.14-1.11.37-2,.63a.77.77,0,0,0-.35.08s0,0-.06,0l-.31.08L77,27.82l-.31,5h0ZM70.93,56.18,69.21,55a.84.84,0,0,0,.47-.43l3.48-7.25Zm-18.87-8.5,3.3,6.88a.84.84,0,0,0,.45.41l-1.54,1.17ZM48.53,32.9l-.36-4.18,2.36,7.56c-.86-.23-1.5-.45-1.93-.61l-.07-2v-.82h0ZM63,15.8c1.15,0,2.23.06,3.22.14l-1.5,14.34H60.32L58.82,16A38.89,38.89,0,0,1,63,15.8ZM58.7,31.28a.85.85,0,0,0,.84.76h6a.85.85,0,0,0,.84-.76L67.4,21.2c5.74.63,8.24,2.42,9,3.13L71.73,36.88c-.14.06-.33.12-.57.2a44.2,44.2,0,0,1-8.65.92,44,44,0,0,1-10.06-1.23L48.6,24.42c.92-.7,3.63-2.4,9-3.11Zm-9.23,6.47-.86,1.89a.77.77,0,0,0-.08.35V37.43Zm9.34,13.51-1,2.07H56.72L50.36,40.09l.79-1.76a3.1,3.1,0,0,0,.41.1,6.41,6.41,0,0,0,.93.31l-.27,1.32,8,1.59L60.53,40l-1.38-.27c1,.06,2.11.1,3.35.1s2.37,0,3.35-.1l-1.4.27.33,1.65,8-1.59-.29-1.42c.48-.12.95-.21,1.36-.33l.79,1.76L68.33,53.33H67.26l-1-2.07a.82.82,0,0,0-.76-.47H59.57A.85.85,0,0,0,58.81,51.26ZM75.73,37.74l.94-.29V40a.72.72,0,0,0-.08-.35ZM77.4,20.38l-.16,2.42c-1.27-1-4.12-2.68-9.67-3.28l.35-3.32C74.35,17.11,76.83,19.67,77.4,20.38Zm-20.28-4,.35,3.28c-5.43.7-8.38,2.36-9.67,3.28l-.16-2.46C48.37,19.69,51.14,17.35,57.12,16.35ZM48.53,46.77V40a1.37,1.37,0,0,0,.06.27.84.84,0,0,0,0,.49l3.63,13.91C49.76,52.16,48.53,49.54,48.53,46.77ZM66.72,57.63H58.31l-1.18-1.43,1.67-1.28,0,0A1.25,1.25,0,0,0,59,54.7l0-.06,0,0,1-2.07h4.87l1,2.07a.92.92,0,0,0,.43.39.78.78,0,0,0,.27.35l1.2.85ZM73,54.76l3.5-14a.83.83,0,0,0,0-.49.69.69,0,0,0,.06-.27v6.76C76.49,49.46,75.28,52.14,73,54.76Z"/></g></g></svg>