<svg xmlns="http://www.w3.org/2000/svg" viewBox="0 0 107.71 100"><defs><style>.cls-1,.cls-2{fill:#b3b3b3;}.cls-2{fill-opacity:0.5;}</style></defs><title>Asset 64</title><g id="Layer_2" data-name="Layer 2"><g id="layout"><path class="cls-1" d="M106,95.46,98.78,76V54.11c0-.31.12-7.54-5.54-10.69,0,0-.12,0-.12-.15l-2.58-.92L83,38.88,54.77,26.15c-1.31-.65-2.69.15-3.27,1.58a2.91,2.91,0,0,0,1.42,3.62L77.24,42.26l.15.08,1.69.77L83.16,45l1.65.73L91,48.46c2.85,1.58,2.85,5.5,2.85,5.65V76L86.16,95.77a3.16,3.16,0,0,0,.15,2.5,2.36,2.36,0,0,0,2,1.27H104a2.51,2.51,0,0,0,2.39-2.65A2.16,2.16,0,0,0,106,95.46Z"/><path class="cls-2" d="M85.32,82.73,58.43,98.62A11.1,11.1,0,0,1,52.77,100a11.1,11.1,0,0,1-5.65-1.38L20,82.73c-3.54-2-5.54-7.08-4.39-11.46l6.77-25.81L28,48.76,47.54,60.23c.69.35,1.42.65,2.12,1l6.23.46v-.08a10.05,10.05,0,0,0,4.23-1.42L77.7,49.73l0,.12,2.92-1.69L84,49.57,89.7,71.27C90.85,75.5,88.85,80.69,85.32,82.73Z"/><line class="cls-1" x1="80.93" y1="48" x2="80.66" y2="48.15"/><path class="cls-1" d="M107.7,28.34a6.59,6.59,0,0,1-3.54,6l-44,25.93c-3.82,2.42-9.12,2.46-12.58,0L28,48.76,3.54,34.46A6.59,6.59,0,0,1,0,28.65C0,26.3,1.54,24.26,4,23L47.54,1.3A15.6,15.6,0,0,1,60,1.3l43.73,21.39A7,7,0,0,1,107.7,28.34Z"/></g></g></svg>