<svg xmlns="http://www.w3.org/2000/svg" viewBox="0 0 99.99 100"><defs><style>.cls-1{fill:#2e3192;}</style></defs><title>Asset 47</title><g id="Layer_2" data-name="Layer 2"><g id="layout"><g id="svg_1" data-name="svg 1"><path id="svg_2" data-name="svg 2" class="cls-1" d="M47,.09A50,50,0,1,0,71.73,5,50.1,50.1,0,0,0,47,.09ZM67.38,27.31l0,5.45-5.3.06c-6,.07-5.63,0-6.27,1s-.7,1.41-.7,5.7v3.9H67.41V53.69H55.07V84.36H43.2V53.69H32.59V43.43H43.2v-3.7c0-4,.12-5.27.65-7.1,1.45-5,5.33-9,9.88-10.24,1.66-.45,2.37-.48,8.24-.51h5.44Z"/></g></g></g></svg>