<svg xmlns="http://www.w3.org/2000/svg" viewBox="0 0 79.3 100"><defs><style>.cls-1{fill:#b3b3b3;}</style></defs><title>Asset 12</title><g id="Layer_2" data-name="Layer 2"><g id="layout"><path class="cls-1" d="M39.67,2a4.87,4.87,0,0,1,1.94.42,8.31,8.31,0,0,1,1.94,1.64c.62.9.7,1.16.8,5.73l.22,5.43.06,1.48,1.43.38,2.09.55a47,47,0,0,1,5.62,2.3c3,1.57,4.2,2.47,7.35,5.61,5.92,5.92,8.44,11.42,9.29,20.26.28,3.34,1.18,11.49,1.45,13.93L73,68.81l.09.78.6.51,1.45,1.23A5.3,5.3,0,0,1,77.28,76v.08c.08,1.92-.14,2.11-1.16,2.55-1.81.24-15,.5-36.44.5S5,78.87,3.17,78.63c-1-.43-1.23-.63-1.15-2.54V76a5.29,5.29,0,0,1,2.14-4.65l1.53-1.2.66-.52.09-.83,1-9c.29-2.56.61-5.49.9-8.11.26-2.37.49-4.49.66-5.9.85-9.07,3.25-14.35,9.2-20.19,4.11-4.21,7.84-6.54,12.54-7.79l2.66-.78,1.41-.41,0-1.47.11-5.43C35,5.1,35.12,5,35.87,4a4.73,4.73,0,0,1,3.8-2m0-2a6.73,6.73,0,0,0-5.4,2.83c-1.11,1.44-1.22,1.88-1.33,6.87l-.11,5.43-2.66.78c-5,1.33-9.09,3.88-13.41,8.31-6.32,6.21-8.87,12-9.76,21.4-.33,2.88-1,9.09-1.55,14l-1,9L2.9,69.79A7.29,7.29,0,0,0,0,76c-.11,2.66.44,3.66,2.55,4.55,1.05.39,19.1.58,37.13.58s36-.19,37-.58c2.11-.89,2.66-1.88,2.55-4.55a7.29,7.29,0,0,0-2.88-6.21L75,68.57l-1.11-9.09c-.55-5-1.22-11.2-1.44-13.86-.89-9.2-3.55-15.19-9.87-21.51-3.33-3.33-4.66-4.32-7.87-6a48.67,48.67,0,0,0-6-2.44l-2.11-.55L46.35,9.7c-.11-5-.22-5.43-1.22-6.87A10.14,10.14,0,0,0,42.47.61,6.88,6.88,0,0,0,39.67,0Z"/><path class="cls-1" d="M49.22,90.31A9.78,9.78,0,0,1,39.63,98,10.25,10.25,0,0,1,33,95.55a13.21,13.21,0,0,1-2.91-5.24h19.1m2.35-2H27.73L28,89.86a15,15,0,0,0,3.77,7.21A12.29,12.29,0,0,0,39.63,100,11.83,11.83,0,0,0,51.34,89.86l.22-1.55Z"/></g></g></svg>