<svg xmlns="http://www.w3.org/2000/svg" viewBox="0 0 100 100"><defs><style>.cls-1{fill:#3fa9f5;}</style></defs><title>Asset 50</title><g id="Layer_2" data-name="Layer 2"><g id="layout"><path class="cls-1" d="M98.23,36.77a50,50,0,1,1-35-35v9.17A41.19,41.19,0,1,0,89.05,36.77ZM86.56,13.41V3.83H79.66v9.59H70.13v6.89h9.53v9.59h6.89V20.31h9.59V13.41Zm-61,26.71h5V68.26H39V32.66H25.55Zm47,5.36A7.17,7.17,0,0,0,74,41a8.36,8.36,0,0,0-3-6.64,11.46,11.46,0,0,0-7.74-2.59,11.79,11.79,0,0,0-7.74,2.55,7.91,7.91,0,0,0-3.1,6.36,8.63,8.63,0,0,0,.82,3.85,7.25,7.25,0,0,0,2,2.57,12.83,12.83,0,0,0,2.91,1.65s.06,0,.06.05.06,0,.06.05h.06v.05q-1.08.59-2.09,1.19a10.27,10.27,0,0,0-1.75,1.29,9,9,0,0,0-1.3,1.51,8.86,8.86,0,0,0-.92,1.73,9.59,9.59,0,0,0-.54,2,13.8,13.8,0,0,0-.17,2.25,9.59,9.59,0,0,0,3.17,7.57q3.17,2.8,8.63,2.8a12.38,12.38,0,0,0,8.53-2.83A9.59,9.59,0,0,0,75,58.82a10.41,10.41,0,0,0-1.83-6,10.86,10.86,0,0,0-5.16-4A12.29,12.29,0,0,0,72.58,45.49ZM63.33,62.85Q60,62.85,60,57.73q0-4.8,3.3-4.8t3.16,5.23Q66.43,62.85,63.33,62.85Zm0-17.36a2,2,0,0,1-1.8-.87A5.87,5.87,0,0,1,61,41.67q0-3.44,2.28-3.44t2.22,3.87Q65.49,45.49,63.33,45.49Z"/></g></g></svg>