<svg xmlns="http://www.w3.org/2000/svg" viewBox="0 0 50.64 60"><defs><style>.cls-1{fill:#4d4d4d;}</style></defs><title>Asset 75</title><g id="Layer_2" data-name="Layer 2"><g id="layout"><path class="cls-1" d="M49.84,0a1.1,1.1,0,0,0-1.3.59L44.23,9.7A19.69,19.69,0,0,0,27.52.55h-4.4A20,20,0,0,0,6.35,9.8L2.1.64A1.1,1.1,0,0,0,0,1.22L3.3,30.34v3.24l.08.41,3.21,8L6.06,50.3a1.1,1.1,0,0,0,.36.88l9.36,8.53a1.1,1.1,0,0,0,.74.29H34.13a1.1,1.1,0,0,0,.74-.29l9.36-8.53a1.1,1.1,0,0,0,.36-.88L44.05,42l3.21-8,.08-.41v-2.7l3.3-29.66A1.1,1.1,0,0,0,49.84,0ZM45.14,33.37l-3.22,8.06a1.1,1.1,0,0,0-.08.48l.52,8L33.7,57.8H16.94L8.29,49.91l.52-8a1.11,1.11,0,0,0-.08-.48L5.5,33.37v-1l9.82,7a1.1,1.1,0,0,0,1,.15l4.36-1.45L24.05,41a1.1,1.1,0,0,0,1.43,0l3.3-2.83,3.75,1.87a1.1,1.1,0,0,0,1.1-.07l11.5-7.67Zm-.88-5.13L32.56,36,29,34.23a1.1,1.1,0,0,0-1.21.15L24.8,36.91l-3-2.55a1,1,0,0,0-.68-.25,1.05,1.05,0,0,0-.33.05l-4.2,1.4L6.45,28.3,4.09,7.47l2.19,4.72a1,1,0,0,0,.94.61,1,1,0,0,0,.95-.59A16.83,16.83,0,0,1,23.23,2.75h4.18a16.63,16.63,0,0,1,15,9.33,1,1,0,0,0,.94.58h0a1,1,0,0,0,.94-.6l2.29-4.82Z"/><path class="cls-1" d="M26.42,44.59h-3.3l-.2,0-7.14,1.3.39,2.17,7-1.28h3.1l7,1.28.39-2.17-7.14-1.3Z"/><rect class="cls-1" x="22.02" y="50.09" width="5.5" height="2.2"/><path class="cls-1" d="M38.29,25.35l-9.91,2.2a1.1,1.1,0,0,0-.48,1.91l3.85,3.3a1.1,1.1,0,0,0,1.46,0l6.06-5.5a1.1,1.1,0,0,0-1-1.89Zm-5.84,5.11L31,29.22l3.71-.83Z"/><path class="cls-1" d="M21.16,27.55l-9.91-2.2a1.1,1.1,0,0,0-1,1.89l6.06,5.5a1.1,1.1,0,0,0,1.46,0l3.85-3.3a1.1,1.1,0,0,0-.48-1.91Zm-4.07,2.91L14.82,28.4l3.71.83Z"/></g></g></svg>