<svg xmlns="http://www.w3.org/2000/svg" viewBox="0 0 100 100"><defs><style>.cls-1{fill:#3fa9f5;}</style></defs><title>Asset 51</title><g id="Layer_2" data-name="Layer 2"><g id="layout"><path class="cls-1" d="M98.23,36.77a50,50,0,1,1-35-35v9.17A41.19,41.19,0,1,0,89.05,36.77ZM86.56,13.41V3.83H79.66v9.59H70.13v6.89h9.53v9.59h6.89V20.31h9.59V13.41ZM35.37,44.55a14.48,14.48,0,0,1,.51-4.79,2.34,2.34,0,0,1,3.93-.28,3.89,3.89,0,0,1,.7,2.4,12.18,12.18,0,0,1-2.34,6.51L25.44,68.26H47.7V61H39.84l4.79-7.47A35.79,35.79,0,0,0,48,47.18a15.13,15.13,0,0,0,1.11-5.4q0-4.88-2.89-7.47t-8.3-2.59a13.9,13.9,0,0,0-5.65,1.05,7.92,7.92,0,0,0-3.54,2.8,10.07,10.07,0,0,0-1.52,4,41.52,41.52,0,0,0-.37,6.27h8.56Zm23.4-4.43h5V68.26h8.44V32.66H58.78Z"/></g></g></svg>