<svg xmlns="http://www.w3.org/2000/svg" viewBox="0 0 100 100"><defs><style>.cls-1{fill:#4d4d4d;}</style></defs><title>Asset 23</title><g id="Layer_2" data-name="Layer 2"><g id="layout"><path class="cls-1" d="M99.32,99.29a2.38,2.38,0,0,1-1.7.71H2.38a2.38,2.38,0,0,1-1.69-.71A2.41,2.41,0,0,1,0,97.58c0-1.2.35-11.88,6-17.52C8.59,77.46,14,74.64,22,70.63c8.55-4.27,13.29-6.82,15.48-8.88l4.82-4.56-4.19-5.14C31.56,44,27.78,35,27.78,27.51c0-5.78,0-12.33,2.73-17.75C33.79,3.29,40.34,0,50,0S66.22,3.29,69.49,9.76c2.73,5.42,2.73,12,2.73,17.75,0,7.49-3.78,16.44-10.38,24.54L57.66,57.2l4.82,4.56c2.18,2.06,6.92,4.61,15.47,8.88,8,4,13.46,6.83,16.06,9.43,4.59,4.59,5.92,13.17,6,17.52A2.38,2.38,0,0,1,99.32,99.29Z"/></g></g></svg>