<svg xmlns="http://www.w3.org/2000/svg" viewBox="0 0 100 100"><defs><style>.cls-1{fill:#4d4d4d;}</style></defs><title>Asset 71</title><g id="Layer_2" data-name="Layer 2"><g id="layout"><g id="_10-Email" data-name=" 10-Email"><path class="cls-1" d="M93.7,22.14V1.22A1.22,1.22,0,0,0,92.48,0h-85A1.22,1.22,0,0,0,6.29,1.22V22.14A7.51,7.51,0,0,0,0,29.54v63A7.52,7.52,0,0,0,7.51,100h85A7.53,7.53,0,0,0,100,92.49v-63A7.51,7.51,0,0,0,93.7,22.14Zm0,2.48a5.13,5.13,0,0,1,3.47,3L93.7,29.93ZM8.73,2.44H91.26V31.59L50,59.54,8.73,31.61ZM6.29,24.62V30L2.82,27.61A5.07,5.07,0,0,1,6.29,24.62ZM2.43,30.29,34.19,51.78,2.43,83.54Zm95.13,62.2a5.09,5.09,0,0,1-5.08,5.07h-85a5.09,5.09,0,0,1-5.08-5.07V87L36.24,53.17,49.33,62a1.21,1.21,0,0,0,1.36,0l13.08-8.87L97.56,87Zm0-9L65.82,51.77l31.74-21.5Z"/><rect class="cls-1" x="13.8" y="7.87" width="3.15" height="2.44"/><rect class="cls-1" x="21.67" y="7.87" width="3.15" height="2.44"/><rect class="cls-1" x="13.8" y="14.16" width="18.88" height="2.44"/><rect class="cls-1" x="24.82" y="23.6" width="50.35" height="2.44"/><rect class="cls-1" x="27.97" y="31.47" width="44.06" height="2.44"/><rect class="cls-1" x="35.83" y="39.34" width="28.32" height="2.44"/><path class="cls-1" d="M84.61,16.6H78.32a1.22,1.22,0,0,1-1.22-1.22V9.09a1.22,1.22,0,0,1,1.22-1.22h6.29a1.22,1.22,0,0,1,1.22,1.22v6.29A1.22,1.22,0,0,1,84.61,16.6Zm-5.07-2.44h3.86V10.31H79.54Z"/></g></g></g></svg>