<svg xmlns="http://www.w3.org/2000/svg" viewBox="0 0 100 100"><defs><style>.cls-1{fill:#3fa9f5;}</style></defs><title>Asset 60</title><g id="Layer_2" data-name="Layer 2"><g id="layout"><path class="cls-1" d="M50,0A50,50,0,1,1,0,50,50,50,0,0,1,50,0ZM69.61,38A13.63,13.63,0,0,1,65,39.23a8,8,0,0,0,3.53-4.42,18,18,0,0,1-5.12,1.94,7.72,7.72,0,0,0-5.83-2.47,8.07,8.07,0,0,0-8.12,7.95A5.44,5.44,0,0,0,49.65,44,23,23,0,0,1,33,35.69a8,8,0,0,0,2.47,10.6,7,7,0,0,1-3.71-1.06v.18a7.32,7.32,0,0,0,.53,2.83,8.18,8.18,0,0,0,6,4.95,8.87,8.87,0,0,1-2.12.35,4.89,4.89,0,0,1-1.59-.18,8,8,0,0,0,7.59,5.48,16.43,16.43,0,0,1-10.07,3.36A7.25,7.25,0,0,1,30.22,62a22.51,22.51,0,0,0,12.36,3.53C55.3,65.54,62.89,56.71,65,47.7a21.92,21.92,0,0,0,.53-4.77V41.88A10.73,10.73,0,0,0,69.61,38Z"/></g></g></svg>