<svg xmlns="http://www.w3.org/2000/svg" viewBox="0 0 120 120"><defs><style>.cls-1{fill:#4d4d4d;}</style></defs><title>Asset 77</title><g id="Layer_2" data-name="Layer 2"><g id="layout"><g id="presentation-training-teaching-meeting-discussion"><path class="cls-1" d="M18.75,33.75A11.25,11.25,0,1,0,30,22.5,11.26,11.26,0,0,0,18.75,33.75Zm18.75,0a7.5,7.5,0,1,1-7.5-7.5A7.51,7.51,0,0,1,37.5,33.75Z"/><path class="cls-1" d="M57.58,53.83,70.7,40.7a1.87,1.87,0,0,0,0-2.65l-5.62-5.62a1.87,1.87,0,0,0-2.55-.1L49.62,43.39,37.12,48.75H15a1.87,1.87,0,0,0-1.41.64L.46,64.39A1.87,1.87,0,0,0,.1,66.22L5.72,83.09a1.88,1.88,0,0,0,2.62,1.08l7.5-3.75a1.85,1.85,0,0,0,1-1.64v31.84A9.39,9.39,0,0,0,26.25,120h15a1.87,1.87,0,0,0,1.88-1.87v-57l14-7A1.8,1.8,0,0,0,57.58,53.83ZM16.87,78.71a1.79,1.79,0,0,0-.13-.66L13.4,69.69l3.48-4.35ZM40.41,58.32a1.88,1.88,0,0,0-1,1.68v56.25h-7.5v-30a1.88,1.88,0,0,0-3.75,0v30H26.25a5.63,5.63,0,0,1-5.62-5.62V60a1.88,1.88,0,0,0-3.34-1.17L9.79,68.2a1.88,1.88,0,0,0-.28,1.87l3.11,7.77-4,2L4,66.05,15.85,52.5H37.5a1.85,1.85,0,0,0,.74-.15l13.13-5.62a1.89,1.89,0,0,0,.48-.3L63.65,36.31l3.07,3.07L55.14,51Z"/><polygon class="cls-1" points="26.25 60 28.13 60 28.13 75 31.88 75 31.88 60 33.75 60 33.75 56.25 26.25 56.25 26.25 60"/><path class="cls-1" d="M120,93.75a11.24,11.24,0,0,0-20.63-6.21,11.23,11.23,0,0,0-18.75,0A11.24,11.24,0,1,0,65,103.13a11.24,11.24,0,0,0-5,9.38V120h3.75v-7.5a7.5,7.5,0,0,1,15,0V120H82.5v-7.5a7.5,7.5,0,0,1,15,0V120h3.75v-7.5a7.5,7.5,0,0,1,15,0V120H120v-7.5a11.25,11.25,0,0,0-5-9.37A11.25,11.25,0,0,0,120,93.75Zm-30-7.5a7.5,7.5,0,1,1-7.5,7.5A7.51,7.51,0,0,1,90,86.25Zm-26.25,7.5a7.5,7.5,0,1,1,7.5,7.5A7.51,7.51,0,0,1,63.75,93.75Zm16.87,12.54a11.33,11.33,0,0,0-3.17-3.17A11.33,11.33,0,0,0,80.62,100a11.33,11.33,0,0,0,3.17,3.17A11.33,11.33,0,0,0,80.62,106.29Zm18.75,0a11.33,11.33,0,0,0-3.17-3.17A11.33,11.33,0,0,0,99.37,100a11.33,11.33,0,0,0,3.17,3.17A11.33,11.33,0,0,0,99.37,106.29Zm9.38-5a7.5,7.5,0,1,1,7.5-7.5A7.51,7.51,0,0,1,108.75,101.25Z"/><path class="cls-1" d="M118.12,0H48.75a1.87,1.87,0,0,0-1.87,1.88V37.5h3.75V3.75h65.63V54.38A5.63,5.63,0,0,1,110.62,60H52.5v3.75h58.13A9.39,9.39,0,0,0,120,54.38V1.88A1.87,1.87,0,0,0,118.12,0Z"/><path class="cls-1" d="M78.75,9.38H60a1.87,1.87,0,0,0-1.87,1.88v7.5A1.87,1.87,0,0,0,60,20.63H78.75a1.87,1.87,0,0,0,1.88-1.87V16.88h5.63v1.88a1.87,1.87,0,0,0,1.88,1.88h7.5v5.63h-7.5a1.87,1.87,0,0,0-1.87,1.88v7.5a1.87,1.87,0,0,0,1.88,1.88h7.5v5.63h-7.5A1.87,1.87,0,0,0,86.25,45v7.5a1.87,1.87,0,0,0,1.88,1.88h18.75a1.87,1.87,0,0,0,1.88-1.87V45a1.87,1.87,0,0,0-1.87-1.87h-7.5V37.5h7.5a1.87,1.87,0,0,0,1.88-1.87v-7.5a1.87,1.87,0,0,0-1.87-1.87h-7.5V20.63h7.5a1.87,1.87,0,0,0,1.88-1.87v-7.5a1.87,1.87,0,0,0-1.87-1.87H88.12a1.87,1.87,0,0,0-1.87,1.88v1.88H80.62V11.25A1.87,1.87,0,0,0,78.75,9.38Zm-1.87,7.5h-15V13.13h15ZM105,50.63H90V46.88h15Zm0-16.87H90V30h15ZM90,13.13h15v3.75H90Z"/><rect class="cls-1" x="60" y="24.38" width="20.63" height="3.75"/><rect class="cls-1" x="73.12" y="31.88" width="7.5" height="3.75"/><rect class="cls-1" x="75" y="39.38" width="5.63" height="3.75"/><rect class="cls-1" x="69.37" y="46.88" width="11.25" height="3.75"/><path class="cls-1" d="M7.5,18.75h.94L13.5,25.5a1.88,1.88,0,0,0,1.5.75,1.88,1.88,0,0,0,1.88-1.87V18.75H28.12a5.63,5.63,0,0,0,5.63-5.62V5.63A5.63,5.63,0,0,0,28.12,0H7.5A5.63,5.63,0,0,0,1.87,5.63v7.5A5.63,5.63,0,0,0,7.5,18.75ZM5.62,5.63A1.88,1.88,0,0,1,7.5,3.75H28.12A1.88,1.88,0,0,1,30,5.63v7.5A1.88,1.88,0,0,1,28.12,15H15a1.87,1.87,0,0,0-1.87,1.88v1.88l-2.25-3A1.87,1.87,0,0,0,9.37,15H7.5a1.88,1.88,0,0,1-1.87-1.87Z"/><rect class="cls-1" x="9.37" y="7.5" width="16.88" height="3.75"/></g></g></g></svg>