<svg xmlns="http://www.w3.org/2000/svg" viewBox="0 0 86.62 100"><defs><style>.cls-1{fill:#3fa9f5;}</style></defs><title>Asset 52</title><g id="Layer_2" data-name="Layer 2"><g id="layout"><path class="cls-1" d="M22.22,9c0-9.5,9.5-9,21.09-9S64.4-.48,64.4,9,54.9,34.46,43.31,34.46,22.22,18.52,22.22,9Z"/><path class="cls-1" d="M86.62,81.47C86.62,101.12,67.3,100,43.31,100S0,101,0,81.47C0,61.83,19.32,29.15,43.31,29.15,67.3,29.31,86.62,62,86.62,81.47ZM24,68.27A19.32,19.32,0,1,0,43.31,48.95,19.32,19.32,0,0,0,24,68.27Z"/><path class="cls-1" d="M41.7,83.89h3.06v-4c4.83-.81,6.6-3.54,6.6-6.92S49.59,67.63,45.24,66c-3.22-1.29-4.51-1.93-4.51-3.22,0-1.13.81-2.09,3.22-2.09A10.87,10.87,0,0,1,49.27,62l1-4.19c-1.13-.64-2.25-1.13-5.47-1.29V53.3H41.54v3.38c-4.83.81-6.28,3.38-6.28,6.6,0,3.54,2.58,5.47,6.6,6.76,2.9,1,4,1.77,4,3.22s-1.45,2.25-3.54,2.25a13.69,13.69,0,0,1-6.12-1.61l-1,4.35a13.71,13.71,0,0,0,6.44,1.61v4Z"/></g></g></svg>