<svg xmlns="http://www.w3.org/2000/svg" viewBox="0 0 224.13 261.97"><defs><style>.cls-1{fill:#666;}.cls-2{fill:#ef5454;}</style></defs><title>Asset 80</title><g id="Layer_2" data-name="Layer 2"><g id="layout"><rect class="cls-1" x="117.41" y="237.47" width="24.94" height="2.63" transform="translate(-109.66 367.26) rotate(-89.66)"/><polygon class="cls-2" points="129.19 168.48 145.27 220.14 129.78 231.31 116.59 223.64 129.19 168.48"/><path class="cls-1" d="M171.13,148.53c24.12-1.44,41.3-21.12,41.3-47.87,0-29.43-19.63-53.39-43.77-53.39H93.2c-24.44,0-44.35,21.6-44.35,48.16v5.07c0,26.54,19.92,48.13,44.35,48.13h1.94c-17.05,2.34-34.52,6.44-40.25,18.29-7.67,15.79-6.31,42-5,67.39.5,9.72,1,18.89,1,27.51h2.63c0-8.7-.5-18.34-1-27.64-1.29-25-2.6-50.95,4.76-66.13,6.41-13.24,30.45-16,49.79-18.23,1.71-.18,3.36-.39,5-.58L107.73,152a1.36,1.36,0,0,0-.6,1,1.3,1.3,0,0,0,.47,1.08L128.67,172a1.22,1.22,0,0,0,.39.24,1,1,0,0,0,.47.11,1.22,1.22,0,0,0,.45-.08l.18-.08.21-.13,21.07-11.48a1.28,1.28,0,0,0,.66-.95,1.3,1.3,0,0,0-.32-1.1L143,149c4.39.47,8.93.74,13.32,1,18.44,1.08,35.86,2.1,43.59,17.89,7.41,15.19,6.15,41.07,5,66.13-.45,9.3-.92,18.94-.89,27.64h2.63c0-8.64.42-17.81.87-27.51,1.24-25.38,2.5-51.63-5.23-67.42C196.09,154.12,184.27,150.16,171.13,148.53Zm-60.48,4.73,6.31-4,8.43,16.55Zm18.81,14.69-9.85-19.31h18.21Zm19.26-8.88-16.45,9,7.91-18.23ZM93.2,146c-23,0-41.72-20.42-41.72-45.51V95.43c0-25.12,18.73-45.53,41.72-45.53h75.46c22.7,0,41.15,22.78,41.15,50.76,0,26.69-17.1,45.35-41.57,45.35Z"/><path class="cls-1" d="M74.59,262c-4.52-41.13,2-80.87,2-81.27l2.59.43c-.06.39-6.5,39.8-2,80.55Z"/><path class="cls-1" d="M181.87,261.16l-2.62-.21c2.82-36.74-.43-79.51-.46-79.93l2.62-.21C181.45,181.24,184.71,224.21,181.87,261.16Z"/><path class="cls-1" d="M145,127.66c0,5-3.52,9.14-7.83,9.14a7.6,7.6,0,0,1-6.52-4.1,7.56,7.56,0,0,1-6.49,4.1c-4.34,0-7.83-4.1-7.83-9.14h2.63c0,3.6,2.31,6.52,5.2,6.52s5.18-2.92,5.18-6.52H132c0,3.6,2.34,6.52,5.2,6.52s5.2-2.92,5.2-6.52Z"/><circle class="cls-1" cx="86.56" cy="84.67" r="6.59"/><circle class="cls-1" cx="173.91" cy="84.67" r="6.59"/><polygon class="cls-2" points="36 21.39 129.82 0 224.13 21.39 224.13 27.14 129.94 38.11 36 27.14 36 21.39"/><path class="cls-1" d="M129.82,2.69l91.68,20.79V24.8L129.94,35.46,38.63,24.8V23.48L129.82,2.69m0-2.69L36,21.39v5.75l93.94,11,94.19-11V21.39L129.82,0Z"/><path class="cls-2" d="M80,31.93V50.68s16.37-2.05,49.9-2.05,49.9,1.89,49.9,1.89V31.93s-25.56-11.3-49.89-11.3S80,31.93,80,31.93Z"/><path class="cls-1" d="M129.94,23.26c20.1,0,41.41,8,47.27,10.42V47.62c-6.08-.53-21.6-1.62-47.27-1.62s-41.18,1.18-47.27,1.76V33.68c5.86-2.38,27.17-10.42,47.28-10.42m0-2.63C105.61,20.63,80,31.93,80,31.93V50.68s16.37-2.05,49.9-2.05,49.9,1.89,49.9,1.89V31.93s-25.56-11.3-49.89-11.3Z"/><path class="cls-2" d="M14.14,92.25A8.4,8.4,0,0,0,14,91.2,21.58,21.58,0,0,1,14,87.51c.08-1.74.72-3.39.72-5.09a5.6,5.6,0,0,1-3-.74,2.55,2.55,0,0,1-.45-.22l-.37-.19c-.13.21-.33.38-.45.6s-.3.49-.43.75a.4.4,0,0,1-.26.22A24.89,24.89,0,0,1,7,86.57c-.12.31-.23.61-.33.92A15.41,15.41,0,0,1,4.83,89a6.26,6.26,0,0,1-3,2.45,1.46,1.46,0,0,0,.17.36.26.26,0,0,0,.08.5.23.23,0,0,0,.16-.06h0a.24.24,0,0,0,.15-.06,2.46,2.46,0,0,0,.54.23.47.47,0,0,1,.21,0,5.91,5.91,0,0,1,2.29,1.24l.18.13a2.65,2.65,0,0,1,1.67,1c.53.18,1,.38,1.56.59,3.08.72,6,.79,5.64-2A3.63,3.63,0,0,0,14.14,92.25Z"/><path class="cls-1" d="M58,15.76l-.08-.17C56,11.67,52,9.69,48.69,13.36A19.22,19.22,0,0,0,47,15.59a28.33,28.33,0,0,0-2.05,3.76l-.19.42c-.15.34-.29.69-.41,1-.82,2.33-1.21,4.94-2.45,7l-.17.28a1,1,0,0,0-.16.41q-.56.84-1.07,1.7l0,.06a75.65,75.65,0,0,0-5.23,11.45c-2.68,6.94-5.56,13.17-11.39,18-4.71,3.93-10.19,7.94-11,14.35-3.28.7-4.06,4.8-2.31,7.1C7.76,85.5,4.73,89.83.13,92.33a.26.26,0,0,0,.2.47,5.74,5.74,0,0,1,4.59.72,20.14,20.14,0,0,0,3,1.73c1.87.74,4.64,1.2,6.57.37a1.06,1.06,0,0,0,.78-.95,4.4,4.4,0,0,0-.38-1.35,17.44,17.44,0,0,1-.46-2,17.91,17.91,0,0,1,.7-8.75c4-1.12,4-7.54-.2-8.48.93-6.71,7.85-10.38,12.41-14.69,4.33-4.1,6.84-9.45,9-14.92,1.91-4.85,3.65-9.85,6.47-14.23l0,0q.57-.88,1.2-1.73H44l0,0a1,1,0,0,0,.22-.32,1.15,1.15,0,0,0,.08-.55c.93-2.09,1.37-4.43,2.19-6.59.18-.47.38-.94.6-1.39l.41-.8a21.37,21.37,0,0,1,2-3.17l.39-.48c1.27-1.5,2.33-2.59,4.67-.73a4.29,4.29,0,0,1,1,1.21,13,13,0,0,1,.6,1.2h0c.45,1,1.74.46,1.87-.44A1.07,1.07,0,0,0,58,15.76ZM13.82,86h0c0,.6-.17,1.2-.23,1.8,0,.35-.05.69-.07,1v0s0,.1,0,.15a12.25,12.25,0,0,0,0,2.43v.22a.33.33,0,0,0,0,0,2.9,2.9,0,0,0,0,.48c0,1.53-.31,3-1.35,3.29h0a9.46,9.46,0,0,1-2.77-.31h0q1.56-3.77,3-7.61a15.58,15.58,0,0,0,1.46-4.77h0a4.81,4.81,0,0,0,.69-.05A19.17,19.17,0,0,0,13.82,86ZM4.65,92.81a6.52,6.52,0,0,0-2.53-.69,7.8,7.8,0,0,0,1.49-1,20.48,20.48,0,0,0,3-2.86,53.43,53.43,0,0,0,4.61-6.4,3.8,3.8,0,0,0,.66.45Q8.4,87.57,4.7,92.66A.22.22,0,0,0,4.65,92.81Zm1.24.6a42.76,42.76,0,0,0,3.18-5.13l1.72-2.51a3.16,3.16,0,0,0,.64-1.07,10.11,10.11,0,0,0,.62-1c.22-.35.44-.71.64-1.08.11,0,.21.07.33.09A48.81,48.81,0,0,1,7.79,94.56a13.87,13.87,0,0,1-2-1.08Z"/></g></g></svg>