<svg xmlns="http://www.w3.org/2000/svg" viewBox="0 0 99.92 100"><defs><style>.cls-1{fill:#fff;}</style></defs><title>Asset 18</title><g id="Layer_2" data-name="Layer 2"><g id="layout"><path class="cls-1" d="M86.22,37.3l-1.7-4.12c5.83-13.45,5.44-13.85,4.31-15l-7.44-7.43-.74-.64h-.86c-.45,0-1.81,0-13.13,5.24l-4.17-1.72C57.11,0,56.56,0,55,0H44.48C42.9,0,42.29,0,37.3,13.68L33.15,15.4c-7.65-3.3-12.13-5-13.34-5l-1,0-8,8c-1.22,1.17-1.64,1.58,4.52,14.82l-1.7,4.11C0,42.79,0,43.31,0,45V55.48c0,1.65,0,2.23,13.68,7.24l1.7,4.1c-5.83,13.45-5.44,13.85-4.3,15l7.44,7.44.74.65h.87c.45,0,1.79,0,13.12-5.25l4.16,1.73C42.79,100,43.34,100,44.92,100h10.5c1.61,0,2.18,0,7.18-13.67l4.17-1.72c7.64,3.3,12.11,5,13.32,5l1,0,8.07-8.07c1.15-1.18,1.55-1.59-4.58-14.78l1.68-4.11c13.65-5.39,13.65-6,13.65-7.56V44.52C99.92,42.87,99.92,42.29,86.22,37.3ZM50,67.49A17.5,17.5,0,1,1,67.41,50,17.51,17.51,0,0,1,50,67.49Z"/></g></g></svg>