<svg xmlns="http://www.w3.org/2000/svg" viewBox="0 0 99.99 100"><defs><style>.cls-1{fill:#2e3192;}</style></defs><title>Asset 46</title><g id="Layer_2" data-name="Layer 2"><g id="layout"><g id="svg_1" data-name="svg 1"><path id="svg_2" data-name="svg 2" class="cls-1" d="M50,2A48,48,0,0,1,97.59,56.21a47.54,47.54,0,0,1-4.36,14.65A48,48,0,1,1,47.11,2.09C48.07,2,49,2,50,2M41.2,41.43H30.59V55.69H41.2V86.36H57.07V55.69H69.41V41.43H57.07v-1.9c0-4,.05-4.08.38-4.61.61-.05,1.91-.07,3.59-.09h1l5.3-.06,2,0v-2l0-5.46,0-5.44v-2H62c-6,0-6.84.06-8.75.57C48,21.84,43.57,26.4,41.92,32.07c-.59,2-.72,3.47-.72,7.66v1.7M50,0Q48.5,0,47,.09A49.93,49.93,0,1,0,50,0ZM32.59,53.69V43.43H43.2v-3.7c0-4,.12-5.27.65-7.1,1.45-5,5.33-9,9.88-10.24,1.66-.45,2.38-.48,8.24-.51h5.44l0,5.44,0,5.45-5.3.06c-6,.07-5.63,0-6.27,1s-.7,1.41-.7,5.7v3.9H67.41V53.69H55.07V84.36H43.2V53.69H32.59Z"/></g></g></g></svg>