<svg xmlns="http://www.w3.org/2000/svg" viewBox="0 0 102 102"><defs><style>.cls-1{fill:#f75252;}</style></defs><title>Asset 62</title><g id="Layer_2" data-name="Layer 2"><g id="layout"><path class="cls-1" d="M51,102a51,51,0,1,1,51-51A51.06,51.06,0,0,1,51,102ZM51,2a49,49,0,1,0,49,49A49.06,49.06,0,0,0,51,2ZM70,37H59.14V33.66a2.71,2.71,0,0,0-2.71-2.72H45.57a2.72,2.72,0,0,0-2.72,2.72V37H32a3.45,3.45,0,0,0-3.46,3.45V67.6A3.47,3.47,0,0,0,32,71.06H70a3.48,3.48,0,0,0,3.46-3.46V40.44A3.46,3.46,0,0,0,70,37ZM45.57,35a1.36,1.36,0,0,1,1.35-1.35h8.15A1.35,1.35,0,0,1,56.43,35v2H45.57ZM30,67.6V40.44a2,2,0,0,1,2-2h4.07v31.1H32A2,2,0,0,1,30,67.6Zm30.49,2h-19V38.47h19ZM72,67.6a2,2,0,0,1-2,2H65.93V38.47H70a2,2,0,0,1,2,2Z"/></g></g></svg>