<?xml version="1.0" encoding="utf-8"?>
<!-- Generator: Adobe Illustrator 21.1.0, SVG Export Plug-In . SVG Version: 6.00 Build 0)  -->
<svg version="1.1" id="Layer_1" xmlns="http://www.w3.org/2000/svg" xmlns:xlink="http://www.w3.org/1999/xlink" x="0px" y="0px"
	 viewBox="0 0 80 100" style="enable-background:new 0 0 80 100;" xml:space="preserve">
<style type="text/css">
	.st0{fill:none;}
	.st1{fill:#B3B3B3;}
</style>
<line class="st0" x1="5" y1="5" x2="3.5" y2="5"/>
<line class="st0" x1="76.5" y1="5" x2="75" y2="5"/>
<path class="st1" d="M80,3.6C80,1.6,78.5,0,76.5,0"/>
<path class="st1" d="M76.5,0H3.5C1.5,0,0,1.6,0,3.5c0,0,0,0,0,0V100l40.2-25.3L80,100V3.5C80,1.6,78.5,0,76.5,0
	C76.5,0,76.5,0,76.5,0z M75,8v82.8L40.2,68.7L5,90.9V8c0-1.7,1.3-3,3-3h64C73.7,5,75,6.3,75,8z"/>
<line class="st0" x1="75" y1="5" x2="75" y2="3.5"/>
<line class="st0" x1="75" y1="100" x2="75" y2="90.8"/>
<line class="st0" x1="80" y1="94" x2="75" y2="90.8"/>
<line class="st0" x1="5" y1="90.9" x2="0" y2="94"/>
<line class="st0" x1="5" y1="100" x2="5" y2="90.9"/>
<path class="st1" d="M3.5,0C1.5,0,0,1.6,0,3.5"/>
</svg>
