<?xml version="1.0" encoding="utf-8"?>
<!-- Generator: Adobe Illustrator 19.2.0, SVG Export Plug-In . SVG Version: 6.00 Build 0)  -->
<svg version="1.1" id="Layer_1" xmlns="http://www.w3.org/2000/svg" xmlns:xlink="http://www.w3.org/1999/xlink" x="0px" y="0px"
	 viewBox="0 0 100 100" style="enable-background:new 0 0 100 100;" xml:space="preserve">
<style type="text/css">
	.st0{fill:#FFFFFF;}
	.st1{fill:#666666;}
	.st2{fill:#EF5454;}
</style>
<title>Asset 80</title>
<rect class="st0" width="100" height="100"/>
<g id="Layer_2">
	<g id="layout">
		
			<rect x="47.6" y="92.2" transform="matrix(5.933917e-03 -1 1 5.933917e-03 -41.2713 143.6205)" class="st1" width="8" height="0.8"/>
		<polygon class="st2" points="51.5,69.7 56.7,86.4 51.6,90.1 47.4,87.5 		"/>
		<path class="st1" d="M65.1,63.1c7.9-0.5,13.5-6.9,13.5-15.6c0-9.6-6.4-17.3-14.3-17.3H39.7c-7.9,0-14.4,7.1-14.4,15.6v1.6
			c0,8.7,6.4,15.6,14.4,15.6h0.6c-5.5,0.8-11.2,2.1-13,5.9c-2.6,5.1-2.1,13.6-1.6,21.8c0.2,3.2,0.3,6.1,0.3,9h0.8
			c0-2.9-0.2-5.9-0.3-9c-0.5-8.2-0.8-16.5,1.6-21.5c2.1-4.3,9.9-5.1,16.2-5.9c0.5,0,1.1-0.2,1.6-0.2l-1.4,1c-0.2,0-0.2,0.2-0.2,0.3
			s0,0.3,0.2,0.3l6.9,5.8c0,0,0,0,0.2,0h0.2h0.2l0,0l0,0l6.9-3.7c0.2,0,0.2-0.2,0.2-0.3c0-0.2,0-0.3-0.2-0.3l-2.9-3
			c1.4,0.2,2.9,0.2,4.3,0.3c5.9,0.3,11.7,0.6,14.1,5.8c2.4,5,1.9,13.3,1.6,21.5c-0.2,3-0.3,6.1-0.3,9h0.8c0-2.7,0.2-5.8,0.3-9
			c0.5-8.2,0.8-16.7-1.8-21.8C73.1,65,69.4,63.8,65.1,63.1z M45.5,64.7l2.1-1.3l2.7,5.3L45.5,64.7z M51.6,69.5l-3.2-6.3h5.9
			L51.6,69.5z M57.9,66.7l-5.5,2.9l2.6-5.9L57.9,66.7z M39.7,62.3c-7.5,0-13.5-6.6-13.5-14.8V46c0-8.2,6.1-14.8,13.5-14.8h24.5
			c7.4,0,13.3,7.4,13.3,16.5c0,8.7-5.6,14.8-13.5,14.8L39.7,62.3z"/>
		<path class="st1" d="M33.8,100c-1.4-13.3,0.6-26.3,0.6-26.3l0.8,0.2c0,0.2-2.1,13-0.6,26.1H33.8z"/>
		<path class="st1" d="M68.6,99.7h-0.8c1-11.9-0.2-25.8-0.2-26h0.8C68.4,73.9,69.4,87.8,68.6,99.7z"/>
		<path class="st1" d="M56.6,56.4c0,1.6-1.1,2.9-2.6,2.9c-1,0-1.8-0.5-2.1-1.3c-0.5,0.8-1.3,1.3-2.1,1.3c-1.4,0-2.6-1.3-2.6-2.9h0.8
			c0,1.1,0.8,2.1,1.8,2.1s1.6-1,1.6-2.1h1c0,1.1,0.8,2.1,1.8,2.1s1.8-1,1.8-2.1H56.6z"/>
		<circle class="st1" cx="37.7" cy="42.4" r="2.1"/>
		<circle class="st1" cx="66" cy="42.4" r="2.1"/>
		<polygon class="st2" points="21.3,21.9 51.6,15 82.2,21.9 82.2,23.8 51.8,27.4 21.3,23.8 		"/>
		<path class="st1" d="M51.6,15.8l29.8,6.7V23l-29.7,3.5L22.1,23v-0.5L51.6,15.8 M51.6,15l-30.5,6.9v1.9l30.5,3.5l30.6-3.5v-1.9
			L51.6,15z"/>
		<path class="st2" d="M35.6,25.4v6.1c0,0,5.3-0.6,16.2-0.6S68,31.5,68,31.5v-6.1c0,0-8.3-3.7-16.2-3.7S35.6,25.4,35.6,25.4z"/>
		<path class="st1" d="M51.8,22.6c6.6,0,13.5,2.6,15.4,3.4v4.5c-1.9-0.2-7.1-0.5-15.4-0.5s-13.5,0.3-15.4,0.6v-4.5
			C38.3,25.1,45.2,22.6,51.8,22.6 M51.8,21.8c-7.9,0-16.2,3.7-16.2,3.7v6.1c0,0,5.3-0.6,16.2-0.6S68,31.5,68,31.5v-6.1
			C68,25.4,59.6,21.8,51.8,21.8L51.8,21.8z"/>
		<path class="st2" d="M14.1,45c0-0.2,0-0.2,0-0.3c0-0.3,0-0.8,0-1.1c0-0.6,0.2-1.1,0.2-1.6c-0.3,0-0.6,0-1-0.2h-0.2H13L12.8,42
			c0,0-0.2,0.2-0.2,0.3c0,0,0,0-0.2,0c-0.3,0.5-0.5,0.8-1,1.3c0,0.2,0,0.2-0.2,0.3c-0.2,0.2-0.3,0.3-0.6,0.5c-0.2,0.3-0.6,0.6-1,0.8
			v0.2c0,0,0,0,0,0.2l0,0l0,0l0,0l0,0h0.2l0,0c0.3,0,0.5,0.2,0.8,0.5l0,0c0.2,0,0.5,0.2,0.5,0.3c0.2,0,0.3,0.2,0.5,0.2
			c1,0.2,1.9,0.3,1.8-0.6C14.3,45.2,14.3,45,14.1,45z"/>
		<path class="st1" d="M28.4,20.2L28.4,20.2c-0.6-1.3-1.9-1.9-3-0.8c-0.2,0.2-0.3,0.5-0.5,0.8c-0.3,0.3-0.5,0.8-0.6,1.3v0.2
			c0,0.2-0.2,0.2-0.2,0.3c-0.3,0.8-0.3,1.6-0.8,2.2v0.2v0.2c-0.2,0.2-0.2,0.3-0.3,0.5l0,0c-0.6,1.1-1.3,2.4-1.8,3.7
			c-0.8,2.2-1.8,4.3-3.7,5.8c-1.6,1.3-3.4,2.6-3.5,4.6c-1.1,0.2-1.3,1.6-0.8,2.2c-1,1.4-1.9,2.9-3.4,3.7c0,0,0,0,0,0.2
			c0,0,0,0,0.2,0c0.5-0.2,1.1,0,1.4,0.2c0.3,0.2,0.6,0.5,1,0.6c0.6,0.2,1.4,0.3,2.1,0.2c0.2,0,0.3-0.2,0.3-0.3c0-0.2,0-0.3-0.2-0.5
			c0-0.2-0.2-0.5-0.2-0.6c-0.2-1-0.2-1.9,0.2-2.9c1.3-0.3,1.3-2.4,0-2.7c0.3-2.2,2.6-3.4,4-4.8c1.4-1.3,2.2-3,2.9-4.8
			c0.6-1.6,1.1-3.2,2.1-4.6l0,0c0.2-0.2,0.3-0.3,0.3-0.6l0,0l0,0c0,0,0,0,0-0.2v-0.2c0.3-0.6,0.5-1.4,0.6-2.1c0-0.2,0.2-0.3,0.2-0.5
			l0.2-0.3c0.2-0.3,0.5-0.6,0.6-1l0.2-0.2c0.5-0.5,0.8-0.8,1.4-0.2c0.2,0.2,0.3,0.3,0.3,0.3c0,0.2,0.2,0.3,0.2,0.3l0,0
			c0.2,0.3,0.6,0.2,0.6-0.2C28.4,20.3,28.4,20.2,28.4,20.2z M14.1,42.9L14.1,42.9c0,0.2,0,0.3,0,0.6c0,0.2,0,0.2,0,0.3l0,0l0,0
			c0,0.3,0,0.5,0,0.8l0,0l0,0v0.2c0,0.5-0.2,1-0.5,1.1l0,0c-0.3,0-0.6,0-1-0.2l0,0c0.3-0.8,0.6-1.6,1-2.4c0.2-0.5,0.3-1,0.5-1.6l0,0
			h0.2C14.1,42.1,14.1,42.6,14.1,42.9z M11,45.2C10.7,45,10.6,45,10.2,45c0.2-0.2,0.3-0.2,0.5-0.3c0.3-0.3,0.6-0.6,1-1
			c0.5-0.6,1.1-1.3,1.4-2.1l0.2,0.2C12.7,42.9,11.8,44,11,45.2L11,45.2z M11.5,45.3c0.3-0.5,0.8-1.1,1-1.6l0.5-0.8
			c0.2-0.2,0.2-0.2,0.2-0.3c0-0.2,0.2-0.2,0.2-0.3c0-0.2,0.2-0.2,0.2-0.3c0,0,0,0,0.2,0c-0.3,1.3-1,2.6-1.8,3.8
			C11.8,45.6,11.7,45.5,11.5,45.3L11.5,45.3z"/>
	</g>
</g>
</svg>
