<svg xmlns="http://www.w3.org/2000/svg" viewBox="0 0 102 102"><defs><style>.cls-1{fill:#f75252;}</style></defs><title>Asset 61</title><g id="Layer_2" data-name="Layer 2"><g id="layout"><path class="cls-1" d="M51,102a51,51,0,1,1,51-51A51.06,51.06,0,0,1,51,102ZM51,2a49,49,0,1,0,49,49A49.06,49.06,0,0,0,51,2ZM46.42,32.49A24.5,24.5,0,0,1,56,34.35a17.27,17.27,0,0,1,7,5.07,10.83,10.83,0,0,1,0,14,17.27,17.27,0,0,1-7,5.07,24.5,24.5,0,0,1-9.61,1.86,27.32,27.32,0,0,1-4.79-.44,21.73,21.73,0,0,1-9.9,3.92h-.08a.85.85,0,0,1-.56-.22.9.9,0,0,1-.31-.57.56.56,0,0,1,0-.18,1.08,1.08,0,0,1,0-.18.58.58,0,0,1,.05-.16l.07-.14.1-.15.11-.14.12-.14.11-.12q.14-.16.63-.68t.71-.8l.61-.79a6.89,6.89,0,0,0,.68-1q.29-.54.56-1.2a15.89,15.89,0,0,1-5.3-4.81,10.68,10.68,0,0,1-1.93-6.09,11,11,0,0,1,2.56-7,17.27,17.27,0,0,1,7-5.07,24.5,24.5,0,0,1,9.61-1.86m0-1.28a25.88,25.88,0,0,0-10.11,2,18.61,18.61,0,0,0-7.48,5.45A12.28,12.28,0,0,0,26,46.41a12,12,0,0,0,2.15,6.81,16.79,16.79,0,0,0,4.73,4.59l-.06.11a5.64,5.64,0,0,1-.55.85l-.62.8c-.08.11-.25.31-.62.7s-.58.62-.68.74l-.08.09-.12.13,0,0,0,0-.11.14,0,.05,0,.06-.1.15,0,.06,0,.06-.07.14a1.85,1.85,0,0,0-.17.53,2.35,2.35,0,0,0,0,.39,1.85,1.85,0,0,0,.06.46,2.17,2.17,0,0,0,.74,1.26,2.12,2.12,0,0,0,1.38.52h.26a24.26,24.26,0,0,0,2.47-.46,24.36,24.36,0,0,0,7.55-3.37,28.48,28.48,0,0,0,4.49.37,25.88,25.88,0,0,0,10.11-2A18.61,18.61,0,0,0,64,54.2a12.11,12.11,0,0,0,0-15.57,18.61,18.61,0,0,0-7.48-5.45,25.88,25.88,0,0,0-10.11-2ZM68.77,64.28q.27.65.56,1.2a6.88,6.88,0,0,0,.68,1l.61.79q.22.29.71.8t.63.68l.11.12.12.14.11.14.1.15.07.14.05.16v.18l0,.18a1,1,0,0,1-.35.6.82.82,0,0,1-.6.19,21.72,21.72,0,0,1-9.9-3.92,27.32,27.32,0,0,1-4.79.44A22.85,22.85,0,0,1,44,63.71q1.58.11,2.39.11a28.73,28.73,0,0,0,8.4-1.22A24.07,24.07,0,0,0,62,59.09a18.2,18.2,0,0,0,5.22-5.77,14,14,0,0,0,1.2-11A16.11,16.11,0,0,1,74,47.12a10.62,10.62,0,0,1,.11,12.36A16,16,0,0,1,68.77,64.28Z"/></g></g></svg>