<svg xmlns="http://www.w3.org/2000/svg" viewBox="0 0 120 120"><defs><style>.cls-1{fill:#4d4d4d;}</style></defs><title>Asset 78</title><g id="Layer_2" data-name="Layer 2"><g id="layout"><path class="cls-1" d="M25.71,51.43A12.86,12.86,0,1,0,12.86,38.57,12.87,12.87,0,0,0,25.71,51.43Zm0-21.43a8.57,8.57,0,1,1-8.57,8.57A8.58,8.58,0,0,1,25.71,30Z"/><path class="cls-1" d="M94.29,51.43A12.86,12.86,0,1,0,81.43,38.57,12.87,12.87,0,0,0,94.29,51.43Zm0-21.43a8.57,8.57,0,1,1-8.57,8.57A8.58,8.58,0,0,1,94.29,30Z"/><path class="cls-1" d="M115.71,55.71V83.57A6.44,6.44,0,0,1,109.29,90V66.43A10.73,10.73,0,0,0,98.57,55.71H87.86a2.14,2.14,0,0,0-2.14,2.14V70.71H68.57a2.14,2.14,0,0,0-2.14,2.14v6.43H53.57V72.86a2.14,2.14,0,0,0-2.14-2.14H34.29V57.86a2.14,2.14,0,0,0-2.14-2.14H21.43A10.73,10.73,0,0,0,10.71,66.43V90a6.44,6.44,0,0,1-6.43-6.43V55.71H0V83.57a10.72,10.72,0,0,0,6.43,9.81V120h4.29V94.29H32.14v23.57A2.14,2.14,0,0,0,34.29,120H45V83.57H75V120H85.71a2.14,2.14,0,0,0,2.14-2.14V94.29h21.43V120h4.29V93.38A10.72,10.72,0,0,0,120,83.57V55.71ZM42.86,79.29H25.71V66.43H21.43v15a2.14,2.14,0,0,0,2.14,2.14h15a2.15,2.15,0,0,1,2.14,2.14v30H36.43V92.14A2.14,2.14,0,0,0,34.29,90H15V66.43A6.44,6.44,0,0,1,21.43,60H30V72.86A2.14,2.14,0,0,0,32.14,75H49.29v4.29ZM85.71,90a2.14,2.14,0,0,0-2.14,2.14v23.57H79.29v-30a2.15,2.15,0,0,1,2.14-2.14h15a2.14,2.14,0,0,0,2.14-2.14v-15H94.29V79.29H70.71V75H87.86A2.14,2.14,0,0,0,90,72.86V60h8.57A6.44,6.44,0,0,1,105,66.43V90Z"/><path class="cls-1" d="M40.71,21.43v6.43a2.14,2.14,0,0,0,1.47,2,2.18,2.18,0,0,0,.68.11,2.15,2.15,0,0,0,1.71-.86l5.79-7.71H66.43A6.44,6.44,0,0,0,72.86,15V6.43A6.44,6.44,0,0,0,66.43,0H40.71a6.44,6.44,0,0,0-6.43,6.43V15A6.44,6.44,0,0,0,40.71,21.43Zm-2.14-15a2.15,2.15,0,0,1,2.14-2.14H66.43a2.15,2.15,0,0,1,2.14,2.14V15a2.15,2.15,0,0,1-2.14,2.14H49.29a2.14,2.14,0,0,0-1.71.86L45,21.43V19.29a2.14,2.14,0,0,0-2.14-2.14H40.71A2.15,2.15,0,0,1,38.57,15Z"/><rect class="cls-1" x="42.86" y="8.57" width="21.43" height="4.29"/><rect class="cls-1" x="57.86" y="53.57" width="12.86" height="4.29"/><path class="cls-1" d="M55.71,45a6.44,6.44,0,0,0-6.43,6.43V60a6.44,6.44,0,0,0,6.43,6.43H72.86A6.44,6.44,0,0,0,79.29,60V58.51l3.93-5.89a2.14,2.14,0,0,0-1.78-3.33H78.92A6.44,6.44,0,0,0,72.86,45ZM75,51.43a2.14,2.14,0,0,0,2.14,2.14h.28l-2.06,3.1A2.15,2.15,0,0,0,75,57.86V60a2.15,2.15,0,0,1-2.14,2.14H55.71A2.15,2.15,0,0,1,53.57,60V51.43a2.15,2.15,0,0,1,2.14-2.14H72.86A2.15,2.15,0,0,1,75,51.43Z"/><rect class="cls-1" x="49.29" y="34.29" width="4.29" height="4.29"/><rect class="cls-1" x="57.86" y="34.29" width="4.29" height="4.29"/><rect class="cls-1" x="66.43" y="34.29" width="4.29" height="4.29"/></g></g></svg>