<svg xmlns="http://www.w3.org/2000/svg" viewBox="0 0 100 83.33"><defs><style>.cls-1{fill:#4d4d4d;}</style></defs><title>Asset 26</title><g id="Layer_2" data-name="Layer 2"><g id="layout"><path class="cls-1" d="M78.16,53.55a4.88,4.88,0,0,1,2.21,4.54v20.3a6.05,6.05,0,0,1-1,3.47,3,3,0,0,1-2.54,1.47H22.7a2.88,2.88,0,0,1-2.43-1.47,6.05,6.05,0,0,1-1-3.47V58.09a4.88,4.88,0,0,1,2.21-4.54L36.7,45l6-3.34a19,19,0,0,1-6.39-8.81A28.07,28.07,0,0,1,34.16,22a24.48,24.48,0,0,1,.22-3.34q.22-1.6.55-3.07A24.2,24.2,0,0,1,40.5,4.41,12.29,12.29,0,0,1,49.82,0,12.41,12.41,0,0,1,59.3,4.54,24.08,24.08,0,0,1,64.81,16a37.25,37.25,0,0,1,.55,6A30.36,30.36,0,0,1,63.6,32.32a19,19,0,0,1-6.39,9.08L63.49,45l14.66,8.55ZM19.21,47.88A9.21,9.21,0,0,0,15.43,52,13.37,13.37,0,0,0,14.05,58V75.26H2.8a2.4,2.4,0,0,1-1.93-1,4.92,4.92,0,0,1-.87-3V55Q0,52,1.76,51.22l17-9.62a15.77,15.77,0,0,1-4.94-6.48A23,23,0,0,1,12,25.71a23.66,23.66,0,0,1,1-6.88,19.5,19.5,0,0,1,2.69-5.68,13.79,13.79,0,0,1,4-3.81A9.07,9.07,0,0,1,24.48,8a8.18,8.18,0,0,1,3.29.67,14.76,14.76,0,0,1,3,1.74A37.29,37.29,0,0,0,30,31,31.16,31.16,0,0,0,33,38.8a11.71,11.71,0,0,1-2.53,2.54Zm79,3.34A4,4,0,0,1,100,55V71.25a5,5,0,0,1-.77,2.87,2.31,2.31,0,0,1-2,1.13H85.59V58A13.35,13.35,0,0,0,84.21,52a9.43,9.43,0,0,0-3.69-4.07L69.63,41.61a12.55,12.55,0,0,1-3-3.07,32.78,32.78,0,0,0,2.92-7.68,36.71,36.71,0,0,0,1-8.88,37.88,37.88,0,0,0-.44-5.88,34.6,34.6,0,0,0-1.32-5.48,13,13,0,0,1,3.08-1.94A8.31,8.31,0,0,1,75.35,8a9.38,9.38,0,0,1,5,1.4,13.53,13.53,0,0,1,4,3.81A19.49,19.49,0,0,1,87,18.84a23.6,23.6,0,0,1,1,6.88A22.6,22.6,0,0,1,86.14,35a16.75,16.75,0,0,1-4.73,6.48l16.83,9.75Z"/></g></g></svg>