<svg xmlns="http://www.w3.org/2000/svg" viewBox="0 0 592.77 592.77"><defs><style>.cls-1{fill:#666;}.cls-2{fill:#ef5454;}.cls-3,.cls-4{fill:#fff;}.cls-3{stroke:#000;stroke-miterlimit:10;}</style></defs><title>Asset 79</title><g id="Layer_2" data-name="Layer 2"><g id="layout"><rect class="cls-1" x="139.17" y="252.68" width="24.94" height="2.63" transform="translate(-103.24 404.15) rotate(-89.66)"/><polygon class="cls-2" points="150.97 183.7 167.04 235.37 151.56 246.52 138.37 238.85 150.97 183.7"/><path class="cls-1" d="M192.9,163.74c24.12-1.44,41.3-21.12,41.3-47.87,0-29.43-19.63-53.39-43.77-53.39H115c-24.44,0-44.35,21.6-44.35,48.16v5.07c0,26.54,19.92,48.13,44.35,48.13h1.94c-17.05,2.34-34.52,6.44-40.25,18.29-7.67,15.79-6.31,42-5,67.39.5,9.72,1,18.89,1,27.51h2.63c0-8.7-.5-18.34-1-27.64-1.29-25-2.6-50.95,4.76-66.13,6.41-13.24,30.45-16,49.79-18.23,1.71-.18,3.36-.39,5-.58l-4.28,2.76a1.36,1.36,0,0,0-.6,1,1.3,1.3,0,0,0,.47,1.08l21.07,17.89a1.22,1.22,0,0,0,.39.24,1,1,0,0,0,.47.11,1.22,1.22,0,0,0,.45-.08l.18-.08.21-.13,21.07-11.48a1.28,1.28,0,0,0,.66-.95,1.3,1.3,0,0,0-.32-1.1l-8.8-9.54c4.39.47,8.93.74,13.32,1,18.44,1.08,35.86,2.1,43.59,17.89,7.41,15.19,6.15,41.07,5,66.13-.45,9.3-.92,18.94-.89,27.64h2.63c0-8.64.42-17.81.87-27.51,1.24-25.38,2.5-51.63-5.23-67.42C217.86,169.34,206,165.37,192.9,163.74Zm-60.48,4.73,6.31-4L147.15,181Zm18.81,14.69-9.85-19.31h18.21Zm19.26-8.88-16.45,9L161.95,165ZM115,161.22c-23,0-41.72-20.42-41.72-45.51v-5.07C73.24,85.52,92,65.11,115,65.11h75.46c22.7,0,41.15,22.78,41.15,50.76,0,26.69-17.1,45.35-41.57,45.35Z"/><path class="cls-1" d="M96.36,277.18c-4.52-41.13,2-80.87,2-81.27l2.59.43c-.06.39-6.5,39.8-2,80.55Z"/><path class="cls-1" d="M203.64,276.38l-2.62-.21c2.82-36.74-.43-79.51-.46-79.93l2.62-.21C203.21,196.46,206.48,239.43,203.64,276.38Z"/><path class="cls-1" d="M166.75,142.88c0,5-3.52,9.14-7.83,9.14a7.6,7.6,0,0,1-6.52-4.1,7.56,7.56,0,0,1-6.49,4.1c-4.34,0-7.83-4.1-7.83-9.14h2.63c0,3.6,2.31,6.52,5.2,6.52s5.18-2.92,5.18-6.52h2.63c0,3.6,2.34,6.52,5.2,6.52s5.2-2.92,5.2-6.52Z"/><circle class="cls-1" cx="108.33" cy="99.89" r="6.59"/><circle class="cls-1" cx="195.68" cy="99.89" r="6.59"/><polygon class="cls-2" points="57.77 36.6 151.59 15.22 245.9 36.6 245.9 42.35 151.71 53.33 57.77 42.35 57.77 36.6"/><path class="cls-1" d="M151.59,17.91,243.27,38.7V40L151.71,50.68,60.4,40V38.7l91.19-20.79m0-2.69L57.77,36.6v5.75l93.94,11,94.19-11V36.6L151.59,15.22Z"/><path class="cls-2" d="M101.8,47.15V65.9s16.37-2.05,49.9-2.05,49.9,1.89,49.9,1.89V47.15S176,35.85,151.71,35.85,101.8,47.15,101.8,47.15Z"/><path class="cls-1" d="M151.71,38.47c20.1,0,41.41,8,47.27,10.42V62.84c-6.08-.53-21.6-1.62-47.27-1.62S110.53,62.4,104.43,63V48.9c5.86-2.38,27.17-10.42,47.28-10.42m0-2.63c-24.33,0-49.91,11.3-49.91,11.3V65.9s16.37-2.05,49.9-2.05,49.9,1.89,49.9,1.89V47.15S176,35.85,151.71,35.85Z"/><path class="cls-2" d="M35.91,107.46a8.4,8.4,0,0,0-.11-1.05,21.58,21.58,0,0,1-.07-3.68c.08-1.74.72-3.39.72-5.09a5.6,5.6,0,0,1-3-.74,2.55,2.55,0,0,1-.45-.22l-.37-.19c-.13.21-.33.38-.45.6s-.3.49-.43.75a.4.4,0,0,1-.26.22,24.89,24.89,0,0,1-2.67,3.74c-.12.31-.23.61-.33.92a15.41,15.41,0,0,1-1.89,1.51,6.26,6.26,0,0,1-3,2.45,1.46,1.46,0,0,0,.17.36.26.26,0,0,0,.08.5.23.23,0,0,0,.16-.06h0a.24.24,0,0,0,.15-.06,2.46,2.46,0,0,0,.54.23.47.47,0,0,1,.21,0,5.91,5.91,0,0,1,2.29,1.24l.18.13a2.65,2.65,0,0,1,1.67,1c.53.18,1,.38,1.56.59,3.08.72,6,.79,5.64-2A3.63,3.63,0,0,0,35.91,107.46Z"/><path class="cls-1" d="M79.72,31l-.08-.17c-1.87-3.92-5.91-5.9-9.18-2.23a19.22,19.22,0,0,0-1.7,2.23,28.33,28.33,0,0,0-2.05,3.76l-.19.42c-.15.34-.29.69-.41,1-.82,2.33-1.21,4.94-2.45,7l-.17.28a1,1,0,0,0-.16.41q-.56.84-1.07,1.7l0,.06A75.65,75.65,0,0,0,57,56.94c-2.68,6.94-5.56,13.17-11.39,18-4.71,3.93-10.19,7.94-11,14.35-3.28.7-4.06,4.8-2.31,7.1-2.79,4.3-5.82,8.62-10.42,11.12a.26.26,0,0,0,.2.47,5.74,5.74,0,0,1,4.59.72,20.14,20.14,0,0,0,3,1.73c1.87.74,4.64,1.2,6.57.37a1.06,1.06,0,0,0,.78-.95,4.4,4.4,0,0,0-.38-1.35,17.44,17.44,0,0,1-.46-2,17.91,17.91,0,0,1,.7-8.75c4-1.12,4-7.54-.2-8.48.93-6.71,7.85-10.38,12.41-14.69,4.33-4.1,6.84-9.45,9-14.92,1.91-4.85,3.65-9.85,6.47-14.23l0,0q.57-.88,1.2-1.73h-.05l0,0a1,1,0,0,0,.22-.32,1.15,1.15,0,0,0,.08-.55c.93-2.09,1.37-4.43,2.19-6.59.18-.47.38-.94.6-1.39l.41-.8a21.37,21.37,0,0,1,2-3.17l.39-.48c1.27-1.5,2.33-2.59,4.67-.73a4.29,4.29,0,0,1,1,1.21,13,13,0,0,1,.6,1.2h0c.45,1,1.74.46,1.87-.44A1.07,1.07,0,0,0,79.72,31ZM35.59,101.2h0c0,.6-.17,1.2-.23,1.8,0,.35-.05.69-.07,1v0s0,.1,0,.15a12.25,12.25,0,0,0,0,2.43v.22a.33.33,0,0,0,0,0,2.9,2.9,0,0,0,0,.48c0,1.53-.31,3-1.35,3.29h0a9.46,9.46,0,0,1-2.77-.31h0q1.56-3.77,3-7.61A15.58,15.58,0,0,0,35.63,98h0a4.81,4.81,0,0,0,.69-.05A19.17,19.17,0,0,0,35.59,101.2ZM26.42,108a6.52,6.52,0,0,0-2.53-.69,7.8,7.8,0,0,0,1.49-1,20.48,20.48,0,0,0,3-2.86,53.43,53.43,0,0,0,4.61-6.4,3.8,3.8,0,0,0,.66.45q-3.43,5.28-7.14,10.37A.22.22,0,0,0,26.42,108Zm1.24.6a42.76,42.76,0,0,0,3.18-5.13L32.56,101a3.16,3.16,0,0,0,.64-1.07,10.11,10.11,0,0,0,.62-1c.22-.35.44-.71.64-1.08.11,0,.21.07.33.09a48.81,48.81,0,0,1-5.23,11.88,13.87,13.87,0,0,1-2-1.08Z"/><rect class="cls-3" x="241.82" y="266.79" width="78.81" height="28.89" transform="translate(281.23 -116.49) rotate(45)"/><path d="M544.56,584.5,289.13,329.07l39.94-39.94L584.5,544.56a28.24,28.24,0,0,1,0,39.94h0A28.24,28.24,0,0,1,544.56,584.5Z"/><path class="cls-4" d="M571.72,568.69,310.61,307.58l3.68-3.68L575.4,565a2.6,2.6,0,0,1,0,3.68h0A2.6,2.6,0,0,1,571.72,568.69Z"/><rect x="248.25" y="279.76" width="73.62" height="2.63" transform="translate(282.24 -119.24) rotate(45)"/><rect x="253.3" y="274.71" width="73.62" height="2.63" transform="translate(280.15 -124.29) rotate(45)"/><path class="cls-3" d="M305.21,284.76h5a0,0,0,0,1,0,0v43.35a0,0,0,0,1,0,0h-5a2.54,2.54,0,0,1-2.54-2.54V287.3A2.54,2.54,0,0,1,305.21,284.76Z" transform="translate(306.43 -126.93) rotate(45)"/><rect class="cls-3" x="294.75" y="276.84" width="7.53" height="43.35" rx="1.27" ry="1.27" transform="translate(298.52 -123.65) rotate(45)"/><path class="cls-3" d="M258.48,238h5a0,0,0,0,1,0,0v43.35a0,0,0,0,1,0,0h-5a2.54,2.54,0,0,1-2.54-2.54V240.57a2.54,2.54,0,0,1,2.54-2.54Z" transform="translate(259.7 626.97) rotate(-135)"/><rect class="cls-3" x="263.85" y="245.94" width="7.53" height="43.35" rx="1.27" ry="1.27" transform="translate(267.62 646.09) rotate(-135)"/><rect x="310.97" y="296.82" width="7.53" height="2.63" transform="translate(302.99 -135.23) rotate(45)"/><rect x="303.05" y="288.9" width="7.53" height="2.63" transform="translate(295.08 -131.95) rotate(45)"/><rect x="272.15" y="258" width="7.53" height="2.63" transform="translate(264.18 -119.15) rotate(45)"/><rect x="264.24" y="250.09" width="7.53" height="2.63" transform="translate(256.26 -115.87) rotate(45)"/><rect x="305.92" y="301.87" width="7.53" height="2.63" transform="translate(305.09 -130.18) rotate(45)"/><rect x="298" y="293.95" width="7.53" height="2.63" transform="translate(297.17 -126.9) rotate(45)"/><rect x="267.1" y="263.05" width="7.53" height="2.63" transform="translate(266.27 -114.1) rotate(45)"/><rect x="259.18" y="255.14" width="7.53" height="2.63" transform="translate(258.35 -110.82) rotate(45)"/><path class="cls-3" d="M9.88,151.47A141.59,141.59,0,1,1,151.47,293.05,141.59,141.59,0,0,1,9.88,151.47Zm141.59,151a151,151,0,1,0-151-151A151,151,0,0,0,151.47,302.44Z"/><path d="M149.9,292.07A139.32,139.32,0,1,1,289.22,152.75,139.32,139.32,0,0,1,149.9,292.07Zm1.56,1A141.59,141.59,0,1,0,9.88,151.47,141.59,141.59,0,0,0,151.47,293.05Z"/></g></g></svg>