<?xml version="1.0" encoding="utf-8"?>
<!-- Generator: Adobe Illustrator 21.1.0, SVG Export Plug-In . SVG Version: 6.00 Build 0)  -->
<svg version="1.1" id="Layer_1" xmlns="http://www.w3.org/2000/svg" xmlns:xlink="http://www.w3.org/1999/xlink" x="0px" y="0px"
	 viewBox="0 0 100 100" style="enable-background:new 0 0 100 100;" xml:space="preserve">
<style type="text/css">
	.st0{fill:#B3B3B3;}
</style>
<path class="st0" d="M89.6,81.4c6.4-4.6,10.4-11.4,10.4-19c0-13.9-13.5-25.1-30.1-25.1S39.8,48.5,39.8,62.4
	c0,13.9,13.5,25.1,30.1,25.1c3.4,0,6.8-0.5,9.8-1.4l0.9-0.1c0.6,0,1.1,0.2,1.6,0.5l6.6,3.8l0.6,0.2c0.6,0,1-0.4,1-1l-0.2-0.7
	l-1.4-5.1L88.8,83C88.8,82.3,89.1,81.7,89.6,81.4z M36.1,9.6C16.2,9.6,0,23.1,0,39.7c0,9.1,4.9,17.2,12.5,22.8c0.6,0.4,1,1.2,1,2
	l-0.1,0.8l-1.6,6.1l-0.2,0.9c0,0.7,0.5,1.2,1.2,1.2l0.7-0.2l7.9-4.6c0.6-0.3,1.2-0.6,1.9-0.6l1.1,0.2c3.7,1.1,7.7,1.7,11.8,1.7l2,0
	c-0.8-2.3-1.2-4.8-1.2-7.4c0-15.2,14.8-27.5,33-27.5l2,0C69.1,20.6,54.2,9.6,36.1,9.6z M59.8,58.4c-2.2,0-4-1.8-4-4c0-2.2,1.8-4,4-4
	c2.2,0,4,1.8,4,4C63.9,56.6,62.1,58.4,59.8,58.4z M79.9,58.4c-2.2,0-4-1.8-4-4c0-2.2,1.8-4,4-4c2.2,0,4,1.8,4,4
	C83.9,56.6,82.1,58.4,79.9,58.4z M24.1,34.9c-2.7,0-4.8-2.2-4.8-4.8c0-2.7,2.2-4.8,4.8-4.8s4.8,2.2,4.8,4.8
	C28.9,32.7,26.8,34.9,24.1,34.9z M48.2,34.9c-2.7,0-4.8-2.2-4.8-4.8c0-2.7,2.2-4.8,4.8-4.8s4.8,2.2,4.8,4.8
	C53,32.7,50.9,34.9,48.2,34.9z"/>
</svg>
