<?xml version="1.0" encoding="utf-8"?>
<!-- Generator: Adobe Illustrator 21.1.0, SVG Export Plug-In . SVG Version: 6.00 Build 0)  -->
<svg version="1.1" id="Layer_1" xmlns="http://www.w3.org/2000/svg" xmlns:xlink="http://www.w3.org/1999/xlink" x="0px" y="0px"
	 viewBox="0 0 100 100" style="enable-background:new 0 0 100 100;" xml:space="preserve">
<style type="text/css">
	.st0{fill:#3FA9F5;}
</style>
<path class="st0" d="M50,100C22.4,100,0,77.6,0,50S22.4,0,50,0s50,22.4,50,50S77.6,100,50,100z M90.4,50C90.4,27.7,72.3,9.6,50,9.6
	S9.6,27.7,9.6,50S27.7,90.4,50,90.4S90.4,72.3,90.4,50z"/>
<title>Asset 50</title>
<path class="st0" d="M42.7,60.7h-5.9l-1-4.2h-6l-1,4.2h-5.8l6.6-25h6.4L42.7,60.7z M34.8,52c-0.8-3.7-1.5-7.3-1.9-10.6h-0.1
	c-0.4,3.5-1.1,7-1.9,10.6H34.8z"/>
<path class="st0" d="M53.6,60.8v-2.5c-1.1,1.6-2.3,2.3-3.8,2.3c-1.8,0-3.3-0.8-4.3-2.3c-1-1.5-1.5-3.7-1.5-6.5
	c0-2.8,0.5-4.9,1.5-6.5c1-1.6,2.4-2.4,4.1-2.4c1.5,0,2.9,0.8,3.9,2.3h0.1v-1.8H59v16c0,1.5-0.3,2.8-0.8,4.2
	c-0.5,1.3-1.4,2.3-2.7,3.1c-1.3,0.7-2.7,1.1-4.3,1.1s-3-0.4-4.4-1.3c-1.4-0.8-2.3-2.2-2.7-4.2H49c0.6,0.9,1.3,1.3,2.1,1.3
	c0.7,0,1.3-0.3,1.8-0.8C53.4,62.3,53.6,61.6,53.6,60.8z M53.6,51.7c0-2.8-0.7-4.2-2.1-4.2c-0.7,0-1.2,0.3-1.6,1
	c-0.4,0.7-0.6,1.6-0.6,2.8c0,3.1,0.7,4.7,2.2,4.7C52.9,56.1,53.6,54.6,53.6,51.7z"/>
<path class="st0" d="M71.3,55.4h4.6c-0.9,3.9-3.1,5.8-6.6,5.8c-2.2,0-3.9-0.8-5.2-2.5c-1.3-1.7-1.9-4-1.9-6.9c0-2.7,0.6-4.9,1.9-6.5
	s3-2.5,5.1-2.5c1.3,0,2.5,0.4,3.7,1.2c1.2,0.8,2,1.8,2.6,3.2c0.5,1.3,0.8,3.4,0.9,6.2h-9.1c0.1,2.6,0.8,3.8,2.1,3.8
	c0.5,0,0.9-0.2,1.2-0.5C71,56.4,71.2,56,71.3,55.4z M67.4,50.4h4c0-1.2-0.2-2.1-0.5-2.7c-0.3-0.6-0.8-0.9-1.4-0.9
	c-0.7,0-1.2,0.3-1.6,0.8S67.4,49.2,67.4,50.4z"/>
</svg>
