<svg xmlns="http://www.w3.org/2000/svg" viewBox="0 0 100 100"><defs><style>.cls-1{fill:#b3b3b3;}</style></defs><title>Asset 17</title><g id="Layer_2" data-name="Layer 2"><g id="layout"><path class="cls-1" d="M55.15,2c1.12,1.19,4.2,9,5.54,12.36l.31.79.79.32,4.17,1.72.81.33.79-.37c10.18-4.71,12-5,12.3-5.06H80l.12.1,7.38,7.35.12.13c0,1.59-3.38,9.35-4.83,12.71l-.34.78.32.78,1.7,4.12.34.81.83.3C89,40.42,96.8,43.26,98,44.36c0,.05,0,.11,0,.17V55c0,.05,0,.1,0,.15-1.16,1.12-9,4.21-12.4,5.55l-.79.31-.32.79L82.8,65.94l-.33.81.37.79c1.52,3.27,5,10.82,5.08,12.42l-.1.11L80.3,87.58h-.14c-.44,0-2.6-.52-12.54-4.81l-.77-.33-.78.32-4.17,1.72-.81.34-.3.83C59.54,89,56.7,96.78,55.6,98H44.83c-1.12-1.19-4.2-9-5.54-12.36L39,84.85l-.78-.32L34,82.8l-.81-.34-.8.37c-10.17,4.71-12,5-12.29,5.07H20l-.13-.11-7.39-7.38-.11-.12c0-1.59,3.37-9.34,4.83-12.69l.34-.78L17.23,66l-1.7-4.1-.34-.81-.83-.3C11,59.6,3.2,56.75,2,55.64c0-.05,0-.11,0-.16V45c0-.05,0-.11,0-.17,1.15-1.1,8.7-4.07,12.38-5.53l.79-.31.32-.79,1.7-4.11.34-.81-.37-.8c-1.52-3.26-5-10.78-5.08-12.41l.15-.15,7.45-7.46h.14c.45,0,2.62.52,12.57,4.8l.78.33.78-.32,4.15-1.72.81-.34.3-.83C40.33,11.28,43.27,3.25,44.39,2H55.15M50,69.49A19.5,19.5,0,1,0,30.51,50,19.51,19.51,0,0,0,50,69.49M55,0H44.51c-1.58,0-2.19,0-7.19,13.68L33.18,15.4c-7.65-3.3-12.14-5-13.35-5l-1,0-8,8C9.6,19.65,9.17,20.06,15.34,33.3l-1.7,4.11C0,42.79,0,43.31,0,45V55.48c0,1.65,0,2.23,13.69,7.24l1.7,4.1c-5.83,13.44-5.44,13.85-4.31,15l7.45,7.44.74.65h.87c.45,0,1.79,0,13.13-5.25l4.16,1.73C42.82,100,43.37,100,45,100H55.47c1.61,0,2.18,0,7.19-13.67l4.17-1.72c7.65,3.3,12.12,5,13.33,5l1,0,8.08-8.07c1.15-1.18,1.55-1.59-4.58-14.78l1.69-4.11C100,57.21,100,56.64,100,55V44.52c0-1.66,0-2.23-13.71-7.22l-1.7-4.12c5.83-13.45,5.45-13.85,4.31-15l-7.45-7.43-.74-.64h-.86c-.46,0-1.81,0-13.14,5.24l-4.17-1.72C57.15,0,56.6,0,55,0ZM50,67.49A17.5,17.5,0,1,1,67.46,50,17.52,17.52,0,0,1,50,67.49Z"/></g></g></svg>