<svg xmlns="http://www.w3.org/2000/svg" viewBox="0 0 90.6 80"><defs><style>.cls-1{fill:#f1f2f2;}.cls-2{fill:#009444;}.cls-3{fill:#22313f;}.cls-4{fill:#fff;}</style></defs><title>Asset 2</title><g id="Layer_2" data-name="Layer 2"><g id="Layer_2-2" data-name="Layer 2"><path class="cls-1" d="M60.06,63.6A14.14,14.14,0,0,1,74.2,49.46V2.26H2.26V77.74H74.2A14.14,14.14,0,0,1,60.06,63.6Z"/><circle class="cls-2" cx="74.2" cy="63.6" r="14.14"/><path class="cls-3" d="M26.29,24.05H20.07a2.26,2.26,0,0,0,0,4.53h6.22a2.26,2.26,0,0,0,0-4.53Z"/><path class="cls-3" d="M36,28.58H56.39a2.26,2.26,0,0,0,0-4.53H36a2.26,2.26,0,1,0,0,4.53Z"/><path class="cls-3" d="M26.29,37.74H20.07a2.26,2.26,0,0,0,0,4.53h6.22a2.26,2.26,0,0,0,0-4.53Z"/><path class="cls-3" d="M36,42.26H56.39a2.26,2.26,0,0,0,0-4.53H36a2.26,2.26,0,1,0,0,4.53Z"/><path class="cls-3" d="M26.29,51.42H20.07a2.26,2.26,0,0,0,0,4.53h6.22a2.26,2.26,0,0,0,0-4.53Z"/><path class="cls-3" d="M58.66,53.69a2.26,2.26,0,0,0-2.26-2.26H36a2.26,2.26,0,0,0,0,4.53H56.39A2.26,2.26,0,0,0,58.66,53.69Z"/><path class="cls-3" d="M76.46,47.36V2.26A2.26,2.26,0,0,0,74.2,0H2.26A2.26,2.26,0,0,0,0,2.26V77.74A2.26,2.26,0,0,0,2.26,80H74.2a16.4,16.4,0,0,0,2.26-32.64ZM62.89,75.47H4.53V4.53h67.4V47.35C58.59,49.2,52.8,65.87,62.89,75.47Zm11.3,0A11.87,11.87,0,1,1,86.07,63.6,11.89,11.89,0,0,1,74.2,75.47Z"/><path class="cls-4" d="M81.21,57.84a2.26,2.26,0,0,0-3.11.76l-4.44,7.34-3.44-3a2.26,2.26,0,0,0-3,3.4l5.48,4.83a2.26,2.26,0,0,0,3.44-.53L82,60.95A2.26,2.26,0,0,0,81.21,57.84Z"/></g></g></svg>