<svg xmlns="http://www.w3.org/2000/svg" viewBox="0 0 79.24 100"><defs><style>.cls-1{fill:#4d4d4d;}</style></defs><title>Asset 27</title><g id="Layer_2" data-name="Layer 2"><g id="layout"><path class="cls-1" d="M62.36,73.77H16.89a1.4,1.4,0,1,0,0,2.79H62.36a1.4,1.4,0,1,0,0-2.79Z"/><path class="cls-1" d="M62.36,62.24H16.89a1.4,1.4,0,1,0,0,2.79H62.36a1.4,1.4,0,1,0,0-2.79Z"/><path class="cls-1" d="M62.36,50.71H16.89a1.4,1.4,0,1,0,0,2.79H62.36a1.4,1.4,0,1,0,0-2.79Z"/><path class="cls-1" d="M16.89,42.24h20.8a1.4,1.4,0,1,0,0-2.79H16.89a1.4,1.4,0,1,0,0,2.79Z"/><path class="cls-1" d="M63.66,1A3.87,3.87,0,0,0,61,0H3.73A3.62,3.62,0,0,0,0,3.48v93A3.62,3.62,0,0,0,3.73,100H75.51a3.62,3.62,0,0,0,3.73-3.49V16.78a3.38,3.38,0,0,0-1.11-2.49ZM7.48,93V7H57.15V18.33a2.18,2.18,0,0,0,2.24,2.1H71.77V93Z"/><path class="cls-1" d="M20.4,22.59a3.92,3.92,0,0,0,3.79-4,3.91,3.91,0,0,0-3.79-4,3.91,3.91,0,0,0-3.78,4A3.92,3.92,0,0,0,20.4,22.59Z"/><path class="cls-1" d="M23.44,23.19H17.37a2.2,2.2,0,0,0-2,2.36V32c0,.07,0,.14,0,.21h9.95c0-.07,0-.14,0-.21v-6.5A2.19,2.19,0,0,0,23.44,23.19Z"/></g></g></svg>