<svg xmlns="http://www.w3.org/2000/svg" viewBox="0 0 101.34 100"><defs><style>.cls-1{fill:#4d4d4d;}</style></defs><title>Asset 68</title><g id="Layer_2" data-name="Layer 2"><g id="layout"><path class="cls-1" d="M8.57,47.63H40.28v6A1.39,1.39,0,0,0,41.67,55h18a1.39,1.39,0,0,0,1.39-1.39v-6H91.44a1.39,1.39,0,0,0,1.39-1.39V1.39A1.39,1.39,0,0,0,91.44,0H8.57A1.39,1.39,0,0,0,7.18,1.39V46.24A1.39,1.39,0,0,0,8.57,47.63Zm49.71,4.63H43.06V47.63H58.28Zm1.39-7.41H10V39.53h80.1v5.32H59.67ZM90.05,2.78v34H10v-34ZM18.87,20.83a11.4,11.4,0,0,1,11.4-11.4v11.4h11.4a11.4,11.4,0,0,1-22.8,0Zm39.41,11.4V23a1.39,1.39,0,1,1,2.78,0v9.2a1.39,1.39,0,0,1-2.78,0Zm4.34,0V19.56a1.39,1.39,0,1,1,2.78,0V32.24a1.39,1.39,0,1,1-2.78,0Zm4.34,0V14.53a1.39,1.39,0,1,1,2.78,0V32.24a1.39,1.39,0,0,1-2.78,0Zm4.34,0V13.66a1.39,1.39,0,0,1,2.78,0V32.24a1.39,1.39,0,0,1-2.78,0Zm4.34,0V8.62a1.39,1.39,0,0,1,2.78,0V32.24a1.39,1.39,0,0,1-2.78,0ZM101.25,80.8,92.8,58.06a1.39,1.39,0,0,0-1.3-.91H9.84a1.39,1.39,0,0,0-1.3.91L.09,80.8a1.37,1.37,0,0,0-.09.48V90.1a1.39,1.39,0,0,0,1.39,1.39h2C2,95.12.85,98,.83,98.11a1.39,1.39,0,0,0,2.59,1c0-.12,4.78-12.24,6.8-18,1.85-5.92,7.79-7.06,11.41-6,1.06.32,4.42,1.62,3.43,5.11-2,5.72-5.75,17.81-5.78,17.93a1.39,1.39,0,0,0,.92,1.74,1.37,1.37,0,0,0,.41.06,1.39,1.39,0,0,0,1.33-1c0-.06,1.08-3.48,2.37-7.54H77c1.29,4,2.35,7.47,2.37,7.54a1.39,1.39,0,0,0,1.33,1,1.42,1.42,0,0,0,.41-.06,1.39,1.39,0,0,0,.92-1.74c0-.12-3.79-12.21-5.76-17.85-1-3.56,2.35-4.87,3.41-5.18a9.15,9.15,0,0,1,11.43,6c2,5.69,6.74,17.8,6.79,17.93a1.39,1.39,0,0,0,2.59-1c0-.06-1.17-3-2.56-6.62h2a1.39,1.39,0,0,0,1.39-1.39V81.29A1.47,1.47,0,0,0,101.25,80.8ZM2.78,88.71v-6H6.71c-.68,1.84-1.48,4-2.26,6ZM22.43,72.5a12.41,12.41,0,0,0-7.36.12l2.65-6.52s.87-1.69,5.14-1.69a23.9,23.9,0,0,1,5.7.46l.18,0a1.87,1.87,0,0,1,1.17.79,3.23,3.23,0,0,1-.18,2.48,1.39,1.39,0,0,0,2.59,1,8.17,8.17,0,0,0,.46-1.84c1.31.1,1.75.39,1.86.53.4.49.05,2.21-.32,4l-.25,1.23c-.59,3-5.19,2.95-6.94,2.81A7.91,7.91,0,0,0,22.43,72.5ZM76.15,88.71h-51c.68-2.13,1.38-4.24,2-6h47C74.77,84.45,75.46,86.57,76.15,88.71ZM78.91,72.5a7.87,7.87,0,0,0-4.7,3.44c-1.74.13-6.37.2-6.95-2.8L67,71.91c-.37-1.82-.72-3.55-.32-4,.11-.14.53-.4,1.86-.51A8.14,8.14,0,0,0,69,69.19a1.39,1.39,0,1,0,2.59-1,3.23,3.23,0,0,1-.18-2.48,1.87,1.87,0,0,1,1.15-.79l.18,0a23.72,23.72,0,0,1,5.71-.46c4.28,0,5.14,1.68,5.14,1.68l2.66,6.53A12.38,12.38,0,0,0,78.91,72.5Zm11.23,2.28-3.94-9.69c-.13-.35-1.45-3.46-7.73-3.46a26.12,26.12,0,0,0-6.44.56,4.6,4.6,0,0,0-3,2.11c0,.08-.06.17-.1.25-2.18.09-3.56.55-4.39,1.56-1.24,1.51-.83,3.54-.26,6.35l.24,1.21c.78,4,4.92,5.13,8.35,5.13l.51,0a6.81,6.81,0,0,0,0,1.11H27.93a6.8,6.8,0,0,0,0-1.11l.5,0c3.43,0,7.57-1.09,8.35-5.13L37,72.47c.57-2.81,1-4.84-.26-6.35-.83-1-2.17-1.46-4.39-1.56,0-.08-.06-.17-.1-.25a4.6,4.6,0,0,0-3-2.11,26,26,0,0,0-6.44-.56c-6.28,0-7.6,3.1-7.71,3.41l-4,9.72A11.53,11.53,0,0,0,7.72,79.9H3.39l7.42-20H90.53L98,79.9H93.62A11.63,11.63,0,0,0,90.15,74.78Zm6.74,13.92c-.79-2.08-1.59-4.2-2.26-6h3.94v6Z"/></g></g></svg>