<svg xmlns="http://www.w3.org/2000/svg" viewBox="0 0 80 80"><defs><style>.cls-1{fill:#fff200;}.cls-2{fill:#da1c5c;}.cls-3{fill:#ffdb77;}.cls-4{fill:#22313f;}.cls-5{fill:#f9a01b;}</style></defs><title>Asset 1</title><g id="Layer_2" data-name="Layer 2"><g id="Layer_2-2" data-name="Layer 2"><rect class="cls-1" x="6.53" y="29.76" width="68.68" height="18.73" transform="translate(-15.7 40.36) rotate(-45)"/><path class="cls-2" d="M75,18.22A9.37,9.37,0,0,0,75,5h0A9.37,9.37,0,0,0,61.78,5L58.53,8.22,71.78,21.47Z"/><polygon class="cls-3" points="9.97 56.79 2.23 77.77 23.21 70.03 9.97 56.79"/><path class="cls-4" d="M76.6,3.4a11.59,11.59,0,0,0-16.4,0L8.39,55.21a2.25,2.25,0,0,0-.51.79v0L.14,77A2.23,2.23,0,0,0,3,79.86l21-7.73h0a2.26,2.26,0,0,0,.78-.51L76.6,19.8A11.59,11.59,0,0,0,76.6,3.4ZM6,74l4.86-13.17,8.32,8.32Zm17.21-7.12L13.12,56.79,58.53,11.37,68.63,21.47ZM73.45,16.64l-1.67,1.67L61.69,8.22l1.67-1.67A7.14,7.14,0,1,1,73.45,16.64Z"/><path class="cls-5" d="M51.51,25.33,27.08,49.77a2.23,2.23,0,1,0,3.15,3.15L54.67,28.49a2.23,2.23,0,1,0-3.15-3.15Z"/></g></g></svg>