<svg xmlns="http://www.w3.org/2000/svg" viewBox="0 0 100 21.45"><defs><style>.cls-1{fill:#ccc;}.cls-2{fill:#f4f5f5;}</style></defs><title>Asset 35</title><g id="Layer_2" data-name="Layer 2"><g id="layout"><polygon class="cls-1" points="21 16.01 22.58 16.01 22.58 14.61 22.6 14.61 26.45 14.59 26.46 14.4 25.35 13.33 21 13.31 21 16.01"/><polygon class="cls-1" points="14.65 15.46 14.5 15.46 14.5 13.84 14.18 13.84 14.18 15.46 14.04 15.46 14.04 15.9 14.65 15.9 14.65 15.46"/><polygon class="cls-1" points="22.75 16.01 27.04 16.01 27.04 14.79 22.75 14.77 22.75 16.01"/><polygon class="cls-1" points="83.86 14.23 78.84 14.19 78.84 16.31 85.06 16.31 85.06 13.96 83.83 12.96 80.7 12.96 80.7 13.45 80.14 13.45 80.14 14.01 83.86 14.01 83.86 14.23"/><path class="cls-1" d="M7.87,9.2c-.25-.31-.29-.29-.46-.53v3.64h.45Z"/><path class="cls-1" d="M33.24,10.06h1.07V10l-3.78,0v5.35h-.17l0-5.53H32c0-1.15,0-2.39,0-3.51l-.45-.46h-.41V5.27H28.9v.52H28V15.3h5.21Z"/><polygon class="cls-1" points="33.38 9.46 32.7 9.46 32.7 8.41 32.4 8.41 32.4 9.46 32.1 9.46 32.1 9.76 33.38 9.76 33.38 9.46"/><polygon class="cls-1" points="6.17 7.64 4.38 7.64 4.38 5.12 4.13 5.12 4.13 7.64 2.51 7.64 2.51 8.46 6.17 8.46 6.17 7.64"/><polygon class="cls-1" points="88.61 10.8 88.62 10.8 88.62 10.76 91.22 10.76 91.22 8.71 90.42 8.71 90.42 8.01 87.72 8.01 87.72 8.67 86.53 8.67 86.53 14.21 88.61 14.21 88.61 10.8"/><path class="cls-1" d="M100,14.23l-6.84,0v3.38H93l0-3.57h5.51V10.3h.17V10.1H97.46V9.79h-.73V8.15H96.6V9.79h-.44v.31H96v.19h.14v2.32H96v-.81l-.84-.64H92.91v-.21H88.78v3.26h2.79l0,6h-.17V14.39h-5.7v1.91h1.55v4.57H87V16.49H78.32v4.36h-.17V16.3h.52V14l1.23,0V11.25l-2.1-1.31h-.92V9.3H74.58v.63h-.45v.41h-.21V12.8H76V13H67.17v7.07H67l0-7.25h4.45V11.37h-.81l0-.66h-.29v-.45h-1V9.42h-1V7h-.14V9.42h-.32v.84h-.32v.45h-.24v.21h-.43v.38l-5.62,0V11.1h5.41V3.61h.05l-.05-.07V3.45H66.6l-1-1.26V1.62H60.08v.68l-1.5,1V7.06H57.29l0,11.57-.21,0V7.06H57v-.4h-.36V5.72h-4.2v.55h-.33v.4h-.26v7.26h2.22l0,6.89h-.17V14.12h-6.3v7.12h-.17V14h0v-.08h4.06v-.71l-6.43,0v7h-.17V13h5.3V1.26h0L49,.61,48.24,0h-3V.65L43.9.62V19.69h-.17V10.52H42.34V8.46l-.68-.89v12h-.17V7.48H40.34V7h-3.5v.47H36V10h1.39l0,9.86h-.17V10.23H33.41V15.3l.81,0v5.45h-.17v-5.3l-6.75,0v.72l-6.79,0v4.5h-.17V16h0l.48,0V13.13H24l0-.34-5.7,0v4.49h-.17V12.57h4l0-6.05-1.37-.78-5,.05,0,10.57h1.66v4.16h-.17V16.58l-2.36,0V16.1H13.83v.51h-1v4.18h-.15V16.51l-.57,0V16h-.34v.49l-4.09,0v4.45H7.55V16.24h4V12.58H10.36l0-.58h-.21v0h-2v-.08h2v-.12H8V12H7.88v.45h-3v6.87H4.69v-4h-4v.28H.43v.8H3.89l0,4.69H3.74V16.61H0v4.84H100ZM61.65,18.56h-.17V11.33h.17Zm14.4,1.73h-.17V13.06h.17Z"/><rect class="cls-1" x="51.52" y="13.92" width="0.34" height="0.01"/><polygon class="cls-1" points="4.69 15.21 4.69 12.32 7.17 12.32 7.17 8.61 0.98 8.61 0.98 15.21 4.69 15.21"/><rect class="cls-1" x="36.82" y="6.34" width="0.98" height="0.46"/><rect class="cls-1" x="28.72" y="4.85" width="2.63" height="0.28"/><rect class="cls-1" x="38.07" y="6.34" width="0.98" height="0.46"/><rect class="cls-1" x="39.33" y="6.36" width="0.98" height="0.46"/><rect class="cls-1" x="60.08" y="0.96" width="5.46" height="0.44"/><rect class="cls-2" x="1.44" y="8.49" width="0.15" height="6.78"/><rect class="cls-2" x="2.06" y="8.52" width="0.15" height="6.78"/><rect class="cls-2" x="3.48" y="8.54" width="0.15" height="6.78"/><rect class="cls-2" x="4.24" y="8.54" width="0.15" height="6.78"/><rect class="cls-2" x="5" y="8.54" width="0.15" height="3.85"/><rect class="cls-2" x="5.81" y="8.52" width="0.15" height="3.85"/><rect class="cls-2" x="6.52" y="8.49" width="0.15" height="3.85"/><rect class="cls-2" x="7.88" y="17.17" width="0.25" height="0.37"/><rect class="cls-2" x="8.5" y="17.17" width="0.25" height="0.37"/><rect class="cls-2" x="28.34" y="6.25" width="0.56" height="0.37"/><rect class="cls-2" x="30.41" y="6.25" width="0.56" height="0.37"/><rect class="cls-2" x="29.37" y="6.25" width="0.56" height="0.37"/><rect class="cls-2" x="28.34" y="6.87" width="0.56" height="0.37"/><rect class="cls-2" x="30.41" y="6.87" width="0.56" height="0.37"/><rect class="cls-2" x="29.37" y="6.87" width="0.56" height="0.37"/><rect class="cls-2" x="28.34" y="7.49" width="0.56" height="0.37"/><rect class="cls-2" x="30.41" y="7.49" width="0.56" height="0.37"/><rect class="cls-2" x="29.37" y="7.49" width="0.56" height="0.37"/><rect class="cls-2" x="28.34" y="8.11" width="0.56" height="0.37"/><rect class="cls-2" x="30.41" y="8.11" width="0.56" height="0.37"/><rect class="cls-2" x="29.37" y="8.11" width="0.56" height="0.37"/><rect class="cls-2" x="28.34" y="8.73" width="0.56" height="0.37"/><rect class="cls-2" x="30.41" y="8.73" width="0.56" height="0.37"/><rect class="cls-2" x="29.37" y="8.73" width="0.56" height="0.37"/><rect class="cls-2" x="28.34" y="9.34" width="0.56" height="0.37"/><rect class="cls-2" x="30.41" y="9.34" width="0.56" height="0.37"/><rect class="cls-2" x="29.37" y="9.34" width="0.56" height="0.37"/><rect class="cls-2" x="28.34" y="9.96" width="0.56" height="0.37"/><rect class="cls-2" x="29.37" y="9.96" width="0.56" height="0.37"/><rect class="cls-2" x="28.34" y="10.58" width="0.56" height="0.37"/><rect class="cls-2" x="29.37" y="10.58" width="0.56" height="0.37"/><rect class="cls-2" x="28.34" y="11.2" width="0.56" height="0.37"/><rect class="cls-2" x="29.37" y="11.2" width="0.56" height="0.37"/><rect class="cls-2" x="28.34" y="11.82" width="0.56" height="0.37"/><rect class="cls-2" x="29.37" y="11.82" width="0.56" height="0.37"/><rect class="cls-2" x="28.34" y="12.44" width="0.56" height="0.37"/><rect class="cls-2" x="29.37" y="12.44" width="0.56" height="0.37"/><rect class="cls-2" x="28.34" y="13.06" width="0.56" height="0.37"/><rect class="cls-2" x="29.37" y="13.06" width="0.56" height="0.37"/><rect class="cls-2" x="28.34" y="13.68" width="0.56" height="0.37"/><rect class="cls-2" x="29.37" y="13.68" width="0.56" height="0.37"/><rect class="cls-2" x="28.34" y="14.3" width="0.56" height="0.37"/><rect class="cls-2" x="29.37" y="14.3" width="0.56" height="0.37"/><rect class="cls-2" x="9.12" y="17.17" width="0.25" height="0.37"/><rect class="cls-2" x="9.74" y="17.17" width="0.25" height="0.37"/><rect class="cls-2" x="10.36" y="17.17" width="0.25" height="0.37"/><rect class="cls-2" x="10.97" y="17.17" width="0.25" height="0.37"/><rect class="cls-2" x="15.95" y="6.37" width="4.52" height="0.25"/><rect class="cls-2" x="15.95" y="6.79" width="4.52" height="0.25"/><rect class="cls-2" x="15.95" y="7.2" width="4.52" height="0.25"/><rect class="cls-2" x="15.95" y="7.61" width="4.52" height="0.25"/><rect class="cls-2" x="15.95" y="8.23" width="4.52" height="0.25"/><rect class="cls-2" x="15.95" y="8.64" width="4.52" height="0.25"/><rect class="cls-2" x="15.95" y="9.06" width="4.52" height="0.25"/><rect class="cls-2" x="15.95" y="9.47" width="4.52" height="0.25"/><rect class="cls-2" x="15.95" y="10.09" width="4.52" height="0.25"/><rect class="cls-2" x="15.95" y="10.5" width="4.52" height="0.25"/><rect class="cls-2" x="15.95" y="10.91" width="4.52" height="0.25"/><rect class="cls-2" x="15.95" y="11.33" width="4.52" height="0.25"/><rect class="cls-2" x="15.95" y="11.95" width="4.52" height="0.25"/><rect class="cls-2" x="15.95" y="12.36" width="4.52" height="0.25"/><rect class="cls-2" x="15.95" y="12.77" width="2.17" height="0.25"/><rect class="cls-2" x="15.95" y="13.18" width="2.17" height="0.25"/><rect class="cls-2" x="15.95" y="13.8" width="2.17" height="0.25"/><rect class="cls-2" x="15.95" y="14.22" width="2.17" height="0.25"/><rect class="cls-2" x="15.95" y="14.63" width="2.17" height="0.25"/><rect class="cls-2" x="15.95" y="15.04" width="2.17" height="0.25"/><rect class="cls-2" x="15.95" y="15.66" width="2.14" height="0.25"/><rect class="cls-2" x="11.59" y="17.17" width="0.25" height="0.37"/><rect class="cls-2" x="12.21" y="17.17" width="0.25" height="0.37"/><rect class="cls-2" x="7.88" y="17.79" width="0.25" height="0.37"/><rect class="cls-2" x="8.5" y="17.79" width="0.25" height="0.37"/><rect class="cls-2" x="9.12" y="17.79" width="0.25" height="0.37"/><rect class="cls-2" x="9.74" y="17.79" width="0.25" height="0.37"/><rect class="cls-2" x="10.36" y="17.79" width="0.25" height="0.37"/><rect class="cls-2" x="10.97" y="17.79" width="0.25" height="0.37"/><rect class="cls-2" x="11.59" y="17.79" width="0.25" height="0.37"/><rect class="cls-2" x="12.21" y="17.79" width="0.25" height="0.37"/><rect class="cls-2" x="7.88" y="18.41" width="0.25" height="0.37"/><rect class="cls-2" x="8.5" y="18.41" width="0.25" height="0.37"/><rect class="cls-2" x="9.12" y="18.41" width="0.25" height="0.37"/><rect class="cls-2" x="9.74" y="18.41" width="0.25" height="0.37"/><rect class="cls-2" x="10.36" y="18.41" width="0.25" height="0.37"/><rect class="cls-2" x="10.97" y="18.41" width="0.25" height="0.37"/><rect class="cls-2" x="11.59" y="18.41" width="0.25" height="0.37"/><rect class="cls-2" x="12.21" y="18.41" width="0.25" height="0.37"/><rect class="cls-2" x="7.88" y="19.03" width="0.25" height="0.37"/><rect class="cls-2" x="8.5" y="19.03" width="0.25" height="0.37"/><rect class="cls-2" x="9.12" y="19.03" width="0.25" height="0.37"/><rect class="cls-2" x="9.74" y="19.03" width="0.25" height="0.37"/><rect class="cls-2" x="10.36" y="19.03" width="0.25" height="0.37"/><rect class="cls-2" x="10.97" y="19.03" width="0.25" height="0.37"/><rect class="cls-2" x="11.59" y="19.03" width="0.25" height="0.37"/><rect class="cls-2" x="12.21" y="19.03" width="0.25" height="0.37"/><rect class="cls-2" x="7.88" y="19.65" width="0.25" height="0.37"/><rect class="cls-2" x="8.5" y="19.65" width="0.25" height="0.37"/><rect class="cls-2" x="9.12" y="19.65" width="0.25" height="0.37"/><rect class="cls-2" x="9.74" y="19.65" width="0.25" height="0.37"/><rect class="cls-2" x="10.36" y="19.65" width="0.25" height="0.37"/><rect class="cls-2" x="10.97" y="19.65" width="0.25" height="0.37"/><rect class="cls-2" x="11.59" y="19.65" width="0.25" height="0.37"/><rect class="cls-2" x="12.21" y="19.65" width="0.25" height="0.37"/><rect class="cls-2" x="7.88" y="20.27" width="0.25" height="0.37"/><rect class="cls-2" x="8.5" y="20.27" width="0.25" height="0.37"/><rect class="cls-2" x="9.12" y="20.27" width="0.25" height="0.37"/><rect class="cls-2" x="9.74" y="20.27" width="0.25" height="0.37"/><rect class="cls-2" x="10.36" y="20.27" width="0.25" height="0.37"/><rect class="cls-2" x="10.97" y="20.27" width="0.25" height="0.37"/><rect class="cls-2" x="11.59" y="20.27" width="0.25" height="0.37"/><rect class="cls-2" x="12.21" y="20.27" width="0.25" height="0.37"/><rect class="cls-2" x="2.78" y="8.54" width="0.15" height="6.78"/><rect class="cls-2" x="0.24" y="17.09" width="3.1" height="0.21"/><rect class="cls-2" x="0.24" y="17.5" width="3.1" height="0.21"/><rect class="cls-2" x="0.24" y="17.91" width="3.1" height="0.21"/><rect class="cls-2" x="0.24" y="18.33" width="3.1" height="0.21"/><rect class="cls-2" x="0.24" y="18.74" width="3.1" height="0.21"/><rect class="cls-2" x="0.24" y="19.15" width="3.1" height="0.21"/><rect class="cls-2" x="0.24" y="19.56" width="3.1" height="0.21"/><rect class="cls-2" x="0.24" y="19.98" width="3.1" height="0.21"/><rect class="cls-2" x="0.24" y="20.39" width="3.1" height="0.21"/><rect class="cls-2" x="0.24" y="20.8" width="3.1" height="0.21"/><rect class="cls-2" x="5.53" y="13.13" width="0.31" height="1.12"/><rect class="cls-2" x="5.53" y="14.37" width="0.31" height="1.12"/><rect class="cls-2" x="5.53" y="15.61" width="0.31" height="1.12"/><rect class="cls-2" x="5.53" y="16.85" width="0.31" height="1.12"/><rect class="cls-2" x="5.53" y="18.08" width="0.31" height="1.12"/><rect class="cls-2" x="5.53" y="19.32" width="0.31" height="1.12"/><rect class="cls-2" x="6.98" y="13.13" width="0.31" height="1.12"/><rect class="cls-2" x="6.98" y="14.37" width="0.31" height="1.12"/><rect class="cls-2" x="6.98" y="15.61" width="0.31" height="1.12"/><rect class="cls-2" x="6.98" y="16.85" width="0.31" height="1.12"/><rect class="cls-2" x="6.98" y="18.08" width="0.31" height="1.12"/><rect class="cls-2" x="6.98" y="19.32" width="0.31" height="1.12"/><rect class="cls-2" x="8.42" y="13.13" width="0.31" height="1.12"/><rect class="cls-2" x="8.42" y="14.37" width="0.31" height="1.12"/><rect class="cls-2" x="8.42" y="15.61" width="0.31" height="0.71"/><rect class="cls-2" x="9.87" y="13.13" width="0.31" height="1.12"/><rect class="cls-2" x="9.87" y="14.37" width="0.31" height="1.12"/><rect class="cls-2" x="9.87" y="15.61" width="0.31" height="0.54"/><rect class="cls-2" x="21.39" y="13.61" width="0.64" height="0.46"/><rect class="cls-2" x="21.39" y="14.44" width="0.64" height="0.46"/><rect class="cls-2" x="21.39" y="15.26" width="0.64" height="0.46"/><rect class="cls-2" x="22.55" y="13.61" width="1.75" height="0.46"/><rect class="cls-2" x="13.38" y="16.98" width="0.63" height="3.87"/><rect class="cls-2" x="15.14" y="16.98" width="0.63" height="3.87"/><rect class="cls-2" x="16.02" y="16.98" width="0.63" height="3.87"/><rect class="cls-2" x="14.26" y="16.98" width="0.63" height="3.87"/><rect class="cls-1" x="16.09" y="5.43" width="4.28" height="0.23"/><rect class="cls-2" x="30.75" y="10.72" width="2.27" height="0.28"/><rect class="cls-2" x="30.75" y="12.99" width="2.27" height="0.28"/><rect class="cls-2" x="30.75" y="11.76" width="2.27" height="0.28"/><rect class="cls-2" x="30.75" y="14.03" width="2.27" height="0.28"/><rect class="cls-2" x="40.04" y="8.07" width="0.89" height="12.56"/><rect class="cls-2" x="38.8" y="8.07" width="0.89" height="12.56"/><rect class="cls-2" x="37.56" y="8.07" width="0.89" height="12.56"/><rect class="cls-2" x="36.32" y="8.07" width="0.89" height="1.96"/><rect class="cls-2" x="44.2" y="1.19" width="0.78" height="0.33"/><rect class="cls-2" x="45.28" y="1.19" width="0.78" height="0.33"/><rect class="cls-2" x="46.36" y="1.19" width="0.78" height="0.33"/><rect class="cls-2" x="47.44" y="1.19" width="0.78" height="0.33"/><rect class="cls-2" x="44.2" y="1.81" width="0.78" height="0.33"/><rect class="cls-2" x="45.28" y="1.81" width="0.78" height="0.33"/><rect class="cls-2" x="46.36" y="1.81" width="0.78" height="0.33"/><rect class="cls-2" x="47.44" y="1.81" width="0.78" height="0.33"/><rect class="cls-2" x="44.2" y="2.42" width="0.78" height="0.33"/><rect class="cls-2" x="45.28" y="2.42" width="0.78" height="0.33"/><rect class="cls-2" x="46.36" y="2.42" width="0.78" height="0.33"/><rect class="cls-2" x="47.44" y="2.42" width="0.78" height="0.33"/><rect class="cls-2" x="44.2" y="3.46" width="0.78" height="0.33"/><rect class="cls-2" x="45.28" y="3.46" width="0.78" height="0.33"/><rect class="cls-2" x="46.36" y="3.46" width="0.78" height="0.33"/><rect class="cls-2" x="47.44" y="3.46" width="0.78" height="0.33"/><rect class="cls-2" x="44.2" y="4.08" width="0.78" height="0.33"/><rect class="cls-2" x="45.28" y="4.08" width="0.78" height="0.33"/><rect class="cls-2" x="46.36" y="4.08" width="0.78" height="0.33"/><rect class="cls-2" x="47.44" y="4.08" width="0.78" height="0.33"/><rect class="cls-2" x="44.2" y="4.69" width="0.78" height="0.33"/><rect class="cls-2" x="45.28" y="4.69" width="0.78" height="0.33"/><rect class="cls-2" x="46.36" y="4.69" width="0.78" height="0.33"/><rect class="cls-2" x="47.44" y="4.69" width="0.78" height="0.33"/><rect class="cls-2" x="44.2" y="5.73" width="0.78" height="0.33"/><rect class="cls-2" x="45.28" y="5.73" width="0.78" height="0.33"/><rect class="cls-2" x="46.36" y="5.73" width="0.78" height="0.33"/><rect class="cls-2" x="47.44" y="5.73" width="0.78" height="0.33"/><rect class="cls-2" x="44.2" y="6.35" width="0.78" height="0.33"/><rect class="cls-2" x="45.28" y="6.35" width="0.78" height="0.33"/><rect class="cls-2" x="46.36" y="6.35" width="0.78" height="0.33"/><rect class="cls-2" x="47.44" y="6.35" width="0.78" height="0.33"/><rect class="cls-2" x="44.2" y="6.97" width="0.78" height="0.33"/><rect class="cls-2" x="45.28" y="6.97" width="0.78" height="0.33"/><rect class="cls-2" x="46.36" y="6.97" width="0.78" height="0.33"/><rect class="cls-2" x="47.44" y="6.97" width="0.78" height="0.33"/><rect class="cls-2" x="44.2" y="7.79" width="0.78" height="0.33"/><rect class="cls-2" x="45.28" y="7.79" width="0.78" height="0.33"/><rect class="cls-2" x="46.36" y="7.79" width="0.78" height="0.33"/><rect class="cls-2" x="47.44" y="7.79" width="0.78" height="0.33"/><rect class="cls-2" x="44.2" y="8.41" width="0.78" height="0.33"/><rect class="cls-2" x="45.28" y="8.41" width="0.78" height="0.33"/><rect class="cls-2" x="46.36" y="8.41" width="0.78" height="0.33"/><rect class="cls-2" x="47.44" y="8.41" width="0.78" height="0.33"/><rect class="cls-2" x="44.2" y="9.03" width="0.78" height="0.33"/><rect class="cls-2" x="45.28" y="9.03" width="0.78" height="0.33"/><rect class="cls-2" x="46.36" y="9.03" width="0.78" height="0.33"/><rect class="cls-2" x="47.44" y="9.03" width="0.78" height="0.33"/><rect class="cls-2" x="44.2" y="9.85" width="0.78" height="0.33"/><rect class="cls-2" x="45.28" y="9.85" width="0.78" height="0.33"/><rect class="cls-2" x="46.36" y="9.85" width="0.78" height="0.33"/><rect class="cls-2" x="47.44" y="9.85" width="0.78" height="0.33"/><rect class="cls-2" x="44.2" y="10.47" width="0.78" height="0.33"/><rect class="cls-2" x="45.28" y="10.47" width="0.78" height="0.33"/><rect class="cls-2" x="46.36" y="10.47" width="0.78" height="0.33"/><rect class="cls-2" x="47.44" y="10.47" width="0.78" height="0.33"/><rect class="cls-2" x="44.2" y="11.09" width="0.78" height="0.33"/><rect class="cls-2" x="45.28" y="11.09" width="0.78" height="0.33"/><rect class="cls-2" x="46.36" y="11.09" width="0.78" height="0.33"/><rect class="cls-2" x="47.44" y="11.09" width="0.78" height="0.33"/><rect class="cls-2" x="44.2" y="11.92" width="0.78" height="0.33"/><rect class="cls-2" x="45.28" y="11.92" width="0.78" height="0.33"/><rect class="cls-2" x="46.36" y="11.92" width="0.78" height="0.33"/><rect class="cls-2" x="47.44" y="11.92" width="0.78" height="0.33"/><rect class="cls-2" x="52.73" y="5.87" width="0.69" height="0.21"/><rect class="cls-2" x="53.76" y="5.87" width="0.69" height="0.21"/><rect class="cls-2" x="54.79" y="5.87" width="0.69" height="0.21"/><rect class="cls-2" x="52.08" y="7.11" width="4.4" height="0.21"/><rect class="cls-2" x="52.08" y="7.52" width="4.4" height="0.21"/><rect class="cls-2" x="52.08" y="7.94" width="4.4" height="0.21"/><rect class="cls-2" x="52.08" y="8.35" width="4.4" height="0.21"/><rect class="cls-2" x="52.08" y="8.76" width="4.4" height="0.21"/><rect class="cls-2" x="52.08" y="9.18" width="4.4" height="0.21"/><rect class="cls-2" x="52.08" y="9.59" width="4.4" height="0.21"/><rect class="cls-2" x="52.08" y="10" width="4.4" height="0.21"/><rect class="cls-2" x="52.08" y="10.41" width="4.4" height="0.21"/><rect class="cls-2" x="52.08" y="10.83" width="4.4" height="0.21"/><rect class="cls-2" x="52.08" y="11.65" width="4.4" height="0.21"/><rect class="cls-2" x="52.08" y="11.24" width="4.4" height="0.21"/><rect class="cls-2" x="52.08" y="12.07" width="4.4" height="0.21"/><rect class="cls-2" x="52.08" y="12.48" width="4.4" height="0.21"/><rect class="cls-2" x="52.08" y="12.89" width="4.4" height="0.21"/><rect class="cls-2" x="52.08" y="13.3" width="4.4" height="0.21"/><rect class="cls-2" x="54.07" y="14.13" width="2.41" height="0.21"/><rect class="cls-2" x="52.08" y="13.72" width="4.4" height="0.21"/><rect class="cls-2" x="54.07" y="14.54" width="2.41" height="0.21"/><rect class="cls-2" x="54.07" y="14.95" width="2.41" height="0.21"/><rect class="cls-2" x="54.07" y="15.37" width="2.41" height="0.21"/><rect class="cls-2" x="54.07" y="15.78" width="2.41" height="0.21"/><rect class="cls-2" x="54.07" y="16.19" width="2.41" height="0.21"/><rect class="cls-2" x="54.07" y="16.61" width="2.41" height="0.21"/><rect class="cls-2" x="54.07" y="17.02" width="2.41" height="0.21"/><rect class="cls-2" x="54.07" y="17.02" width="2.41" height="0.21"/><rect class="cls-2" x="54.07" y="17.43" width="2.41" height="0.21"/><rect class="cls-2" x="54.07" y="17.84" width="2.41" height="0.21"/><rect class="cls-2" x="54.07" y="18.26" width="2.41" height="0.21"/><rect class="cls-2" x="54.07" y="18.67" width="2.41" height="0.21"/><rect class="cls-2" x="54.07" y="19.08" width="2.41" height="0.21"/><rect class="cls-2" x="54.07" y="19.5" width="2.41" height="0.21"/><rect class="cls-2" x="54.07" y="19.91" width="2.41" height="0.21"/><rect class="cls-2" x="58.98" y="4.05" width="0.84" height="0.99"/><rect class="cls-2" x="61.25" y="4.05" width="0.84" height="0.99"/><rect class="cls-2" x="60.01" y="4.05" width="0.18" height="0.99"/><rect class="cls-2" x="60.42" y="4.05" width="0.18" height="0.99"/><rect class="cls-2" x="60.84" y="4.05" width="0.18" height="0.99"/><rect class="cls-2" x="62.28" y="4.05" width="0.84" height="0.99"/><rect class="cls-2" x="64.55" y="4.05" width="0.84" height="0.99"/><rect class="cls-2" x="63.31" y="4.05" width="0.18" height="0.99"/><rect class="cls-2" x="63.73" y="4.05" width="0.18" height="0.99"/><rect class="cls-2" x="64.14" y="4.05" width="0.18" height="0.99"/><rect class="cls-2" x="58.98" y="5.29" width="0.84" height="0.99"/><rect class="cls-2" x="61.25" y="5.29" width="0.84" height="0.99"/><rect class="cls-2" x="60.01" y="5.29" width="0.18" height="0.99"/><rect class="cls-2" x="60.42" y="5.29" width="0.18" height="0.99"/><rect class="cls-2" x="60.84" y="5.29" width="0.18" height="0.99"/><rect class="cls-2" x="62.28" y="5.29" width="0.84" height="0.99"/><rect class="cls-2" x="64.55" y="5.29" width="0.84" height="0.99"/><rect class="cls-2" x="63.31" y="5.29" width="0.18" height="0.99"/><rect class="cls-2" x="63.73" y="5.29" width="0.18" height="0.99"/><rect class="cls-2" x="64.14" y="5.29" width="0.18" height="0.99"/><rect class="cls-2" x="58.98" y="6.53" width="0.84" height="0.99"/><rect class="cls-2" x="61.25" y="6.53" width="0.84" height="0.99"/><rect class="cls-2" x="60.01" y="6.53" width="0.18" height="0.99"/><rect class="cls-2" x="60.42" y="6.53" width="0.18" height="0.99"/><rect class="cls-2" x="60.84" y="6.53" width="0.18" height="0.99"/><rect class="cls-2" x="62.28" y="6.53" width="0.84" height="0.99"/><rect class="cls-2" x="64.55" y="6.53" width="0.84" height="0.99"/><rect class="cls-2" x="63.31" y="6.53" width="0.18" height="0.99"/><rect class="cls-2" x="63.73" y="6.53" width="0.18" height="0.99"/><rect class="cls-2" x="64.14" y="6.53" width="0.18" height="0.99"/><rect class="cls-2" x="58.98" y="7.76" width="0.84" height="0.99"/><rect class="cls-2" x="61.25" y="7.76" width="0.84" height="0.99"/><rect class="cls-2" x="60.01" y="7.76" width="0.18" height="0.99"/><rect class="cls-2" x="60.42" y="7.76" width="0.18" height="0.99"/><rect class="cls-2" x="60.84" y="7.76" width="0.18" height="0.99"/><rect class="cls-2" x="62.28" y="7.76" width="0.84" height="0.99"/><rect class="cls-2" x="64.55" y="7.76" width="0.84" height="0.99"/><rect class="cls-2" x="63.31" y="7.76" width="0.18" height="0.99"/><rect class="cls-2" x="63.73" y="7.76" width="0.18" height="0.99"/><rect class="cls-2" x="64.14" y="7.76" width="0.18" height="0.99"/><rect class="cls-2" x="58.98" y="9" width="0.84" height="0.99"/><rect class="cls-2" x="61.25" y="9" width="0.84" height="0.99"/><rect class="cls-2" x="60.01" y="9" width="0.18" height="0.99"/><rect class="cls-2" x="60.42" y="9" width="0.18" height="0.99"/><rect class="cls-2" x="60.84" y="9" width="0.18" height="0.99"/><rect class="cls-2" x="62.28" y="9" width="0.84" height="0.99"/><rect class="cls-2" x="64.55" y="9" width="0.84" height="0.99"/><rect class="cls-2" x="63.31" y="9" width="0.18" height="0.99"/><rect class="cls-2" x="63.73" y="9" width="0.18" height="0.99"/><rect class="cls-2" x="64.14" y="9" width="0.18" height="0.99"/><rect class="cls-2" x="58.98" y="10.24" width="0.84" height="0.99"/><rect class="cls-2" x="61.25" y="10.24" width="0.84" height="0.99"/><rect class="cls-2" x="60.01" y="10.24" width="0.18" height="0.99"/><rect class="cls-2" x="60.42" y="10.24" width="0.18" height="0.99"/><rect class="cls-2" x="60.84" y="10.24" width="0.18" height="0.99"/><rect class="cls-2" x="62.28" y="10.24" width="0.84" height="0.99"/><rect class="cls-2" x="64.55" y="10.24" width="0.84" height="0.99"/><rect class="cls-2" x="63.31" y="10.24" width="0.18" height="0.99"/><rect class="cls-2" x="63.73" y="10.24" width="0.18" height="0.99"/><rect class="cls-2" x="64.14" y="10.24" width="0.18" height="0.99"/><rect class="cls-2" x="58.98" y="11.48" width="0.84" height="0.99"/><rect class="cls-2" x="61.25" y="11.48" width="0.25" height="0.99"/><rect class="cls-2" x="60.01" y="11.48" width="0.18" height="0.99"/><rect class="cls-2" x="60.42" y="11.48" width="0.18" height="0.99"/><rect class="cls-2" x="60.84" y="11.48" width="0.18" height="0.99"/><rect class="cls-2" x="58.98" y="12.72" width="0.84" height="0.99"/><rect class="cls-2" x="61.25" y="12.72" width="0.25" height="0.99"/><rect class="cls-2" x="60.01" y="12.72" width="0.18" height="0.99"/><rect class="cls-2" x="60.42" y="12.72" width="0.18" height="0.99"/><rect class="cls-2" x="60.84" y="12.72" width="0.18" height="0.99"/><rect class="cls-2" x="58.98" y="13.96" width="0.84" height="0.99"/><rect class="cls-2" x="61.25" y="13.96" width="0.25" height="0.99"/><rect class="cls-2" x="60.01" y="13.96" width="0.18" height="0.99"/><rect class="cls-2" x="60.42" y="13.96" width="0.18" height="0.99"/><rect class="cls-2" x="60.84" y="13.96" width="0.18" height="0.99"/><rect class="cls-2" x="58.98" y="15.19" width="0.84" height="0.99"/><rect class="cls-2" x="61.25" y="15.19" width="0.25" height="0.99"/><rect class="cls-2" x="60.01" y="15.19" width="0.18" height="0.99"/><rect class="cls-2" x="60.42" y="15.19" width="0.18" height="0.99"/><rect class="cls-2" x="60.84" y="15.19" width="0.18" height="0.99"/><rect class="cls-2" x="58.98" y="16.43" width="0.84" height="0.99"/><rect class="cls-2" x="61.25" y="16.43" width="0.25" height="0.99"/><rect class="cls-2" x="60.01" y="16.43" width="0.18" height="0.99"/><rect class="cls-2" x="60.42" y="16.43" width="0.18" height="0.99"/><rect class="cls-2" x="60.84" y="16.43" width="0.18" height="0.99"/><rect class="cls-2" x="58.98" y="17.67" width="0.84" height="0.99"/><rect class="cls-2" x="61.25" y="17.67" width="0.25" height="0.99"/><rect class="cls-2" x="60.01" y="17.67" width="0.18" height="0.99"/><rect class="cls-2" x="60.42" y="17.67" width="0.18" height="0.99"/><rect class="cls-2" x="60.84" y="17.67" width="0.18" height="0.99"/><rect class="cls-2" x="58.98" y="18.91" width="0.84" height="0.99"/><rect class="cls-2" x="61.25" y="18.91" width="0.25" height="0.99"/><rect class="cls-2" x="60.01" y="18.91" width="0.18" height="0.99"/><rect class="cls-2" x="60.42" y="18.91" width="0.18" height="0.99"/><rect class="cls-2" x="60.84" y="18.91" width="0.18" height="0.99"/><rect class="cls-2" x="67.54" y="13.43" width="0.59" height="0.71"/><rect class="cls-2" x="68.37" y="13.43" width="0.59" height="0.71"/><rect class="cls-2" x="69.19" y="13.43" width="0.59" height="0.71"/><rect class="cls-2" x="70.02" y="13.43" width="0.59" height="0.71"/><rect class="cls-2" x="70.85" y="13.43" width="0.59" height="0.71"/><rect class="cls-2" x="71.67" y="13.43" width="0.59" height="0.71"/><rect class="cls-2" x="72.5" y="13.43" width="0.59" height="0.71"/><rect class="cls-2" x="73.32" y="13.43" width="0.59" height="0.71"/><rect class="cls-2" x="74.15" y="13.43" width="0.59" height="0.71"/><rect class="cls-2" x="74.97" y="13.43" width="0.59" height="0.71"/><rect class="cls-2" x="67.54" y="14.26" width="0.59" height="0.71"/><rect class="cls-2" x="68.37" y="14.26" width="0.59" height="0.71"/><rect class="cls-2" x="69.19" y="14.26" width="0.59" height="0.71"/><rect class="cls-2" x="70.02" y="14.26" width="0.59" height="0.71"/><rect class="cls-2" x="70.85" y="14.26" width="0.59" height="0.71"/><rect class="cls-2" x="71.67" y="14.26" width="0.59" height="0.71"/><rect class="cls-2" x="72.5" y="14.26" width="0.59" height="0.71"/><rect class="cls-2" x="73.32" y="14.26" width="0.59" height="0.71"/><rect class="cls-2" x="74.15" y="14.26" width="0.59" height="0.71"/><rect class="cls-2" x="74.97" y="14.26" width="0.59" height="0.71"/><rect class="cls-2" x="67.54" y="15.08" width="0.59" height="0.71"/><rect class="cls-2" x="68.37" y="15.08" width="0.59" height="0.71"/><rect class="cls-2" x="69.19" y="15.08" width="0.59" height="0.71"/><rect class="cls-2" x="70.02" y="15.08" width="0.59" height="0.71"/><rect class="cls-2" x="70.85" y="15.08" width="0.59" height="0.71"/><rect class="cls-2" x="71.67" y="15.08" width="0.59" height="0.71"/><rect class="cls-2" x="72.5" y="15.08" width="0.59" height="0.71"/><rect class="cls-2" x="73.32" y="15.08" width="0.59" height="0.71"/><rect class="cls-2" x="74.15" y="15.08" width="0.59" height="0.71"/><rect class="cls-2" x="74.97" y="15.08" width="0.59" height="0.71"/><rect class="cls-2" x="67.54" y="16.12" width="0.59" height="0.71"/><rect class="cls-2" x="68.37" y="16.12" width="0.59" height="0.71"/><rect class="cls-2" x="69.19" y="16.12" width="0.59" height="0.71"/><rect class="cls-2" x="70.02" y="16.12" width="0.59" height="0.71"/><rect class="cls-2" x="70.85" y="16.12" width="0.59" height="0.71"/><rect class="cls-2" x="71.67" y="16.12" width="0.59" height="0.71"/><rect class="cls-2" x="72.5" y="16.12" width="0.59" height="0.71"/><rect class="cls-2" x="73.32" y="16.12" width="0.59" height="0.71"/><rect class="cls-2" x="74.15" y="16.12" width="0.59" height="0.71"/><rect class="cls-2" x="74.97" y="16.12" width="0.59" height="0.71"/><rect class="cls-2" x="67.54" y="16.94" width="0.59" height="0.71"/><rect class="cls-2" x="68.37" y="16.94" width="0.59" height="0.71"/><rect class="cls-2" x="69.19" y="16.94" width="0.59" height="0.71"/><rect class="cls-2" x="70.02" y="16.94" width="0.59" height="0.71"/><rect class="cls-2" x="70.85" y="16.94" width="0.59" height="0.71"/><rect class="cls-2" x="71.67" y="16.94" width="0.59" height="0.71"/><rect class="cls-2" x="72.5" y="16.94" width="0.59" height="0.71"/><rect class="cls-2" x="73.32" y="16.94" width="0.59" height="0.71"/><rect class="cls-2" x="74.15" y="16.94" width="0.59" height="0.71"/><rect class="cls-2" x="74.97" y="16.94" width="0.59" height="0.71"/><rect class="cls-2" x="67.54" y="17.77" width="0.59" height="0.71"/><rect class="cls-2" x="68.37" y="17.77" width="0.59" height="0.71"/><rect class="cls-2" x="69.19" y="17.77" width="0.59" height="0.71"/><rect class="cls-2" x="70.02" y="17.77" width="0.59" height="0.71"/><rect class="cls-2" x="70.85" y="17.77" width="0.59" height="0.71"/><rect class="cls-2" x="71.67" y="17.77" width="0.59" height="0.71"/><rect class="cls-2" x="72.5" y="17.77" width="0.59" height="0.71"/><rect class="cls-2" x="73.32" y="17.77" width="0.59" height="0.71"/><rect class="cls-2" x="74.15" y="17.77" width="0.59" height="0.71"/><rect class="cls-2" x="74.97" y="17.77" width="0.59" height="0.71"/><rect class="cls-2" x="67.54" y="18.8" width="0.59" height="0.71"/><rect class="cls-2" x="68.37" y="18.8" width="0.59" height="0.71"/><rect class="cls-2" x="69.19" y="18.8" width="0.59" height="0.71"/><rect class="cls-2" x="70.02" y="18.8" width="0.59" height="0.71"/><rect class="cls-2" x="70.85" y="18.8" width="0.59" height="0.71"/><rect class="cls-2" x="71.67" y="18.8" width="0.59" height="0.71"/><rect class="cls-2" x="72.5" y="18.8" width="0.59" height="0.71"/><rect class="cls-2" x="73.32" y="18.8" width="0.59" height="0.71"/><rect class="cls-2" x="74.15" y="18.8" width="0.59" height="0.71"/><rect class="cls-2" x="74.97" y="18.8" width="0.59" height="0.71"/><rect class="cls-2" x="67.54" y="19.62" width="0.59" height="0.71"/><rect class="cls-2" x="68.37" y="19.62" width="0.59" height="0.71"/><rect class="cls-2" x="69.19" y="19.62" width="0.59" height="0.71"/><rect class="cls-2" x="70.02" y="19.62" width="0.59" height="0.71"/><rect class="cls-2" x="70.85" y="19.62" width="0.59" height="0.71"/><rect class="cls-2" x="71.67" y="19.62" width="0.59" height="0.71"/><rect class="cls-2" x="72.5" y="19.62" width="0.59" height="0.71"/><rect class="cls-2" x="73.32" y="19.62" width="0.59" height="0.71"/><rect class="cls-2" x="74.15" y="19.62" width="0.59" height="0.71"/><rect class="cls-2" x="74.97" y="19.62" width="0.59" height="0.71"/><rect class="cls-2" x="62.19" y="11.73" width="0.48" height="1.24"/><rect class="cls-2" x="63.02" y="11.73" width="0.48" height="1.24"/><rect class="cls-2" x="63.85" y="11.73" width="0.48" height="1.24"/><rect class="cls-2" x="64.67" y="11.73" width="0.48" height="1.24"/><rect class="cls-2" x="65.5" y="11.73" width="0.48" height="1.24"/><rect class="cls-2" x="66.32" y="11.73" width="0.48" height="1.24"/><rect class="cls-2" x="62.19" y="13.39" width="0.48" height="1.24"/><rect class="cls-2" x="63.02" y="13.39" width="0.48" height="1.24"/><rect class="cls-2" x="63.85" y="13.39" width="0.48" height="1.24"/><rect class="cls-2" x="64.67" y="13.39" width="0.48" height="1.24"/><rect class="cls-2" x="65.5" y="13.39" width="0.48" height="1.24"/><rect class="cls-2" x="66.32" y="13.39" width="0.48" height="1.24"/><rect class="cls-2" x="62.19" y="15.04" width="0.48" height="1.24"/><rect class="cls-2" x="63.02" y="15.04" width="0.48" height="1.24"/><rect class="cls-2" x="63.85" y="15.04" width="0.48" height="1.24"/><rect class="cls-2" x="64.67" y="15.04" width="0.48" height="1.24"/><rect class="cls-2" x="65.5" y="15.04" width="0.48" height="1.24"/><rect class="cls-2" x="66.32" y="15.04" width="0.48" height="1.24"/><rect class="cls-2" x="62.19" y="16.69" width="0.48" height="1.24"/><rect class="cls-2" x="63.02" y="16.69" width="0.48" height="1.24"/><rect class="cls-2" x="63.85" y="16.69" width="0.48" height="1.24"/><rect class="cls-2" x="64.67" y="16.69" width="0.48" height="1.24"/><rect class="cls-2" x="65.5" y="16.69" width="0.48" height="1.24"/><rect class="cls-2" x="66.32" y="16.69" width="0.48" height="1.24"/><rect class="cls-2" x="62.19" y="18.34" width="0.48" height="1.24"/><rect class="cls-2" x="63.02" y="18.34" width="0.48" height="1.24"/><rect class="cls-2" x="63.85" y="18.34" width="0.48" height="1.24"/><rect class="cls-2" x="64.67" y="18.34" width="0.48" height="1.24"/><rect class="cls-2" x="65.5" y="18.34" width="0.48" height="1.24"/><rect class="cls-2" x="66.32" y="18.34" width="0.48" height="1.24"/><rect class="cls-2" x="67.15" y="11.73" width="0.48" height="1.24"/><rect class="cls-2" x="67.97" y="11.73" width="0.48" height="1.24"/><rect class="cls-2" x="68.8" y="11.73" width="0.48" height="1.24"/><rect class="cls-2" x="69.63" y="11.73" width="0.48" height="1.24"/><rect class="cls-2" x="70.45" y="11.73" width="0.48" height="1.24"/><rect class="cls-2" x="78.58" y="16.62" width="0.19" height="0.43"/><rect class="cls-2" x="78.99" y="16.62" width="0.19" height="0.43"/><rect class="cls-2" x="79.41" y="16.62" width="0.19" height="0.43"/><rect class="cls-2" x="79.82" y="16.62" width="0.19" height="0.43"/><rect class="cls-2" x="80.23" y="16.62" width="0.19" height="0.43"/><rect class="cls-2" x="80.65" y="16.62" width="0.19" height="0.43"/><rect class="cls-2" x="81.06" y="16.62" width="0.19" height="0.43"/><rect class="cls-2" x="81.47" y="16.62" width="0.19" height="0.43"/><rect class="cls-2" x="81.88" y="16.62" width="0.19" height="0.43"/><rect class="cls-2" x="82.3" y="16.62" width="0.19" height="0.43"/><rect class="cls-2" x="82.71" y="16.62" width="0.19" height="0.43"/><rect class="cls-2" x="83.12" y="16.62" width="0.19" height="0.43"/><rect class="cls-2" x="83.53" y="16.62" width="0.19" height="0.43"/><rect class="cls-2" x="83.95" y="16.62" width="0.19" height="0.43"/><rect class="cls-2" x="84.36" y="16.62" width="0.19" height="0.43"/><rect class="cls-2" x="84.77" y="16.62" width="0.19" height="0.43"/><rect class="cls-2" x="85.19" y="16.62" width="0.19" height="0.43"/><rect class="cls-2" x="85.6" y="16.62" width="0.19" height="0.43"/><rect class="cls-2" x="86.01" y="16.62" width="0.19" height="0.43"/><rect class="cls-2" x="86.42" y="16.62" width="0.19" height="0.43"/><rect class="cls-2" x="78.58" y="17.45" width="0.19" height="0.43"/><rect class="cls-2" x="78.99" y="17.45" width="0.19" height="0.43"/><rect class="cls-2" x="79.41" y="17.45" width="0.19" height="0.43"/><rect class="cls-2" x="79.82" y="17.45" width="0.19" height="0.43"/><rect class="cls-2" x="80.23" y="17.45" width="0.19" height="0.43"/><rect class="cls-2" x="80.65" y="17.45" width="0.19" height="0.43"/><rect class="cls-2" x="81.06" y="17.45" width="0.19" height="0.43"/><rect class="cls-2" x="81.47" y="17.45" width="0.19" height="0.43"/><rect class="cls-2" x="81.88" y="17.45" width="0.19" height="0.43"/><rect class="cls-2" x="82.3" y="17.45" width="0.19" height="0.43"/><rect class="cls-2" x="82.71" y="17.45" width="0.19" height="0.43"/><rect class="cls-2" x="83.12" y="17.45" width="0.19" height="0.43"/><rect class="cls-2" x="83.53" y="17.45" width="0.19" height="0.43"/><rect class="cls-2" x="83.95" y="17.45" width="0.19" height="0.43"/><rect class="cls-2" x="84.36" y="17.45" width="0.19" height="0.43"/><rect class="cls-2" x="84.77" y="17.45" width="0.19" height="0.43"/><rect class="cls-2" x="85.19" y="17.45" width="0.19" height="0.43"/><rect class="cls-2" x="85.6" y="17.45" width="0.19" height="0.43"/><rect class="cls-2" x="86.01" y="17.45" width="0.19" height="0.43"/><rect class="cls-2" x="86.42" y="17.45" width="0.19" height="0.43"/><rect class="cls-2" x="78.58" y="18.27" width="0.19" height="0.43"/><rect class="cls-2" x="78.99" y="18.27" width="0.19" height="0.43"/><rect class="cls-2" x="79.41" y="18.27" width="0.19" height="0.43"/><rect class="cls-2" x="79.82" y="18.27" width="0.19" height="0.43"/><rect class="cls-2" x="80.23" y="18.27" width="0.19" height="0.43"/><rect class="cls-2" x="80.65" y="18.27" width="0.19" height="0.43"/><rect class="cls-2" x="81.06" y="18.27" width="0.19" height="0.43"/><rect class="cls-2" x="81.47" y="18.27" width="0.19" height="0.43"/><rect class="cls-2" x="81.88" y="18.27" width="0.19" height="0.43"/><rect class="cls-2" x="82.3" y="18.27" width="0.19" height="0.43"/><rect class="cls-2" x="82.71" y="18.27" width="0.19" height="0.43"/><rect class="cls-2" x="83.12" y="18.27" width="0.19" height="0.43"/><rect class="cls-2" x="83.53" y="18.27" width="0.19" height="0.43"/><rect class="cls-2" x="83.95" y="18.27" width="0.19" height="0.43"/><rect class="cls-2" x="84.36" y="18.27" width="0.19" height="0.43"/><rect class="cls-2" x="84.77" y="18.27" width="0.19" height="0.43"/><rect class="cls-2" x="85.19" y="18.27" width="0.19" height="0.43"/><rect class="cls-2" x="85.6" y="18.27" width="0.19" height="0.43"/><rect class="cls-2" x="86.01" y="18.27" width="0.19" height="0.43"/><rect class="cls-2" x="86.42" y="18.27" width="0.19" height="0.43"/><rect class="cls-2" x="78.58" y="19.1" width="0.19" height="0.43"/><rect class="cls-2" x="78.99" y="19.1" width="0.19" height="0.43"/><rect class="cls-2" x="79.41" y="19.1" width="0.19" height="0.43"/><rect class="cls-2" x="79.82" y="19.1" width="0.19" height="0.43"/><rect class="cls-2" x="80.23" y="19.1" width="0.19" height="0.43"/><rect class="cls-2" x="80.65" y="19.1" width="0.19" height="0.43"/><rect class="cls-2" x="81.06" y="19.1" width="0.19" height="0.43"/><rect class="cls-2" x="81.47" y="19.1" width="0.19" height="0.43"/><rect class="cls-2" x="81.88" y="19.1" width="0.19" height="0.43"/><rect class="cls-2" x="82.3" y="19.1" width="0.19" height="0.43"/><rect class="cls-2" x="82.71" y="19.1" width="0.19" height="0.43"/><rect class="cls-2" x="83.12" y="19.1" width="0.19" height="0.43"/><rect class="cls-2" x="83.53" y="19.1" width="0.19" height="0.43"/><rect class="cls-2" x="83.95" y="19.1" width="0.19" height="0.43"/><rect class="cls-2" x="84.36" y="19.1" width="0.19" height="0.43"/><rect class="cls-2" x="84.77" y="19.1" width="0.19" height="0.43"/><rect class="cls-2" x="85.19" y="19.1" width="0.19" height="0.43"/><rect class="cls-2" x="85.6" y="19.1" width="0.19" height="0.43"/><rect class="cls-2" x="86.01" y="19.1" width="0.19" height="0.43"/><rect class="cls-2" x="86.42" y="19.1" width="0.19" height="0.43"/><rect class="cls-2" x="78.58" y="19.93" width="0.19" height="0.43"/><rect class="cls-2" x="78.99" y="19.93" width="0.19" height="0.43"/><rect class="cls-2" x="79.41" y="19.93" width="0.19" height="0.43"/><rect class="cls-2" x="79.82" y="19.93" width="0.19" height="0.43"/><rect class="cls-2" x="80.23" y="19.93" width="0.19" height="0.43"/><rect class="cls-2" x="80.65" y="19.93" width="0.19" height="0.43"/><rect class="cls-2" x="81.06" y="19.93" width="0.19" height="0.43"/><rect class="cls-2" x="81.47" y="19.93" width="0.19" height="0.43"/><rect class="cls-2" x="81.88" y="19.93" width="0.19" height="0.43"/><rect class="cls-2" x="82.3" y="19.93" width="0.19" height="0.43"/><rect class="cls-2" x="82.71" y="19.93" width="0.19" height="0.43"/><rect class="cls-2" x="83.12" y="19.93" width="0.19" height="0.43"/><rect class="cls-2" x="83.53" y="19.93" width="0.19" height="0.43"/><rect class="cls-2" x="83.95" y="19.93" width="0.19" height="0.43"/><rect class="cls-2" x="84.36" y="19.93" width="0.19" height="0.43"/><rect class="cls-2" x="84.77" y="19.93" width="0.19" height="0.43"/><rect class="cls-2" x="85.19" y="19.93" width="0.19" height="0.43"/><rect class="cls-2" x="85.6" y="19.93" width="0.19" height="0.43"/><rect class="cls-2" x="86.01" y="19.93" width="0.19" height="0.43"/><rect class="cls-2" x="86.42" y="19.93" width="0.19" height="0.43"/><rect class="cls-2" x="48.19" y="14.4" width="0.21" height="6.4"/><rect class="cls-2" x="49.22" y="14.4" width="0.21" height="6.4"/><rect class="cls-2" x="50.25" y="14.4" width="0.21" height="6.4"/><rect class="cls-2" x="51.49" y="14.4" width="0.21" height="6.4"/><rect class="cls-2" x="52.73" y="14.4" width="0.21" height="6.4"/><rect class="cls-2" x="45.72" y="13.96" width="0.8" height="0.8"/><rect class="cls-2" x="45.72" y="15.19" width="0.8" height="0.8"/><rect class="cls-2" x="45.72" y="16.43" width="0.8" height="0.8"/><rect class="cls-2" x="45.72" y="17.67" width="0.8" height="0.8"/><rect class="cls-2" x="45.72" y="18.91" width="0.8" height="0.8"/><rect class="cls-2" x="77.16" y="11.1" width="0.41" height="7.77"/><rect class="cls-2" x="76.13" y="11.1" width="0.41" height="7.77"/><rect class="cls-2" x="75.09" y="11.1" width="0.41" height="1.7"/><rect class="cls-2" x="74.27" y="11.1" width="0.41" height="1.7"/><rect class="cls-2" x="90.86" y="14.47" width="0.14" height="5.99"/><rect class="cls-2" x="90.65" y="14.47" width="0.14" height="5.99"/><rect class="cls-2" x="89.83" y="14.47" width="0.14" height="5.99"/><rect class="cls-2" x="89.62" y="14.47" width="0.14" height="5.99"/><rect class="cls-2" x="88.8" y="14.47" width="0.14" height="5.99"/><rect class="cls-2" x="88.59" y="14.47" width="0.14" height="5.99"/><rect class="cls-2" x="87.76" y="14.47" width="0.14" height="5.99"/><rect class="cls-2" x="87.56" y="14.47" width="0.14" height="5.99"/><rect class="cls-2" x="86.73" y="14.47" width="0.14" height="1.83"/><rect class="cls-2" x="86.53" y="14.47" width="0.14" height="1.83"/><rect class="cls-2" x="93.79" y="14.54" width="1.2" height="0.34"/><rect class="cls-2" x="95.23" y="14.54" width="1.2" height="0.34"/><rect class="cls-2" x="96.68" y="14.54" width="1.2" height="0.34"/><rect class="cls-2" x="98.12" y="14.54" width="1.2" height="0.34"/><rect class="cls-2" x="93.79" y="15.37" width="1.2" height="0.34"/><rect class="cls-2" x="95.23" y="15.37" width="1.2" height="0.34"/><rect class="cls-2" x="96.68" y="15.37" width="1.2" height="0.34"/><rect class="cls-2" x="98.12" y="15.37" width="1.2" height="0.34"/><rect class="cls-2" x="93.79" y="16.2" width="1.2" height="0.34"/><rect class="cls-2" x="95.23" y="16.2" width="1.2" height="0.34"/><rect class="cls-2" x="96.68" y="16.2" width="1.2" height="0.34"/><rect class="cls-2" x="98.12" y="16.2" width="1.2" height="0.34"/><rect class="cls-2" x="93.79" y="17.02" width="1.2" height="0.34"/><rect class="cls-2" x="95.23" y="17.02" width="1.2" height="0.34"/><rect class="cls-2" x="96.68" y="17.02" width="1.2" height="0.34"/><rect class="cls-2" x="98.12" y="17.02" width="1.2" height="0.34"/><rect class="cls-2" x="93.79" y="17.85" width="1.2" height="0.34"/><rect class="cls-2" x="95.23" y="17.85" width="1.2" height="0.34"/><rect class="cls-2" x="96.68" y="17.85" width="1.2" height="0.34"/><rect class="cls-2" x="98.12" y="17.85" width="1.2" height="0.34"/><rect class="cls-2" x="93.79" y="18.67" width="1.2" height="0.34"/><rect class="cls-2" x="95.23" y="18.67" width="1.2" height="0.34"/><rect class="cls-2" x="96.68" y="18.67" width="1.2" height="0.34"/><rect class="cls-2" x="98.12" y="18.67" width="1.2" height="0.34"/><rect class="cls-2" x="93.79" y="19.5" width="1.2" height="0.34"/><rect class="cls-2" x="95.23" y="19.5" width="1.2" height="0.34"/><rect class="cls-2" x="96.68" y="19.5" width="1.2" height="0.34"/><rect class="cls-2" x="98.12" y="19.5" width="1.2" height="0.34"/><rect class="cls-2" x="60.48" y="1.81" width="0.39" height="0.28"/><rect class="cls-2" x="61.31" y="1.81" width="0.39" height="0.28"/><rect class="cls-2" x="62.13" y="1.81" width="0.39" height="0.28"/><rect class="cls-2" x="63.17" y="1.81" width="0.39" height="0.28"/><rect class="cls-2" x="64.2" y="1.81" width="0.39" height="0.28"/><rect class="cls-2" x="68.11" y="9.69" width="0.86" height="0.41"/><rect class="cls-2" x="74.79" y="9.48" width="0.17" height="0.3"/><rect class="cls-2" x="75.41" y="9.48" width="0.17" height="0.3"/><rect class="cls-2" x="76.03" y="9.48" width="0.17" height="0.3"/><rect class="cls-2" x="86.94" y="9.09" width="0.29" height="0.57"/><rect class="cls-2" x="87.36" y="9.09" width="0.29" height="0.57"/><rect class="cls-2" x="87.98" y="9.09" width="0.29" height="0.57"/><rect class="cls-2" x="88.39" y="9.09" width="0.29" height="0.57"/><rect class="cls-2" x="89.01" y="9.09" width="0.29" height="0.57"/><rect class="cls-2" x="89.42" y="9.09" width="0.29" height="0.57"/><rect class="cls-2" x="90.04" y="9.09" width="0.29" height="0.57"/><rect class="cls-2" x="90.45" y="9.09" width="0.29" height="0.57"/><rect class="cls-2" x="86.94" y="10.12" width="0.29" height="0.57"/><rect class="cls-2" x="87.36" y="10.12" width="0.29" height="0.57"/><rect class="cls-2" x="87.98" y="10.12" width="0.29" height="0.57"/><rect class="cls-2" x="88.39" y="10.12" width="0.29" height="0.57"/><rect class="cls-2" x="89.01" y="10.12" width="0.29" height="0.57"/><rect class="cls-2" x="89.42" y="10.12" width="0.29" height="0.57"/><rect class="cls-2" x="90.04" y="10.12" width="0.29" height="0.57"/><rect class="cls-2" x="90.45" y="10.12" width="0.29" height="0.57"/><rect class="cls-2" x="86.94" y="11.15" width="0.29" height="0.57"/><rect class="cls-2" x="87.36" y="11.15" width="0.29" height="0.57"/><rect class="cls-2" x="87.98" y="11.15" width="0.29" height="0.57"/><rect class="cls-2" x="88.39" y="11.15" width="0.29" height="0.57"/><rect class="cls-2" x="86.94" y="12.18" width="0.29" height="0.57"/><rect class="cls-2" x="87.36" y="12.18" width="0.29" height="0.57"/><rect class="cls-2" x="87.98" y="12.18" width="0.29" height="0.57"/><rect class="cls-2" x="88.39" y="12.18" width="0.29" height="0.57"/><rect class="cls-2" x="86.94" y="13.22" width="0.29" height="0.57"/><rect class="cls-2" x="87.36" y="13.22" width="0.29" height="0.57"/><rect class="cls-2" x="87.98" y="13.22" width="0.29" height="0.57"/><rect class="cls-2" x="88.39" y="13.22" width="0.29" height="0.57"/></g></g></svg>