<svg xmlns="http://www.w3.org/2000/svg" viewBox="0 0 100 100"><defs><style>.cls-1{fill:#fff;}</style></defs><title>Asset 10</title><g id="Layer_2" data-name="Layer 2"><g id="layout"><path class="cls-1" d="M56.25,2A16,16,0,0,1,68.12,6.88,16,16,0,0,1,73,18.75V27H93.75a4.07,4.07,0,0,1,3,1.24,4,4,0,0,1,1.25,3V48H64.28a7.91,7.91,0,0,0-2.17-3.86,8,8,0,0,0-5.86-2.39H43.75A8.05,8.05,0,0,0,38,44.12,7.87,7.87,0,0,0,35.73,48H2V31.25a4,4,0,0,1,1.22-3,4,4,0,0,1,3-1.22H27V18.75A16,16,0,0,1,31.88,6.88,16,16,0,0,1,43.75,2h12.5M35.5,27h29V18.75a8.17,8.17,0,0,0-8.25-8.25H43.75A8.05,8.05,0,0,0,38,12.87a7.92,7.92,0,0,0-2.46,5.88V27M56.84,52v9.86H43.69V52H56.84M98,58.25v35.5a4,4,0,0,1-1.25,3,4.07,4.07,0,0,1-3,1.24H6.25a4,4,0,0,1-3-1.27,4,4,0,0,1-1.27-3V58.25H35.5V62.5a8.34,8.34,0,0,0,8.25,8.25h12.5a7.92,7.92,0,0,0,5.88-2.46A8.05,8.05,0,0,0,64.5,62.5V58.25H98M56.25,0H43.75A18.08,18.08,0,0,0,30.47,5.47,18.08,18.08,0,0,0,25,18.75V25H6.25a6,6,0,0,0-4.44,1.81A6,6,0,0,0,0,31.25V50H37.5a6,6,0,0,1,1.86-4.44,6.09,6.09,0,0,1,4.39-1.81h12.5A6.17,6.17,0,0,1,62.5,50H100V31.25a6,6,0,0,0-1.86-4.44A6.09,6.09,0,0,0,93.75,25H75V18.75A18.08,18.08,0,0,0,69.53,5.47,18.08,18.08,0,0,0,56.25,0ZM37.5,25V18.75a6,6,0,0,1,1.86-4.44,6.09,6.09,0,0,1,4.39-1.81h12.5a6.17,6.17,0,0,1,6.25,6.25V25Zm20,25H43.08a1.39,1.39,0,0,0-1.39,1.39V62.47a1.39,1.39,0,0,0,1.39,1.39H57.45a1.39,1.39,0,0,0,1.39-1.39V51.39A1.39,1.39,0,0,0,57.45,50ZM100,56.25H62.5V62.5a6.09,6.09,0,0,1-1.81,4.39,6,6,0,0,1-4.44,1.86H43.75A6.34,6.34,0,0,1,37.5,62.5V56.25H0v37.5a6,6,0,0,0,1.86,4.39A6,6,0,0,0,6.25,100h87.5a6.09,6.09,0,0,0,4.39-1.81A6,6,0,0,0,100,93.75V56.25Z"/></g></g></svg>