<svg xmlns="http://www.w3.org/2000/svg" viewBox="0 0 118.86 100"><defs><style>.cls-1{fill:#4d4d4d;}</style></defs><title>Asset 69</title><g id="Layer_2" data-name="Layer 2"><g id="layout"><path class="cls-1" d="M118.46,44.06a1.57,1.57,0,0,0-2.22-.12l-3.09,2.77L96.39,30.09a1.58,1.58,0,1,0-2.22,2.24L110.8,48.82l-8.23,7.39L75.18,28.47,102.4,2.72A1.58,1.58,0,0,0,100.24.43L71.85,27.29a1.57,1.57,0,0,0,0,2.25l2.52,2.56-5.56,5.81L58.06,36.76a1.55,1.55,0,0,0-1.28.45l-4.36,4.32-8.1-8,2.73-2.76a1.57,1.57,0,0,0,0-2.25L18.63,1.66A1.58,1.58,0,0,0,16.46,4L35.62,22.07,7.57,49.6,2.63,45.17a1.58,1.58,0,0,0-2.1,2.34L15.31,60.79a1.58,1.58,0,0,0,2.17-.06L20.17,58,34.9,72.54l-2.71,2.75a1.57,1.57,0,0,0,0,2.22L37.72,83h0l5.52,5.46L48.77,94l5.52,5.52a1.57,1.57,0,0,0,2.23,0l2.86-2.86,2.9,2.87a1.57,1.57,0,0,0,2.22,0l4.41-4.41.65.65a1.57,1.57,0,0,0,2.23,0l4.41-4.41.65.65a1.57,1.57,0,0,0,2.23,0l4.41-4.41.65.65a1.57,1.57,0,0,0,2.23,0l5.52-5.52a1.57,1.57,0,0,0,0-2.23l-8.2-8.2L98.51,56.58l2.87,2.91a1.58,1.58,0,0,0,2.17.06l14.79-13.27A1.58,1.58,0,0,0,118.46,44.06Zm-79.67.88a6.89,6.89,0,0,1-11,5.5l9.65-9.65A6.89,6.89,0,0,1,38.79,44.93Zm.84-6.38,2.63-2.63,1.42,1.4-2.9,3A9.92,9.92,0,0,0,39.63,38.55ZM16.3,57.44,9.91,51.71l28-27.47,5.77,5.46Zm9.22-4.77a10,10,0,0,0,1.8,1.19l-1.53,1.58L24,57.32,22.4,55.79ZM37.14,74.75,40.45,78l-1.63,1.66-3.29-3.29Zm7.21,10.41L41.06,81.9l1.64-1.67L46,83.5Zm3.9.55L51.57,89l-1.69,1.69-3.3-3.3Zm7.15,10.48-3.3-3.3,1.71-1.71,3.32,3.27ZM85.25,84.92l-.65-.65h0l-6.36-6.36h0L76.3,76a1.58,1.58,0,0,0-2.23,2.23l7.18,7.18L78,88.68,69,79.73A1.58,1.58,0,0,0,66.79,82l1.94,1.94L74,89.14l-3.3,3.3L65.5,87.27l-1.84-1.84h0l-1.93-1.93a1.58,1.58,0,1,0-2.23,2.23l3.62,3.62,3.56,3.56-3.3,3.3L26.2,59.53,28,57.63,30.7,54.9a10,10,0,0,0,11.24-10,10,10,0,0,0-.08-1.23l4.07-4.16,4.26,4.21L35.32,58.49a1.58,1.58,0,0,0,.13,2.35c.37.29,9,6.83,24-8.35L88.54,81.62ZM81.45,70.08,60.51,49.13a1.52,1.52,0,0,0-1.14-.46,1.58,1.58,0,0,0-1.12.5c-9.66,10.28-16.14,10.59-19.05,9.92L58.47,40l7.56.8L64.89,42a1.57,1.57,0,1,0,2.28,2.18l9.05-9.47L96.09,54.55Zm2.76-45.22a4.92,4.92,0,1,0,4.92-4.92A4.93,4.93,0,0,0,84.21,24.85Zm6.69,0a1.77,1.77,0,1,1-1.77-1.77A1.77,1.77,0,0,1,90.9,24.85Z"/></g></g></svg>