<svg xmlns="http://www.w3.org/2000/svg" viewBox="0 0 286.9 249.05"><defs><style>.cls-1{fill:#f4bb3a;}.cls-2{fill:#f09b36;}.cls-3{fill:#22313f;}</style></defs><title>Asset 3</title><g id="Layer_2" data-name="Layer 2"><g id="Layer_1-2" data-name="Layer 1"><path class="cls-1" d="M281.47,5.43l-102.13,120-44-10.53a8.38,8.38,0,0,1-2.54-15.23Z"/><path class="cls-1" d="M281.47,5.43,243.65,181A8.38,8.38,0,0,1,229,184.58l-24.24-28.85-25.47-30.33Z"/><polygon class="cls-2" points="204.81 155.73 176.15 180.43 179.34 125.41 204.81 155.73"/><path class="cls-3" d="M278.57.85,129.87,95.07A13.8,13.8,0,0,0,134,120.15l39.62,9.47-2.92,50.49a5.43,5.43,0,0,0,8.95,4.42l24.5-21.11,20.7,24.65a13.8,13.8,0,0,0,24.06-6L286.77,6.57A5.43,5.43,0,0,0,278.57.85ZM135.68,104.23,254.16,29.15l-76.79,90.21-40.79-9.76A3,3,0,0,1,135.68,104.23ZM182.3,168,184,139.34l13.25,15.78Zm56.05,11.84a3,3,0,0,1-5.16,1.28l-46.76-55.66,85.2-100.08Z"/><path class="cls-3" d="M100.66,249.05h-.23a78.37,78.37,0,0,1-16.61-2.72A4,4,0,0,1,86,238.62a70.35,70.35,0,0,0,14.92,2.43,4,4,0,0,1-.22,8Zm15.95-.73a4,4,0,0,1-.6-8A61.19,61.19,0,0,0,126.14,238c1.5-.5,3-1,4.42-1.6a4,4,0,0,1,2.9,7.46c-1.56.6-3.16,1.18-4.78,1.73a69.3,69.3,0,0,1-11.45,2.74A4.05,4.05,0,0,1,116.61,248.32Zm-46.39-8.11a4,4,0,0,1-2.09-.59,43.63,43.63,0,0,1-12.9-11.8,4,4,0,1,1,6.52-4.64,35.7,35.7,0,0,0,10.57,9.62,4,4,0,0,1-2.1,7.41ZM146.29,237a4,4,0,0,1-2.14-7.38,58.22,58.22,0,0,0,11.53-9.46,4,4,0,1,1,5.86,5.45,66.25,66.25,0,0,1-13.11,10.77A4,4,0,0,1,146.29,237ZM52.67,214.79a4,4,0,0,1-4-3.46q-.12-.85-.2-1.71a44.7,44.7,0,0,0-3.09-12.84,4,4,0,1,1,7.4-3,52.69,52.69,0,0,1,3.65,15.13c0,.46.1.92.16,1.37a4,4,0,0,1-4,4.54Zm114.88-1.12a4,4,0,0,1-3.62-5.69,35.49,35.49,0,0,0,3.57-13.69,4,4,0,0,1,4-4,4,4,0,0,1,4,4v0a43.51,43.51,0,0,1-4.32,17.06A4,4,0,0,1,167.55,213.67ZM40.49,185.92a4,4,0,0,1-2.89-1.24,39.84,39.84,0,0,0-11.73-8.47A4,4,0,0,1,29.31,169a47.82,47.82,0,0,1,14.07,10.17,4,4,0,0,1-2.89,6.76ZM4,173.24a4,4,0,0,1-1-7.88,32,32,0,0,1,9.39-.81,4,4,0,1,1-.42,8,24.18,24.18,0,0,0-7,.58A4,4,0,0,1,4,173.24Z"/></g></g></svg>