<?xml version="1.0" encoding="utf-8"?>
<!-- Generator: Adobe Illustrator 21.1.0, SVG Export Plug-In . SVG Version: 6.00 Build 0)  -->
<svg version="1.1" id="Layer_1" xmlns="http://www.w3.org/2000/svg" xmlns:xlink="http://www.w3.org/1999/xlink" x="0px" y="0px"
	 viewBox="0 0 117.6 25.8" style="enable-background:new 0 0 117.6 25.8;" xml:space="preserve">
<style type="text/css">
	.st0{fill:#FF6969;}
</style>
<title>whitelogo</title>
<g id="Layer_2">
	<g id="mobile">
		<path class="st0" d="M15.1,0.7c2.1,0.9,3.4,3,3.2,5.2c-0.3,2.9-1.1,5.7-2.4,8.3H2c-0.1,0-2.7-5-1.8-8.3c0.8-2,2.3-3.7,4.3-4.6
			C5.9,0.7,7.4,0.2,9,0.1C9.5,0,13.4-0.2,15.1,0.7"/>
		<path class="st0" d="M13.6,19l-4.3,6.2l-4.7-6.4c0-0.1,1.3-1.6,4.7-1.7C10.8,17.1,12.4,17.8,13.6,19"/>
		<path class="st0" d="M30.1,1.3h1v8.8l10.1-8.8h1.3l-11,9.6l13.8,14.4H44L31.2,12v13.3h-1.1V1.3z"/>
		<path class="st0" d="M59.6,10.9h1v14.4h-1v-2.9c-1,2.1-3.2,3.4-5.6,3.3c-1.7,0-3.3-0.6-4.5-1.9c-1.2-1.2-1.9-2.8-1.8-4.5v-8.4h1
			v8.4c0,1.4,0.5,2.8,1.5,3.8c1,1.1,2.3,1.7,3.8,1.6c1.5,0,2.9-0.6,3.9-1.6c1.1-1,1.7-2.4,1.7-3.8L59.6,10.9z"/>
		<path class="st0" d="M65.1,25.3h-1V10.9h1v2.9c1-2.1,3.2-3.4,5.6-3.3c1.7,0,3.3,0.6,4.5,1.9c1.2,1.2,1.8,2.9,1.8,4.6v8.4h-1V17
			c0-1.4-0.5-2.8-1.6-3.8c-1-1.1-2.3-1.6-3.8-1.6c-1.5,0-2.9,0.6-3.9,1.6c-1.1,1-1.7,2.4-1.7,3.8V25.3z"/>
		<path class="st0" d="M93,10.9h0.9l-7.1,14.8l-7.1-14.8h1.1L87,23.6L93,10.9z"/>
		<path class="st0" d="M103.8,25.7h-0.3c-2,0-3.9-0.8-5.3-2.3C96.8,22,96,20.1,96,18.1c0-2,0.8-3.9,2.2-5.3c1.5-1.5,3.5-2.3,5.5-2.2
			c2.2,0,4.3,1,5.7,2.6l-10,9.9c1.1,1,2.5,1.6,4,1.7c1.2,0,2.4-0.3,3.4-0.9c1-0.6,1.9-1.4,2.5-2.4v1.6C108,24.8,106,25.8,103.8,25.7
			z M103.5,11.5c-1.7,0-3.3,0.7-4.5,2c-1.3,1.2-2,2.8-2,4.5c0,1.7,0.6,3.3,1.7,4.5l9.3-9.2C106.8,12.1,105.2,11.5,103.5,11.5z"/>
		<path class="st0" d="M117.6,24.6v0.9c-1.4,0-2.8-0.5-3.9-1.5c-1.1-1-1.6-2.4-1.6-3.9v-15h1V11h4.4v0.9h-4.4v8.3
			c-0.1,2.4,1.9,4.4,4.3,4.5C117.5,24.7,117.6,24.7,117.6,24.6L117.6,24.6z"/>
	</g>
</g>
</svg>
