<svg id="layout" xmlns="http://www.w3.org/2000/svg" viewBox="0 0 111.73 100"><defs><style>.cls-1{fill:#fff;}</style></defs><title>applicant_stroke_white</title><path class="cls-1" d="M61.52,16.2a.72.72,0,0,1,.57.57V36.32a.5.5,0,0,1-.12.28v-1.1a4.88,4.88,0,0,0-3.83-5c-.58-.21-1.61-.54-2.53-.84a9.13,9.13,0,0,0,1.53-5.18c0-4.83-3.44-7.35-6.84-7.35-4,0-6.84,3.09-6.84,7.35A9.25,9.25,0,0,0,45,29.7c-.74.25-1.56.52-2.12.69-2,.64-4.18,1.62-4.18,5.2v1.1a.5.5,0,0,1-.12-.28V16.87c0-.53.7-.65,1.05-.67H61.52m0-2H39.61c-1.75.1-3,1.13-3,2.67V36.42A2.69,2.69,0,0,0,39.2,39h1.54V35.6c0-2.06.82-2.67,2.78-3.29,1.34-.41,4-1.34,4-1.34s.1-.82.1-1.34a6.81,6.81,0,0,1-2.16-5.14c0-3.4,2.16-5.35,4.84-5.35s4.84,2,4.84,5.35A6.65,6.65,0,0,1,53,29.63a6.32,6.32,0,0,0,.1,1.34s3.29,1,4.42,1.44A3,3,0,0,1,60,35.49v3.4h1.54a2.69,2.69,0,0,0,2.57-2.57V16.77a2.69,2.69,0,0,0-2.57-2.57Z"/><polygon class="cls-1" points="30.35 30.97 11.11 30.97 11.11 34.77 30.35 34.77 30.35 30.97 30.35 30.97"/><polygon class="cls-1" points="64.61 44.86 11.11 44.86 11.11 48.66 64.61 48.66 64.61 44.86 64.61 44.86"/><polygon class="cls-1" points="64.61 58.64 11.11 58.64 11.11 62.45 64.61 62.45 64.61 58.64 64.61 58.64"/><path class="cls-1" d="M73.31,2V57.28l.94.59c.15.09,3.7,2.32,5.21,3.08a32.27,32.27,0,0,1,5.57,4l.86.84C89.7,69.47,96.78,76.38,102,78.23a66,66,0,0,0,7.69,2V98l-19.57-.37H90l-.8,0a9.13,9.13,0,0,1-6.45-2.32l-8.91-8-.57-.51H2v-56c0-4.51,1.54-7.53,4.71-9.25l0,0,0,0c.85-.52,21-12.73,27.77-17.34A11.11,11.11,0,0,1,40.95,2H73.31M25.52,22.5a42,42,0,0,0-10.75-1.87h-.39C6.54,20.73,2.73,24,2.73,30.76v55.4H73.68l-5.61-3.67L56.14,74.66l-.5-.33H55.4V72.53a3.94,3.94,0,0,1,.63-2,3.15,3.15,0,0,1,2.64-1.66,2.78,2.78,0,0,1,1.5.45l9.26,5.76L72.48,77V73.35l-.1-68.62v-2H40.84c-7.38,0-13.54,9.8-15.32,19.76M75.31,0H40.95a13.11,13.11,0,0,0-7.51,2.47C26.65,7.1,5.76,19.75,5.76,19.75,2,21.81,0,25.51,0,30.76v58H72.53l9,8a11.15,11.15,0,0,0,7.75,2.8l.9,0,21.6.41V78.5a54.64,54.64,0,0,1-9.05-2.16c-5.25-1.85-13.17-9.88-16.26-12.86a33.54,33.54,0,0,0-6.07-4.32c-1.44-.72-5-3-5-3V0ZM27.16,25.21c1-10,7-20.47,13.68-20.47H70.37l.1,68.62-9.26-5.76a4.74,4.74,0,0,0-2.55-.76,5.12,5.12,0,0,0-4.34,2.61,6,6,0,0,0-.93,3.09H11.21v3.81H55L67,84.16H4.73V30.76c0-4,1.23-8,9.67-8.13h.37a39.43,39.43,0,0,1,12.39,2.58Z"/></svg>