<svg id="Layer_1" data-name="Layer 1" xmlns="http://www.w3.org/2000/svg" viewBox="0 0 72.8 86"><defs><style>.cls-1{fill:#ef5350;}</style></defs><title>bell4_red</title><path class="cls-1" d="M82.1,67.3c-2.5-1.7-6.6-7.2-6.6-25.1,0-16.8-10.2-23.5-17.7-26.3A12.25,12.25,0,0,0,58,14a9,9,0,0,0-18,0,12.25,12.25,0,0,0,.2,1.9c-7.5,2.7-17.7,9.5-17.7,26.3,0,18-4.1,23.5-6.6,25.1A7.49,7.49,0,0,0,20.1,81H36.8a12.45,12.45,0,0,0,24.4.1H77.9A7.56,7.56,0,0,0,82.1,67.3ZM49,9a5,5,0,0,1,5,5,2.2,2.2,0,0,1-.1.8,24.75,24.75,0,0,0-9.9,0c0-.3-0.1-0.5-0.1-0.8A5.1,5.1,0,0,1,49,9ZM26.5,42.2c0-15.2,9.4-21,17.2-23.2h0.1a19.22,19.22,0,0,1,5.3-.7,16.91,16.91,0,0,1,5.2.8h0.1c7.8,2.2,17.2,8,17.2,23.2,0,11.6,1.6,19.9,4.9,24.8H21.6C24.8,62,26.5,53.7,26.5,42.2ZM49,87a8.62,8.62,0,0,1-8.1-5.9H57.1A8.62,8.62,0,0,1,49,87Zm28.9-9.9H20.1a3.54,3.54,0,0,1-3.5-3.5A3.37,3.37,0,0,1,17.8,71H80.4a3.73,3.73,0,0,1,1.2,2.6A3.87,3.87,0,0,1,77.9,77.1Z" transform="translate(-12.6 -5)"/><path class="cls-1" d="M40,24.3c-0.3.2-7.9,4.6-9,12.5a2,2,0,0,0,1.7,2.3H33a2,2,0,0,0,2-1.7c0.8-5.9,6.9-9.5,7-9.5a1.88,1.88,0,0,0,.7-2.7A1.8,1.8,0,0,0,40,24.3Z" transform="translate(-12.6 -5)"/></svg>