<svg id="layout" xmlns="http://www.w3.org/2000/svg" viewBox="0 0 80.25 100.77"><defs><style>.cls-1{fill:none;stroke:#ef5350;stroke-miterlimit:10;stroke-width:6px;}</style></defs><title>bell_outline_red</title><path class="cls-1" d="M74.08,67.78l-1.31-1.14-1-8.51c-0.52-4.68-1.14-10.49-1.35-13C69.55,36.53,67.06,30.92,61.14,25a24.72,24.72,0,0,0-7.37-5.62,45.6,45.6,0,0,0-5.62-2.28l-2-.52-0.23-5.08c-0.1-4.68-.21-5.08-1.14-6.43A9.5,9.5,0,0,0,42.31,3a6.2,6.2,0,0,0-7.68,2.08c-1,1.35-1.14,1.76-1.25,6.43l-0.1,5.08-2.49.73c-4.68,1.25-8.51,3.63-12.56,7.78-5.92,5.82-8.31,11.24-9.14,20-0.31,2.7-.94,8.51-1.45,13.11L6.7,66.69l-1.45,1.1A6.83,6.83,0,0,0,2.54,73.6c-0.1,2.49.41,3.43,2.39,4.26s67.58,0.73,69.46,0,2.49-1.76,2.39-4.26A6.83,6.83,0,0,0,74.08,67.78Z" transform="translate(0.48 0.57)"/><path class="cls-1" d="M30.59,88.31l0.2,1.18A11.38,11.38,0,0,0,33.66,95a9,9,0,0,0,14.89-5.47l0.17-1.18H30.59Z" transform="translate(0.48 0.57)"/></svg>