<svg id="layout" xmlns="http://www.w3.org/2000/svg" viewBox="0 0 79.29 100.02"><defs><style>.cls-1{fill:#ef5350;}</style></defs><title>bell_full_red</title><path class="cls-1" d="M76.4,69.79L75,68.57l-1.11-9.09c-0.55-5-1.22-11.2-1.44-13.86-0.89-9.2-3.55-15.19-9.87-21.51-3.33-3.33-4.66-4.32-7.87-6a48.69,48.69,0,0,0-6-2.44l-2.11-.55L46.35,9.7c-0.11-5-.22-5.43-1.22-6.87A10.14,10.14,0,0,0,42.47.61a6.62,6.62,0,0,0-8.2,2.22C33.16,4.27,33,4.71,32.94,9.7l-0.11,5.43-2.66.78c-5,1.33-9.09,3.88-13.41,8.31-6.32,6.21-8.87,12-9.76,21.4-0.33,2.88-1,9.09-1.55,14l-1,9L2.9,69.79A7.29,7.29,0,0,0,0,76c-0.11,2.66.44,3.66,2.55,4.55s72.17,0.78,74.17,0,2.66-1.88,2.55-4.55A7.29,7.29,0,0,0,76.4,69.79Z" transform="translate(0.01 0)"/><path class="cls-1" d="M27.73,88.31L28,89.86a15,15,0,0,0,3.77,7.21,11.9,11.9,0,0,0,19.62-7.21l0.22-1.55H27.73Z" transform="translate(0.01 0)"/></svg>