<?xml version="1.0" encoding="utf-8"?>
<!-- Generator: Adobe Illustrator 19.2.0, SVG Export Plug-In . SVG Version: 6.00 Build 0)  -->
<svg version="1.1" id="layout" xmlns="http://www.w3.org/2000/svg" xmlns:xlink="http://www.w3.org/1999/xlink" x="0px" y="0px"
	 viewBox="0 0 100 100" style="enable-background:new 0 0 100 100;" xml:space="preserve">
<style type="text/css">
	.st0{fill:#F75252;}
</style>
<title>kunvet_logo</title>
<g id="_Group_">
	<path class="st0" d="M73.5,2.8c11.2,5.5,12.8,13.8,12.8,20.7c-0.5,12.1-7.8,31.5-9.3,33.1H21.6c-0.3,0-10.7-19.7-7.2-33.1
		c1.2-4.5,7.4-14,17.2-18.2c4.6-2.1,11.6-4.6,17.9-5C51.6,0,67.2-0.9,73.5,2.8z"/>
	<path class="st0" d="M67.6,75.4L50.3,100L31.7,74.7c0-0.3,5.3-6.3,18.6-6.7C59.7,68.2,65.1,72.7,67.6,75.4z"/>
	<path class="st0" d="M73.5,2.8c11.2,5.5,12.8,13.8,12.8,20.7c-0.5,12.1-7.8,31.5-9.3,33.1H21.6c-0.3,0-10.7-19.7-7.2-33.1
		c1.2-4.5,7.4-14,17.2-18.2c4.6-2.1,11.6-4.6,17.9-5C51.6,0,67.2-0.9,73.5,2.8z"/>
	<path class="st0" d="M67.6,75.4L50.3,100L31.7,74.7c0-0.3,5.3-6.3,18.6-6.7C59.7,68.2,65.1,72.7,67.6,75.4z"/>
</g>
</svg>
