<?xml version="1.0" encoding="utf-8"?>
<!-- Generator: Adobe Illustrator 19.2.0, SVG Export Plug-In . SVG Version: 6.00 Build 0)  -->
<svg version="1.1" id="Layer_1" xmlns="http://www.w3.org/2000/svg" xmlns:xlink="http://www.w3.org/1999/xlink" x="0px" y="0px"
	 viewBox="0 0 264 32" style="enable-background:new 0 0 264 32;" xml:space="preserve">
<style type="text/css">
	.st0{fill:#FFFFFF;}
</style>
<path class="st0" d="M0.1,8.7H3v4.4l5.2-4.4h2.2l-5.8,4.9l7.4,6.7H8.5l-5.5-5v5H0.1V8.7z"/>
<path class="st0" d="M12.8,8.7h2.9v7.5c0,0.4,0.1,0.9,0.2,1.3c0.1,0.4,0.3,0.7,0.6,1c0.3,0.3,0.6,0.5,1,0.7c0.8,0.3,1.7,0.3,2.5,0
	c0.4-0.2,0.7-0.4,0.9-0.7c0.3-0.3,0.5-0.6,0.6-1c0.1-0.4,0.2-0.8,0.2-1.3V8.7h1.8v7.5c0,0.6-0.1,1.2-0.3,1.7c-0.2,0.5-0.6,1-1,1.4
	c-0.5,0.4-1.1,0.8-1.7,1c-0.8,0.3-1.6,0.4-2.5,0.4c-0.8,0-1.5-0.1-2.3-0.4c-0.6-0.2-1.2-0.6-1.6-1c-0.4-0.4-0.8-0.9-1-1.4
	c-0.2-0.5-0.3-1.1-0.3-1.7L12.8,8.7z"/>
<path class="st0" d="M26.3,8.7h1.8l6.7,7.4V8.7h1.8v11.9h-1.2l-7.2-8.2v8h-1.8V8.7z"/>
<path class="st0" d="M41,8.7l3.9,8.1l3.6-8.1h1.8L45,20.6h-1.3L38.1,8.7H41z"/>
<path class="st0" d="M60.5,8.7v1h-5.9v3.9h4.9v1h-4.9v4.6h5.9v1.2h-8.7V8.7H60.5z"/>
<path class="st0" d="M73,8.7v1h-4v10.7h-2.9V9.7H62v-1H73z"/>
<path class="st0" d="M88.4,16.8c0.1-0.3,0.4-0.2,0.5,0c0.1,0.5,0,1.1-0.3,1.6c-0.9,1.6-2.5,2.5-4.3,2.6c-1.2,0.2-2.4-0.1-3.4-0.9
	c-0.5-0.4-0.8-1-0.8-1.6c-1.1,2-2.3,4.5-3.5,7.2c-0.1,0.2-0.3,0.3-0.4,0c-0.4-0.5-0.5-1.2,0-2.6c1.7-4.2,3.8-8.2,6.3-12
	c0.2-0.3,0.5-0.3,0.6,0c0.1,0.3,0.2,0.7,0.1,1.1c1.1-0.9,2.5-1.6,3.5-0.5s0.6,3.4-0.3,5.3c-0.5,1.3-1.4,2.5-2.5,3.3
	C85.9,20,87.7,18.7,88.4,16.8z M81.4,19.6c0.8,0.6,2.3-1.1,3.5-3.4c0.9-1.9,1.2-3.9,0.6-4.2s-2.1,0.9-3.2,2.8
	c-0.3,0.4-0.5,0.9-0.8,1.4C80.9,17.6,80.7,19,81.4,19.6L81.4,19.6z"/>
<path class="st0" d="M94.6,11.7c0.3-0.2,0.5-0.2,0.7,0c0.5,0.5,1,1.6,0.3,2.4c-1.1,1.1-2,2.5-2.6,3.9c-0.4,1.2-0.1,2.2,0.6,2.2
	c0.9,0,2.1-1.4,2.9-3.2c0.1-0.2,0.2-0.2,0.3,0c0.1,0.5,0.1,1-0.1,1.5c-0.5,1.4-1.8,2.3-3.2,2.4c-1.7-0.1-2.4-1.7-1.8-3.5
	c0.7-1.6,1.6-3.1,2.9-4.4c-0.8,0.6-1.8,0.9-2.8,0.9c-0.9,1.7-3.2,5.1-3.7,7.3c0,0.2-0.2,0.3-0.4,0.1c-0.7-0.7-0.7-1.8,0-3
	c0.6-1.1,2.2-3.3,3-4.6c-1.4-0.9,0.7-3.7,1.6-3.7s0.6,1.4,0,2.9C93.1,12.7,93.9,12.3,94.6,11.7z"/>
<path class="st0" d="M111,20.8c-2,0-2.5-1.5-1.8-3.5c0.8-2.4,2.9-4.9,2.5-5s-1.6,0.5-3.2,2.2c-1.5,1.8-2.7,3.9-3.5,6.1
	c-0.1,0.2-0.2,0.3-0.5,0.1c-0.5-0.7-0.6-1.7-0.2-2.5c0.4-1.1,0.9-2.2,1.5-3.3c-0.7,0.4-1.4,0.7-2.2,0.6c-0.5,2-2,4.5-3.8,5.1
	c-1.1,0.4-2.3,0-3-1c-1.1-1.4-0.7-3.5,0.4-5.4c0.9-1.6,2.4-3,3.8-3.1c0.6-0.1,1.3,0.2,1.6,0.8c0.6,0.8,1.3,0.9,1.2,2.6
	c0,0.1,0,0.3,0,0.4c1.5,0,3.1-1.8,4.4-3.8c0.2-0.3,0.4-0.3,0.5,0c0.4,0.7,0.4,1.5,0.1,2.3c1.1-1.1,2.7-2.4,3.5-2.3
	c0.9,0.3,1.4,1.3,1.1,2.2c0,0.1-0.1,0.2-0.2,0.3c-0.5,1.1-1.7,2.8-2.2,4.1s-0.5,2.5,0.4,2.4s2.1-1.6,3-3.3c0-0.1,0.2-0.2,0.3-0.1
	c0.1,0,0.1,0.1,0.1,0.1c0.1,0.5,0,1.1-0.2,1.5C113.9,19.8,112.5,20.7,111,20.8z M100.5,12.8c-0.7,0.7-1.4,1.4-1.9,2.3
	c-1.1,1.8-1.4,4-0.7,4.6s2.1-0.3,3.3-2.5c0.4-0.6,0.7-1.3,0.9-2C101.2,14.7,100.7,13.8,100.5,12.8L100.5,12.8z M102.4,12.8
	c-0.1-0.8-0.6-0.6-0.7,0.1c-0.1,0.6,0.1,1.2,0.6,1.6C102.4,14,102.5,13.4,102.4,12.8L102.4,12.8z"/>
<path class="st0" d="M129.5,20.8c-1.6,0-2.2-1-2-2.4c-0.8,1.1-2.1,2.4-3.4,2.3c-1.7-0.1-1.8-1.9-1.2-3.5c0.2-0.7,0.5-1.4,0.9-2.1
	c-0.7,0.3-1.4,0.5-2.2,0.4c-0.6,2-2,4.4-3.7,5c-1.1,0.4-2.3-0.1-3-1.1c-1.1-1.4-0.7-3.5,0.4-5.4c0.9-1.7,2.4-3,3.8-3.1
	c0.7-0.1,1.3,0.2,1.6,0.8c0.6,0.7,1.2,0.9,1.1,2.6c0,0.2,0,0.3,0,0.5c1.5-0.2,2.8-1.1,3.5-2.5c0.2-0.4,0.6-0.9,0.9-1.3
	c0.1-0.2,0.3-0.2,0.5-0.1c0.1,0,0.1,0.1,0.1,0.1c0.5,0.8,0.4,1.8-0.5,3.2c-0.7,1.1-1.3,2.3-1.9,3.5c-0.5,1.2-0.4,2,0.1,2.1
	c0.9,0.1,2.3-1.6,3.5-3.6c1.5-2.4,2.2-4.1,2.9-5.1c0.2-0.3,0.4-0.4,0.6-0.1c0.5,0.8,0.5,1.8,0,2.7c-0.5,1.1-1.7,2.8-2.3,4.1
	s-0.5,2.4,0.3,2.3s2.2-1.6,3.1-3.3c0.1-0.2,0.3-0.2,0.4,0c0.1,0.5,0.1,1-0.2,1.5C132.4,19.8,131,20.7,129.5,20.8z M118.5,12.8
	c-0.7,0.6-1.4,1.4-1.9,2.3c-1,1.8-1.3,4-0.7,4.5s2.1-0.3,3.3-2.5c0.3-0.6,0.6-1.3,0.8-1.9C119.2,14.7,118.6,13.8,118.5,12.8
	L118.5,12.8z M119.7,12.8c-0.1,0.6,0.1,1.2,0.6,1.6c0.2-0.6,0.2-1.1,0.2-1.7C120.3,12,119.8,12.2,119.7,12.8L119.7,12.8z"/>
<path class="st0" d="M139.8,11c0.9,0.3,1.4,1.3,1.1,2.2c0,0.1-0.1,0.2-0.2,0.3c-0.5,1.1-1.7,2.8-2.2,4.1s-0.5,2.5,0.4,2.5
	s2.1-1.6,3.1-3.3c0.1-0.2,0.3-0.2,0.4,0c0.2,0.5,0.1,1.1-0.2,1.5c-0.7,1.4-2,2.4-3.6,2.6c-2,0-2.5-1.5-1.8-3.6
	c0.8-2.4,2.9-4.9,2.5-5.1c-0.2-0.1-1.6,0.6-3.2,2.3c-1.5,1.8-2.6,3.9-3.5,6.1c-0.1,0.2-0.2,0.3-0.5,0.1c-0.5-0.5-0.6-1.3-0.2-2.5
	c1-2.5,2.3-4.9,3.8-7.1c0.2-0.3,0.4-0.2,0.5,0c0.3,0.7,0.4,1.5,0.1,2.3C137.4,12.2,139,10.9,139.8,11z"/>
<path class="st0" d="M148.9,12.5c0.5,1-0.5,2.3-0.9,3.6c-0.1,0.3-0.2,0.4-0.5,0.2c-0.6-0.3-0.9-1-0.6-2.1c0.3-0.9,1-1.9,0.6-2.2
	s-2.2,1.2-3.3,3.4c-1.3,2.7-0.8,4.7,0.6,4.7c2,0,3.7-1.9,4.7-3.4c0.1-0.2,0.3-0.2,0.4,0c0,0.5-0.1,1-0.4,1.4c-1,1.5-2.7,2.5-4.6,2.6
	c-3,0-4.1-2.9-2.5-6s4-4.3,5.2-3.6C148.2,11.5,148.6,11.9,148.9,12.5z"/>
<path class="st0" d="M152.4,20.1c2,0.1,3.7-1.8,4.8-3.4c0.1-0.2,0.3-0.2,0.4,0c0.1,0.5-0.1,1.1-0.4,1.5c-1.1,1.5-2.8,2.5-4.7,2.6
	c-3,0-4.1-3-2.5-6s4-4.3,5.2-3.6c0.6,0.3,1,0.7,1.4,1.2c0.4,0.6,0.2,2-0.8,3.3c-1.2,1.4-2.8,2.1-4.5,0.7
	C150.6,18.5,151.1,20,152.4,20.1z M154.4,14.6c0.8-1,1.3-2.3,1-2.5c-0.5-0.4-2.5,1-3.6,3.3c-0.1,0.1-0.1,0.3-0.2,0.4
	C152.7,16.5,153.7,15.5,154.4,14.6L154.4,14.6z"/>
<path class="st0" d="M163.6,20.2c1,0,2.3-1.7,3.1-3.3c0.1-0.2,0.3-0.2,0.4,0c0.1,0.5,0.1,1-0.2,1.5c-0.6,1.3-2.1,2.6-3.5,2.5
	c-1,0.1-1.9-0.7-1.9-1.7c0-0.1,0-0.2,0-0.2c-0.7,1-1.8,1.7-3,1.9c-2.2,0-2.7-3-0.7-5.9s3.8-3.9,5-3.9c0.8,0,1.4,0.6,1.5,1.4
	c0,0.1,0,0.2,0,0.2c1.3-2.5,3.1-5.7,4-7c0.2-0.3,0.5-0.3,0.6,0c0.3,0.8,0.3,1.8-0.7,3.6c-1.1,2.1-3.5,6-4.7,8.6
	C162.8,19.2,162.8,20.2,163.6,20.2z M159.4,15.8c-1.3,2.1-1.6,4.2-0.6,4.2s2.3-1.4,3.4-3.6c1.4-2.7,1.8-4.2,1.1-4.2
	S160.8,13.7,159.4,15.8L159.4,15.8z"/>
<path class="st0" d="M180.4,11.2c0.2-0.3,0.4-0.4,0.6-0.1c0.5,0.8,0.5,1.8,0,2.7c-0.5,1.1-1.7,2.9-2.3,4.2s-0.6,2.4,0.2,2.3
	c1,0,2.3-1.7,3.1-3.3c0.1-0.2,0.3-0.2,0.4,0c0.1,0.5,0,1-0.2,1.5c-0.6,1.3-2.1,2.6-3.5,2.6c-1,0.1-1.9-0.7-2-1.7c0-0.1,0-0.2,0-0.3
	c-0.7,1-1.8,1.7-3,1.9c-2.2,0-2.7-3-0.7-6s3.8-3.9,5-3.9c0.8,0,1.5,0.6,1.5,1.5c0,0.1,0,0.2,0,0.3C179.8,12,180.1,11.6,180.4,11.2z
	 M178.4,12.2c-0.8-0.1-2.5,1.5-3.8,3.6S173,20,174,20s2.2-1.5,3.5-3.6C178.9,13.7,179.1,12.2,178.4,12.2L178.4,12.2z"/>
<path class="st0" d="M185.2,12.4c0-0.7,0.3-1.4,0.9-1.9c0.5-0.5,1.1-0.6,1.3-0.4s0.1,0.5-0.2,1.1c-0.1,0.1-0.2,0.3-0.3,0.5
	c-0.2,2.2,0.3,4.1,0.2,5.7c0.1,1-0.4,1.9-1.1,2.5c1.5-0.6,2.6-1.8,3.2-3.3c0.1-0.3,0.4-0.2,0.5,0c0.1,0.6,0,1.1-0.3,1.6
	c-0.9,1.6-2.5,2.6-4.2,2.6c-1.4,0.2-2.8-0.5-3.6-1.8c-0.6-1.1-0.5-2.4,0.3-3.3c0.3-0.2,0.5-0.1,0.5,0.2c0,0.2,0,0.4,0,0.6
	C183.4,15.2,184.3,13.8,185.2,12.4z M182.6,17.8c0.4,1.4,1.1,2.4,1.9,2.1c1.1-0.3,0.7-4.1,0.6-6C184.4,15.3,183.5,16.5,182.6,17.8
	L182.6,17.8z"/>
<path class="st0" d="M199.8,11c-0.7-1.2-1.4-2.4-2-3.7c-0.3-0.5-0.3-1.1-0.1-1.6c0.2-0.4,0.6-0.5,1.1,0.1c0.9,1.6,1.7,3.3,2.2,5.1
	c0.1,0.2,0,0.4-0.2,0.5C200.5,11.6,200.1,11.5,199.8,11z M201.1,10.4c-0.4-0.8-1-2.6-1.3-3.6c-0.1-0.3-0.1-0.5-0.1-0.8
	c0-0.3,0.1-0.6,0.3-0.8c0.3-0.4,0.7-0.4,1,0.1c0.7,1.6,1.2,3.3,1.4,5c0,0.4,0,0.5-0.5,0.5C201.5,10.9,201.2,10.7,201.1,10.4
	L201.1,10.4z"/>
<path class="st0" d="M207.9,12.5c0.2,0.9,0.1,1.9-0.5,2.6c-0.2,0.3-0.3,0.7-0.4,1c-0.2,0.5-0.4,0.5-0.9,0.3
	c-0.5-0.3-0.8-0.8-0.8-1.4c0.1-0.6,0.3-1.2,0.6-1.8c0.2-0.5,0.4-0.9,0.3-1c-0.3-0.2-1.9,1.3-2.8,3.3c-0.4,0.8-0.7,1.8-0.7,2.7
	c0,1.1,0.4,1.7,1.1,1.7c1.8,0,3.5-1.8,4.4-3.3c0.2-0.4,0.6-0.5,0.7,0c0.1,0.6,0,1.1-0.3,1.6c-1.1,1.6-2.8,2.6-4.7,2.6
	c-1.7,0.2-3.3-1.1-3.4-2.8c0-0.2,0-0.3,0-0.5c0-1,0.3-1.9,0.7-2.8c1.2-2.5,3.1-3.8,4.5-3.8C206.6,11.1,207.4,11.6,207.9,12.5z"/>
<path class="st0" d="M226.6,18.3c-0.8,1.5-2.3,2.4-3.9,2.6c-1.6,0-2.3-0.8-2.3-2.1c0-0.5,0.1-1.1,0.3-1.6c0.5-1.2,1.1-2.3,1.8-3.4
	c0.2-0.4,0.4-0.9,0.6-1.3c-1,0.5-1.9,1.2-2.6,2.1c-1.4,1.8-2.5,3.8-3.4,5.9c-0.1,0.3-0.3,0.4-0.6,0.3c-0.1,0-0.2-0.1-0.3-0.2
	c-0.3-0.3-0.5-0.8-0.5-1.3c0-0.4,0.1-0.9,0.3-1.3c0.3-0.9,0.7-1.8,1.1-2.6c-0.4,0.2-0.9,0.3-1.4,0.2c-0.6,2.3-2.4,5.1-4.8,5.1
	c-0.9,0-1.8-0.4-2.3-1.2c-0.4-0.6-0.7-1.4-0.6-2.1c0-1.2,0.4-2.3,1-3.3c0.9-1.6,2.4-3,3.9-3.1c0.7-0.1,1.4,0.3,1.8,0.8
	c0.1,0.2,0.3,0.3,0.4,0.5c0.6,0.7,0.9,1.6,0.8,2.5c1.2-0.3,2.7-2,3.8-3.6c0.3-0.4,0.6-0.4,0.9,0c0.2,0.4,0.3,0.8,0.3,1.2
	c0,0.1,0,0.3,0,0.4c0.8-0.9,1.8-1.5,3-1.8c0.6,0,1.3,0.8,1.3,1.8c0,0.3-0.1,0.7-0.2,1c-0.2,0.5-0.6,1.1-1,1.7
	c-0.4,0.6-1,1.7-1.2,2.2c-0.2,0.4-0.3,0.9-0.4,1.3c0,0.5,0.2,0.8,0.5,0.8c0.7,0,2.1-1.6,3-3.2c0.1-0.2,0.3-0.3,0.5-0.2
	c0.1,0,0.2,0.1,0.2,0.2C227,17.2,226.9,17.8,226.6,18.3z M210.4,19.5c0.6,0,1.7-0.9,2.5-2.5c0.3-0.6,0.6-1.2,0.8-1.9
	c-0.7-0.5-1.2-1.1-1.5-1.9c-0.5,0.6-1,1.2-1.4,1.9c-0.6,1-0.9,2.2-1,3.3C209.9,19.2,210.1,19.5,210.4,19.5z M214.4,13
	c0-0.4-0.2-0.5-0.4-0.5s-0.4,0.2-0.4,0.6c0,0.5,0.1,1,0.4,1.4C214.3,14,214.4,13.5,214.4,13L214.4,13z"/>
<path class="st0" d="M228,15.7c-1.2,0-1.8-0.6-1.9-1.4c0-0.2,0.2-0.5,0.5-0.5c1.7,0,3-0.2,4.1-0.2c1.3,0,1.9,0.6,2,1.3
	c0.1,0.3,0,0.5-0.5,0.5c-0.3,0-0.5,0-0.7,0C230.2,15.5,229,15.8,228,15.7z"/>
<path class="st0" d="M235.1,18.5c1.7-2.7,3.7-5.2,5.8-7.5c0.5-0.5,0.8-0.4,0.9,0.2s-0.2,1.2-1,2.2c-2,2.3-3.9,4.7-5.5,7.3
	c-0.1,0.3-0.5,0.4-0.8,0.3c0,0,0,0,0,0c-0.9-0.3-1.5-1.3-1.3-2.3c0.2-2.5,0.8-5.1,1.6-7.5c0.1-0.4,0.5-0.6,0.9-0.2
	c0.5,0.4,0.8,1.1,0.8,1.8c0,0.4-0.1,0.9-0.2,1.3C235.6,16.3,235.3,17.3,235.1,18.5z"/>
<path class="st0" d="M241.6,20.8c-1,0.1-2-0.6-2.1-1.6c0-0.1,0-0.2,0-0.4c0-0.5,0.1-1.1,0.3-1.6c0.8-2,1.8-3.9,3-5.7
	c0.4-0.5,0.6-0.5,1-0.2c0.6,0.8,0.6,1.9,0,2.7c-0.5,1-1.6,2.8-2,3.8c-0.2,0.5-0.3,0.9-0.3,1.4c0,0.4,0.1,0.6,0.4,0.6
	c1,0,2.2-1.6,3-3.2c0.2-0.4,0.5-0.4,0.7,0c0.2,0.5,0.2,1.1-0.1,1.6C244.6,19.7,243.2,20.7,241.6,20.8z M244.6,8.6
	c0.8,0.1,1.3,0.8,1.3,1.6c0,0.6-0.4,1.2-1,1.2c-0.8,0-1.4-0.7-1.4-1.5C243.5,9.2,244,8.6,244.6,8.6z"/>
<path class="st0" d="M245,16.1c0.7-1.6,1.5-3.2,2.4-4.8c-0.5,0-1-0.2-1.4-0.6c-0.3-0.5-0.1-0.7,0.5-0.7c0.6,0,1.2,0,1.7,0
	c0.7-1.4,1.2-2.1,1.8-2.9c0.4-0.5,0.6-0.5,0.9,0c0.2,0.3,0.3,0.7,0.3,1c0,0.6-0.1,1.1-0.4,1.7c0.5,0,1,0.3,1.3,0.8
	c0.2,0.4,0.1,0.7-0.5,0.6c-0.5,0-1.1,0-1.6,0.1c-0.9,1.6-2.3,3.9-3.1,5.8c-0.3,0.6-0.4,1.2-0.4,1.8c0,0.7,0.2,1.2,0.6,1.2
	c0.9,0,2.2-1.5,3-3.3c0.3-0.6,0.8-0.6,1,0c0.1,0.5,0,1-0.2,1.4c-0.3,0.7-1.9,2.8-4,2.8c-1.4,0-2.4-1.2-2.4-2.5c0,0,0-0.1,0-0.1
	C244.5,17.4,244.7,16.7,245,16.1z"/>
<path class="st0" d="M254.3,10.1c-0.3,0.4-0.6,0.5-0.9,0.4s-0.4-0.3-0.3-0.6c0.7-1.6,1.6-3.2,2.7-4.6c0.5-0.5,0.8-0.3,1,0.1
	c0.2,0.6,0,1.2-0.3,1.6C255.8,8.1,255.1,9.1,254.3,10.1z M255.3,11c-0.4,0.3-0.7,0.5-0.9,0.3c-0.2-0.2-0.2-0.5,0-0.7c0,0,0,0,0,0
	c1-1.5,2.2-3,3.5-4.3c0.5-0.4,1-0.2,1,0.2c0,0.6-0.2,1.1-0.6,1.6C257.4,9.1,256.4,10.1,255.3,11L255.3,11z"/>
</svg>
