<?xml version="1.0" encoding="utf-8"?>
<!-- Generator: Adobe Illustrator 19.2.0, SVG Export Plug-In . SVG Version: 6.00 Build 0)  -->
<svg version="1.1" id="layout" xmlns="http://www.w3.org/2000/svg" xmlns:xlink="http://www.w3.org/1999/xlink" x="0px" y="0px"
	 viewBox="0 0 120 120" style="enable-background:new 0 0 120 120;" xml:space="preserve">
<style type="text/css">
	.st0{fill:#FFFFFF;}
</style>
<title>people_full_white</title>
<path class="st0" d="M93.8,82.3c1.8,1.1,2.7,2.9,2.7,5.4v24.4c0,1.5-0.4,2.9-1.2,4.2c-0.6,1.1-1.8,1.7-3,1.8h-65
	c-1.2,0-2.3-0.7-2.9-1.8c-0.8-1.2-1.2-2.7-1.2-4.2V87.7c0-2.6,0.9-4.4,2.6-5.4L44,72l7.1-4c-3.5-2.7-6.2-6.4-7.7-10.6
	c-1.7-4.1-2.5-8.5-2.5-13c0-1.3,0.1-2.7,0.3-4c0.2-1.3,0.4-2.5,0.7-3.7c1-5,3.3-9.6,6.7-13.4c3.2-3.5,6.9-5.3,11.2-5.3
	s8,1.8,11.4,5.5c3.4,3.9,5.7,8.7,6.6,13.8c0.4,2.4,0.6,4.8,0.7,7.2c0,4.2-0.7,8.4-2.1,12.3c-1.4,4.3-4.1,8.1-7.7,10.9l7.5,4.3
	L93.8,82.3z M23,75.5c-2,1.1-3.6,2.8-4.5,4.9c-1.1,2.3-1.7,4.8-1.6,7.3v20.7H3.3c-0.9,0-1.8-0.4-2.3-1.2c-0.7-1.1-1.1-2.3-1-3.6V84
	c0-2.4,0.7-3.8,2.1-4.5l20.4-11.6c-2.6-2-4.7-4.7-5.9-7.8c-1.5-3.6-2.3-7.4-2.2-11.3c0-2.8,0.4-5.6,1.2-8.2c0.7-2.4,1.8-4.7,3.2-6.8
	c1.3-1.8,2.9-3.4,4.7-4.6c1.8-1.1,3.8-1.7,5.9-1.7c1.4,0,2.7,0.3,4,0.8c1.3,0.6,2.5,1.3,3.6,2.1C34.3,38.4,34,47,36,55.2
	c0.8,3.3,2,6.4,3.7,9.4c-0.8,1.1-1.9,2.2-3,3L23,75.5z M117.8,79.5c1.4,0.9,2.2,2.4,2.2,4.5v19.5c0.1,1.2-0.3,2.4-0.9,3.4
	c-0.5,0.8-1.4,1.4-2.4,1.4h-14V87.6c0-2.5-0.6-5-1.7-7.3c-1-2-2.5-3.7-4.4-4.9l-13.1-7.5c-1.4-1-2.6-2.3-3.5-3.7
	c1.5-2.9,2.7-6,3.5-9.2c0.8-3.5,1.3-7.1,1.2-10.7c0-2.4-0.2-4.7-0.5-7c-0.3-2.2-0.9-4.4-1.6-6.6c1.1-0.9,2.4-1.7,3.7-2.3
	c1.3-0.6,2.7-0.9,4.1-0.9c2.1,0,4.2,0.6,5.9,1.7c1.9,1.2,3.5,2.7,4.8,4.6c1.4,2.1,2.5,4.4,3.2,6.8c0.8,2.7,1.2,5.5,1.2,8.2
	c0.1,3.8-0.7,7.6-2.2,11.2c-1.2,3-3.2,5.7-5.7,7.8L117.8,79.5L117.8,79.5z"/>
</svg>
