<svg id="layout" xmlns="http://www.w3.org/2000/svg" viewBox="0 0 119.97 100"><defs><style>.cls-1{fill:#fff;}</style></defs><title>people_full_white</title><path class="cls-1" d="M93.76,64.26q2.65,1.6,2.65,5.45V94.07a7.27,7.27,0,0,1-1.19,4.17,3.56,3.56,0,0,1-3,1.76h-65a3.46,3.46,0,0,1-2.91-1.76,7.27,7.27,0,0,1-1.19-4.17V69.71q0-3.85,2.65-5.45L44,54l7.14-4a22.84,22.84,0,0,1-7.67-10.58,33.68,33.68,0,0,1-2.51-13,29.38,29.38,0,0,1,.26-4q.26-1.92.66-3.69A29,29,0,0,1,48.58,5.29Q53.41,0,59.76,0T71.13,5.45a28.9,28.9,0,0,1,6.62,13.78,44.7,44.7,0,0,1,.66,7.21,36.44,36.44,0,0,1-2.12,12.34,22.76,22.76,0,0,1-7.67,10.9L76.16,54l17.6,10.26ZM23,57.46a11.05,11.05,0,0,0-4.55,4.89,16,16,0,0,0-1.65,7.29V90.31H3.33A2.88,2.88,0,0,1,1,89.11,5.9,5.9,0,0,1,0,85.5V66q0-3.53,2.11-4.49L22.5,49.93a18.93,18.93,0,0,1-5.93-7.77,27.56,27.56,0,0,1-2.24-11.3,28.39,28.39,0,0,1,1.19-8.25,23.4,23.4,0,0,1,3.23-6.81,16.54,16.54,0,0,1,4.74-4.57,10.88,10.88,0,0,1,5.86-1.68,9.81,9.81,0,0,1,4,.8,17.71,17.71,0,0,1,3.56,2.08,44.75,44.75,0,0,0-.92,24.76,37.39,37.39,0,0,0,3.69,9.38,14,14,0,0,1-3,3Zm94.83,4Q120,62.75,120,66V85.5a6,6,0,0,1-.92,3.45,2.77,2.77,0,0,1-2.38,1.36h-14V69.64A16,16,0,0,0,101,62.35a11.31,11.31,0,0,0-4.42-4.89L83.53,49.93A15.06,15.06,0,0,1,80,46.24,39.33,39.33,0,0,0,83.46,37a44.05,44.05,0,0,0,1.25-10.66,45.45,45.45,0,0,0-.53-7.05,41.52,41.52,0,0,0-1.58-6.57,15.57,15.57,0,0,1,3.7-2.32,10,10,0,0,1,4.09-.88,11.25,11.25,0,0,1,5.94,1.68,16.23,16.23,0,0,1,4.82,4.57,23.39,23.39,0,0,1,3.23,6.81,28.32,28.32,0,0,1,1.19,8.25A27.11,27.11,0,0,1,103.34,42a20.1,20.1,0,0,1-5.68,7.77l20.2,11.7Z"/></svg>