<svg id="layout" xmlns="http://www.w3.org/2000/svg" viewBox="0 0 119.67 100"><defs><style>.cls-1{fill:#fff;}</style></defs><title>people stroke white</title><path class="cls-1" d="M59.8,2c3.76,0,7,1.57,9.89,4.79A27,27,0,0,1,75.83,19.6a42.86,42.86,0,0,1,.63,6.85,34.59,34.59,0,0,1-2,11.65,20.92,20.92,0,0,1-7,10L65,49.88l2.67,1.53,7.53,4.32L92.77,66c.72.44,1.68,1.3,1.68,3.74V94.07a5.27,5.27,0,0,1-.85,3,1.57,1.57,0,0,1-1.39.88h-65c-.2,0-.66,0-1.25-.88a5.27,5.27,0,0,1-.85-3V69.71c0-2.41.94-3.28,1.66-3.72L45,55.75l7.14-4,2.71-1.52-2.51-1.84a21,21,0,0,1-7-9.73A31.85,31.85,0,0,1,43,26.44a27.55,27.55,0,0,1,.25-3.73c.17-1.22.38-2.41.63-3.52A27.21,27.21,0,0,1,50.1,6.64C52.95,3.52,56.12,2,59.8,2M29.4,11.54a7.76,7.76,0,0,1,3.16.64,15.19,15.19,0,0,1,2,1.06A46.81,46.81,0,0,0,34,37.68a40.44,40.44,0,0,0,3.23,8.66,10.88,10.88,0,0,1-1.72,1.59L22.11,55.71a13.06,13.06,0,0,0-5.37,5.74,18.09,18.09,0,0,0-1.86,8.19V88.31H3.37a.89.89,0,0,1-.71-.39A4,4,0,0,1,2,85.5V66c0-1.49.32-2.38.94-2.67l.08,0,.08,0L23.53,51.67l2.69-1.52-2.48-1.83a17.06,17.06,0,0,1-5.29-7,25.71,25.71,0,0,1-2.07-10.49,26.53,26.53,0,0,1,1.1-7.67,21.52,21.52,0,0,1,2.95-6.23,14.64,14.64,0,0,1,4.17-4,8.84,8.84,0,0,1,4.81-1.38m61,0a9.21,9.21,0,0,1,4.9,1.39,14.32,14.32,0,0,1,4.23,4,21.51,21.51,0,0,1,3,6.23,26.46,26.46,0,0,1,1.1,7.67,25.26,25.26,0,0,1-2.07,10.33,18.24,18.24,0,0,1-5.09,7L94.16,50,96.7,51.5l20.17,11.68c.49.3,1.15.91,1.15,2.78V85.5a4.11,4.11,0,0,1-.58,2.32c-.33.48-.56.48-.72.48h-12V69.64a18.08,18.08,0,0,0-1.86-8.19,13.33,13.33,0,0,0-5.21-5.72l-13-7.49A11.87,11.87,0,0,1,82.37,46a42.26,42.26,0,0,0,3.08-8.53,46.25,46.25,0,0,0,1.31-11.14A47.67,47.67,0,0,0,86.21,19,43.82,43.82,0,0,0,85,13.49a13.39,13.39,0,0,1,2.19-1.23,7.92,7.92,0,0,1,3.28-.71M59.8,0Q53.45,0,48.62,5.29a29,29,0,0,0-6.68,13.46q-.4,1.76-.66,3.69a29.4,29.4,0,0,0-.26,4,33.68,33.68,0,0,0,2.51,13A22.84,22.84,0,0,0,51.2,50l-7.14,4L25.8,64.26q-2.65,1.6-2.65,5.45V94.07a7.26,7.26,0,0,0,1.19,4.17A3.46,3.46,0,0,0,27.25,100h65a3.56,3.56,0,0,0,3-1.76,7.26,7.26,0,0,0,1.19-4.17V69.71q0-3.85-2.65-5.45L76.21,54l-7.54-4.33a22.76,22.76,0,0,0,7.67-10.9,36.44,36.44,0,0,0,2.12-12.34,44.71,44.71,0,0,0-.66-7.21A28.9,28.9,0,0,0,71.18,5.45Q66.29,0,59.8,0ZM29.4,9.54a10.88,10.88,0,0,0-5.86,1.68,16.55,16.55,0,0,0-4.74,4.57,23.4,23.4,0,0,0-3.23,6.81,28.39,28.39,0,0,0-1.19,8.25,27.56,27.56,0,0,0,2.24,11.3,18.93,18.93,0,0,0,5.93,7.77L2.13,61.47Q0,62.43,0,66V85.5a5.9,5.9,0,0,0,1,3.61,2.88,2.88,0,0,0,2.32,1.2H16.88V69.64a16,16,0,0,1,1.65-7.29,11.05,11.05,0,0,1,4.55-4.89l13.57-7.85a14,14,0,0,0,3-3A37.39,37.39,0,0,1,36,37.19a44.75,44.75,0,0,1,.92-24.76,17.7,17.7,0,0,0-3.56-2.08,9.81,9.81,0,0,0-4-.8Zm61,0a10,10,0,0,0-4.09.88,15.57,15.57,0,0,0-3.7,2.32,41.53,41.53,0,0,1,1.58,6.57,45.46,45.46,0,0,1,.53,7.05A44,44,0,0,1,83.51,37,39.32,39.32,0,0,1,80,46.24a15.06,15.06,0,0,0,3.57,3.69l13.07,7.53a11.31,11.31,0,0,1,4.42,4.89,16,16,0,0,1,1.65,7.29V90.31h14a2.77,2.77,0,0,0,2.38-1.36A6,6,0,0,0,120,85.5V66q0-3.21-2.11-4.49L97.7,49.77A20.1,20.1,0,0,0,103.38,42a27.11,27.11,0,0,0,2.24-11.14,28.32,28.32,0,0,0-1.19-8.25,23.39,23.39,0,0,0-3.23-6.81,16.23,16.23,0,0,0-4.82-4.57,11.25,11.25,0,0,0-5.94-1.68Z"/></svg>
