<?xml version="1.0" encoding="utf-8"?>
<!-- Generator: Adobe Illustrator 19.2.0, SVG Export Plug-In . SVG Version: 6.00 Build 0)  -->
<svg version="1.1" id="Layer_1" xmlns="http://www.w3.org/2000/svg" xmlns:xlink="http://www.w3.org/1999/xlink" x="0px" y="0px"
	 viewBox="0 0 100 100" style="enable-background:new 0 0 100 100;" xml:space="preserve">
<style type="text/css">
	.st0{fill:#FFFFFF;}
</style>
<title>Asset 23</title>
<g id="Layer_2">
	<g id="layout">
		<path class="st0" d="M99.3,99.3c-0.4,0.5-1.1,0.7-1.7,0.7H2.4c-0.6,0-1.2-0.3-1.7-0.7C0.2,98.8,0,98.2,0,97.6
			c0-1.2,0.3-11.9,6-17.5c2.6-2.6,8-5.4,16-9.4c8.5-4.3,13.3-6.8,15.5-8.9l4.8-4.6L38.1,52c-6.6-8-10.3-17-10.3-24.5
			c0-5.8,0-12.3,2.7-17.8C33.8,3.3,40.3,0,50,0s16.2,3.3,19.5,9.8c2.7,5.4,2.7,12,2.7,17.8c0,7.5-3.8,16.4-10.4,24.5l-4.2,5.1
			l4.8,4.6c2.2,2.1,6.9,4.6,15.5,8.9c8,4,13.5,6.8,16.1,9.4c4.6,4.6,5.9,13.2,6,17.5C100,98.2,99.8,98.8,99.3,99.3z"/>
	</g>
</g>
</svg>
