<svg id="layout" xmlns="http://www.w3.org/2000/svg" viewBox="0 0 78.97 100"><defs><style>.cls-1{fill:#b3b3b3;}</style></defs><title>resume_full</title><path class="cls-1" d="M62.15,73.77H16.83a1.4,1.4,0,1,0,0,2.79H62.15a1.4,1.4,0,1,0,0-2.79Z"/><path class="cls-1" d="M62.15,62.24H16.83a1.4,1.4,0,1,0,0,2.79H62.15a1.4,1.4,0,1,0,0-2.79Z"/><path class="cls-1" d="M62.15,50.71H16.83a1.4,1.4,0,1,0,0,2.79H62.15a1.4,1.4,0,1,0,0-2.79Z"/><path class="cls-1" d="M16.83,42.24H37.56a1.4,1.4,0,1,0,0-2.79H16.83a1.4,1.4,0,1,0,0,2.79Z"/><path class="cls-1" d="M63.44,1a3.85,3.85,0,0,0-2.62-1H3.72A3.61,3.61,0,0,0,0,3.48v93A3.61,3.61,0,0,0,3.72,100H75.25A3.61,3.61,0,0,0,79,96.51V16.78a3.38,3.38,0,0,0-1.11-2.49Zm-56,92V7H56.95V18.33a2.17,2.17,0,0,0,2.23,2.1H71.53V93Z"/><path class="cls-1" d="M20.33,22.59a3.91,3.91,0,0,0,3.78-4,3.91,3.91,0,0,0-3.78-4,3.91,3.91,0,0,0-3.77,4A3.91,3.91,0,0,0,20.33,22.59Z"/><path class="cls-1" d="M23.36,23.19H17.31a2.2,2.2,0,0,0-2,2.36V32c0,.07,0,.14,0,.21h9.91c0-.07,0-.14,0-.21v-6.5A2.19,2.19,0,0,0,23.36,23.19Z"/></svg>