<svg id="layout" xmlns="http://www.w3.org/2000/svg" viewBox="0 0 78.97 100"><defs><style>.cls-1{fill:#b3b3b3;}</style></defs><title>resume_stroke</title><path class="cls-1" d="M62.15,73.77H16.84a1.4,1.4,0,1,0,0,2.79H62.15a1.4,1.4,0,1,0,0-2.79Z"/><path class="cls-1" d="M62.15,62.24H16.84a1.4,1.4,0,1,0,0,2.79H62.15a1.4,1.4,0,1,0,0-2.79Z"/><path class="cls-1" d="M62.15,50.71H16.84a1.4,1.4,0,1,0,0,2.79H62.15a1.4,1.4,0,1,0,0-2.79Z"/><path class="cls-1" d="M16.84,42.24H37.57a1.4,1.4,0,1,0,0-2.79H16.84a1.4,1.4,0,1,0,0,2.79Z"/><path class="cls-1" d="M60.82,2a1.85,1.85,0,0,1,1.27.47L76.51,15.76a1.39,1.39,0,0,1,.47,1V96.51A1.62,1.62,0,0,1,75.25,98H3.73A1.62,1.62,0,0,1,2,96.51v-93A1.62,1.62,0,0,1,3.73,2H60.82M5.46,95H73.53V18.42H59.19a.29.29,0,0,1-.23-.1V5H5.46V95M60.82,0H3.73A3.61,3.61,0,0,0,0,3.48v93A3.61,3.61,0,0,0,3.73,100H75.25A3.61,3.61,0,0,0,79,96.51V16.78a3.38,3.38,0,0,0-1.11-2.49L63.44,1a3.85,3.85,0,0,0-2.62-1ZM7.46,93V7H57V18.33a2.17,2.17,0,0,0,2.23,2.1H71.53V93Z"/><path class="cls-1" d="M20.34,16.52a1.64,1.64,0,0,1,1.17.5,2.17,2.17,0,0,1,.61,1.53,1.92,1.92,0,0,1-1.78,2,1.92,1.92,0,0,1-1.77-2,1.92,1.92,0,0,1,1.77-2m0-2a3.91,3.91,0,0,0-3.77,4,3.91,3.91,0,0,0,3.77,4,3.91,3.91,0,0,0,3.78-4,3.91,3.91,0,0,0-3.78-4Z"/><path class="cls-1" d="M23.24,25.19a.68.68,0,0,1,.09.36v4.7h-6v-4.7a.67.67,0,0,1,.09-.36h5.8m.13-2H17.32a2.2,2.2,0,0,0-2,2.36V32c0,.07,0,.14,0,.21H25.3c0-.07,0-.14,0-.21v-6.5a2.19,2.19,0,0,0-2-2.36Z"/></svg>