<svg xmlns="http://www.w3.org/2000/svg" viewBox="0 0 73.08 63.63"><defs><style>.cls-1{fill:#e678a0;}.cls-2{fill:#333;}.cls-3{fill:#f0dc78;}.cls-4{fill:#d2648c;}.cls-5{fill:#fa8cb4;}</style></defs><title>boxing</title><g id="Layer_2" data-name="Layer 2"><g id="desktop"><path class="cls-1" d="M1.9,29.74l8.85-2.53v-19L1.9,5.7S.63,7,.63,17.09,1.9,29.74,1.9,29.74Z"/><path class="cls-2" d="M1.9,30.37A.63.63,0,0,1,1.33,30C1.28,29.91,0,27.24,0,17.09,0,7.21,1.21,5.5,1.45,5.26a.62.62,0,0,1,.62-.17l8.86,2.53a.64.64,0,0,1,.46.61v19a.64.64,0,0,1-.46.61L2.07,30.35ZM2.21,6.45c-.29.78-.94,3.34-.94,10.64,0,7.46.7,10.74,1,11.88l7.82-2.24v-18Z"/><polygon class="cls-3" points="50.49 16.55 58.6 17.7 55.54 25.3 61.99 30.35 55.54 35.4 58.6 43 50.49 44.15 49.34 52.26 41.74 49.2 36.69 55.65 31.64 49.2 24.04 52.26 22.89 44.15 14.77 43 17.83 35.4 11.38 30.35 17.83 25.3 14.77 17.7 22.89 16.55 24.04 8.44 31.64 11.49 36.69 5.05 41.74 11.49 49.34 8.44 50.49 16.55"/><path class="cls-3" d="M22.88,19.08,24,11l7.6,3,5-6.44L41.74,14l1.54-.62c-.05-.83-.13-1.65-.25-2.42l-1.29.51L36.69,5.05l-5,6.44L24,8.44l-1.16,8.11L14.77,17.7l1,2.39Z"/><path class="cls-2" d="M36.69,56.28a.64.64,0,0,1-.5-.24L31.43,50l-7.16,2.89a.66.66,0,0,1-.55,0,.65.65,0,0,1-.31-.46l-1.09-7.64-7.64-1.09a.59.59,0,0,1-.45-.31.6.6,0,0,1,0-.55l2.88-7.16L11,30.84a.63.63,0,0,1,0-1l6.08-4.76-2.88-7.16a.6.6,0,0,1,0-.55.59.59,0,0,1,.45-.31L22.32,16l1.09-7.64a.65.65,0,0,1,.31-.46.66.66,0,0,1,.55,0l7.16,2.89,4.76-6.08a.66.66,0,0,1,1,0l4.76,6.08L49.1,7.84a.66.66,0,0,1,.55,0,.62.62,0,0,1,.31.46L51.05,16l7.64,1.09a.62.62,0,0,1,.46.31.66.66,0,0,1,0,.55L56.3,25.09l6.08,4.76a.63.63,0,0,1,0,1L56.3,35.6l2.89,7.16a.66.66,0,0,1,0,.55.62.62,0,0,1-.46.31l-7.64,1.09L50,52.35a.62.62,0,0,1-.31.46.66.66,0,0,1-.55,0L41.94,50,37.18,56A.63.63,0,0,1,36.69,56.28Zm-5-7.71a.62.62,0,0,1,.49.24l4.56,5.81,4.55-5.81a.64.64,0,0,1,.73-.2l6.85,2.76,1-7.31a.64.64,0,0,1,.54-.54l7.31-1L55,35.63a.64.64,0,0,1,.2-.73L61,30.35l-5.81-4.56a.64.64,0,0,1-.2-.73l2.76-6.85-7.31-1a.64.64,0,0,1-.54-.54l-1-7.31L42,12.08a.62.62,0,0,1-.73-.2L36.69,6.07l-4.56,5.82a.62.62,0,0,1-.73.19L24.55,9.32l-1,7.31a.64.64,0,0,1-.54.54l-7.31,1,2.76,6.85a.64.64,0,0,1-.2.73l-5.81,4.56,5.81,4.55a.65.65,0,0,1,.2.74l-2.76,6.85,7.31,1a.64.64,0,0,1,.54.54l1,7.31,6.85-2.76A.67.67,0,0,1,31.64,48.57Z"/><path class="cls-1" d="M71.19,61.37l-8.86-2.53v-19l8.86-2.53s1.26,1.26,1.26,11.38S71.19,61.37,71.19,61.37Z"/><polygon class="cls-4" points="62.33 39.86 62.33 39.86 62.33 46.82 62.33 39.86"/><path class="cls-2" d="M71.19,62A.57.57,0,0,1,71,62l-8.85-2.53a.61.61,0,0,1-.46-.6v-19a.63.63,0,0,1,.46-.61L71,36.72a.64.64,0,0,1,.62.16c.24.24,1.45,1.95,1.45,11.83,0,10.16-1.27,12.83-1.33,12.94A.63.63,0,0,1,71.19,62ZM63,58.36l7.83,2.23c.33-1.13,1-4.41,1-11.88,0-7.22-.65-9.8-1-10.63L63,40.34v18Z"/><path class="cls-1" d="M40.82,33.53c-5.16,0-7.56,5-8.27,9.48-1,6.23,0,17.8,7.63,19.37,5.07,1,10.86.57,16,0,2.67-.29,7.31-.76,8.7-3.54,2.53-5.06,2.53-12.65,0-19C61.77,32.13,54.44,29.8,50.07,32a19.6,19.6,0,0,0-3.9,2.76A11.43,11.43,0,0,0,40.82,33.53Z"/><path class="cls-2" d="M47,63.63a34.37,34.37,0,0,1-7-.63c-8.28-1.71-9-14.27-8.12-20.09.37-2.35,2.12-10,8.89-10a11.67,11.67,0,0,1,5,1.35,22.09,22.09,0,0,1,3.93-2.77,9.55,9.55,0,0,1,7.65-.18,14.23,14.23,0,0,1,8,8.32c.32.8.6,1.64.85,2.49a.63.63,0,0,1-1.22.35,23.61,23.61,0,0,0-.81-2.37,12.93,12.93,0,0,0-7.3-7.6,8.25,8.25,0,0,0-6.61.11A21.42,21.42,0,0,0,47,34.89,32,32,0,0,1,53,39.41a.64.64,0,0,1-.9.9c-.06-.06-6.2-6.14-11.23-6.14-5.77,0-7.31,6.84-7.64,8.94-.87,5.43-.26,17.12,7.13,18.65,4.84,1,10.44.59,15.78,0h.13c2.57-.28,6.86-.76,8.07-3.19a.64.64,0,0,1,1.14.57c-1.52,3-6.25,3.56-9.07,3.88h-.13A83.79,83.79,0,0,1,47,63.63Zm19-7.46a.47.47,0,0,1-.16,0,.63.63,0,0,1-.45-.77A22.12,22.12,0,0,0,66.1,51a.64.64,0,0,1,.66-.6.62.62,0,0,1,.6.66,23.16,23.16,0,0,1-.68,4.61A.63.63,0,0,1,66.07,56.17Z"/><path class="cls-1" d="M32.26,1.91S26.83.83,23,1.67C18.65-.56,11.32.5,8.22,8.23c-2.53,6.33-2.53,13.92,0,19s15.18,5.06,17.71,2.53l-.87-1.87c1.27,1.91,3.45,3.13,7.2,3.13C42.38,31,44.91,1.91,32.26,1.91Z"/><path class="cls-5" d="M22.53,30.4l.3.64L23,31C22.83,30.81,22.67,30.61,22.53,30.4Z"/><path class="cls-2" d="M32.26,2.54h-.13c-.05,0-5.32-1-9-.25a.64.64,0,0,1-.76-.48.63.63,0,0,1,.48-.75c3.91-.86,9.27.19,9.49.24a.63.63,0,0,1-.12,1.25Z"/><path class="cls-2" d="M19.06,32a24.3,24.3,0,0,1-3.77-.29c-3.87-.63-6.58-2.14-7.63-4.25a.63.63,0,1,1,1.13-.56c.86,1.71,3.3,3,6.7,3.56,4.46.72,8.85,0,10-1.2a.62.62,0,0,1,.89,0,.63.63,0,0,1,0,.9C25.11,31.46,22.13,32,19.06,32Z"/><path class="cls-2" d="M6.8,23.63a.63.63,0,0,1-.62-.5,24.6,24.6,0,0,1-.49-4.93A.64.64,0,1,1,7,18.2a22.76,22.76,0,0,0,.46,4.67.64.64,0,0,1-.49.75Z"/><path class="cls-2" d="M22.14,19a5.35,5.35,0,0,1-4.3-1.78c-2.05-2.42-1.41-6.38-1.39-6.55a.63.63,0,0,1,.73-.52.63.63,0,0,1,.52.73s-.56,3.56,1.11,5.52a4.15,4.15,0,0,0,3.33,1.33,4.08,4.08,0,0,0,3.7-2c1.74-2.83,1.13-7.83-.47-11-1.08-2.16-4-3.59-7.2-3.45-2,.09-6.86,1-9.36,7.2a24.41,24.41,0,0,0-1,3.1A.63.63,0,0,1,7,12a.64.64,0,0,1-.46-.77A26.46,26.46,0,0,1,7.64,8C9.56,3.19,13.48.2,18.12,0c3.69-.15,7.06,1.51,8.38,4.15,1.73,3.46,2.46,8.93.41,12.25A5.32,5.32,0,0,1,22.14,19Z"/><path class="cls-2" d="M32.26,31.64c-3.06,0-5.3-.77-6.86-2.34-2.55-2.58-2.72-6.89-2.67-11.08a.63.63,0,0,1,.63-.63.64.64,0,0,1,.63.64c0,3.93.1,8,2.31,10.17,1.3,1.33,3.26,2,6,2s4.67-2.53,5.72-4.65a24.57,24.57,0,0,0,2.21-10.46c0-5.87-2.08-12.72-7.93-12.72a7,7,0,0,0-5.7,2.6.63.63,0,0,1-1-.8,8.29,8.29,0,0,1,6.68-3.06c6.79,0,9.2,7.53,9.2,14C41.46,23.31,38,31.64,32.26,31.64Z"/></g></g></svg>