<svg xmlns="http://www.w3.org/2000/svg" viewBox="0 0 48.07 80.89"><defs><style>.cls-1{fill:#f3e8d7;}.cls-2{fill:#e5d8c6;}.cls-3{fill:#464c50;}.cls-4{fill:#31363b;}.cls-5{fill:#d38231;}.cls-6{fill:#c1752f;}.cls-7{fill:#a0e557;}</style></defs><title>coffee</title><g id="Layer_2" data-name="Layer 2"><g id="desktop"><path class="cls-1" d="M44.54,30h-41l6.81,47.87A2.47,2.47,0,0,0,12.78,80H35.29a2.46,2.46,0,0,0,2.43-2.11Z"/><path class="cls-2" d="M37.8,30,30.69,80h4.6a2.46,2.46,0,0,0,2.43-2.11L44.54,30Z"/><path class="cls-3" d="M40.29,22.61H7.78a1,1,0,0,0-1,.78L5.33,30.62h37.4l-1.49-7.23A1,1,0,0,0,40.29,22.61Z"/><path class="cls-4" d="M41.65,25.37l-.41-2a1,1,0,0,0-1-.78H34.46l.32,1.54c.26,1.26-.7,1.86-2,1.86H6.28l-1,4.61H42.74Z"/><path class="cls-3" d="M45.77,34.63H2.3A1.44,1.44,0,0,1,.86,33.2V29.39A1.45,1.45,0,0,1,2.3,28H45.77a1.44,1.44,0,0,1,1.43,1.44V33.2A1.43,1.43,0,0,1,45.77,34.63Z"/><path class="cls-4" d="M45.77,28H40.53v1.2c0,2.27-1.12,3.53-3.39,3.53H3a1.44,1.44,0,0,1-1.44-1.43l-.72,2A1.44,1.44,0,0,0,2.3,34.63H45.77A1.43,1.43,0,0,0,47.2,33.2V29.39A1.44,1.44,0,0,0,45.77,28Z"/><path class="cls-5" d="M8.21,72l-4.28-30A1.16,1.16,0,0,1,5.08,40.6H43a1.15,1.15,0,0,1,1.14,1.32L39.86,72a1.16,1.16,0,0,1-1.15,1H9.35A1.16,1.16,0,0,1,8.21,72Z"/><path class="cls-6" d="M43,40.6H37.61L33,73h5.7a1.16,1.16,0,0,0,1.15-1l4.27-30A1.15,1.15,0,0,0,43,40.6Z"/><path class="cls-7" d="M30,50.25c-2.55-2.54-7.26-2-10.52,1.31s-3.86,8-1.31,10.52,7.25,2,10.52-1.31S32.49,52.79,30,50.25Z"/><path d="M45.77,27.09H42.89l-.8-3.88a1.84,1.84,0,0,0-1.8-1.47H7.78A1.86,1.86,0,0,0,6,23.21l-.79,3.88H2.3A2.3,2.3,0,0,0,0,29.39V33.2a2.3,2.3,0,0,0,2.3,2.3H3.43L4.07,40a1.93,1.93,0,0,0-.52.43A2,2,0,0,0,3.07,42l4.28,30a2,2,0,0,0,1.53,1.68L9.48,78a3.35,3.35,0,0,0,3.3,2.86H35.29A3.34,3.34,0,0,0,38.58,78l.61-4.28a2,2,0,0,0,1.53-1.68L45,42a2,2,0,0,0-.47-1.61A1.93,1.93,0,0,0,44,40l.64-4.5h1.13a2.3,2.3,0,0,0,2.3-2.3V29.39A2.3,2.3,0,0,0,45.77,27.09ZM7.67,23.56a.11.11,0,0,1,.11-.08H40.29a.1.1,0,0,1,.1.08l.73,3.53H7Zm29.2,54.23a1.61,1.61,0,0,1-1.58,1.37H12.78a1.6,1.6,0,0,1-1.58-1.37l-.56-4H37.43Zm2.13-6a.29.29,0,0,1-.29.25H9.35a.29.29,0,0,1-.28-.25l-4.28-30a.28.28,0,0,1,.27-.32H43a.29.29,0,0,1,.21.09.29.29,0,0,1,.06.23ZM5.18,35.5h37.7l-.6,4.23H5.78Zm41.15-2.3a.56.56,0,0,1-.56.56H2.3a.57.57,0,0,1-.57-.56V29.39a.57.57,0,0,1,.57-.57H45.77a.56.56,0,0,1,.56.57Z"/><path d="M30.56,49.63h0c-2.88-2.86-8.14-2.27-11.73,1.32a10.54,10.54,0,0,0-3.08,6,6.68,6.68,0,0,0,1.78,5.71h0a6.46,6.46,0,0,0,4.67,1.83,7.23,7.23,0,0,0,1-.07,10.45,10.45,0,0,0,6-3.08c3.6-3.6,4.19-8.87,1.31-11.74ZM17.45,57.2a8.83,8.83,0,0,1,2.59-5,8.51,8.51,0,0,1,5.83-2.64,5.08,5.08,0,0,1,2.46.59c-1.46.86-3.72,2.56-4.4,5.09-.6,2.19-3.85,4.62-5.63,5.74A5.16,5.16,0,0,1,17.45,57.2Zm10.58,3a8.78,8.78,0,0,1-5,2.58,5.31,5.31,0,0,1-3.36-.59c1.78-1.18,5.21-3.74,6-6.49.61-2.24,3-3.75,4.13-4.34C31.45,53.61,30.76,57.43,28,60.16Z"/><g id="Coffee-drip-hot-kettle-pot"><path d="M19.43,0c.11,1.07.2,2.14.28,3.2a4.52,4.52,0,0,0,1.18,2.64,4.26,4.26,0,0,0,2.45,1.29,8.79,8.79,0,0,0,1.46,0l1.6,0c2.13-.1,4.27-.12,6.4-.17l.81,0a2.66,2.66,0,0,1,1.23.33A2.55,2.55,0,0,1,35,11.56a2.56,2.56,0,0,1-1.22.43,4.21,4.21,0,0,1-.48,0h-.4c-4.27,0-8.53-.06-12.8-.22l-1.6-.06a8.79,8.79,0,0,0-1.46,0A4.29,4.29,0,0,0,14.6,13a4.52,4.52,0,0,0-1.18,2.64c-.08,1.06-.17,2.13-.28,3.2-.1-1.07-.2-2.13-.27-3.2a5,5,0,0,1,1-3.26,5.27,5.27,0,0,1,2.93-1.95,8.42,8.42,0,0,1,1.73-.17l1.6-.06c4.27-.16,8.53-.2,12.8-.22h.72a.59.59,0,0,0,.26-1.1.62.62,0,0,0-.3-.09H32.8c-2.13-.06-4.27-.08-6.4-.17l-1.6-.06a8.42,8.42,0,0,1-1.73-.17,5.37,5.37,0,0,1-2.93-1.95,5.08,5.08,0,0,1-1-3.26C19.23,2.13,19.33,1.07,19.43,0Z"/></g></g></g></svg>