<svg xmlns="http://www.w3.org/2000/svg" viewBox="0 0 60 60"><defs><style>.cls-1{fill:#e6e9ed;}.cls-2{fill:#ccd1d9;}.cls-3{fill:#aab2bd;}.cls-4{fill:#ffeaa7;}.cls-5{fill:#b4dd7f;}.cls-6{fill:#838f9b;}.cls-7{fill:#a0d468;}.cls-8{fill:#fcd770;}.cls-9{fill:#ffc729;}.cls-10{fill:#cf9e76;}.cls-11{fill:#8cc152;}</style></defs><title>company</title><g id="Layer_2" data-name="Layer 2"><g id="desktop"><path class="cls-1" d="M27.76,20.32l-1.63-9.67H2.9V55.16H28.06Z"/><path class="cls-2" d="M10.48,25.63l6.89,29.53H28.06l-.3-34.84-.33-1.93H16.51Z"/><path class="cls-2" d="M2.9,53.23H15.48v2.9H2.9Z"/><path class="cls-2" d="M6.77,21.29h6.78v3.87H6.77Z"/><path class="cls-2" d="M6.77,27.1h6.78V31H6.77Z"/><path class="cls-2" d="M6.77,32.9h6.78v3.87H6.77Z"/><path class="cls-2" d="M6.77,14.52h6.78v4.83H6.77Z"/><path class="cls-2" d="M6.77,50.32h6.78v4.84H6.77Z"/><path class="cls-2" d="M15.48,14.52V55.16h6.78V14.52Z"/><path class="cls-3" d="M15.48,53.23h6.78v1.93H15.48Z"/><path class="cls-2" d="M6.77,38.71h6.78v3.87H6.77Z"/><path class="cls-2" d="M6.77,44.52h6.78v3.87H6.77Z"/><path class="cls-4" d="M4.84,4.84H8.71v5.81H4.84Z"/><path class="cls-4" d="M16.45,4.84h3.87v5.81H16.45Z"/><path class="cls-1" d="M33.87,20.32V8.71H57.1V55.16H33.87Z"/><path class="cls-2" d="M33.87,18.39V55.16h8.76l6.89-29.53-6-7.24Z"/><path class="cls-2" d="M33.87,53.23H57.1v1.93H33.87Z"/><path class="cls-5" d="M35.81,4.84H55.16V8.71H35.81Z"/><path class="cls-3" d="M13.55,27.1H10.82l.9,3.87h1.83Z"/><path class="cls-3" d="M13.55,36.77V32.9H12.17l.91,3.87Z"/><path class="cls-6" d="M13.55,38.79v-.08h0Z"/><path class="cls-3" d="M16.51,18.39l-1,1.23V47.09l1.89,8.07h4.89V18.39Z"/><path class="cls-3" d="M10.87,25.16h2.68V21.94Z"/><path class="cls-7" d="M37.74,1H53.23V4.84H37.74Z"/><path class="cls-8" d="M40.65,55.16l6.77-29-4.84-5.81H17.42l-4.84,5.81,6.77,29Z"/><path class="cls-9" d="M18.9,53.23l.45,1.93h21.3l.45-1.93Z"/><path class="cls-4" d="M12.58,26.13H47.42l-4.84-5.81H17.42Z"/><path class="cls-2" d="M39.68,12.58h3.87v3.87H39.68Z"/><path class="cls-2" d="M47.42,12.58h3.87v3.87H47.42Z"/><path class="cls-2" d="M47.42,21.29h3.87v3.87H47.42Z"/><path class="cls-2" d="M47.42,30h3.87v3.87H47.42Z"/><path class="cls-2" d="M47.42,38.71h3.87v3.87H47.42Z"/><path class="cls-2" d="M47.42,47.42h3.87v3.87H47.42Z"/><path class="cls-4" d="M31.94,47.42h5.8v7.74h-5.8Z"/><path class="cls-4" d="M22.26,47.42h5.8v7.74h-5.8Z"/><path class="cls-9" d="M20.32,30h3.87v3.87H20.32Z"/><path class="cls-9" d="M35.81,30h3.87v3.87H35.81Z"/><path class="cls-9" d="M28.06,30h3.88v3.87H28.06Z"/><path class="cls-9" d="M20.32,37.74h3.87v3.87H20.32Z"/><path class="cls-9" d="M28.06,37.74h3.88v3.87H28.06Z"/><path class="cls-9" d="M35.81,37.74h3.87v3.87H35.81Z"/><path class="cls-10" d="M59,59H1V57.1A1.93,1.93,0,0,1,2.9,55.16H57.1A1.93,1.93,0,0,1,59,57.1Z"/><path class="cls-8" d="M22.26,53.23h5.8v1.93h-5.8Z"/><path class="cls-8" d="M31.94,53.23h5.8v1.93h-5.8Z"/><path class="cls-3" d="M6.77,53.23h6.78v1.93H6.77Z"/><path class="cls-3" d="M47.42,23.11v2.05h1.71Z"/><path class="cls-3" d="M47.42,30v3.87h.18L48.5,30Z"/><path class="cls-7" d="M35.81,6.77H55.16V8.71H35.81Z"/><path class="cls-11" d="M37.74,2.9H53.23V4.84H37.74Z"/><rect class="cls-8" x="16.45" y="8.71" width="3.87" height="1.94"/><rect class="cls-8" x="4.84" y="8.71" width="3.87" height="1.94"/><path d="M58.06,54.37V7.74H56.13V3.87H54.19V0H36.77V3.87H34.84V7.74H32.9V19.35H28.57L27,9.68H21.29V3.87H15.48V9.68H9.68V3.87H3.87V9.68H1.94V54.37A2.9,2.9,0,0,0,0,57.1V60H60V57.1A2.9,2.9,0,0,0,58.06,54.37ZM38.71,1.94H52.26V3.87H38.71ZM36.77,5.81H54.19V7.74H36.77ZM34.84,9.68H56.13V54.19H41.86l4.52-19.35h5.88V29H47.74l.67-2.9h3.85V20.32H46.45v3.14L43,19.35H34.84Zm1.93,44.51H32.9v-5.8h3.87ZM31,46.45v7.74H29V46.45H21.29v7.74H20.12L13.8,27.1H46.2L39.88,54.19H38.71V46.45ZM27.1,54.19H23.23v-5.8H27.1Zm21.29-30V22.26h1.93v1.93ZM47.28,31h3V32.9H46.83ZM17.87,21.29H42.13l3.22,3.87H14.65Zm3.42-1.94H17l-1.49,1.78V15.48h5.81Zm-7.74,0H7.74V15.48h5.81ZM7.74,21.29h5.81v2.17l-1.42,1.7H7.74Zm0,5.81h4.07L12.72,31h-5Zm0,5.8h5.43l.38,1.63v2.24H7.74Zm0,5.81h5.81v3.87H7.74Zm0,5.81h5.81v3.87H7.74Zm0,5.8h5.81v3.87H7.74Zm7.74-7.49,2.66,11.36H15.48Zm1.94-37h1.93V9.68H17.42Zm-11.61,0H7.74V9.68H5.81Zm19.5,5.8,1.3,7.74H23.23v-5.8H5.81V54.19H3.87V11.61ZM58.06,58.06H1.94v-1a1,1,0,0,1,1-1H57.1a1,1,0,0,1,1,1Z"/><path d="M44.52,11.61H38.71v5.81h5.81Zm-1.94,3.87H40.65V13.55h1.93Z"/><path d="M52.26,11.61H46.45v5.81h5.81Zm-1.94,3.87H48.39V13.55h1.93Z"/><path d="M46.45,43.55h5.81V37.74H46.45Zm1.94-3.87h1.93v1.93H48.39Z"/><path d="M46.45,52.26h5.81V46.45H46.45Zm1.94-3.87h1.93v1.93H48.39Z"/><path d="M40.65,29H19.35v5.81h21.3ZM29,31H31V32.9H29ZM27.1,32.9H25.16V31H27.1ZM32.9,31h1.94V32.9H32.9ZM21.29,31h1.94V32.9H21.29ZM38.71,32.9H36.77V31h1.94Z"/><path d="M40.65,36.77H19.35v5.81h21.3ZM29,38.71H31v1.94H29ZM27.1,40.65H25.16V38.71H27.1Zm5.8-1.94h1.94v1.94H32.9Zm-11.61,0h1.94v1.94H21.29Zm17.42,1.94H36.77V38.71h1.94Z"/></g></g></svg>