<svg xmlns="http://www.w3.org/2000/svg" viewBox="0 0 70.07 70.07"><defs><style>.cls-1{fill:#f80;}.cls-2{fill:#02998a;}.cls-3{fill:#fdb62f;}</style></defs><title>discount</title><g id="Layer_2" data-name="Layer 2"><g id="desktop"><path d="M38.46,15.55a3.45,3.45,0,0,0,2.48-1h0a3.51,3.51,0,0,0,0-5,3.6,3.6,0,0,0-5,0,3.5,3.5,0,0,0,2.48,6Zm-.82-4.33a1.18,1.18,0,0,1,1.65,0,1.19,1.19,0,0,1,0,1.63h0a1.2,1.2,0,0,1-1.65,0A1.17,1.17,0,0,1,37.64,11.22Z"/><path d="M19.85.9a3.5,3.5,0,1,0,3.51,3.5A3.5,3.5,0,0,0,19.85.9Zm0,4.67A1.17,1.17,0,1,1,21,4.4,1.17,1.17,0,0,1,19.85,5.57Z"/><path class="cls-1" d="M43.16,10.63a7.19,7.19,0,0,0-9.84.43l-1.47,1.46h0l-2.74,2.74L26.9,17.47,10.18,34.2a4.52,4.52,0,0,0,.21,6.4L30.2,20.78l0,0a2.32,2.32,0,0,1,3.29.06h0a7.22,7.22,0,0,0,1.05.85,7,7,0,0,0,8.57-11Zm-3,6.85a2.33,2.33,0,1,1,0-3.3h0a2.33,2.33,0,0,1,0,3.29Z"/><path class="cls-2" d="M1.17,36.2v9.34h0a7,7,0,0,1,7,7h0a7,7,0,0,1-7,7h0V68.9H68.9V59.56h0a7,7,0,0,1-7-7h0a7,7,0,0,1,7-7h0V36.2Z"/><path class="cls-3" d="M20.21,1.18A7,7,0,0,0,18.47,15a6.7,6.7,0,0,0,1.34.14,2.32,2.32,0,0,1,2.38,2.27h0V45.54a4.53,4.53,0,0,0,4.67-4.38V8.44A7.18,7.18,0,0,0,20.21,1.18Zm-.36,9.33a2.34,2.34,0,1,1,2.34-2.34A2.33,2.33,0,0,1,19.85,10.51Z"/><path d="M70.07,58.39H68.9a5.84,5.84,0,1,1,0-11.68h1.17V35H28V24.61l3-3a1.16,1.16,0,0,1,1.64.06h0a8.4,8.4,0,0,0,1.23,1,8.18,8.18,0,0,0,10-12.88,8.31,8.31,0,0,0-11.45.48L28,14.7V8.44A8.31,8.31,0,0,0,20.27,0a8.17,8.17,0,0,0-2,16.17,8.38,8.38,0,0,0,1.57.17A1.17,1.17,0,0,1,21,17.47V21.7L9.35,33.37A5.31,5.31,0,0,0,8.24,35H0V46.71H1.17a5.84,5.84,0,0,1,0,11.68H0V70.07H70.07ZM34.14,11.88a6.05,6.05,0,0,1,8.23-.39,5.83,5.83,0,0,1-7.14,9.19,5.34,5.34,0,0,1-.87-.7,3.48,3.48,0,0,0-4.93-.08l-.05.05L28,21.3V18ZM19.82,14a6,6,0,0,1-1.12-.11A5.84,5.84,0,0,1,19.86,2.33h.29a6.05,6.05,0,0,1,5.54,6.1V41.16a3.24,3.24,0,0,1-2.33,3V17.46A3.49,3.49,0,0,0,19.86,14ZM21,35H17.6L21,31.61ZM11,35,21,25v3.3L14.3,35H11ZM67.73,67.73H2.34V60.64a8.17,8.17,0,0,0,0-16.18V37.37H21v9.34h1.17A5.7,5.7,0,0,0,28,41.16V37.37h39.7v7.09a8.17,8.17,0,0,0,0,16.18Z"/><rect x="21.02" y="63.06" width="2.34" height="2.34"/><rect x="21.02" y="58.39" width="2.34" height="2.34"/><rect x="21.02" y="53.72" width="2.34" height="2.34"/><rect x="21.02" y="49.05" width="2.34" height="2.34"/><rect x="30" y="51.38" width="26.42" height="2.34" transform="translate(-24.5 45.94) rotate(-45)"/><path d="M37.37,51.38a4.67,4.67,0,1,0-4.67-4.67A4.67,4.67,0,0,0,37.37,51.38Zm0-7A2.34,2.34,0,1,1,35,46.71,2.33,2.33,0,0,1,37.37,44.38Z"/><path d="M49.05,53.72a4.67,4.67,0,1,0,4.67,4.67A4.67,4.67,0,0,0,49.05,53.72Zm0,7a2.34,2.34,0,1,1,2.33-2.33A2.33,2.33,0,0,1,49.05,60.72Z"/><path d="M25.35,22.53a1.21,1.21,0,0,0-1.66,0,1.17,1.17,0,0,0-.24.38,1.12,1.12,0,0,0-.09.44,1.17,1.17,0,1,0,2.33,0,1.12,1.12,0,0,0-.09-.44A1.19,1.19,0,0,0,25.35,22.53Z"/></g></g></svg>