<svg xmlns="http://www.w3.org/2000/svg" viewBox="0 0 57.06 57.98"><defs><style>.cls-1{fill:#5b5d6d;}.cls-2{fill:#d8deec;}.cls-3{fill:#288fc9;}.cls-4{fill:#fff;}.cls-5{fill:#cbe580;}.cls-6{fill:#af7979;}.cls-7{fill:#ffd2bb;}.cls-8{fill:#f7b36f;}.cls-9{fill:#ed6d66;}.cls-10{fill:#f9d889;}.cls-11{fill:#333;}</style></defs><title>faq</title><g id="Layer_2" data-name="Layer 2"><g id="desktop"><g id="surface1"><path class="cls-1" d="M21.21,8.23a3.36,3.36,0,0,1-.64-.93,3.35,3.35,0,0,1-.18-1.08c0-.13,0-.25,0-.37a5.9,5.9,0,0,0-3.62-4.62,9.61,9.61,0,0,0-4-.77A17.16,17.16,0,0,0,10.67.6,11.27,11.27,0,0,0,6.76,1.7,6.07,6.07,0,0,0,4,4.51c-.11.24-.19.48-.28.73l0,0a6.59,6.59,0,0,1-.49,1.17,6.61,6.61,0,0,1-1,1.15,8.87,8.87,0,0,0-.61.68,5.15,5.15,0,0,0,.52,7l0,0,.11.2.23,0a4.28,4.28,0,0,1,.52,0,2.73,2.73,0,0,0,1.25-.26A3.43,3.43,0,0,0,5.87,12.6a9.47,9.47,0,0,0-.76-4.06.07.07,0,0,1,0-.07H5.2a10.47,10.47,0,0,0,6.4,2.23h.22a10.28,10.28,0,0,0,3.4-.67A8.91,8.91,0,0,0,17,9a12,12,0,0,1,1.26-.76h0l.06,0c.15.27,0,.58-.29.93a1.05,1.05,0,0,0-.14.2A9.27,9.27,0,0,0,17.19,11,4.43,4.43,0,0,0,17,13.74a2.61,2.61,0,0,0,1.17,1.53.94.94,0,0,0,.82,0,4.52,4.52,0,0,1,1.65-.39,1.7,1.7,0,0,1,.4,0l.2,0,.13-.16a5.09,5.09,0,0,0,0-6.33Z"/><path class="cls-2" d="M12,28.86l.27.16q.47,1.14,1,2.37l.44,1,.74-3.85L13.09,27.2Z"/><path class="cls-2" d="M10.6,27.57l-.2-.47L9,28.51l.62,3.6,1.62-3.36-.1-.16A6.69,6.69,0,0,1,10.6,27.57Z"/><path class="cls-3" d="M15.92,24.08l-.42-.25L14,31.56l-.13.45,8.66,0-.2-.47A16.37,16.37,0,0,0,15.92,24.08Z"/><path class="cls-3" d="M7.64,24a15.62,15.62,0,0,0-6.48,7.66L1,32.08l8.52,0L8.07,23.71Z"/><path class="cls-4" d="M12.08,25.76l-.38,0-.39-.06A3.76,3.76,0,0,1,9,24.34l-.61.27.72,4.16,2.6-2.62,2.77,2.62,1-5.2-.83.93A3.83,3.83,0,0,1,12.08,25.76Z"/><path class="cls-5" d="M27.56,47a6.71,6.71,0,0,0,1.14-7.1c-.44-1-2.35-4.19-8.57-4.62-.27,0-.54,0-.81,0a12.67,12.67,0,0,0-11,6.4,8,8,0,0,0-1.15,4.75,7,7,0,0,0,4,5.28,9.9,9.9,0,0,0,4.42,1,13.25,13.25,0,0,0,2.32-.21,15.56,15.56,0,0,0,8-4.06l.05,0h0l3,1.37L27.55,47A.06.06,0,0,1,27.56,47Z"/><path class="cls-6" d="M54,33.16c-.11-.21-.25-.48-.37-.74s-.18-.46-.26-.67v0a5.57,5.57,0,0,0-.49-1.11,7.07,7.07,0,0,0-2.33-2.13A8.2,8.2,0,0,0,47.3,27a4.31,4.31,0,0,0-.64,0,10.34,10.34,0,0,0-1.88.22,11.29,11.29,0,0,1-1.92.22h-.27a7.89,7.89,0,0,1-.85-.09h0a6.93,6.93,0,0,0-.89-.1h-.17a2.19,2.19,0,0,0-1.47.45,3.12,3.12,0,0,0-.8,1.77,6.67,6.67,0,0,1-.31,1.08A5.67,5.67,0,0,1,37,32v0a8.29,8.29,0,0,0-.71.88,4.92,4.92,0,0,0,.21,5.63h0l.11.15H37a1.87,1.87,0,0,0,.5,0l.13,0,.07-.12a2.87,2.87,0,0,0,.11-1.25,4.26,4.26,0,0,1,0-.65,7.39,7.39,0,0,1,.69-2.18,7.48,7.48,0,0,1,3.1-3.31,7.37,7.37,0,0,1,3.53-.89A7.52,7.52,0,0,1,50.06,32a6.7,6.7,0,0,1,2.25,6.29l-.08.37.38,0a2.41,2.41,0,0,1,.59.14l.27.09.14-.25h0a4.56,4.56,0,0,0,.85-4.47A9.27,9.27,0,0,0,54,33.16Z"/><path class="cls-7" d="M52.3,38.78h-.17l-.05,0a.13.13,0,0,1,0-.06A6.49,6.49,0,0,0,50,32.07a7.54,7.54,0,0,0-4.84-1.72,7.23,7.23,0,0,0-3.46.85,7.42,7.42,0,0,0-3,3.26A7.56,7.56,0,0,0,38,36.61a3.6,3.6,0,0,0,0,.63c0,.57,0,1.22-.23,1.44a1.19,1.19,0,0,1-.7.13h-.2a1.39,1.39,0,0,0-.34,0,2.69,2.69,0,0,0-1.21.62,2.31,2.31,0,0,0-.55,2.66,1.87,1.87,0,0,0,1.17.91,1.68,1.68,0,0,0,.5.07,1.46,1.46,0,0,0,.8-.22h.07a.09.09,0,0,1,0,.06,5.22,5.22,0,0,0,1.37,4.29,8.57,8.57,0,0,0,4,2.39,10.15,10.15,0,0,0,3,.48,7,7,0,0,0,3.28-.75A5,5,0,0,0,51.63,44a.06.06,0,0,1,0-.06l0,0h0a2.32,2.32,0,0,0,.59.07,2.75,2.75,0,0,0,2.11-1,2.64,2.64,0,0,0-2.1-4.24Z"/><path class="cls-7" d="M49,49.45a7.27,7.27,0,0,1-3.34.76,10.11,10.11,0,0,1-3-.49A11,11,0,0,1,40.79,49l-.95-.49.49.94a5.56,5.56,0,0,0,4.84,3h.1a5.57,5.57,0,0,0,4.65-2.81l-.48-.45Z"/><path class="cls-7" d="M20.66,15a4.39,4.39,0,0,0-1.59.39,1.11,1.11,0,0,1-.43.09,1.07,1.07,0,0,1-.49-.12,2.69,2.69,0,0,1-1.24-1.61,4.58,4.58,0,0,1,.17-2.86,9.06,9.06,0,0,1,.7-1.47L17.3,9l-.2.13a9.38,9.38,0,0,1-1.84,1,10.46,10.46,0,0,1-3.44.67h-.21a10.66,10.66,0,0,1-5.5-1.57l-.77-.47.26.86a7.43,7.43,0,0,1,.4,3,3.56,3.56,0,0,1-1.69,2.72A2.88,2.88,0,0,1,3,15.6a1.81,1.81,0,0,0-1.63.65,1.79,1.79,0,0,0,0,2.14A1.8,1.8,0,0,0,2.8,19a1.66,1.66,0,0,0,.7-.15h0s0,0,0,0a9.11,9.11,0,0,0,8.3,5.31A8.42,8.42,0,0,0,13,24.14a7.09,7.09,0,0,0,4.16-1.92A4.86,4.86,0,0,0,18.6,18a.14.14,0,0,1,0-.06l.05,0h0a7.89,7.89,0,0,0,1,.08,2.94,2.94,0,0,0,1.36-.28,1.85,1.85,0,0,0,.89-1,1.21,1.21,0,0,0-.06-.94A1.31,1.31,0,0,0,20.66,15Z"/><path class="cls-7" d="M13,24.26a8.68,8.68,0,0,1-1.13.07,9.3,9.3,0,0,1-2.77-.42l-1-.32.65.85a4,4,0,0,0,3,1.56h.05a4,4,0,0,0,3.11-1.56l.66-.87-1,.35A8.53,8.53,0,0,1,13,24.26Z"/><path class="cls-8" d="M52,49.8l-.34-.24-.17.38a6.82,6.82,0,0,1-6.06,4h-.07a6.86,6.86,0,0,1-6.09-4.24l-.13-.34-.33.15a9.8,9.8,0,0,0-5.67,7.41l-.07.39h.39c5.18.16,10.45.24,15.67.24,2.36,0,4.74,0,7.08-.05h.39l-.06-.39A11.31,11.31,0,0,0,52,49.8Z"/><path class="cls-9" d="M46.41,2.22a23.63,23.63,0,0,0-6.89-1,20.16,20.16,0,0,0-6,.86,14.85,14.85,0,0,0-5.8,3.28,10.87,10.87,0,0,0-1.09,1.17,8.74,8.74,0,0,0-1.81,7.76,6.43,6.43,0,0,0,5.85,4.65H31l.05,0a.06.06,0,0,1,0,0,12.86,12.86,0,0,1-.87,4.46l-.33.87.81-.44a9.17,9.17,0,0,0,3.89-4.12.07.07,0,0,1,.05,0h0a33.23,33.23,0,0,0,7.49.86c1,0,2.06-.05,3.08-.15,3.27-.3,5.56-1.1,7.21-2.52a7.78,7.78,0,0,0,2.69-6C54.94,6.7,50.52,3.5,46.41,2.22Z"/><path class="cls-9" d="M12.53,29l-.14-.35.87-1.32-1.61-1.52-1.41,1.42.08.21a7.32,7.32,0,0,0,.68,1.3L9.42,32l4.41,0-.22-.48C13.23,30.7,12.86,29.85,12.53,29Z"/><path class="cls-10" d="M50.42,48.86l-.32-.15L50,49a5.37,5.37,0,0,1-4.69,3.18h-.09a5.39,5.39,0,0,1-4.74-3l-.12-.27L40,49c-.27.08-.53.17-.79.27l-.31.13.12.31a7.06,7.06,0,0,0,6.3,4.4h.07A7,7,0,0,0,51.73,50l.11-.26-.24-.16A9.72,9.72,0,0,0,50.42,48.86Z"/><path class="cls-11" d="M23,32.24a.37.37,0,0,0,0-.37,16.72,16.72,0,0,0-6.94-8.24,6.47,6.47,0,0,0,1.43-1.08,5.48,5.48,0,0,0,1.63-4.12,3.87,3.87,0,0,0,2.17-.3,2.28,2.28,0,0,0,1.12-1.32A1.71,1.71,0,0,0,21.88,15a5.64,5.64,0,0,0-.08-6.76l-.24-.29A2.92,2.92,0,0,1,21,7.13a3,3,0,0,1-.14-.93c0-.13,0-.26,0-.39a6.34,6.34,0,0,0-3.9-5A11.66,11.66,0,0,0,10.61.14,11.85,11.85,0,0,0,6.55,1.29a6.55,6.55,0,0,0-3,3c-.11.26-.21.54-.3.8a6.38,6.38,0,0,1-.46,1.09,6.25,6.25,0,0,1-.88,1.07c-.22.23-.44.46-.64.71a5.64,5.64,0,0,0,.35,7.44A1.85,1.85,0,0,0,1,16a2.27,2.27,0,0,0,.06,2.7,2.3,2.3,0,0,0,2.26.74,9.65,9.65,0,0,0,3.89,4l.19.11A16.13,16.13,0,0,0,.52,32a.38.38,0,0,0,0,.37.41.41,0,0,0,.33.16h0l21.73-.12A.39.39,0,0,0,23,32.24ZM12.58,28.85a.24.24,0,0,0-.09-.11l.66-1,1,.9-.5,2.61C13.25,30.45,12.9,29.65,12.58,28.85Zm-.77.1a.73.73,0,0,1-.12.14s0,0-.15-.14a6.86,6.86,0,0,1-.9-1.61l1-1,1.16,1.1ZM10.29,27.7a7.42,7.42,0,0,0,.57,1.08L9.78,31l-.4-2.39Zm1.49-2A3.66,3.66,0,0,1,9,24.23a9.66,9.66,0,0,0,2.87.44,9.18,9.18,0,0,0,1.17-.07,8.48,8.48,0,0,0,1.62-.36,3.68,3.68,0,0,1-2.84,1.42Zm-.52.41-2,2-.6-3.52A4.18,4.18,0,0,0,11.26,26.07Zm-.1,3.14,0,0a.68.68,0,0,0,.51.31h0a.69.69,0,0,0,.46-.34l0,0c.35.84.71,1.69,1.09,2.51l-3.34,0Zm3.05-1.11-2.11-2a4.15,4.15,0,0,0,2.76-1.37Zm-11.86-13A4.83,4.83,0,0,1,1.86,8.5c.18-.22.38-.43.59-.65a6.64,6.64,0,0,0,1-1.22A6.86,6.86,0,0,0,4,5.4c.09-.26.18-.51.29-.75A5.69,5.69,0,0,1,6.92,2,11.09,11.09,0,0,1,10.71.94a10.93,10.93,0,0,1,5.9.6A5.55,5.55,0,0,1,20,5.88c0,.12,0,.24,0,.36a3.48,3.48,0,0,0,.2,1.18,3.6,3.6,0,0,0,.7,1l.23.27a4.76,4.76,0,0,1-.05,5.89,4,4,0,0,0-2.24.38.7.7,0,0,1-.55,0,2.34,2.34,0,0,1-1-1.33,4,4,0,0,1,.16-2.57,9.41,9.41,0,0,1,.72-1.49l.13-.18c.23-.32.57-.8.3-1.28A.39.39,0,0,0,18.13,8a12.61,12.61,0,0,0-1.29.78,8.29,8.29,0,0,1-1.74,1,9.87,9.87,0,0,1-3.29.65,10.15,10.15,0,0,1-6.4-2.15.39.39,0,0,0-.62.44,9.18,9.18,0,0,1,.75,3.91,3.12,3.12,0,0,1-1.45,2.36A2.53,2.53,0,0,1,3,15.14a3.35,3.35,0,0,0-.54,0A.31.31,0,0,0,2.35,15.07Zm1.54,3.69a.39.39,0,0,0-.23-.21.31.31,0,0,0-.13,0,.47.47,0,0,0-.17,0,1.46,1.46,0,0,1-1.68-.39,1.47,1.47,0,0,1,0-1.72C2,16,2.36,16,3,15.94a3.2,3.2,0,0,0,1.46-.32,3.86,3.86,0,0,0,1.85-3,7.74,7.74,0,0,0-.4-3.11,11,11,0,0,0,5.9,1.62,10.62,10.62,0,0,0,3.55-.7,10,10,0,0,0,1.91-1.05l.2-.14a9.77,9.77,0,0,0-.73,1.52,4.85,4.85,0,0,0-.17,3.09A3,3,0,0,0,18,15.69a1.45,1.45,0,0,0,1.19,0c1.72-.7,2.2-.25,2.42.16a.91.91,0,0,1,0,.68,1.49,1.49,0,0,1-.72.84,3.74,3.74,0,0,1-2.21.17.37.37,0,0,0-.34.12.41.41,0,0,0-.11.35A4.55,4.55,0,0,1,16.92,22a6.74,6.74,0,0,1-4,1.82,8.77,8.77,0,0,1-9.06-5Zm3.93,5.49L9.09,31.7l-7.62,0A15.45,15.45,0,0,1,7.82,24.25Zm6.52,7.42s0,0,0,0l1.39-7.26A16,16,0,0,1,22,31.62Z"/><path d="M3,16.65a.91.91,0,0,0-1,.09.24.24,0,0,0,0,.33.23.23,0,0,0,.32,0A.5.5,0,0,1,2.74,17a.53.53,0,0,1,.19.25.86.86,0,0,0-.59.25.22.22,0,0,0,0,.32.22.22,0,0,0,.32,0,.43.43,0,0,1,.43-.09.25.25,0,0,0,.19,0,.21.21,0,0,0,.11-.15A.9.9,0,0,0,3,16.65Z"/><path d="M19.34,17.1h.06l1.15-.27a.24.24,0,0,0,.17-.28.24.24,0,0,0-.28-.17l-.58.14a1.85,1.85,0,0,1,.65-.45.22.22,0,0,0,.13-.29.23.23,0,0,0-.3-.13,2.21,2.21,0,0,0-1.2,1.13.21.21,0,0,0,0,.24A.23.23,0,0,0,19.34,17.1Z"/><path d="M37.16,40.47a1.29,1.29,0,0,0-1-.18.22.22,0,0,0-.16.28.23.23,0,0,0,.28.16.88.88,0,0,1,.68.12,1.2,1.2,0,0,1,.26.24h0a1.4,1.4,0,0,0-1.1.54.22.22,0,0,0,0,.32.24.24,0,0,0,.13,0,.26.26,0,0,0,.19-.1.92.92,0,0,1,1-.3.24.24,0,0,0,.23,0,.24.24,0,0,0,.08-.21A1.39,1.39,0,0,0,37.16,40.47Z"/><path d="M51.83,42.39a.18.18,0,0,0,.1,0,.23.23,0,0,0,.14,0,1.6,1.6,0,0,1,1.25-.3.23.23,0,0,0,.27-.18.24.24,0,0,0-.19-.27,2.09,2.09,0,0,0-1.16.13,2.31,2.31,0,0,1,.57-1,.54.54,0,0,1,.22-.15.1.1,0,0,1,.08,0,.23.23,0,0,0,.3.12.24.24,0,0,0,.12-.3.52.52,0,0,0-.61-.28,1.08,1.08,0,0,0-.44.28,2.81,2.81,0,0,0-.77,1.75A.23.23,0,0,0,51.83,42.39Z"/><path class="cls-11" d="M57.06,57.47a11.78,11.78,0,0,0-6.33-9,5.27,5.27,0,0,0,1.44-4A3.08,3.08,0,0,0,55,40a3.08,3.08,0,0,0-1-1.09A5,5,0,0,0,54.9,34,10.51,10.51,0,0,0,54.41,33a7.77,7.77,0,0,1-.35-.71c-.09-.21-.17-.42-.26-.65a7.54,7.54,0,0,0-.53-1.21,7.54,7.54,0,0,0-2.48-2.27,8.57,8.57,0,0,0-3.42-1.6,8.5,8.5,0,0,0-2.67.18,9.46,9.46,0,0,1-2.09.22c-.27,0-.54-.06-.83-.1s-.62-.09-.94-.1a2.76,2.76,0,0,0-2,.55,3.53,3.53,0,0,0-1,2,6.85,6.85,0,0,1-.28,1,5.7,5.7,0,0,1-1,1.41,10,10,0,0,0-.75.94,5.33,5.33,0,0,0,0,5.88,3.08,3.08,0,0,0-1,.59,2.75,2.75,0,0,0-.65,3.21,2.36,2.36,0,0,0,1.46,1.15,2.27,2.27,0,0,0,1,.05,5.85,5.85,0,0,0,1.55,4,7.39,7.39,0,0,0,1.28,1.14,10.32,10.32,0,0,0-7,8.61.39.39,0,0,0,.09.31.41.41,0,0,0,.29.13c5.36.17,10.76.26,16.15.26q3.76,0,7.52-.06a.39.39,0,0,0,.29-.13A.41.41,0,0,0,57.06,57.47ZM40.14,49.33a5.67,5.67,0,0,0,5,3.22h.09a5.69,5.69,0,0,0,5-3.38,9.92,9.92,0,0,1,1.15.64,6.49,6.49,0,0,1-12.05-.21C39.63,49.5,39.88,49.41,40.14,49.33Zm2.33.72a10.82,10.82,0,0,0,3.15.5,7.54,7.54,0,0,0,3.49-.8,4.27,4.27,0,0,0,.51-.3,5.08,5.08,0,0,1-9-.15A11.78,11.78,0,0,0,42.47,50.05Zm-5.91-17a9,9,0,0,1,.69-.86,6,6,0,0,0,1.13-1.63,6.22,6.22,0,0,0,.33-1.15,2.92,2.92,0,0,1,.69-1.58,2,2,0,0,1,1.4-.36c.28,0,.56,0,.86.09a9,9,0,0,0,.91.1,10.11,10.11,0,0,0,2.27-.22,7.43,7.43,0,0,1,2.42-.17,7.93,7.93,0,0,1,3.09,1.46,6.85,6.85,0,0,1,2.23,2,6.64,6.64,0,0,1,.47,1.08c.09.22.17.46.27.69s.25.51.37.76a7.2,7.2,0,0,1,.46,1,4.2,4.2,0,0,1-.79,4.13l0,.06a3.71,3.71,0,0,0-.66-.15,7,7,0,0,0-2.37-6.61,7.94,7.94,0,0,0-8.82-.93,8.07,8.07,0,0,0-4,5.74,5.08,5.08,0,0,0,0,.71,3.26,3.26,0,0,1-.07,1.07,2.43,2.43,0,0,1-.49,0h-.14v0A4.58,4.58,0,0,1,36.56,33.09ZM38.9,47a5,5,0,0,1-1.29-4,.39.39,0,0,0-.17-.4.44.44,0,0,0-.22-.07.37.37,0,0,0-.21.06,1.32,1.32,0,0,1-1,.12A1.56,1.56,0,0,1,35,42a2,2,0,0,1,.48-2.25,2.39,2.39,0,0,1,1-.54h.38a1.55,1.55,0,0,0,1-.21c.4-.32.38-1,.36-1.71a4.66,4.66,0,0,1,0-.56,7.26,7.26,0,0,1,.65-2.06,7,7,0,0,1,2.91-3.11,7.23,7.23,0,0,1,7.91.83,6.14,6.14,0,0,1,2,6.28.41.41,0,0,0,.06.37.44.44,0,0,0,.35.15,2.29,2.29,0,1,1-.38,4.5.41.41,0,0,0-.38.11.37.37,0,0,0-.1.37A4.64,4.64,0,0,1,48.75,49a8,8,0,0,1-6,.24A8.31,8.31,0,0,1,38.9,47Zm-5.43,9.94A9.53,9.53,0,0,1,39,49.78a7.19,7.19,0,0,0,6.41,4.46h.07a7.19,7.19,0,0,0,6.37-4.16,11,11,0,0,1,4.4,7.05C48.66,57.23,41,57.17,33.47,56.94Z"/><path class="cls-11" d="M34.78,20.21a33.71,33.71,0,0,0,10.41.65c3.37-.31,5.74-1.14,7.47-2.63a8.28,8.28,0,0,0,2.85-6.38c-.11-5.41-4.7-8.74-9-10.06A22.71,22.71,0,0,0,33.42,1.6a15.33,15.33,0,0,0-6,3.38A11.79,11.79,0,0,0,26.31,6.2a9.22,9.22,0,0,0-1.89,8.18,6.85,6.85,0,0,0,6.12,5,12.45,12.45,0,0,1-1.23,4.82.38.38,0,0,0,.06.44.39.39,0,0,0,.3.13.32.32,0,0,0,.14,0A9.61,9.61,0,0,0,34.78,20.21Zm-4.32,3.33A13.09,13.09,0,0,0,31.35,19a.38.38,0,0,0-.12-.29.39.39,0,0,0-.28-.12h0a6.06,6.06,0,0,1-5.75-4.4A8.46,8.46,0,0,1,26.93,6.7,12.46,12.46,0,0,1,28,5.57a14.5,14.5,0,0,1,5.67-3.2,21.84,21.84,0,0,1,12.65.18c4,1.24,8.3,4.34,8.4,9.32a7.52,7.52,0,0,1-2.57,5.76c-1.6,1.37-3.83,2.14-7,2.44a33.21,33.21,0,0,1-10.47-.71.4.4,0,0,0-.45.22A8.9,8.9,0,0,1,30.46,23.54Z"/><path class="cls-11" d="M29.12,39.67c-1.84-4.09-7.32-4.78-9-4.89a12.92,12.92,0,0,0-5.87,1A13.15,13.15,0,0,0,8,41.39a8.44,8.44,0,0,0-1.21,5A7.42,7.42,0,0,0,11,52.06a10.46,10.46,0,0,0,4.62,1,13.09,13.09,0,0,0,2.4-.22,16,16,0,0,0,8-4L29,50.19a.4.4,0,0,0,.51-.56l-1.39-2.57A7.23,7.23,0,0,0,29.12,39.67Zm-1.81,7.06a.39.39,0,0,0-.06.46l1,1.78L26.12,48a.4.4,0,0,0-.44.07,15.27,15.27,0,0,1-7.82,4,10.76,10.76,0,0,1-6.54-.73,6.63,6.63,0,0,1-3.77-5,7.69,7.69,0,0,1,1.12-4.54,12.25,12.25,0,0,1,5.93-5.27,12.05,12.05,0,0,1,5.51-.94c6,.41,7.86,3.49,8.28,4.42A6.37,6.37,0,0,1,27.31,46.73Z"/><path d="M42.9,14.92a3.43,3.43,0,0,0,.33-.33,6.23,6.23,0,0,0,1-6.63,6.62,6.62,0,0,0-3.43-3.19,4.85,4.85,0,0,0-3-.26c-2.1.57-3.44,2.67-3.93,3.54a6,6,0,0,0-.25,5.58,5.57,5.57,0,0,0,3.18,2.67,6,6,0,0,0,1.87.3,6.39,6.39,0,0,0,3.59-1.11l.59.69a.44.44,0,0,0,.34.16.43.43,0,0,0,.3-.11.44.44,0,0,0,0-.63ZM37,15.44a4.61,4.61,0,0,1-2.66-2.22,5.11,5.11,0,0,1,.24-4.73A6.14,6.14,0,0,1,38,5.39a3.15,3.15,0,0,1,.87-.11,4.21,4.21,0,0,1,1.6.33,5.67,5.67,0,0,1,3,2.73A5.31,5.31,0,0,1,42.56,14l-.25.25-.79-.93a.45.45,0,1,0-.69.59l.78.91A5.35,5.35,0,0,1,37,15.44Z"/><path d="M18.86,38.73c-.41-1-1-1-1.28-1-.64.11-.84.81-.91,1l-2.9,10a.45.45,0,0,0,.31.56.25.25,0,0,0,.12,0,.46.46,0,0,0,.44-.33l1.3-4.49,4.21-.4L21.79,48a.45.45,0,0,0,.59.25.47.47,0,0,0,.25-.6ZM16.22,43.6,17.54,39c.11-.35.19-.4.19-.4s.16.11.3.44l1.75,4.17Z"/></g></g></g></svg>