<svg xmlns="http://www.w3.org/2000/svg" viewBox="0 0 82.39 62.54"><defs><style>.cls-1{fill:#e9e9ea;}.cls-2{fill:#6d6c6b;}.cls-3{fill:#898989;}.cls-4{fill:#ea4647;}.cls-5{fill:#55acd5;}.cls-6{fill:#ffcd29;}.cls-7{fill:#231f20;}</style></defs><title>gas</title><g id="Layer_2" data-name="Layer 2"><g id="desktop"><g id="Layer_46" data-name="Layer 46"><path class="cls-1" d="M56.57,37.24l-8.08,3.33A2.45,2.45,0,0,0,47,42.39a5.92,5.92,0,1,1-4.59-7,5.52,5.52,0,0,1,2.11.88,2.42,2.42,0,0,0,2.3.19l8.07-3.33a15.9,15.9,0,1,0,1.67,4.11Z"/><path class="cls-2" d="M65.68,31.13a2.22,2.22,0,0,0-2.86-1.3s0,0-.07,0l-16,6.59a2.41,2.41,0,0,1-2.3-.19,5.93,5.93,0,1,0,1.63,8.23A5.35,5.35,0,0,0,47,42.39a2.48,2.48,0,0,1,1.48-1.82L64.34,34A2.32,2.32,0,0,0,65.68,31.13Z"/><circle class="cls-3" cx="41.2" cy="41.2" r="2.22"/><path class="cls-4" d="M5.38,41.2A35.69,35.69,0,0,1,15.9,15.87l-3.15-3.15A40.2,40.2,0,0,0,5.83,60.46a2.21,2.21,0,1,0,3.89-2.11h0A36,36,0,0,1,5.38,41.2Z"/><path class="cls-5" d="M41.2.94A40.29,40.29,0,0,0,12.72,12.76l3.15,3.15a35.78,35.78,0,0,1,50.58-.08l.08.08,3.15-3.15A40.07,40.07,0,0,0,41.2.94Z"/><path class="cls-6" d="M69.68,12.72l-3.15,3.15a35.82,35.82,0,0,1,6.15,42.44,2.23,2.23,0,1,0,3.88,2.18s0,0,0,0A40.32,40.32,0,0,0,69.68,12.72Z"/><path class="cls-7" d="M41.2,4.46a.92.92,0,0,0-.93.93V7.65a.93.93,0,0,0,1.85,0V5.39A.91.91,0,0,0,41.2,4.46Z"/><path class="cls-7" d="M77,40.27H74.75a.93.93,0,1,0,0,1.86H77a.91.91,0,0,0,.92-.93A.94.94,0,0,0,77,40.27Z"/><path class="cls-7" d="M7.68,40.27H5.42a.93.93,0,0,0,0,1.86H7.68a.93.93,0,0,0,0-1.86Z"/><path class="cls-7" d="M16.53,15.24l-3.15-3.15a.89.89,0,0,0-1.29,0A41.14,41.14,0,0,0,5,60.9a3.14,3.14,0,1,0,5.52-3h0a34.86,34.86,0,0,1,6-41.36A.9.9,0,0,0,16.53,15.24ZM4.46,41.2A36.57,36.57,0,0,0,8.94,58.79,1.28,1.28,0,1,1,6.68,60h0a39.25,39.25,0,0,1,6.07-46l1.82,1.82A36.41,36.41,0,0,0,4.46,41.2Z"/><path class="cls-7" d="M70.31,12.09A41.12,41.12,0,0,0,12.13,12l-.08.07a.9.9,0,0,0,0,1.3l3.15,3.15a.9.9,0,0,0,1.3,0,34.86,34.86,0,0,1,49.29-.08l.07.08a.9.9,0,0,0,1.3,0l3.15-3.15A.9.9,0,0,0,70.31,12.09Zm-3.78,2.48a36.69,36.69,0,0,0-50.63,0l-1.81-1.81a39.28,39.28,0,0,1,54.29,0Z"/><path class="cls-7" d="M70.31,12.09a1,1,0,0,0-1.3,0l-3.15,3.15a.9.9,0,0,0,0,1.3,34.9,34.9,0,0,1,6,41.36,3.14,3.14,0,0,0,5.52,3A41.15,41.15,0,0,0,70.31,12.09ZM75.75,60a1.3,1.3,0,0,1-2.44-.63,1.24,1.24,0,0,1,.14-.63,36.71,36.71,0,0,0-5.66-42.88l1.81-1.82a39.26,39.26,0,0,1,6.15,46Z"/><path class="cls-7" d="M57.45,37a.93.93,0,0,0-1.11-.67s-.07,0-.11,0l-8.07,3.33a3.44,3.44,0,0,0-2,2.48,5,5,0,1,1-3.89-5.93A5.16,5.16,0,0,1,44,37a3.38,3.38,0,0,0,3.19.29L55.27,34a1,1,0,0,0,.52-1.22s0-.08-.08-.11A17,17,0,1,0,57.45,37ZM41.2,56.12a14.92,14.92,0,1,1,12.29-23.4l-7,2.93A1.56,1.56,0,0,1,45,35.53a6.86,6.86,0,1,0,1.89,9.52,7.26,7.26,0,0,0,1-2.44,1.5,1.5,0,0,1,1-1.15l7-2.93a15,15,0,0,1-12,17.37A16.75,16.75,0,0,1,41.2,56.12Z"/><path class="cls-7" d="M66.53,30.79A3.15,3.15,0,0,0,62.45,29s-.07,0-.07,0l-16,6.59A1.56,1.56,0,0,1,45,35.5,6.86,6.86,0,1,0,46.86,45a7.26,7.26,0,0,0,1-2.44,1.52,1.52,0,0,1,1-1.15l15.85-6.55A3.23,3.23,0,0,0,66.53,30.79ZM64,33.16,48.16,39.72a3.44,3.44,0,0,0-2,2.48,5,5,0,1,1-3.89-5.93A4.93,4.93,0,0,1,44,37a3.38,3.38,0,0,0,3.19.29l16-6.59a1.32,1.32,0,0,1,1.7.7v0a1.44,1.44,0,0,1-.85,1.7Z"/><path class="cls-7" d="M44.09,40a3.15,3.15,0,1,0-1.71,4.11,3.23,3.23,0,0,0,1.71-1.7A3.06,3.06,0,0,0,44.09,40Zm-2.41,2.41A1.34,1.34,0,0,1,40,41.68a1.3,1.3,0,0,1,2.41-1h0a1.29,1.29,0,0,1-.7,1.71Z"/></g></g></g></svg>