<svg xmlns="http://www.w3.org/2000/svg" xmlns:xlink="http://www.w3.org/1999/xlink" viewBox="0 0 43.89 60"><defs><style>.cls-1{fill:url(#New_Gradient_Swatch_2);}.cls-2{fill:url(#New_Gradient_Swatch_2-2);}.cls-3{fill:url(#New_Gradient_Swatch_2-3);}</style><linearGradient id="New_Gradient_Swatch_2" x1="9.69" y1="35.72" x2="33.95" y2="8.15" gradientUnits="userSpaceOnUse"><stop offset="0" stop-color="#ff5f6d"/><stop offset="1" stop-color="#ffc371"/></linearGradient><linearGradient id="New_Gradient_Swatch_2-2" x1="20.24" y1="45" x2="44.5" y2="17.43" xlink:href="#New_Gradient_Swatch_2"/><linearGradient id="New_Gradient_Swatch_2-3" x1="0" y1="30" x2="43.89" y2="30" xlink:href="#New_Gradient_Swatch_2"/></defs><title>gradient_logo_with_border</title><g id="Layer_2" data-name="Layer 2"><g id="desktop"><path class="cls-1" d="M33.45,6.72c5.47,2.7,6.23,6.76,6.23,10.14-.24,5.91-3.82,15.41-4.56,16.2h-27c-.14,0-5.22-9.63-3.51-16.2C5.13,14.65,8.15,10,13,7.93a26.71,26.71,0,0,1,8.76-2.45c1-.11,8.6-.56,11.71,1.24"/><path class="cls-2" d="M30.52,42.27l-8.45,12L13,41.91c0-.15,2.6-3.1,9.09-3.29a11.29,11.29,0,0,1,8.45,3.65"/><path class="cls-3" d="M22.11,60c-.36,0-1.45,0-4.22-3C11.31,49.82-1,29.4.06,17.56,1.3,3.1,19,0,23.53,0h.08c.28,0,.63,0,1,0,3.43-.09,10.57-.25,15.17,4.39,2.89,2.92,4.25,7.27,4,12.91-.23,6.43-3.7,16.44-9.3,26.77C31.37,50,25.15,60,22.11,60ZM23.55,1.42a32,32,0,0,0-12.06,3c-6.18,3-9.57,7.43-10.06,13.22C1,22.58,3.09,29.91,7.29,38.3c3.41,6.82,8,13.79,11.62,17.76,2.28,2.49,3.12,2.57,3.2,2.57s1.25-.12,4.38-4.25a87.89,87.89,0,0,0,6.87-10.93c5.5-10.16,8.92-19.94,9.14-26.17.18-5.25-1-9.25-3.66-11.89-4.18-4.23-10.92-4.07-14.16-4l-1.08,0Z"/></g></g></svg>