<svg xmlns="http://www.w3.org/2000/svg" viewBox="0 0 791.14 32.87"><defs><style>.cls-1{fill:#333;}</style></defs><title>line</title><g id="Layer_2" data-name="Layer 2"><g id="desktop"><path class="cls-1" d="M0,16.43C0,7.36,7.07,0,15.79,0S31.58,7.36,31.58,16.43,24.51,32.87,15.79,32.87,0,25.51,0,16.43ZM15.79,31.82c8.16,0,14.78-6.89,14.78-15.39S24,1.05,15.79,1.05,1,7.94,1,16.43,7.63,31.82,15.79,31.82Z"/><path class="cls-1" d="M14.76,24c.11-1.32.19-2.82.26-4.49l.23-5.68c.09-2.12.15-3.8.17-5-.45.27-.79.48-1,.64l-.86.59c.07-.8.1-1.49.1-2.08,1.07-.63,1.76-1.06,2.07-1.3h2.22l-.31,5.42-.32,7.52-.05,1.89c0,.48,0,1,0,1.46v1l-1.18,0Z"/><path class="cls-1" d="M379.78,16.43C379.78,7.36,386.85,0,395.57,0s15.79,7.36,15.79,16.43-7.07,16.44-15.79,16.44S379.78,25.51,379.78,16.43Zm15.79,15.39c8.16,0,14.78-6.89,14.78-15.39S403.73,1.05,395.57,1.05s-14.78,6.89-14.78,15.38S387.41,31.82,395.57,31.82Z"/><path class="cls-1" d="M389.47,24c0-.29,0-.87.07-1.75q2.1-2,3.86-3.92t3.21-3.67a18.57,18.57,0,0,0,1.71-2.38,4,4,0,0,0,.42-.93,3.11,3.11,0,0,0,.1-.79,2,2,0,0,0-.52-1.44A3.24,3.24,0,0,0,397,8.3,6.17,6.17,0,0,0,395.05,8a19.82,19.82,0,0,0-4.65.73c.12-.6.22-1.22.31-1.84a26.41,26.41,0,0,1,5-.5,11.32,11.32,0,0,1,2.2.22,5.48,5.48,0,0,1,1.87.75A3.59,3.59,0,0,1,401,8.62a3.16,3.16,0,0,1,.39,1.55,4.85,4.85,0,0,1-.1.95A4.19,4.19,0,0,1,401,12a11.34,11.34,0,0,1-.91,1.62,28.77,28.77,0,0,1-1.83,2.4c-.85,1-1.76,2.07-2.72,3.1s-2.05,2.14-3.26,3.32c.6,0,1.6,0,3,0l2.7,0c1,0,1.9-.06,2.71-.14-.07.74-.11,1.32-.13,1.73-1.51,0-3.31,0-5.42,0h-5.73Z"/><path class="cls-1" d="M759.57,16.43C759.57,7.36,766.63,0,775.35,0s15.79,7.36,15.79,16.43-7.07,16.44-15.79,16.44S759.57,25.51,759.57,16.43Zm15.78,15.39c8.17,0,14.78-6.89,14.78-15.39S783.52,1.05,775.35,1.05s-14.78,6.89-14.78,15.38S767.19,31.82,775.35,31.82Z"/><path class="cls-1" d="M769.26,23.64c0-.73-.1-1.38-.18-2a13.8,13.8,0,0,0,2.56.75,11.69,11.69,0,0,0,2.12.21,6.36,6.36,0,0,0,2.36-.43,4.05,4.05,0,0,0,1.73-1.28,3.14,3.14,0,0,0,.67-2,2.84,2.84,0,0,0-.49-1.65,3.08,3.08,0,0,0-1.49-1.11,7.9,7.9,0,0,0-2.7-.38c-.52,0-1.11,0-1.76.09,0-.72.09-1.3.1-1.75a7.63,7.63,0,0,0,1.19.11,8.57,8.57,0,0,0,2.49-.34,3.18,3.18,0,0,0,1.76-1.19,3.11,3.11,0,0,0,.63-1.86A2.92,2.92,0,0,0,778,9.6a2.36,2.36,0,0,0-.82-.95,3.1,3.1,0,0,0-1.26-.51A8.15,8.15,0,0,0,774.41,8a15.77,15.77,0,0,0-1.86.11,19.79,19.79,0,0,0-2.15.43,16.53,16.53,0,0,0,.32-1.75c1-.14,1.76-.24,2.35-.3s1.14-.08,1.67-.08a12.51,12.51,0,0,1,2.51.24,5.24,5.24,0,0,1,2,.77,3.21,3.21,0,0,1,1.18,1.36,4.24,4.24,0,0,1,.37,1.78,4.78,4.78,0,0,1-.21,1.39,4.68,4.68,0,0,1-.57,1.21,3.85,3.85,0,0,1-.77.83,4.86,4.86,0,0,1-.89.55,13.1,13.1,0,0,1-1.44.5,8.72,8.72,0,0,1,1.52.28,3.59,3.59,0,0,1,1,.51,3.63,3.63,0,0,1,.83.83,3.29,3.29,0,0,1,.52,1.12,4.69,4.69,0,0,1,.17,1.3,4.85,4.85,0,0,1-.54,2.25,4.58,4.58,0,0,1-1.55,1.72,6.68,6.68,0,0,1-2.27,1,12.11,12.11,0,0,1-2.66.29,16.05,16.05,0,0,1-2-.14A24.07,24.07,0,0,1,769.26,23.64Z"/><rect class="cls-1" x="31.58" y="15.43" width="348.21" height="2"/><rect class="cls-1" x="411.36" y="15.43" width="348.21" height="2"/></g></g></svg>