<?xml version="1.0" encoding="utf-8"?>
<!-- Generator: Adobe Illustrator 23.0.6, SVG Export Plug-In . SVG Version: 6.00 Build 0)  -->
<svg version="1.1" id="Layer_1" xmlns="http://www.w3.org/2000/svg" xmlns:xlink="http://www.w3.org/1999/xlink" x="0px" y="0px"
	 viewBox="0 0 31.6 32.9" style="enable-background:new 0 0 31.6 32.9;" xml:space="preserve">
<style type="text/css">
	.st0{fill:#333333;}
	.st1{fill:#FFFFFF;}
</style>
<title>one</title>
<path class="st0" d="M0,16.4C0,7.4,7.1,0,15.8,0s15.8,7.4,15.8,16.4s-7.1,16.4-15.8,16.4S0,25.5,0,16.4z"/>
<path class="st1" d="M15.8,31.8c8.2,0,14.8-6.9,14.8-15.4S24,1,15.8,1S1,7.9,1,16.4S7.6,31.8,15.8,31.8z"/>
<path class="st0" d="M14.8,24c0.1-1.3,0.2-2.8,0.3-4.5l0.2-5.7c0.1-2.1,0.1-3.8,0.2-5c-0.4,0.3-0.8,0.5-1,0.6l-0.9,0.6
	c0.1-0.8,0.1-1.5,0.1-2.1c1.1-0.6,1.8-1.1,2.1-1.3H18l-0.3,5.4l-0.3,7.5l0,1.9c0,0.5,0,1,0,1.5v1h-1.2L14.8,24z"/>
</svg>
