<svg xmlns="http://www.w3.org/2000/svg" viewBox="0 0 100 96.43"><defs><style>.cls-1{fill:#414042;}.cls-2{fill:#82acff;}.cls-3{fill:#fff;}</style></defs><title>Asset 4</title><g id="Layer_2" data-name="Layer 2"><g id="design"><circle class="cls-1" cx="48.32" cy="48.32" r="26.24"/><circle class="cls-2" cx="48.32" cy="48.32" r="23.79"/><path class="cls-1" d="M99.26,69.23,93,66.6a.31.31,0,0,0,0-.1A48.4,48.4,0,0,0,49,0h-.69A48.32,48.32,0,0,0,43.6,96.4a4.36,4.36,0,0,0,.51,0A5.41,5.41,0,0,0,47.75,95a5.46,5.46,0,0,0-3.11-9.47,37.42,37.42,0,0,1,2.77-74.64A37.42,37.42,0,0,1,85.73,48.32a59.54,59.54,0,0,1-2.52,14.12l-7.59-3.21a1.22,1.22,0,0,0-1.68,1.38l4.81,22.54a1.22,1.22,0,0,0,.74.88,1.24,1.24,0,0,0,1.14-.11L99.46,71.38a1.23,1.23,0,0,0-.2-2.15Z"/><path class="cls-2" d="M88.19,48.32a39.82,39.82,0,0,0-68-28.16A39.84,39.84,0,0,0,44.4,88a3,3,0,0,1,2.69,3,3,3,0,0,1-1,2.24,2.87,2.87,0,0,1-2.26.75,45.86,45.86,0,0,1-27.73-78.3A45.88,45.88,0,0,1,90.82,65.58a.19.19,0,0,0,0,.07L85.48,63.4C86.76,59.33,88.19,52.42,88.19,48.32Z"/><polygon class="cls-2" points="80.78 80.88 76.83 62.41 96.2 70.6 80.78 80.88"/><path class="cls-3" d="M49.57,35.07v2.48h.06a12.62,12.62,0,0,1,3.21.48c1.57.42,2.36,1,2.36,1.61a1.14,1.14,0,0,1-1.3,1.29,11.8,11.8,0,0,1-2.06-.32,10.75,10.75,0,0,0-2.27-.3v6a7.88,7.88,0,0,1,5.07,2.12,5.61,5.61,0,0,1,1.67,4.1,6.47,6.47,0,0,1-2,4.88,9.12,9.12,0,0,1-4.71,2.24v3.9a1.28,1.28,0,0,1-1.31,1.32A1.14,1.14,0,0,1,47,63.55V59.81q-7.15-.11-7.15-3.7c0-.88.4-1.32,1.21-1.32a2,2,0,0,1,1.32.54,8.25,8.25,0,0,0,1.42,1.05,8.11,8.11,0,0,0,3.2.68V48.75h-.12a8,8,0,0,1-3.93-1.11,3.93,3.93,0,0,1-2.05-3.5,5.19,5.19,0,0,1,1.88-3.78A10.28,10.28,0,0,1,47,38V35.16a1.32,1.32,0,0,1,1.35-1.33A1.1,1.1,0,0,1,49.57,35.07ZM47,46V40.78q-2.92,1.11-2.92,3.4C44.05,45.13,45,45.75,47,46Zm2.6,3.09v7.62a6.75,6.75,0,0,0,2.6-1.55,3.56,3.56,0,0,0,1.15-2.54C53.32,51,52.07,49.79,49.57,49.13Z"/></g></g></svg>