<svg xmlns="http://www.w3.org/2000/svg" viewBox="0 0 788 32.87"><defs><style>.cls-1{fill:#333;}</style></defs><title>steps</title><g id="Layer_2" data-name="Layer 2"><g id="desktop"><path class="cls-1" d="M0,16.43C0,7.36,7.07,0,15.79,0S31.58,7.36,31.58,16.43,24.51,32.87,15.79,32.87,0,25.51,0,16.43ZM15.79,31.82c8.16,0,14.78-6.89,14.78-15.39S24,1.05,15.79,1.05,1,7.94,1,16.43,7.63,31.82,15.79,31.82Z"/><path class="cls-1" d="M14.76,24c.11-1.32.19-2.82.26-4.49l.23-5.68c.09-2.12.15-3.79.17-5-.45.27-.79.48-1,.64l-.86.59c.07-.8.1-1.49.1-2.08,1.07-.63,1.76-1.06,2.07-1.3h2.22l-.31,5.42-.32,7.52-.05,1.89c0,.48,0,1,0,1.46v1l-1.18,0Z"/><path class="cls-1" d="M378.21,16.43C378.21,7.36,385.28,0,394,0s15.79,7.36,15.79,16.43S402.72,32.87,394,32.87,378.21,25.51,378.21,16.43ZM394,31.82c8.16,0,14.78-6.89,14.78-15.39S402.16,1.05,394,1.05s-14.78,6.89-14.78,15.38S385.84,31.82,394,31.82Z"/><path class="cls-1" d="M387.9,24c0-.29.05-.87.07-1.75q2.1-2,3.86-3.92T395,14.68a18.57,18.57,0,0,0,1.71-2.38,4,4,0,0,0,.41-.93,2.74,2.74,0,0,0,.11-.79,2,2,0,0,0-.52-1.44,3.3,3.3,0,0,0-1.35-.84A6.17,6.17,0,0,0,393.48,8a19.82,19.82,0,0,0-4.65.73c.12-.6.22-1.22.3-1.84a26.57,26.57,0,0,1,5-.5,11.34,11.34,0,0,1,2.21.22,5.42,5.42,0,0,1,1.86.75,3.53,3.53,0,0,1,1.2,1.24,3.15,3.15,0,0,1,.38,1.55,4.52,4.52,0,0,1-.36,1.82,11.34,11.34,0,0,1-.91,1.62,28.77,28.77,0,0,1-1.83,2.4c-.85,1-1.76,2.06-2.72,3.1s-2.05,2.14-3.26,3.32c.6,0,1.6,0,3,0l2.69,0c1,0,1.91-.06,2.72-.14-.07.74-.11,1.32-.13,1.73-1.51,0-3.31,0-5.42,0l-2.32,0Z"/><path class="cls-1" d="M756.42,16.43C756.42,7.36,763.49,0,772.21,0S788,7.36,788,16.43s-7.07,16.44-15.79,16.44S756.42,25.51,756.42,16.43Zm15.79,15.39c8.16,0,14.78-6.89,14.78-15.39S780.37,1.05,772.21,1.05s-14.78,6.89-14.78,15.38S764.05,31.82,772.21,31.82Z"/><path class="cls-1" d="M766.12,23.64c0-.73-.11-1.38-.18-2a13.59,13.59,0,0,0,2.56.75,11.61,11.61,0,0,0,2.12.21,6.36,6.36,0,0,0,2.36-.43,4.11,4.11,0,0,0,1.73-1.28,3.14,3.14,0,0,0,.67-2,2.84,2.84,0,0,0-.49-1.65,3.08,3.08,0,0,0-1.49-1.11,7.9,7.9,0,0,0-2.7-.38q-.8,0-1.77.09c.06-.72.1-1.3.11-1.75a7.63,7.63,0,0,0,1.19.11,8.93,8.93,0,0,0,2.49-.33,3.25,3.25,0,0,0,1.76-1.2,3.1,3.1,0,0,0,.62-1.86,2.78,2.78,0,0,0-.28-1.24,2.26,2.26,0,0,0-.81-.95,3.1,3.1,0,0,0-1.26-.51A8.15,8.15,0,0,0,771.27,8a16.07,16.07,0,0,0-1.87.11,20.15,20.15,0,0,0-2.14.43c.1-.38.2-1,.32-1.75q1.47-.21,2.34-.3c.59,0,1.15-.08,1.68-.08a12.58,12.58,0,0,1,2.51.24,5.24,5.24,0,0,1,2,.77,3.18,3.18,0,0,1,1.17,1.36,4.24,4.24,0,0,1,.38,1.78,4.48,4.48,0,0,1-.22,1.39,4.37,4.37,0,0,1-.56,1.21,3.85,3.85,0,0,1-.77.83,4.86,4.86,0,0,1-.89.55,13.1,13.1,0,0,1-1.44.5,8.72,8.72,0,0,1,1.52.28,3.59,3.59,0,0,1,1,.51,3.63,3.63,0,0,1,.83.83,3.49,3.49,0,0,1,.52,1.12,4.69,4.69,0,0,1,.17,1.3,4.85,4.85,0,0,1-.54,2.25,4.68,4.68,0,0,1-1.55,1.73,6.87,6.87,0,0,1-2.27,1,12.18,12.18,0,0,1-2.66.29,16.05,16.05,0,0,1-2-.14A24.07,24.07,0,0,1,766.12,23.64Z"/><rect class="cls-1" x="30.57" y="15.43" width="347.86" height="2"/><rect class="cls-1" x="408.78" y="15.43" width="348.65" height="2"/></g></g></svg>