<svg xmlns="http://www.w3.org/2000/svg" viewBox="0 0 601 32.87"><defs><style>.cls-1{fill:#333;}</style></defs><title>steps-1024</title><g id="Layer_2" data-name="Layer 2"><g id="desktop"><path class="cls-1" d="M0,16.43C0,7.36,7.07,0,15.79,0S31.58,7.36,31.58,16.43,24.51,32.87,15.79,32.87,0,25.51,0,16.43ZM15.79,31.82c8.16,0,14.78-6.89,14.78-15.39S24,1.05,15.79,1.05,1,7.94,1,16.43,7.63,31.82,15.79,31.82Z"/><path class="cls-1" d="M14.81,25.1c.11-1.32.2-2.82.26-4.49l.23-5.68c.09-2.12.15-3.8.17-5l-1,.64-.86.59c.07-.8.1-1.49.1-2.08,1.07-.63,1.76-1.06,2.07-1.3H18l-.31,5.42-.32,7.52L17.3,22.6c0,.48,0,1,0,1.46v1l-1.18,0Z"/><path class="cls-1" d="M284.71,16.43C284.71,7.36,291.78,0,300.5,0s15.79,7.36,15.79,16.43-7.07,16.44-15.79,16.44S284.71,25.51,284.71,16.43ZM300.5,31.82c8.16,0,14.78-6.89,14.78-15.39S308.66,1.05,300.5,1.05s-14.78,6.89-14.78,15.38S292.33,31.82,300.5,31.82Z"/><path class="cls-1" d="M294.54,25.24c0-.29,0-.87.06-1.75,1.41-1.37,2.7-2.67,3.86-3.93s2.24-2.47,3.21-3.66a18.57,18.57,0,0,0,1.71-2.38,3.81,3.81,0,0,0,.42-.93,3.15,3.15,0,0,0,.11-.8,2,2,0,0,0-.53-1.43A3.2,3.2,0,0,0,302,9.52a6.21,6.21,0,0,0-1.92-.28,19.3,19.3,0,0,0-4.66.73c.12-.6.22-1.22.31-1.84a26.41,26.41,0,0,1,5-.5,10.59,10.59,0,0,1,2.2.22,5.48,5.48,0,0,1,1.87.75,3.5,3.5,0,0,1,1.19,1.24,3.16,3.16,0,0,1,.39,1.55,4.19,4.19,0,0,1-.1.95,3.92,3.92,0,0,1-.27.86,11.74,11.74,0,0,1-.9,1.63,29.39,29.39,0,0,1-1.84,2.4c-.85,1-1.76,2.06-2.72,3.1s-2,2.14-3.25,3.32c.59,0,1.6,0,3,0l2.7,0c1,0,1.9-.06,2.71-.14-.07.74-.11,1.31-.13,1.73-1.5,0-3.31,0-5.42,0l-2.32,0Z"/><path class="cls-1" d="M569.42,16.43C569.42,7.36,576.49,0,585.21,0S601,7.36,601,16.43s-7.07,16.44-15.79,16.44S569.42,25.51,569.42,16.43Zm15.79,15.39c8.16,0,14.78-6.89,14.78-15.39S593.37,1.05,585.21,1.05s-14.78,6.89-14.78,15.38S577.05,31.82,585.21,31.82Z"/><path class="cls-1" d="M579.47,24.72c-.05-.73-.1-1.38-.18-2a13.59,13.59,0,0,0,2.56.75,11.69,11.69,0,0,0,2.12.21,6.36,6.36,0,0,0,2.36-.43A4.05,4.05,0,0,0,588.06,22a3.14,3.14,0,0,0,.67-2,2.84,2.84,0,0,0-.49-1.65,3,3,0,0,0-1.49-1.11,7.9,7.9,0,0,0-2.7-.38c-.52,0-1.11,0-1.76.09.05-.72.09-1.3.1-1.75a7.63,7.63,0,0,0,1.19.11,8.57,8.57,0,0,0,2.49-.34,3.18,3.18,0,0,0,1.76-1.19,3.1,3.1,0,0,0,.62-1.86,2.91,2.91,0,0,0-.27-1.24,2.36,2.36,0,0,0-.82-.95,3.1,3.1,0,0,0-1.26-.51,7.35,7.35,0,0,0-1.48-.14,16.07,16.07,0,0,0-1.87.11,20.15,20.15,0,0,0-2.14.43,16.53,16.53,0,0,0,.32-1.75c1-.14,1.76-.24,2.35-.3s1.14-.08,1.67-.08a12.51,12.51,0,0,1,2.51.24,5.24,5.24,0,0,1,2,.77,3.21,3.21,0,0,1,1.18,1.36,4.24,4.24,0,0,1,.37,1.78,4.78,4.78,0,0,1-.21,1.39,4.68,4.68,0,0,1-.57,1.21,3.85,3.85,0,0,1-.77.83,4.86,4.86,0,0,1-.89.55,13.1,13.1,0,0,1-1.44.5,8.72,8.72,0,0,1,1.52.28,3.59,3.59,0,0,1,1,.51,3.63,3.63,0,0,1,.83.83,3.49,3.49,0,0,1,.52,1.12,4.69,4.69,0,0,1,.17,1.3,4.85,4.85,0,0,1-.54,2.25A4.58,4.58,0,0,1,589,24.13a6.68,6.68,0,0,1-2.27,1,12.11,12.11,0,0,1-2.66.29,16.05,16.05,0,0,1-2.05-.14A24.07,24.07,0,0,1,579.47,24.72Z"/><rect class="cls-1" x="30.57" y="15.43" width="255.15" height="2"/><rect class="cls-1" x="315.28" y="15.43" width="255.15" height="2"/></g></g></svg>