<svg xmlns="http://www.w3.org/2000/svg" viewBox="0 0 31.58 32.87"><defs><style>.cls-1{fill:#333;}.cls-2{fill:#f4f4f4;}</style></defs><title>three</title><g id="Layer_2" data-name="Layer 2"><g id="desktop"><ellipse class="cls-1" cx="15.79" cy="16.43" rx="15.79" ry="16.43"/><ellipse class="cls-2" cx="15.79" cy="16.43" rx="14.78" ry="15.39"/><path class="cls-1" d="M10,24.72c0-.73-.1-1.38-.17-2a13.59,13.59,0,0,0,2.56.75,11.61,11.61,0,0,0,2.12.21,6.4,6.4,0,0,0,2.36-.43A4.11,4.11,0,0,0,18.64,22a3.14,3.14,0,0,0,.67-2,2.84,2.84,0,0,0-.49-1.65,3,3,0,0,0-1.5-1.11,7.8,7.8,0,0,0-2.69-.38q-.8,0-1.77.09c.06-.72.1-1.3.1-1.75a7.75,7.75,0,0,0,1.2.11A8.66,8.66,0,0,0,16.65,15a3.18,3.18,0,0,0,1.76-1.19A3.1,3.1,0,0,0,19,11.92a2.78,2.78,0,0,0-.28-1.24,2.26,2.26,0,0,0-.81-.95,3.16,3.16,0,0,0-1.26-.51,7.35,7.35,0,0,0-1.48-.14,15.94,15.94,0,0,0-1.87.11,19.67,19.67,0,0,0-2.14.43,17.09,17.09,0,0,0,.31-1.75c1-.14,1.77-.24,2.35-.3s1.15-.08,1.68-.08A12.58,12.58,0,0,1,18,7.73a5.24,5.24,0,0,1,2,.77,3.25,3.25,0,0,1,1.17,1.36,4.24,4.24,0,0,1,.38,1.78A4.48,4.48,0,0,1,21.34,13a4.37,4.37,0,0,1-.56,1.21,3.85,3.85,0,0,1-.77.83,4.86,4.86,0,0,1-.89.55,12.68,12.68,0,0,1-1.45.5,8.68,8.68,0,0,1,1.53.28,3.59,3.59,0,0,1,1,.51,3.63,3.63,0,0,1,.83.83,3.49,3.49,0,0,1,.52,1.12,5.09,5.09,0,0,1,.17,1.3,4.85,4.85,0,0,1-.54,2.25,4.58,4.58,0,0,1-1.55,1.72,6.65,6.65,0,0,1-2.28,1,12,12,0,0,1-2.65.29,16.33,16.33,0,0,1-2.06-.14A25.07,25.07,0,0,1,10,24.72Z"/></g></g></svg>