<?xml version="1.0" encoding="utf-8"?>
<!-- Generator: Adobe Illustrator 23.0.6, SVG Export Plug-In . SVG Version: 6.00 Build 0)  -->
<svg version="1.1" id="Layer_1" xmlns="http://www.w3.org/2000/svg" xmlns:xlink="http://www.w3.org/1999/xlink" x="0px" y="0px"
	 viewBox="0 0 31.6 32.9" style="enable-background:new 0 0 31.6 32.9;" xml:space="preserve">
<style type="text/css">
	.st0{fill:#333333;}
	.st1{fill:#FFFFFF;}
</style>
<title>three</title>
<path class="st0" d="M0,16.4C0,7.4,7.1,0,15.8,0s15.8,7.4,15.8,16.4s-7.1,16.4-15.8,16.4S0,25.5,0,16.4z"/>
<path class="st1" d="M15.8,31.8c8.2,0,14.8-6.9,14.8-15.4S24,1,15.8,1S1,7.9,1,16.4S7.6,31.8,15.8,31.8z"/>
<path class="st0" d="M9.7,23.6c0-0.7-0.1-1.4-0.2-2c0.8,0.3,1.7,0.6,2.6,0.8c0.7,0.1,1.4,0.2,2.1,0.2c0.8,0,1.6-0.1,2.4-0.4
	c0.7-0.3,1.3-0.7,1.7-1.3c0.4-0.6,0.7-1.3,0.7-2c0-0.6-0.2-1.2-0.5-1.6c-0.4-0.5-0.9-0.9-1.5-1.1c-0.9-0.3-1.8-0.4-2.7-0.4
	c-0.5,0-1.1,0-1.8,0.1c0.1-0.7,0.1-1.3,0.1-1.8c0.4,0.1,0.8,0.1,1.2,0.1c0.8,0,1.7-0.1,2.5-0.3c0.7-0.2,1.3-0.6,1.8-1.2
	c0.4-0.5,0.6-1.2,0.6-1.9c0-0.4-0.1-0.9-0.3-1.2c-0.2-0.4-0.5-0.7-0.8-0.9c-0.4-0.3-0.8-0.4-1.3-0.5C15.8,8,15.3,8,14.9,8
	c-0.6,0-1.2,0-1.9,0.1c-0.7,0.1-1.4,0.2-2.1,0.4C11,8,11.1,7.4,11.2,6.8c1-0.1,1.8-0.2,2.4-0.3s1.1-0.1,1.7-0.1
	c0.8,0,1.7,0.1,2.5,0.2c0.7,0.1,1.4,0.4,2,0.8c0.5,0.3,0.9,0.8,1.2,1.4c0.3,0.6,0.4,1.2,0.4,1.8c0,0.5-0.1,1-0.3,1.4
	c-0.1,0.4-0.3,0.8-0.6,1.2c-0.2,0.3-0.5,0.6-0.8,0.8c-0.3,0.2-0.6,0.4-0.9,0.6c-0.5,0.2-1,0.4-1.4,0.5c0.5,0,1,0.1,1.5,0.3
	c0.4,0.1,0.7,0.3,1,0.5c0.3,0.2,0.6,0.5,0.8,0.8c0.2,0.3,0.4,0.7,0.5,1.1c0.1,0.4,0.2,0.9,0.2,1.3c0,0.8-0.2,1.6-0.5,2.3
	c-0.4,0.7-0.9,1.3-1.5,1.7c-0.7,0.4-1.5,0.7-2.3,0.9c-0.9,0.2-1.8,0.3-2.6,0.3c-0.7,0-1.4,0-2.1-0.1C11.4,24,10.5,23.9,9.7,23.6z"/>
</svg>
