<svg xmlns="http://www.w3.org/2000/svg" viewBox="0 0 31.58 32.87"><defs><style>.cls-1{fill:#333;}.cls-2{fill:#f4f4f4;}</style></defs><title>two</title><g id="Layer_2" data-name="Layer 2"><g id="desktop"><ellipse class="cls-1" cx="15.79" cy="16.43" rx="15.79" ry="16.43"/><ellipse class="cls-2" cx="15.79" cy="16.43" rx="14.78" ry="15.39"/><path class="cls-1" d="M9.83,25.24c0-.29,0-.87.06-1.75,1.41-1.37,2.7-2.67,3.87-3.93S16,17.09,17,15.9a18.86,18.86,0,0,0,1.72-2.38,4.14,4.14,0,0,0,.41-.93,3.15,3.15,0,0,0,.11-.8,2,2,0,0,0-.52-1.43,3.3,3.3,0,0,0-1.35-.84,6.17,6.17,0,0,0-1.92-.28,19.37,19.37,0,0,0-4.66.73c.12-.6.22-1.22.31-1.84a26.41,26.41,0,0,1,5-.5,10.52,10.52,0,0,1,2.2.22,5.48,5.48,0,0,1,1.87.75,3.5,3.5,0,0,1,1.19,1.24,3.16,3.16,0,0,1,.39,1.55,4.19,4.19,0,0,1-.1.95,3.92,3.92,0,0,1-.27.86,11.74,11.74,0,0,1-.9,1.63,29.39,29.39,0,0,1-1.84,2.4c-.85,1-1.75,2.06-2.71,3.1s-2,2.14-3.26,3.32c.59,0,1.6,0,3,0l2.7,0c1,0,1.91-.06,2.71-.14-.07.74-.11,1.31-.13,1.73-1.5,0-3.31,0-5.42,0l-2.32,0Z"/></g></g></svg>