<?xml version="1.0" encoding="utf-8"?>
<!-- Generator: Adobe Illustrator 23.0.6, SVG Export Plug-In . SVG Version: 6.00 Build 0)  -->
<svg version="1.1" id="Layer_1" xmlns="http://www.w3.org/2000/svg" xmlns:xlink="http://www.w3.org/1999/xlink" x="0px" y="0px"
	 viewBox="0 0 31.6 32.9" style="enable-background:new 0 0 31.6 32.9;" xml:space="preserve">
<style type="text/css">
	.st0{fill:#333333;}
	.st1{fill:#FFFFFF;}
</style>
<title>two</title>
<path class="st0" d="M0,16.4C0,7.4,7.1,0,15.8,0s15.8,7.4,15.8,16.4s-7.1,16.4-15.8,16.4S0,25.5,0,16.4z"/>
<path class="st1" d="M15.8,31.8c8.2,0,14.8-6.9,14.8-15.4S24,1,15.8,1S1,7.9,1,16.4S7.6,31.8,15.8,31.8z"/>
<path class="st0" d="M9.7,24c0-0.3,0.1-0.9,0.1-1.8c1.4-1.3,2.7-2.6,3.9-3.9c1.2-1.3,2.2-2.5,3.2-3.7c0.6-0.7,1.2-1.5,1.7-2.4
	c0.2-0.3,0.3-0.6,0.4-0.9c0.1-0.3,0.1-0.5,0.1-0.8c0-0.5-0.2-1-0.5-1.4c-0.4-0.4-0.8-0.7-1.4-0.8C16.6,8.1,15.9,8,15.3,8
	c-1.6,0.1-3.1,0.3-4.6,0.7c0.1-0.6,0.2-1.2,0.3-1.8c1.6-0.3,3.3-0.5,5-0.5c0.7,0,1.5,0.1,2.2,0.2C18.8,6.7,19.4,7,20,7.4
	c0.5,0.3,0.9,0.7,1.2,1.2c0.3,0.5,0.4,1,0.4,1.6c0,0.3,0,0.6-0.1,0.9c-0.1,0.3-0.2,0.6-0.3,0.9c-0.3,0.6-0.6,1.1-0.9,1.6
	c-0.6,0.8-1.2,1.6-1.8,2.4c-0.9,1-1.8,2.1-2.7,3.1s-2,2.1-3.3,3.3c0.6,0,1.6,0,3,0h2.7c1,0,1.9-0.1,2.7-0.1
	c-0.1,0.7-0.1,1.3-0.1,1.7c-1.5,0-3.3,0-5.4,0L9.7,24L9.7,24z"/>
</svg>
