<svg xmlns="http://www.w3.org/2000/svg" viewBox="0 0 73.08 66.02"><defs><style>.cls-1{fill:#f75252;}.cls-2{fill:#3a312a;}.cls-3{fill:#f79c1d;}.cls-4{fill:#fff;}</style></defs><title>Asset 3</title><g id="Layer_2" data-name="Layer 2"><g id="design"><path class="cls-1" d="M71.27,50.83,45,5.38a9.82,9.82,0,0,0-17,0L1.81,50.83a9.81,9.81,0,0,0,8.5,14.71H62.78A9.8,9.8,0,0,0,71.27,50.83Z"/><path class="cls-2" d="M71.69,50.59,45.45,5.14a10.29,10.29,0,0,0-17.82,0L1.39,50.59A10.29,10.29,0,0,0,10.31,66H62.78a10.29,10.29,0,0,0,8.91-15.43Zm-.84,9.8a9.22,9.22,0,0,1-8.07,4.67H10.31a9.33,9.33,0,0,1-8.08-14L28.46,5.62a9.33,9.33,0,0,1,16.16,0L70.85,51.07A9.2,9.2,0,0,1,70.85,60.39Z"/><path class="cls-3" d="M64,51.36,41,11.6a5.28,5.28,0,0,0-9.14,0L23.34,26.39l-2.72,4.72L8.93,51.36a5.27,5.27,0,0,0,4.57,7.92H59.41A5.28,5.28,0,0,0,64,51.36Z"/><path class="cls-2" d="M64.48,51l-23-39.75a5.76,5.76,0,0,0-10,0L8.6,51a5.77,5.77,0,0,0,5,8.65h45.9a5.77,5.77,0,0,0,5-8.65Zm-.83,5.28a4.74,4.74,0,0,1-4.16,2.4H13.59a4.8,4.8,0,0,1-4.16-7.19l23-39.76a4.8,4.8,0,0,1,8.31,0L63.65,51.44A4.72,4.72,0,0,1,63.65,56.23Z"/><path class="cls-4" d="M36.54,47.42a4.26,4.26,0,1,0,4.26,4.26A4.26,4.26,0,0,0,36.54,47.42Z"/><path class="cls-2" d="M36.54,46.94a4.74,4.74,0,1,0,4.74,4.74A4.75,4.75,0,0,0,36.54,46.94Zm0,8.52a3.78,3.78,0,1,1,3.78-3.78A3.79,3.79,0,0,1,36.54,55.46Z"/><path class="cls-4" d="M37.82,20H35.26a3.9,3.9,0,0,0-3.89,4.21l.41,4.94.36,4.42.53,6.61a3.9,3.9,0,0,0,7.77,0l1.27-16A3.89,3.89,0,0,0,37.82,20Z"/><path class="cls-2" d="M41,21a4.41,4.41,0,0,0-3.22-1.4H35.26a4.39,4.39,0,0,0-4.37,4.73l1.31,16a4.37,4.37,0,0,0,8.72,0l1.27-16A4.42,4.42,0,0,0,41,21Zm.19,3.24L40,40.16a3.42,3.42,0,0,1-6.81,0l-1.3-16a3.43,3.43,0,0,1,3.41-3.69h2.56a3.42,3.42,0,0,1,3.41,3.68Z"/></g></g></svg>