<svg id="Layer_1" enable-background="new 0 0 128 128" height="300" viewBox="11 29 105 70" width="550" xmlns="http://www.w3.org/2000/svg"><path d="m126.438 61.652c0-.044 0-.128-.016-.23-.302-4.5-2.241-8.751-5.467-11.977-3.562-3.562-8.284-5.523-13.297-5.523-.478 0-.917-.284-1.148-.743-.9-1.787-2.698-2.896-4.692-2.896s-3.794 1.112-4.698 2.9c-.23.456-.669.739-1.146.739h-5.01c-.001-.008-.002-.016-.002-.023.001-.07-.003-.138-.007-.204-.256-3.28-2.354-6.1-5.345-7.182-3.744-1.368-7.762-.137-9.996 3.061-.261.374-.648.589-1.064.589h-1.214c-.219-2.67-2.436-4.783-5.161-4.783s-4.943 2.113-5.162 4.783h-1.206c-.157-2.729-2.406-4.908-5.174-4.908s-5.017 2.179-5.174 4.908h-1.18c-.093-2.789-2.376-5.033-5.188-5.033-2.811 0-5.094 2.245-5.187 5.033h-1.155c-.025-2.848-2.346-5.158-5.199-5.158-2.869 0-5.204 2.335-5.204 5.204 0 .147.031.286.044.431-.362.079-.645.151-.822.196l-.142.036c-3.157.758-6.08 2.104-8.686 4.001-.009.006-.074.05-.083.057l-.092.066c-4.467 3.281-8.221 7.741-10.857 12.896-.226.44-.447 1.012-.671 1.728l-.053.117c-.049.106-.096.213-.135.326-.162.471-.313.94-.436 1.396-.117.395-.213.799-.292 1.191-.714 3.132-.779 6.296-.195 9.396.188 1.032.444 2.104.762 3.186l.098.339c.182.63.425 1.458.796 2.4-1.014.95-1.658 2.291-1.658 3.787 0 2.869 2.335 5.204 5.205 5.204.568 0 1.105-.114 1.617-.283-.033.236-.072.47-.072.715 0 2.869 2.335 5.204 5.205 5.204 1.539 0 2.909-.684 3.862-1.75-.002.065-.019.127-.019.193 0 2.87 2.335 5.205 5.204 5.205 2.091 0 3.886-1.247 4.713-3.031.22 2.668 2.437 4.78 5.161 4.78 2.457 0 4.51-1.717 5.053-4.011 3.007-.066 5.239-.493 6.263-1.098 1.538-.908 2.349-2.513 2.225-4.401-.122-1.886-1.319-3.627-3.124-4.543l-3.395-1.724h7.427c1.746 0 3.263-.975 4.044-2.407h7.604c2.238 1.764 5.02 2.739 7.873 2.739h15.739c1.72 0 3.189-1.121 3.644-2.739h17.527 1.598c9.084 0 16.497-7.321 16.695-16.397.296-.174.495-.495.495-.863v-.14c0-.287-.011-.563-.03-.759z" fill="#e6e7e8"/><path d="m30.076 37.046h3.238c.273-.557.439-1.175.439-1.837 0-2.322-1.882-4.204-4.204-4.204s-4.204 1.882-4.204 4.204c0 .809.24 1.557.635 2.198 1.348-.23 2.717-.361 4.096-.361z" fill="#fff"/><path d="m25.626 37.456c1.46-.27 2.95-.41 4.45-.41h3.661c-.087-2.245-1.922-4.042-4.188-4.042-2.322 0-4.204 1.882-4.204 4.204 0 .103.023.199.03.301.085-.017.167-.038.251-.053z" fill="#0089ef"/><path d="m44.924 37.046c.235-.524.372-1.101.372-1.712 0-2.322-1.882-4.204-4.204-4.204s-4.204 1.882-4.204 4.204c0 .611.137 1.188.372 1.712z" fill="#fff"/><path d="m45.267 37.046c-.15-2.185-1.952-3.917-4.175-3.917s-4.025 1.731-4.175 3.917z" fill="#0089ef"/><path d="m56.522 37.046c.2-.49.315-1.025.315-1.587 0-2.322-1.882-4.204-4.204-4.204s-4.204 1.882-4.204 4.204c0 .563.115 1.097.315 1.587z" fill="#fff"/><path d="m56.796 37.046c-.21-2.125-1.982-3.792-4.163-3.792s-3.953 1.667-4.163 3.792z" fill="#0089ef"/><path d="m68.103 37.046c.17-.457.276-.946.276-1.462 0-2.322-1.882-4.204-4.204-4.204s-4.204 1.882-4.204 4.204c0 .516.106 1.005.276 1.462z" fill="#fff"/><g fill="#0089ef"><path d="m68.325 37.046c-.267-2.065-2.012-3.667-4.15-3.667s-3.884 1.602-4.15 3.667z"/><path d="m9.58 80.069c-.594-.587-1.141-1.207-1.639-1.859-1.017-1.329-1.821-2.789-2.484-4.306-1.49.646-2.533 2.128-2.533 3.855 0 2.322 1.882 4.204 4.204 4.204 1.22 0 2.309-.528 3.077-1.357-.206-.181-.43-.345-.625-.537z"/><path d="m16.644 84.302c-2.392-.957-4.43-2.032-6.117-3.422-.528.703-.852 1.567-.852 2.514 0 2.322 1.882 4.204 4.204 4.204 1.84 0 3.387-1.19 3.957-2.836-.397-.147-.794-.3-1.192-.46z"/><path d="m19.145 85.234c-.264.55-.424 1.158-.424 1.808 0 2.322 1.882 4.204 4.204 4.204 2.21 0 4.002-1.711 4.171-3.877-2.534-.499-5.215-1.19-7.951-2.135z"/><path d="m28.764 87.677c-.099.357-.169.726-.169 1.115 0 2.322 1.882 4.205 4.204 4.205s4.204-1.883 4.204-4.205c0-.1-.023-.194-.029-.292-2.355-.07-5.153-.307-8.21-.823z"/></g><path d="m55.437 58.598-14.963.036c-1.424.003-2.509 1.462-1.919 2.759.067.147.148.26.247.328 5.593 3.863 8.66 7.605 10.572 8.549 1.816.896 1.835 2.826 1.466 4.426h8.254c-3.766-3.1-7.39-6.077-7.628-9.13-.202-2.598 2.102-5.258 3.971-6.968z" fill="#d4fbff"/><path d="m74.09 58.552c-2.061 1.773-3.832 3.333-1.815 5.294 3.171 3.082 10.615 5.99 11.651 6.757 1.442 1.066 1.631 2.685 1.437 4.093h20.593c8.641 0 15.699-7.1 15.699-15.77 0-.165-.02-.325-.025-.489z" fill="#d4fbff"/><path d="m74.09 58.552 48.057-.117v-.14c0-.26-.01-.51-.03-.76 0-.03 0-.07-.01-.1-.28-4.43-2.21-8.43-5.18-11.4-3.231-3.231-7.683-5.231-12.595-5.23-.875 0-1.643-.512-2.037-1.293-.702-1.392-2.135-2.347-3.799-2.347-1.666 0-3.101.957-3.806 2.353-.393.778-1.167 1.287-2.038 1.287h-6.025c0-.05.01-.1.01-.15.01-.13.02-.25.02-.36v-.06c0-.14 0-.29-.02-.43.01-.04 0-.09 0-.14v-.01c-.22-2.82-2.01-5.35-4.69-6.32-3.587-1.308-7.015.093-8.833 2.694-.435.623-1.126 1.016-1.885 1.016h-41.153c-1.5 0-2.99.14-4.45.41-3.46.63-6.75 2.02-9.62 4.11-.03.02-.06.04-.09.06-.027.02-.054.039-.081.059-4.462 3.278-8.039 7.619-10.56 12.547-.226.442-.439 1.033-.631 1.64-.055.135-.124.26-.171.399-.155.449-.299.898-.423 1.356-.109.367-.198.742-.276 1.127-.673 2.953-.748 6.013-.187 8.996.189 1.031.438 2.058.737 3.083.771 2.62 1.928 5.168 3.617 7.376.498.652 1.044 1.272 1.639 1.859 1.837 1.818 4.215 3.094 7.063 4.234 13.546 5.42 26.531 4.343 27.641 3.608.982-.649 1.851-1.722 1.736-3.477-.104-1.6-1.149-2.989-2.579-3.715l-6.891-3.499h13.361s2.849-5.278-.538-6.949c-1.912-.943-4.978-4.686-10.572-8.549-.099-.069-.18-.181-.247-.328-.59-1.297.495-2.756 1.919-2.759l14.963-.036c-1.869 1.71-4.172 4.37-3.97 6.968.242 3.112 4.003 6.146 7.845 9.31 2.101 1.73 4.737 2.677 7.458 2.677h15.739c1.289 0 2.431-.872 2.723-2.127.359-1.541.392-3.566-1.306-4.822-1.036-.766-8.48-3.675-11.651-6.757-2.016-1.96-.245-3.52 1.816-5.294z" fill="#fff"/><path d="m74.09 58.552 48.057-.117v-.14c0-.26-.01-.51-.03-.76 0-.03 0-.07-.01-.1-.28-4.43-2.21-8.43-5.18-11.4-3.231-3.231-7.683-5.231-12.595-5.23-.875 0-1.643-.512-2.037-1.293-.702-1.392-2.135-2.347-3.799-2.347-1.666 0-3.101.957-3.806 2.353-.393.778-1.167 1.287-2.038 1.287h-6.025c0-.05.01-.1.01-.15.01-.13.02-.25.02-.36v-.06c0-.14 0-.29-.02-.43.01-.04 0-.09 0-.14v-.01c-.22-2.82-2.01-5.35-4.69-6.32-3.587-1.308-7.015.093-8.833 2.694-.435.623-1.126 1.016-1.885 1.016h-41.153c-1.5 0-2.99.14-4.45.41-3.46.63-6.75 2.02-9.62 4.11-.03.02-.06.04-.09.06-.027.02-.054.039-.081.059-4.462 3.278-8.039 7.619-10.56 12.547-.226.442-.439 1.033-.631 1.64-.055.135-.124.26-.171.399-.155.449-.299.898-.423 1.356-.109.367-.198.742-.276 1.127-.673 2.953-.748 6.013-.187 8.996.189 1.031.438 2.058.737 3.083.771 2.62 1.928 5.168 3.617 7.376.498.652 1.044 1.272 1.639 1.859 1.837 1.818 4.215 3.094 7.063 4.234 13.546 5.42 26.531 4.343 27.641 3.608.982-.649 1.851-1.722 1.736-3.477-.104-1.6-1.149-2.989-2.579-3.715l-6.891-3.499h13.361s2.849-5.278-.538-6.949c-1.912-.943-4.978-4.686-10.572-8.549-.099-.069-.18-.181-.247-.328-.59-1.297.495-2.756 1.919-2.759l14.963-.036c-1.869 1.71-4.172 4.37-3.97 6.968.242 3.112 4.003 6.146 7.845 9.31 2.101 1.73 4.737 2.677 7.458 2.677h15.739c1.289 0 2.431-.872 2.723-2.127.359-1.541.392-3.566-1.306-4.822-1.036-.766-8.48-3.675-11.651-6.757-2.016-1.96-.245-3.52 1.816-5.294z" fill="#6dc9f7"/><circle cx="97.942" cy="41.695" fill="#0089ef" r="1.817"/><path d="m92.517 64.645 2.127-3.658c.657-1.131-.158-2.548-1.466-2.548h-4.328c-1.319 0-2.133 1.44-1.453 2.57l2.201 3.658c.665 1.105 2.271 1.093 2.919-.022z" fill="#fff"/><path d="m96.201 61.01 2.201 3.658c.665 1.105 2.271 1.093 2.919-.022l2.127-3.658c.657-1.131-.158-2.548-1.466-2.548h-4.328c-1.319-.001-2.133 1.439-1.453 2.57z" fill="#fff"/><path d="m104.663 61.01 2.201 3.658c.665 1.105 2.271 1.093 2.919-.022l2.127-3.658c.657-1.131-.158-2.548-1.466-2.548h-4.328c-1.319-.001-2.133 1.439-1.453 2.57z" fill="#fff"/><path d="m112.388 61.086 2.201 3.658c.665 1.105 2.271 1.093 2.919-.022l2.127-3.658c.657-1.131-.158-2.548-1.466-2.548h-4.328c-1.319 0-2.133 1.44-1.453 2.57z" fill="#fff"/><circle cx="79.316" cy="39.878" fill="#3a2c60" r="3.626"/><path d="m122.438 57.652c0-.044 0-.128-.016-.23-.302-4.5-2.241-8.751-5.467-11.977-3.562-3.562-8.284-5.523-13.297-5.523-.478 0-.918-.285-1.148-.743-.9-1.786-2.698-2.896-4.692-2.896s-3.794 1.112-4.698 2.9c-.23.456-.67.739-1.146.739h-5.009c-.001-.008-.002-.016-.002-.023.001-.07-.003-.138-.007-.204-.257-3.28-2.355-6.1-5.345-7.182-3.744-1.366-7.762-.137-9.996 3.061-.261.374-.648.589-1.064.589h-1.222c.026-.19.051-.381.051-.579 0-2.869-2.335-5.204-5.204-5.204-2.87 0-5.205 2.335-5.205 5.204 0 .198.025.389.051.579h-1.249c.037-.23.066-.463.066-.704 0-2.869-2.335-5.204-5.204-5.204s-5.204 2.335-5.204 5.204c0 .241.029.474.066.704h-1.279c.049-.27.08-.545.08-.829 0-2.869-2.335-5.204-5.205-5.204-2.869 0-5.204 2.335-5.204 5.204 0 .284.032.559.08.829h-1.309c.062-.309.096-.627.096-.954 0-2.869-2.335-5.204-5.204-5.204-2.87 0-5.205 2.335-5.205 5.204 0 .487.08.952.211 1.396-.443.093-.787.179-.99.231l-.142.036c-3.157.758-6.079 2.104-8.657 3.982l-.091.061c-.011.008-.102.073-.111.081-4.466 3.28-8.221 7.741-10.859 12.898-.222.435-.449 1.021-.669 1.726l-.053.117c-.049.106-.096.213-.135.326-.162.471-.313.94-.436 1.396-.119.395-.215.799-.294 1.191-.714 3.132-.779 6.296-.195 9.396.188 1.028.443 2.1.761 3.186l.099.342c.182.63.426 1.458.797 2.4-1.014.949-1.658 2.289-1.658 3.784 0 2.869 2.335 5.204 5.205 5.204.562 0 1.1-.092 1.605-.26-.032.227-.06.455-.06.691 0 2.869 2.335 5.204 5.205 5.204 1.54 0 2.906-.687 3.854-1.757-.003.067-.011.132-.011.2 0 2.87 2.335 5.205 5.204 5.205 2.108 0 3.896-1.273 4.707-3.082.196 2.692 2.425 4.831 5.167 4.831 2.457 0 4.51-1.717 5.053-4.011 3.008-.066 5.24-.493 6.263-1.098 1.537-.909 2.348-2.513 2.225-4.402-.123-1.886-1.32-3.627-3.124-4.542l-3.395-1.724h7.426c1.746 0 3.263-.975 4.045-2.407h7.604c2.238 1.764 5.02 2.739 7.873 2.739h15.738c1.72 0 3.19-1.121 3.645-2.739h4.861c.553 0 1-.447 1-1s-.447-1-1-1h-4.588c-.006-1.697-.655-3.089-1.906-4.014-.365-.271-1.057-.605-2.464-1.278-2.604-1.245-6.962-3.329-9.084-5.391-.397-.387-.595-.735-.585-1.037.023-.777 1.24-1.823 2.416-2.835.531-.456 1.077-.928 1.586-1.422.396-.386.403-1.019.019-1.415-.387-.396-1.018-.401-1.415-.019-.478.467-.994.909-1.494 1.34-1.573 1.354-3.06 2.632-3.11 4.289-.027.887.373 1.738 1.189 2.532 2.357 2.291 6.726 4.38 9.616 5.762.938.449 1.91.913 2.137 1.081 1.025.759 1.338 2.034.928 3.791-.184.785-.919 1.354-1.75 1.354h-15.74c-2.482 0-4.905-.869-6.822-2.449l-.24-.197c-3.461-2.849-7.04-5.794-7.244-8.417-.192-2.468 2.638-5.528 5.35-7.57.441-.332.529-.959.197-1.4-.331-.439-.957-.529-1.4-.197-1.95 1.468-6.452 5.315-6.141 9.322.225 2.886 2.847 5.499 5.999 8.17h-4.617c.079-1.838-.563-3.338-1.87-4.336-.492-.377-1.073-.8-1.725-1.273-2.272-1.652-5.376-3.91-8.648-7.093-.088-.183-.212-.535-.134-.818.021-.076.085-.308.532-.547.487-.261.671-.867.41-1.354s-.865-.669-1.354-.41c-1.008.54-1.386 1.28-1.524 1.807-.326 1.236.341 2.345.418 2.467.042.066.091.127.146.182 3.416 3.34 6.63 5.678 8.978 7.384.637.464 1.204.876 1.686 1.245.803.613 1.158 1.509 1.088 2.737-.078 1.355-1.224 2.417-2.606 2.417h-10.699c-.161 0-.308.047-.442.114l-4.014-2.038c-.185-.093-.363-.195-.543-.298l-.097-.055c-.351-.2-8.562-5-6.535-13.922.122-.539-.216-1.074-.754-1.197-.544-.119-1.075.215-1.197.754-2.358 10.389 7.4 16.049 7.499 16.104l.096.054c.208.119.417.237.628.344l11.12 5.646c1.177.598 1.956 1.705 2.033 2.89.094 1.442-.626 2.183-1.246 2.549-2.245 1.33-14.397 1.688-26.734-3.663-9.212-3.995-10.864-9.726-11.657-12.479l-.101-.351c-.297-1.019-.537-2.021-.714-2.987-.533-2.836-.474-5.725.185-8.612.071-.355.153-.702.261-1.064.118-.437.257-.865.403-1.292.017-.049.039-.094.061-.14.032-.07.064-.142.118-.283.211-.665.396-1.152.568-1.487 2.497-4.882 6.046-9.1 10.262-12.197.001-.001.082-.06.084-.061l-.596-.804.68.748c2.392-1.742 5.075-2.979 7.975-3.674l.175-.045c.584-.15 2.361-.609 4.795-.609h41.687c1.063 0 2.074-.54 2.704-1.443 1.421-2.033 4.341-3.539 7.674-2.326 2.254.815 3.838 2.958 4.03 5.39l.003.066c-.006.07-.003.141.007.211.013.096.01.197.01.353 0 .077-.008.16-.02.328-.004.035-.011.146-.011.182 0 .553.447 1 1 1h6.025c1.235 0 2.358-.703 2.932-1.836.563-1.112 1.679-1.804 2.913-1.804s2.348.688 2.906 1.797c.573 1.137 1.697 1.843 2.935 1.843 4.479 0 8.698 1.754 11.883 4.938 2.854 2.854 4.574 6.605 4.869 10.577h-39.315c-.553 0-1 .447-1 1s.447 1 1 1h5.154c-.191.699-.097 1.444.291 2.089l2.201 3.657c.492.819 1.354 1.306 2.309 1.306h.021c.963-.007 1.826-.508 2.31-1.34l2.036-3.502 2.129 3.537c.492.819 1.354 1.306 2.309 1.306h.021c.963-.007 1.826-.508 2.311-1.34l1.868-3.213 1.954 3.247c.492.819 1.354 1.306 2.309 1.306h.021c.963-.007 1.826-.508 2.31-1.34l1.483-2.551 1.602 2.662c.493.818 1.354 1.306 2.309 1.306h.022c.963-.008 1.826-.51 2.309-1.341l.772-1.327c-2.005 5.763-7.456 9.915-13.866 9.915h-1.598c-.553 0-1 .447-1 1s.447 1 1 1h1.598c9.084 0 16.497-7.321 16.695-16.397.296-.174.495-.495.495-.863v-.14c-.002-.292-.013-.568-.032-.764zm-99.512 32.595c-1.767 0-3.204-1.438-3.204-3.205 0-.039.013-.074.015-.113 2.029.695 4.021 1.255 5.95 1.694-.55.965-1.573 1.624-2.761 1.624zm9.874 1.749c-1.562 0-2.861-1.123-3.144-2.603 2.215.341 4.265.516 6.119.572-.47 1.187-1.623 2.031-2.975 2.031zm-16.608-6.41c-.58.62-1.398 1.012-2.313 1.012-1.768 0-3.205-1.438-3.205-3.204 0-.236.035-.462.085-.683 1.352.925 2.938 1.813 4.807 2.625.21.091.417.163.626.25zm-7.927-4.848c-.354.137-.733.225-1.136.225-1.768 0-3.205-1.438-3.205-3.204 0-.675.212-1.3.57-1.816.815 1.506 1.997 3.166 3.771 4.795zm52.705-45.155c0-1.767 1.438-3.204 3.205-3.204s3.204 1.438 3.204 3.204c0 .2-.038.39-.075.579h-6.259c-.037-.189-.075-.379-.075-.579zm-11.541-.125c0-1.767 1.438-3.204 3.204-3.204s3.204 1.438 3.204 3.204c0 .244-.035.478-.089.704h-6.229c-.055-.226-.09-.46-.09-.704zm-11.542-.125c0-1.767 1.438-3.204 3.204-3.204 1.768 0 3.205 1.438 3.205 3.204 0 .288-.044.564-.117.829h-6.176c-.072-.265-.116-.541-.116-.829zm-11.344.959c-.126-.338-.198-.702-.198-1.084 0-1.767 1.438-3.204 3.205-3.204s3.204 1.438 3.204 3.204c0 .333-.054.653-.15.954h-3.743c-.856 0-1.628.054-2.318.13zm67.237 24.192-2.127 3.658v.001c-.18.309-.477.344-.596.345-.002 0-.004 0-.005 0-.123 0-.415-.034-.598-.337l-2.201-3.657c-.188-.313-.069-.595-.009-.701s.239-.354.605-.354h4.328c.363 0 .543.244.603.349.061.106.182.383 0 .696zm8.804 0-2.127 3.658c-.181.31-.478.346-.597.346-.135-.007-.415-.029-.602-.337l-2.201-3.657c-.188-.313-.069-.595-.01-.701.061-.106.24-.354.606-.354h4.328c.363 0 .543.244.603.349.062.106.183.383 0 .696zm8.462 0-2.127 3.659c-.18.309-.477.344-.596.345-.002 0-.004 0-.005 0-.123 0-.415-.034-.598-.337l-2.201-3.657c-.188-.313-.069-.595-.009-.701s.239-.354.605-.354h4.328c.363 0 .543.244.603.349.062.106.183.383 0 .696zm7.725.078-2.128 3.658c-.179.309-.476.345-.595.346-.002 0-.004 0-.005 0-.123 0-.415-.034-.598-.337l-2.2-3.657c-.189-.314-.07-.596-.01-.702.06-.105.239-.353.605-.353h4.328c.363 0 .543.244.603.349.061.104.182.382 0 .696z" fill="#3a2c60"/><path d="m100.061 73.813h-5.185c-.553 0-1 .447-1 1s.447 1 1 1h5.185c.553 0 1-.447 1-1s-.447-1-1-1z" fill="#3a2c60"/></svg>