<svg id="layout" xmlns="http://www.w3.org/2000/svg" viewBox="0 0 81.74 100"><defs><style>.cls-1{fill:#b3b3b3;}</style></defs><title>bookmark_stroke_gray</title><path class="cls-1" d="M78.19,2a1.49,1.49,0,0,1,1.55,1.43V96.54a1.42,1.42,0,0,1-.81,1.26,1.79,1.79,0,0,1-.72.16,1.6,1.6,0,0,1-1-.34l-34.89-27-1.22-.94-1.22.94-35.34,27a1.63,1.63,0,0,1-1,.33,1.67,1.67,0,0,1-.7-.15A1.41,1.41,0,0,1,2,96.53V3.47A1.49,1.49,0,0,1,3.55,2H78.19m0-2H3.55A3.49,3.49,0,0,0,0,3.47V96.53a3.41,3.41,0,0,0,2,3.08,3.66,3.66,0,0,0,3.75-.4l35.34-27L76,99.2a3.61,3.61,0,0,0,2.22.75,3.78,3.78,0,0,0,1.53-.33,3.43,3.43,0,0,0,2-3.09V3.47A3.49,3.49,0,0,0,78.19,0Z"/></svg>