<svg id="layout" xmlns="http://www.w3.org/2000/svg" viewBox="0 0 50.96 100"><defs><style>.cls-1{fill:#b3b3b3;}</style></defs><title>building_1</title><path class="cls-1" d="M51,100H0V0H51ZM6.57,13.9h7.92V6H6.57Zm15,0h7.92V6H21.53Zm14.93,0h7.92V6H36.47ZM6.59,27.73h7.92V19.82H6.59Zm15,0h7.92V19.82H21.55Zm14.93,0H44.4V19.82H36.48ZM6.59,42.21h7.92V34.29H6.59Zm15,0h7.92V34.29H21.55Zm14.93,0H44.4V34.29H36.48ZM6.59,56.26h7.92V48.34H6.59Zm15,0h7.92V48.34H21.55Zm14.93,0H44.4V48.34H36.48ZM6.59,69.67h7.92V61.76H6.59Zm15,0h7.92V61.76H21.55Zm14.93,0H44.4V61.76H36.48ZM17,96.93H34V75.17H17Z"/></svg>