<svg id="layout" xmlns="http://www.w3.org/2000/svg" viewBox="0 0 88.53 30"><defs><style>.cls-1{fill:#22b573;opacity:0.3;}.cls-2{fill:#fff;}</style></defs><title>business_1</title><polygon class="cls-1" points="88.53 0 0 0 0 30 88.53 30 88.53 22.19 81.58 15 88.53 7.42 88.53 0"/><path class="cls-2" d="M6.76,20.52v-12h5.33q4.12,0,4.12,2.94,0,2.09-2.49,2.68,3,.6,3,3.18,0,3.19-4,3.19Zm3.48-6.78h1.07q1.49,0,1.49-2.2,0-2-1.57-2h-1Zm0,5.78h1q2,0,2-2.23,0-2.56-2-2.56h-.93Z"/><path class="cls-2" d="M26.34,11.43v9.09H23.13V19.1a3.35,3.35,0,0,1-2.85,1.58,2,2,0,0,1-2.35-2.29V11.66q1.62-.07,3.21-.23v6.89q0,.9.54.9,1.44,0,1.44-3.09V11.66Q24.74,11.59,26.34,11.43Z"/><path class="cls-2" d="M35.06,13.94l-1.56.27q0-2-1.85-2-1.13,0-1.13.93,0,.69,2,1.48,3,1.22,3,3.1,0,3-3.81,3-4,0-4-3l1.65-.33a4.54,4.54,0,0,0,0,.54,1.75,1.75,0,0,0,.65,1.34,2.23,2.23,0,0,0,1.53.57q1.16,0,1.16-1,0-.66-1.87-1.46-2.82-1.21-2.82-3.11A2.47,2.47,0,0,1,29,12.24a4.53,4.53,0,0,1,2.78-.8Q34.76,11.44,35.06,13.94Z"/><path class="cls-2" d="M36.76,20.52V11.67A23.33,23.33,0,0,0,40,11.43v9.09Zm1.63-12.3q1.49,0,1.49,1.16t-1.49,1.16q-1.49,0-1.49-1.16T38.39,8.22Z"/><path class="cls-2" d="M50.16,20.52H46.95V14q0-1-.55-1t-1,.79A4,4,0,0,0,45,15.67v4.85H41.8V11.64A22.92,22.92,0,0,0,45,11.42v1.66a3.52,3.52,0,0,1,2.92-1.65,2,2,0,0,1,2.23,2.27Z"/><path class="cls-2" d="M58.3,17.28l1.29.38q-.2,3.07-3.62,3.07-4.43,0-4.43-4.42a5.2,5.2,0,0,1,1.18-3.52,3.8,3.8,0,0,1,3-1.37q3.84,0,3.84,5H54.9q0,3.48,1.77,3.48t1.65-2Q58.32,17.62,58.3,17.28Zm-3.41-1.9h1.92q0-3.09-.93-3.09t-.95,2.29Z"/><path class="cls-2" d="M67.87,13.94l-1.56.27q0-2-1.85-2-1.13,0-1.13.93,0,.69,2,1.48,3,1.22,3,3.1,0,3-3.81,3-4,0-4-3l1.65-.33a4.54,4.54,0,0,0,0,.54,1.75,1.75,0,0,0,.65,1.34,2.23,2.23,0,0,0,1.53.57q1.16,0,1.16-1,0-.66-1.87-1.46-2.82-1.21-2.82-3.11a2.47,2.47,0,0,1,1.08-2.06,4.53,4.53,0,0,1,2.78-.8Q67.57,11.44,67.87,13.94Z"/><path class="cls-2" d="M76.45,13.94l-1.56.27q0-2-1.85-2-1.13,0-1.13.93,0,.69,2,1.48,3,1.22,3,3.1,0,3-3.81,3-4,0-4-3l1.65-.33a4.54,4.54,0,0,0,0,.54,1.75,1.75,0,0,0,.65,1.34,2.23,2.23,0,0,0,1.53.57q1.16,0,1.16-1,0-.66-1.87-1.46-2.82-1.21-2.82-3.11a2.47,2.47,0,0,1,1.08-2.06,4.53,4.53,0,0,1,2.78-.8Q76.15,11.44,76.45,13.94Z"/></svg>