<svg id="layout" xmlns="http://www.w3.org/2000/svg" viewBox="0 0 62.13 30"><defs><style>.cls-1{fill:#3fa9f5;fill-opacity:0.3;}.cls-2{fill:#fff;}</style></defs><title>club_1</title><polygon class="cls-1" points="62.13 0 0 0 0 30 62.13 30 62.13 22.19 54.35 15 62.13 7.42 62.13 0"/><path class="cls-2" d="M18.26,16.33l1.65.43q0,.51,0,.88a3.83,3.83,0,0,1-1.41,3.11,5.74,5.74,0,0,1-3.77,1.16q-5.93,0-5.93-6.67a7.5,7.5,0,0,1,1.73-5.14,5.71,5.71,0,0,1,4.5-2q4.33,0,4.33,4.16l-1.66.76q0-.59,0-.91,0-3-2.36-3t-2.5,6.26q0,5.38,2.79,5.38a2.4,2.4,0,0,0,1.92-.92,3.46,3.46,0,0,0,.77-2.3A9.82,9.82,0,0,0,18.26,16.33Z"/><path class="cls-2" d="M24.79,8.15V21.68H21.22V8.34Q22.7,8.34,24.79,8.15Z"/><path class="cls-2" d="M36.11,11.58v10.1H32.54V20.11a3.72,3.72,0,0,1-3.17,1.76,2.28,2.28,0,0,1-2.61-2.54v-7.5q1.8-.08,3.57-.25v7.66q0,1,.61,1,1.6,0,1.6-3.44v-5Q34.33,11.75,36.11,11.58Z"/><path class="cls-2" d="M38.08,21.68V8.34q.87,0,3.57-.21v4.74a2.81,2.81,0,0,1,2.22-1.3q3.5,0,3.5,4.85,0,5.47-4.16,5.47a4.09,4.09,0,0,1-3.35-1.85L39,21.68ZM42.76,13q-1.18,0-1.18,3.42,0,4,1.15,4t1-2.1l.06-2.41-.07-1.36Q43.57,13,42.76,13Z"/></svg>