<svg xmlns="http://www.w3.org/2000/svg" viewBox="0 0 100 100"><defs><style>.cls-1{fill:#b3b3b3;}</style></defs><title>Asset 43</title><g id="Layer_2" data-name="Layer 2"><g id="layout"><path class="cls-1" d="M50,31.32A18.68,18.68,0,1,0,68.68,50,18.68,18.68,0,0,0,50,31.32Z"/><path class="cls-1" d="M86.35,46.67a36.44,36.44,0,0,0-33-33V0H46.67V13.68a36.44,36.44,0,0,0-33,33H0v6.67H13.65a36.46,36.46,0,0,0,33,33V100h6.67V86.33a36.46,36.46,0,0,0,33-33H100V46.67ZM50,80A30,30,0,1,1,80,50,30,30,0,0,1,50,80Z"/></g></g></svg>