<svg id="layout" xmlns="http://www.w3.org/2000/svg" viewBox="0 0 99.57 100"><defs><style>.cls-1{fill:#4d4d4d;}</style></defs><title>user_1</title><path class="cls-1" d="M99.19,99.29a2.38,2.38,0,0,1-1.7.71H2.25a2.38,2.38,0,0,1-1.69-.71,2.41,2.41,0,0,1-.69-1.71c0-1.2.35-11.88,6-17.52,2.6-2.6,8.05-5.42,16.06-9.43,8.55-4.27,13.29-6.82,15.48-8.88l4.82-4.56L38,52.05C31.43,44,27.65,35,27.65,27.51c0-5.78,0-12.33,2.73-17.75C33.66,3.29,40.21,0,49.87,0S66.08,3.29,69.36,9.76c2.73,5.42,2.73,12,2.73,17.75,0,7.49-3.78,16.44-10.38,24.54L57.52,57.2l4.82,4.56c2.18,2.06,6.92,4.61,15.47,8.88,8,4,13.46,6.83,16.06,9.43,4.59,4.59,5.92,13.17,6,17.52A2.38,2.38,0,0,1,99.19,99.29Z"/></svg>