<svg xmlns="http://www.w3.org/2000/svg" viewBox="0 0 297.43 67.34"><defs><style>.cls-1{fill:#ff6969;}</style></defs><title>kunvet-career-guide-logo</title><g id="Layer_2" data-name="Layer 2"><g id="design"><path class="cls-1" d="M222.11,60.86l-17.18,6.48-17.27-6.48V0h34.45Zm-25-46.25V52.27H211.8v-5l-9.61.07V37.58h8.05v-5h-8.05V19.45h9.61V14.61Z"/><path class="cls-1" d="M259.77,57l-17.19,6.49L225.32,57V0h34.45Zm-25.39-8.67A19.58,19.58,0,0,0,243,47.23a11.5,11.5,0,0,0,5.08-3.87,14,14,0,0,0,2.38-5.86,35.76,35.76,0,0,0,.51-7q-.08-2.26-.15-4.65a25.5,25.5,0,0,0-.59-4.65,19,19,0,0,0-1.52-4.29,10,10,0,0,0-2.82-3.44,12.57,12.57,0,0,0-4.61-2.15,22.24,22.24,0,0,0-6.87-.51Zm4.53-32.5c.16,0,.13-.09-.08-.12s-.18,0,.08,0a5.31,5.31,0,0,1,3.05.66,6.27,6.27,0,0,1,2.07,2,10.22,10.22,0,0,1,1.25,3,26.41,26.41,0,0,1,.62,3.36c.13,1.12.21,2.21.24,3.28s0,2,0,2.77c-.06,1.41-.15,2.85-.28,4.34a13.7,13.7,0,0,1-.93,4,7.65,7.65,0,0,1-2.15,3,5.94,5.94,0,0,1-3.91,1.17Z"/><path class="cls-1" d="M297.43,57l-17.19,6.49L263,57V0h34.46ZM280.16,43.52a2.7,2.7,0,0,1-2-1A7,7,0,0,1,277,40.08a19.83,19.83,0,0,1-.71-3.24c-.15-1.18-.26-2.31-.31-3.4q-.31-5.86-.19-11.53T276,10.63h-4.77q-.08,6.24-.15,12.1t.15,11c.11,1.72.28,3.45.51,5.2A17.8,17.8,0,0,0,273,43.63a8.61,8.61,0,0,0,2.58,3.4A6.88,6.88,0,0,0,280,48.36,7.51,7.51,0,0,0,284.73,47a9.2,9.2,0,0,0,2.74-3.55,16.31,16.31,0,0,0,1.28-4.85c.21-1.77.37-3.54.47-5.31q.16-4.53.12-10.62t-.19-12h-4.69q.07,5.92.23,11.36c.11,3.62.05,7.28-.15,11-.06,1.15-.16,2.34-.32,3.59a20.69,20.69,0,0,1-.7,3.44,7.43,7.43,0,0,1-1.29,2.58A2.35,2.35,0,0,1,280.16,43.52Z"/><path d="M25.8,51.52,2,26.5v25H0v-45H2V22.84L20.76,6.52h2.82l-21.06,18,25.92,27Z"/><path d="M37.35,49.06q-3.09-3.12-3.09-8.82V24.52h1.92V40.24q0,4.92,2.61,7.59t7.35,2.67a11,11,0,0,0,5.28-1.29,9.56,9.56,0,0,0,3.78-3.63,10.31,10.31,0,0,0,1.38-5.34V24.52H58.5v27H56.58v-5a10.62,10.62,0,0,1-4.14,4.11,12.49,12.49,0,0,1-6.3,1.59Q40.44,52.18,37.35,49.06Z"/><path d="M68.46,24.52h1.92v6a10.36,10.36,0,0,1,4.5-4.83,13.82,13.82,0,0,1,7-1.83A10.22,10.22,0,0,1,89.79,27q2.91,3.15,2.91,8.79V51.52H90.78V35.8q0-4.86-2.37-7.56a8.36,8.36,0,0,0-6.63-2.7A11.86,11.86,0,0,0,76.05,27a10.86,10.86,0,0,0-4.14,3.87,10.35,10.35,0,0,0-1.53,5.58V51.52H68.46Z"/><path d="M125.16,24.52,111.9,52.3,98.58,24.52h2.1l11.22,23.4,11.16-23.4Z"/><path d="M149.52,48.94a13.78,13.78,0,0,0,4.68-4.44v3.06a13.75,13.75,0,0,1-4.86,3.57,15.36,15.36,0,0,1-6,1.11,13.27,13.27,0,0,1-7-2A15,15,0,0,1,131.13,45a13.58,13.58,0,0,1-1.95-7,13.81,13.81,0,0,1,1.92-7.23,13.46,13.46,0,0,1,5.25-5,15.33,15.33,0,0,1,7.41-1.8,13.71,13.71,0,0,1,10.62,4.92l-18.84,18.6a15.06,15.06,0,0,0,3.84,2.37,11.15,11.15,0,0,0,4.2.75A11.75,11.75,0,0,0,149.52,48.94ZM134.4,46.3,152,28.84a13.71,13.71,0,0,0-3.84-2.49,11.85,11.85,0,0,0-4.44-.75,13.13,13.13,0,0,0-6.51,1.59,11.68,11.68,0,0,0-4.47,4.35,12.09,12.09,0,0,0-1.62,6.24A12.05,12.05,0,0,0,134.4,46.3Z"/><path d="M165.09,49.18a9.65,9.65,0,0,1-2.91-7.44V13.66h1.92V24.52h8.28V26.2H164.1V41.74A8.15,8.15,0,0,0,166.47,48a8.33,8.33,0,0,0,6,2.25v1.68A10.39,10.39,0,0,1,165.09,49.18Z"/></g></g></svg>