<svg xmlns="http://www.w3.org/2000/svg" viewBox="0 0 140.39 21.5"><title>kunvet blog logo</title><g id="Layer_2" data-name="Layer 2"><g id="design"><path d="M10.81,21l-9-10a2.29,2.29,0,0,1-.35-.49H1.45V21H0V0H1.45V9.9h.06a2.6,2.6,0,0,1,.38-.51L10.39,0h1.89L3.06,10.18,12.85,21Z"/><path d="M25.42,21V18.28h-.06a5.13,5.13,0,0,1-4.84,3.09q-5.31,0-5.31-6.69V6h1.36v8.33a7.59,7.59,0,0,0,1,4.42,3.64,3.64,0,0,0,3.16,1.38,4.22,4.22,0,0,0,3.39-1.54,6.16,6.16,0,0,0,1.3-4.1V6h1.34V21Z"/><path d="M41.76,21V12.28q0-5.41-3.89-5.41a4.5,4.5,0,0,0-3.56,1.59,5.74,5.74,0,0,0-1.39,3.93V21H31.57V6h1.35V8.73h0A5.44,5.44,0,0,1,38.1,5.64a4.48,4.48,0,0,1,3.72,1.62,7.26,7.26,0,0,1,1.29,4.62V21Z"/><path d="M52.54,21H51.31L45.51,6H47l4.47,11.93a9.37,9.37,0,0,1,.45,1.57H52A9.15,9.15,0,0,1,52.43,18L57,6h1.47Z"/><path d="M61.54,13.56A7.37,7.37,0,0,0,63,18.4a4.78,4.78,0,0,0,3.91,1.74,8,8,0,0,0,4.93-1.86v1.44a8.81,8.81,0,0,1-5.2,1.65,5.87,5.87,0,0,1-4.69-2.08,8.73,8.73,0,0,1-1.79-5.87A8.34,8.34,0,0,1,62,7.89a6,6,0,0,1,4.86-2.25,5.07,5.07,0,0,1,4.29,2A8.7,8.7,0,0,1,72.64,13v.6Zm9.7-1.23a6.63,6.63,0,0,0-1.25-4A3.87,3.87,0,0,0,66.8,6.87a4.71,4.71,0,0,0-3.5,1.41,6.81,6.81,0,0,0-1.7,4.05Z"/><path d="M82.29,20.8a4.66,4.66,0,0,1-2,.5q-3.33,0-3.33-4V7.24H74.3V6H77V2.11c.22-.08.44-.16.68-.23l.67-.22V6h4V7.24h-4v9.9a4,4,0,0,0,.49,2.25,1.9,1.9,0,0,0,1.66.69,3.7,3.7,0,0,0,1.8-.54Z"/><path d="M106.63,8.79v4.45h-3.88a2,2,0,0,0-1.12.24.89.89,0,0,0-.33.79.9.9,0,0,0,.33.83,3.23,3.23,0,0,0,1.38.19h4V21h-4.67a7.27,7.27,0,0,1-5-1.58,5.78,5.78,0,0,1-1.75-4.55V7.05A5.89,5.89,0,0,1,97.2,2.59,6.46,6.46,0,0,1,101.84,1H107V6.75h-3.8c-1,0-1.53.33-1.53,1a.88.88,0,0,0,.36.81,2.7,2.7,0,0,0,1.31.23Z"/><path d="M119,1h5.47V13.18a8.27,8.27,0,0,1-1.75,5.47,7.26,7.26,0,0,1-2.57,1.93,7.81,7.81,0,0,1-8.71-1.48,7.22,7.22,0,0,1-2.24-5.39,7.38,7.38,0,0,1,2.22-5.35,7.18,7.18,0,0,1,5.28-2.25c.32,0,.81,0,1.46.09v6a2.2,2.2,0,0,0-1.35-.53,1.94,1.94,0,0,0-1.45.63,2,2,0,0,0-.61,1.5,2,2,0,0,0,.63,1.46,2.11,2.11,0,0,0,1.51.6c1.4,0,2.11-1,2.11-2.91Z"/><path d="M127.37,6.61h5.48v8.24c0,.83.35,1.25,1,1.25s1-.42,1-1.25V6.61h5.48v8.14a6.63,6.63,0,0,1-1.89,4.8,6.58,6.58,0,0,1-9.65-.32,7.43,7.43,0,0,1-1.48-4.92Z"/></g></g></svg>