<svg xmlns="http://www.w3.org/2000/svg" viewBox="0 0 123.5 140"><defs><style>.cls-1{fill:#dcbeff;}.cls-2{fill:#e0ebfc;}.cls-3{fill:#3762cc;}.cls-4{fill:#6bdddd;}.cls-5{fill:#ffc624;}.cls-6{fill:#4671c6;}.cls-7{fill:#ffc622;}.cls-8{fill:#fff;}.cls-9{fill:#dcdcff;}</style></defs><title>night owl</title><g id="Layer_2" data-name="Layer 2"><g id="design"><path class="cls-1" d="M96.76,68.65c0-22.31-15.68-40.39-35-40.39s-35,18.08-35,40.39S42.42,109,61.75,109,96.76,91,96.76,68.65Z"/><path class="cls-1" d="M61.75,28.26C45,28.26,30.94,41.9,27.54,60.09,30.92,73.78,45,84,61.75,84S92.58,73.78,96,60.09C92.56,41.9,78.54,28.26,61.75,28.26Z"/><path class="cls-2" d="M61.75,109a31.19,31.19,0,0,0,16.4-4.7c5.47-6.81,8.95-16.94,8.95-28.25,0-.48,0-1,0-1.44a37.58,37.58,0,0,1-25.33,9.41,37.61,37.61,0,0,1-25.32-9.41q0,.72,0,1.44c0,11.31,3.48,21.44,9,28.25A31.22,31.22,0,0,0,61.75,109Z"/><path class="cls-3" d="M61.75,110.17c-19.93,0-36.14-18.63-36.14-41.52S41.82,27.13,61.75,27.13,97.9,45.75,97.9,68.65,81.68,110.17,61.75,110.17Zm0-80.77C43.08,29.4,27.88,47,27.88,68.65s15.2,39.25,33.87,39.25S95.62,90.29,95.62,68.65,80.43,29.4,61.75,29.4Z"/><path class="cls-4" d="M21.75,121.79h80a2,2,0,0,1,2,2v13.07a2,2,0,0,1-2,2h-80a2,2,0,0,1-2-2V123.79A2,2,0,0,1,21.75,121.79Z"/><path class="cls-5" d="M98.32,138.86H92.44V121.79h5.88Z"/><path class="cls-3" d="M101.75,140h-80a3.15,3.15,0,0,1-3.14-3.14V123.79a3.15,3.15,0,0,1,3.14-3.14h80a3.15,3.15,0,0,1,3.15,3.14v13.07A3.15,3.15,0,0,1,101.75,140Zm-80-17.07a.86.86,0,0,0-.87.86v13.07a.86.86,0,0,0,.87.86h80a.86.86,0,0,0,.87-.86V123.79a.86.86,0,0,0-.87-.86Z"/><path class="cls-2" d="M33.07,127.69H83.83a1.67,1.67,0,0,1,1.67,1.67v1.93A1.67,1.67,0,0,1,83.83,133H33.07a1.67,1.67,0,0,1-1.67-1.67v-1.93A1.67,1.67,0,0,1,33.07,127.69Z"/><path class="cls-6" d="M39.65,121.73c-.24,0-.47,0-.7,0H38c-4.91,0-8.91-4.27-8.91-9.53s4-9.53,8.91-9.53H92a2.3,2.3,0,1,1,0,4.6H38.56a5,5,0,0,0,0,9.88H92a2.3,2.3,0,1,1,0,4.6Z"/><path class="cls-3" d="M92,122.87H39.65l-.74,0H38c-5.54,0-10-4.79-10-10.67s4.51-10.67,10-10.67H92a3.44,3.44,0,1,1,0,6.88H38.56a3.81,3.81,0,0,0,0,7.6H92a3.44,3.44,0,1,1,0,6.88Zm-53-2.3H39l.63,0H92a1.17,1.17,0,1,0,0-2.33H38.56a6.09,6.09,0,0,1,0-12.16H92a1.17,1.17,0,1,0,0-2.32H38c-4.29,0-7.77,3.76-7.77,8.39s3.48,8.39,7.77,8.39Z"/><path class="cls-2" d="M38.56,107.25a5,5,0,0,0,0,9.88h51.8v-9.88Z"/><path class="cls-3" d="M90.36,118.27H38.56a6.09,6.09,0,0,1,0-12.16h51.8a1.14,1.14,0,0,1,1.13,1.14v9.88A1.14,1.14,0,0,1,90.36,118.27Zm-51.8-9.88a3.81,3.81,0,0,0,0,7.6H89.22v-7.6Z"/><path class="cls-7" d="M99.82,37.2V17.33a1.68,1.68,0,1,0-3.36,0V37.2a3.41,3.41,0,0,0-1.74,3v5.41a.84.84,0,0,0,.83.84h5.18a.85.85,0,0,0,.84-.84V40.18A3.42,3.42,0,0,0,99.82,37.2Z"/><path class="cls-7" d="M61.75,51.9H54.41v3.21a18.27,18.27,0,0,0,3.2,10.38l1.77,2.57a2.84,2.84,0,0,0,4.74,0l1.78-2.57a18.33,18.33,0,0,0,3.19-10.38V51.9Z"/><path class="cls-2" d="M61.75,49.92A16.38,16.38,0,1,1,45.37,33.55,16.38,16.38,0,0,1,61.75,49.92Z"/><path class="cls-8" d="M54.11,49.92a8.74,8.74,0,1,1-8.74-8.73A8.74,8.74,0,0,1,54.11,49.92Z"/><path class="cls-6" d="M50.77,49.92a5.4,5.4,0,1,1-5.4-5.39A5.4,5.4,0,0,1,50.77,49.92Z"/><path class="cls-2" d="M94.5,49.92A16.38,16.38,0,1,1,78.13,33.55,16.37,16.37,0,0,1,94.5,49.92Z"/><path class="cls-8" d="M86.86,49.92a8.74,8.74,0,1,1-8.73-8.73A8.73,8.73,0,0,1,86.86,49.92Z"/><path class="cls-6" d="M83.52,49.92a5.4,5.4,0,1,1-5.39-5.39A5.39,5.39,0,0,1,83.52,49.92Z"/><path class="cls-2" d="M49.8,48.43a2.37,2.37,0,1,1-2.37-2.37A2.37,2.37,0,0,1,49.8,48.43Z"/><path class="cls-2" d="M82.55,48.43a2.37,2.37,0,1,1-2.36-2.37A2.36,2.36,0,0,1,82.55,48.43Z"/><path class="cls-3" d="M45.37,67.44A17.52,17.52,0,1,1,62.89,49.92,17.54,17.54,0,0,1,45.37,67.44Zm0-32.75A15.24,15.24,0,1,0,60.61,49.92,15.24,15.24,0,0,0,45.37,34.69Z"/><path class="cls-3" d="M45.37,59.8a9.88,9.88,0,1,1,9.88-9.88A9.89,9.89,0,0,1,45.37,59.8Zm0-17.47A7.6,7.6,0,1,0,53,49.92,7.61,7.61,0,0,0,45.37,42.33Z"/><path class="cls-3" d="M78.13,67.44A17.52,17.52,0,1,1,95.64,49.92,17.54,17.54,0,0,1,78.13,67.44Zm0-32.75A15.24,15.24,0,1,0,93.37,49.92,15.25,15.25,0,0,0,78.13,34.69Z"/><path class="cls-3" d="M78.13,59.8A9.88,9.88,0,1,1,88,49.92,9.89,9.89,0,0,1,78.13,59.8Zm0-17.47a7.6,7.6,0,1,0,7.59,7.59A7.61,7.61,0,0,0,78.13,42.33Z"/><path class="cls-3" d="M61.75,70.47a4,4,0,0,1-3.31-1.77l-1.77-2.57a18.91,18.91,0,0,1-1.78-3.24,1.14,1.14,0,0,1,.31-1.32,15.17,15.17,0,0,0,5.3-9.81,1.14,1.14,0,0,1,1.13-1h.24a1.13,1.13,0,0,1,1.13,1,15.21,15.21,0,0,0,5.3,9.81,1.12,1.12,0,0,1,.31,1.32,18.91,18.91,0,0,1-1.78,3.24L65.06,68.7A4,4,0,0,1,61.75,70.47Zm-4.43-7.74a17.14,17.14,0,0,0,1.22,2.11l1.78,2.57a1.72,1.72,0,0,0,1.43.79,1.75,1.75,0,0,0,1.44-.79L65,64.84a17.14,17.14,0,0,0,1.22-2.11,17.45,17.45,0,0,1-4.43-6.59A17.45,17.45,0,0,1,57.32,62.73Z"/><path class="cls-6" d="M80.62,20.62c-4.64-.91-22-3.78-39.33,0-.69.15-1.14.53-1.14.94V30.9c0,.43.48.81,1.2,1,4.64.9,22,3.78,39.34,0,.68-.14,1.13-.52,1.13-.93V21.56C81.82,21.14,81.34,20.76,80.62,20.62Z"/><path class="cls-3" d="M61.85,34.89A112,112,0,0,1,41.14,33C39.85,32.71,39,31.9,39,30.9V21.56a2.26,2.26,0,0,1,2-2.06c17.44-3.8,34.87-1,39.79,0,1.29.25,2.12,1.06,2.12,2.06V30.9a2.27,2.27,0,0,1-2,2.07A90.64,90.64,0,0,1,61.85,34.89ZM41.29,30.65a2,2,0,0,0,.28.08c4.82.94,21.85,3.72,38.87,0a1.46,1.46,0,0,0,.24-.07V21.82a1,1,0,0,0-.28-.08c-4.81-.94-21.85-3.73-38.87,0a1.67,1.67,0,0,0-.24.08Zm39.5-8.77h0Z"/><path class="cls-1" d="M90.75,39.66h-25A12.22,12.22,0,0,1,78,27.44h22.77a1.11,1.11,0,0,1,1.11,1.11A11.11,11.11,0,0,1,90.75,39.66Z"/><path class="cls-2" d="M69.81,36.27A8.86,8.86,0,0,1,78,30.82H98.13a7.72,7.72,0,0,1-7.38,5.45Z"/><path class="cls-1" d="M32.76,39.66h25A12.21,12.21,0,0,0,45.53,27.44H22.76a1.11,1.11,0,0,0-1.11,1.11A11.11,11.11,0,0,0,32.76,39.66Z"/><path class="cls-2" d="M32.76,36.27a7.75,7.75,0,0,1-7.39-5.45H45.53a8.86,8.86,0,0,1,8.16,5.45Z"/><path class="cls-3" d="M90.75,40.79h-25a1.14,1.14,0,0,1-1.14-1.13A13.37,13.37,0,0,1,78,26.3h22.77A2.25,2.25,0,0,1,103,28.55,12.25,12.25,0,0,1,90.75,40.79ZM67,38.52h23.8a10,10,0,0,0,10-10L78,28.58A11.09,11.09,0,0,0,67,38.52Z"/><path class="cls-3" d="M57.74,40.79h-25A12.26,12.26,0,0,1,20.51,28.55a2.25,2.25,0,0,1,2.25-2.25H45.53A13.37,13.37,0,0,1,58.88,39.66,1.14,1.14,0,0,1,57.74,40.79Zm-35-12.21a10,10,0,0,0,10,9.94H56.55a11.09,11.09,0,0,0-11-9.94Z"/><path class="cls-9" d="M42.52,108.51h-.61a5.14,5.14,0,0,1-5.14-5.14V95.59a5.14,5.14,0,0,1,5.14-5.14h.61a5.14,5.14,0,0,1,5.14,5.14v7.78A5.14,5.14,0,0,1,42.52,108.51Z"/><path class="cls-9" d="M81.73,108.51h-.62a5.19,5.19,0,0,1-5.19-5.19V95.63a5.18,5.18,0,0,1,5.19-5.18h.62a5.18,5.18,0,0,1,5.18,5.18v7.69A5.19,5.19,0,0,1,81.73,108.51Z"/><path class="cls-9" d="M88.68,108.65h-.45a3.73,3.73,0,0,1-3.74-3.74V99.36a3.73,3.73,0,0,1,3.74-3.74h.45a3.74,3.74,0,0,1,3.74,3.74v5.55A3.74,3.74,0,0,1,88.68,108.65Z"/><path class="cls-9" d="M34.87,108.65h.45A3.71,3.71,0,0,0,39,104.94V99.33a3.71,3.71,0,0,0-3.71-3.71h-.45a3.71,3.71,0,0,0-3.71,3.71v5.61A3.71,3.71,0,0,0,34.87,108.65Z"/><path class="cls-3" d="M42.52,109.65h-.61a6.29,6.29,0,0,1-6.28-6.28V95.59a6.29,6.29,0,0,1,6.28-6.28h.61a6.28,6.28,0,0,1,6.28,6.28v7.78A6.28,6.28,0,0,1,42.52,109.65Zm-.61-18.06a4,4,0,0,0-4,4v7.78a4,4,0,0,0,4,4h.61a4,4,0,0,0,4-4V95.59a4,4,0,0,0-4-4Z"/><path class="cls-3" d="M81.73,109.65h-.62a6.34,6.34,0,0,1-6.33-6.33V95.63a6.34,6.34,0,0,1,6.33-6.32h.62a6.33,6.33,0,0,1,6.32,6.32v7.69A6.34,6.34,0,0,1,81.73,109.65Zm-.62-18.06a4.05,4.05,0,0,0-4,4v7.69a4.06,4.06,0,0,0,4,4.05h.62a4.06,4.06,0,0,0,4-4.05V95.63a4.05,4.05,0,0,0-4-4Z"/><path class="cls-3" d="M88.48,109.79a5.14,5.14,0,0,1-4.18-2.09,1.13,1.13,0,0,1,.14-1.5,4.14,4.14,0,0,0,1.34-3V95.91a1.13,1.13,0,0,1,.71-1,5.16,5.16,0,0,1,1.94-.38h0a5,5,0,0,1,5.08,5v5.33A5,5,0,0,1,88.48,109.79Zm-1.7-2.8a2.82,2.82,0,0,0,1.65.53,2.78,2.78,0,0,0,2.85-2.72V99.47a2.76,2.76,0,0,0-2.8-2.71h0a2.42,2.42,0,0,0-.38,0v6.38A6.32,6.32,0,0,1,86.78,107Z"/><path class="cls-3" d="M35.12,109.79a5,5,0,0,1-5.09-5V99.47a5,5,0,0,1,5-5,5.14,5.14,0,0,1,2.18.47,1.15,1.15,0,0,1,.66,1v7.18a4.14,4.14,0,0,0,1.25,3,1.14,1.14,0,0,1,.14,1.45A5,5,0,0,1,35.12,109.79Zm0-13a2.76,2.76,0,0,0-2.82,2.71v5.33a2.74,2.74,0,0,0,2.77,2.71,2.89,2.89,0,0,0,1.78-.59,6.37,6.37,0,0,1-1.22-3.76V96.8A2.92,2.92,0,0,0,35.12,96.76Z"/><path class="cls-8" d="M10.7,36.92A24.92,24.92,0,0,1,.59,48.06a1.17,1.17,0,0,0,0,2A24.94,24.94,0,0,1,10.7,61.25a1.17,1.17,0,0,0,2.12,0A25,25,0,0,1,22.92,50.1a1.17,1.17,0,0,0,0-2,25,25,0,0,1-10.1-11.14A1.16,1.16,0,0,0,10.7,36.92Z"/><path class="cls-8" d="M114.39,93.81a17.72,17.72,0,0,1-7.18,7.92.84.84,0,0,0,0,1.45,17.67,17.67,0,0,1,7.18,7.92.83.83,0,0,0,1.51,0,17.67,17.67,0,0,1,7.18-7.92.84.84,0,0,0,0-1.45,17.72,17.72,0,0,1-7.18-7.92A.83.83,0,0,0,114.39,93.81Z"/><path class="cls-6" d="M97.88,15.45l-35-14a3.86,3.86,0,0,0-2.91,0l-35,14a2,2,0,0,0,0,3.72l15.07,5.59V21.55c0-.41.45-.79,1.14-.94,17.32-3.77,34.69-.9,39.33,0,.72.14,1.2.52,1.2.94V25.1l16-5.93A2,2,0,0,0,97.88,15.45Z"/><path class="cls-3" d="M81.82,26.24a1.1,1.1,0,0,1-.65-.21,1.12,1.12,0,0,1-.49-.93V21.82a1,1,0,0,0-.28-.08c-4.81-.94-21.85-3.73-38.87,0a1.67,1.67,0,0,0-.24.08v3a1.14,1.14,0,0,1-.48.93,1.15,1.15,0,0,1-1.05.13L24.68,20.24a3.14,3.14,0,0,1-.07-5.85l35-14a5.09,5.09,0,0,1,3.76,0l35,14a3.14,3.14,0,0,1-.07,5.84l-16,5.94A1.4,1.4,0,0,1,81.82,26.24Zm-21.7-8.66A112.45,112.45,0,0,1,80.84,19.5c1.29.26,2.12,1.06,2.12,2.06v1.9L97.43,18.1a.82.82,0,0,0,.54-.79.82.82,0,0,0-.52-.8l-35-14a2.75,2.75,0,0,0-2.07,0l-35,14a.84.84,0,0,0-.52.81.83.83,0,0,0,.54.79l13.55,5V21.57a2.26,2.26,0,0,1,2-2.07A89.83,89.83,0,0,1,60.12,17.58Z"/><path class="cls-7" d="M39.75,110.53v15.84a.57.57,0,0,0,1,.32l3.79-3.83a.62.62,0,0,1,.84,0l4.07,3.9a.57.57,0,0,0,1-.33V110.53Z"/></g></g></svg>