<svg xmlns="http://www.w3.org/2000/svg" viewBox="0 0 22.99 31.9"><defs><style>.cls-1{fill:#414042;}.cls-2{fill:#ffd2bb;}.cls-3{fill:#69f;}.cls-4{fill:#f99;}</style></defs><title>Asset 1</title><g id="Layer_2" data-name="Layer 2"><g id="design"><path class="cls-1" d="M22.94,29.77a1.92,1.92,0,0,1-.31,1.29,1.89,1.89,0,0,1-1.46.53c-4.2.21-8.44.31-12.67.31q-3.3,0-6.59-.08a2.06,2.06,0,0,1-1.63-.6A2,2,0,0,1,0,30l0-4a10.08,10.08,0,0,1,.44-3.45A5.47,5.47,0,0,1,3,19.57a2.83,2.83,0,0,1-.88-.4C1,18.42.74,17,.57,15.73A31.74,31.74,0,0,1,.2,9.55,10.56,10.56,0,0,1,2.29,3.68C3,2.82,4.79,0,11.76,0s9.1,3.05,9.94,4.38c1.44,2.3,1.39,5.05,1.19,8.15a15.68,15.68,0,0,1-.55,3.76,5.75,5.75,0,0,1-2,3,4.67,4.67,0,0,1,2.14,2.84,13.32,13.32,0,0,1,.4,3.65Z"/><path class="cls-2" d="M19.58,9.61l-.25-.08h0a1.26,1.26,0,0,1-.53-.23c-.33-.27-.29-.71-.25-1.14a1.33,1.33,0,0,0-.16-1.05.86.86,0,0,0-.69-.27l-.22,0a2.85,2.85,0,0,0-.76.26l-.21.09a6.15,6.15,0,0,1-4.38.11,6,6,0,0,1-1.55-.85,6,6,0,0,1-.7-.63,2.28,2.28,0,0,1-.22-.28h0a2.69,2.69,0,0,0-.2-.27l-.29-.35L9,5.42c0,.11,0,.22-.08.33v0c0,.19-.09.39-.16.59a5.41,5.41,0,0,1-.93,1.76A4.35,4.35,0,0,1,5,9.76l-.51,0h0a4.74,4.74,0,0,0-.94.12,1.31,1.31,0,0,0-1,.91A1.16,1.16,0,0,0,3.23,12a3.78,3.78,0,0,0,1.45.28l0,0a0,0,0,0,1,0,0c-.12.7.6,1.29,1,1.58a9.53,9.53,0,0,0,5.31,1.57A9,9,0,0,0,17.42,13l.11-.11a2.61,2.61,0,0,1,.7-.58A2.9,2.9,0,0,1,19,12a2.74,2.74,0,0,0,.85-.33,1.19,1.19,0,0,0,.51-1.1A1.23,1.23,0,0,0,19.58,9.61Z"/><path class="cls-2" d="M14.64,15.78l0-.35-.34.12a9.41,9.41,0,0,1-2.54.52c-.23,0-.47,0-.71,0a10.35,10.35,0,0,1-2.59-.34l-.38-.1.09.37a2.14,2.14,0,0,1-.06,1.06l0,.12.07.09a4.09,4.09,0,0,0,3.16,1.58h0a4.12,4.12,0,0,0,3.43-1.73l0-.18A4,4,0,0,1,14.64,15.78Z"/><path class="cls-3" d="M4,31.15l-.06-5.33a.31.31,0,0,0-.3-.29.3.3,0,0,0-.29.29l.06,5.32-1.3,0c-.43,0-.91-.05-1.13-.37a1.58,1.58,0,0,1-.16-.89l0-4a10.13,10.13,0,0,1,.38-3.25,4.53,4.53,0,0,1,2.93-3,.26.26,0,0,0,.11-.07l.61-.06a4.55,4.55,0,0,0,2.56-1.14l.18-.2a4.45,4.45,0,0,0,0,1.78,1.88,1.88,0,0,0,1.75,1.51,1.8,1.8,0,0,0,1.31-.87.08.08,0,0,1,0,0l.23,10.64C8.59,31.2,6.29,31.19,4,31.15Z"/><path class="cls-3" d="M8.17,18a5.29,5.29,0,0,0,2.93,1.34,3.27,3.27,0,0,1-.48,1.12,1.45,1.45,0,0,1-1.07.67,1.54,1.54,0,0,1-1.43-1.18A4.15,4.15,0,0,1,8.17,18Z"/><path class="cls-3" d="M14.71,17.89a6.51,6.51,0,0,1-.16,1.65,2.43,2.43,0,0,1-1,1.46,1.51,1.51,0,0,1-1.59.08,2.19,2.19,0,0,1-.72-1.74A5.15,5.15,0,0,0,14.71,17.89Z"/><path class="cls-3" d="M21.76,22.15a13.07,13.07,0,0,1,.36,3.48l.05,4a1.51,1.51,0,0,1-.18.92,1.3,1.3,0,0,1-1,.32l-2.12.1.08-4.65a.31.31,0,0,0-.29-.3h0c-.15,0-.4.13-.4.28L18.17,31c-2.19.09-4.25.15-6.44.17L11.5,20.75a1.68,1.68,0,0,0,.49.57,1.52,1.52,0,0,0,.9.28A1.9,1.9,0,0,0,14,21.25a2.88,2.88,0,0,0,1-1.69,6.21,6.21,0,0,0,.15-1.35,3.44,3.44,0,0,0,1.24,1.27A3.22,3.22,0,0,0,18,19.9a3.74,3.74,0,0,0,1.71-.43.25.25,0,0,0,.12.11A4,4,0,0,1,21.76,22.15Z"/><path class="cls-4" d="M21.22,4.58c1.36,2.15,1.3,4.81,1.11,7.8A15.74,15.74,0,0,1,21.81,16a5,5,0,0,1-2,2.82,3.2,3.2,0,0,1-3.16.16,3.47,3.47,0,0,1-1.59-3.35.31.31,0,0,0-.06-.19,9,9,0,0,0,2.93-2l.12-.13a2.86,2.86,0,0,1,.65-.57,3.06,3.06,0,0,1,.72-.26,3,3,0,0,0,1-.4,1.64,1.64,0,0,0-.33-2.84l-.32-.11a1.09,1.09,0,0,1-.42-.18c-.21-.18-.19-.48-.15-1A1.87,1.87,0,0,0,19,6.55a1.33,1.33,0,0,0-1.27-.39,3.69,3.69,0,0,0-.88.32l-.21.09a5.74,5.74,0,0,1-4.33.11,5.81,5.81,0,0,1-1.53-.87,5.47,5.47,0,0,1-.7-.66,2.37,2.37,0,0,1-.2-.27,1.83,1.83,0,0,0-.44-.54.54.54,0,0,0-.48-.1c-.21.08-.26.29-.3.49l0,.11-.09.4c-.05.22-.09.42-.15.63a5.91,5.91,0,0,1-.93,1.82A4.11,4.11,0,0,1,4.66,9.35a4.71,4.71,0,0,1-.54.05,4.86,4.86,0,0,0-1.06.16,1.68,1.68,0,0,0-1.27,1.26,1.6,1.6,0,0,0,.91,1.56,3.56,3.56,0,0,0,1.37.32,2.44,2.44,0,0,0,1.24,1.75,9.53,9.53,0,0,0,2.38,1.21.14.14,0,0,0,0,.06,2,2,0,0,1-.6,2.21,4.3,4.3,0,0,1-2.39,1,3.28,3.28,0,0,1-2.37-.34c-.88-.62-1.11-1.84-1.26-3A30.07,30.07,0,0,1,.72,9.48a9.93,9.93,0,0,1,2-5.54A9.15,9.15,0,0,1,7.36,1,16.26,16.26,0,0,1,13,.64a14.6,14.6,0,0,1,4.64,1A7.92,7.92,0,0,1,21.22,4.58Z"/><path d="M3.71,10.68a.53.53,0,0,0-.6.11.09.09,0,0,0,0,.13.1.1,0,0,0,.14,0,.32.32,0,0,1,.36-.06.28.28,0,0,1,.16.19.41.41,0,0,0-.19,0,.43.43,0,0,0-.26.25.1.1,0,0,0,.06.13h0a.1.1,0,0,0,.09-.07.25.25,0,0,1,.14-.13.21.21,0,0,1,.19,0,.09.09,0,0,0,.1,0A.08.08,0,0,0,4,11.21.52.52,0,0,0,3.71,10.68Z"/><path d="M19,11.32h0a.11.11,0,0,0,.09-.05.6.6,0,0,1,.47-.22.12.12,0,0,0,0-.24h0a.84.84,0,0,0-.46.15.58.58,0,0,1,.12-.33.57.57,0,0,1,.51-.18.12.12,0,0,0,.13-.1.11.11,0,0,0-.1-.13.78.78,0,0,0-.86,1A.1.1,0,0,0,19,11.32Z"/></g></g></svg>