<svg xmlns="http://www.w3.org/2000/svg" viewBox="0 0 40.35 32.6"><defs><style>.cls-1{fill:#af7979;}.cls-2{fill:#ffd2bb;}.cls-3{fill:#f7b36f;}.cls-4{fill:#f9d889;}.cls-5{fill:#333;}.cls-6{fill:#5b5d6d;}.cls-7{fill:#d8deec;}.cls-8{fill:#288fc9;}.cls-9{fill:#fff;}.cls-10{fill:#ed6d66;}</style></defs><title>Asset 2</title><g id="Layer_2" data-name="Layer 2"><g id="design"><path class="cls-1" d="M37.28,7.78c-.11-.21-.25-.47-.36-.73s-.19-.47-.26-.68v0a7.94,7.94,0,0,0-.49-1.11,7.21,7.21,0,0,0-2.34-2.13,8.3,8.3,0,0,0-3.23-1.52,4.54,4.54,0,0,0-.65,0,11.31,11.31,0,0,0-1.88.22A11.19,11.19,0,0,1,26.14,2h-.27c-.28,0-.57-.06-.85-.1h0c-.3,0-.59-.09-.89-.1h-.17a2.21,2.21,0,0,0-1.47.45A3.15,3.15,0,0,0,21.66,4a5.68,5.68,0,0,1-.31,1.09,6,6,0,0,1-1.07,1.54h0a7.93,7.93,0,0,0-.7.88,4.94,4.94,0,0,0,.2,5.63h0l.11.15h.41a1.91,1.91,0,0,0,.5,0l.13,0,.06-.12a2.64,2.64,0,0,0,.12-1.25,3.25,3.25,0,0,1,0-.64A7.76,7.76,0,0,1,21.81,9a7.48,7.48,0,0,1,3.1-3.31,7.56,7.56,0,0,1,8.43.89,6.69,6.69,0,0,1,2.26,6.28l-.08.37.37,0a3,3,0,0,1,.59.14l.27.09.14-.24v0a4.52,4.52,0,0,0,.85-4.46A7.84,7.84,0,0,0,37.28,7.78Z"/><path class="cls-2" d="M35.59,13.41h-.18l0,0a.13.13,0,0,1,0-.06A6.45,6.45,0,0,0,33.27,6.7,7.52,7.52,0,0,0,28.43,5,7.21,7.21,0,0,0,25,5.83a7.59,7.59,0,0,0-3.73,5.4,4,4,0,0,0,0,.63c0,.57,0,1.22-.24,1.45a1.26,1.26,0,0,1-.7.12h-.2a1.3,1.3,0,0,0-.34,0,2.72,2.72,0,0,0-1.21.61A2.31,2.31,0,0,0,18,16.73a1.92,1.92,0,0,0,1.17.92,2.23,2.23,0,0,0,.5.07,1.53,1.53,0,0,0,.81-.23h.06a.06.06,0,0,1,0,.06,5.27,5.27,0,0,0,1.37,4.29,8.61,8.61,0,0,0,4,2.38,10.22,10.22,0,0,0,3,.48A7,7,0,0,0,32.18,24a4.94,4.94,0,0,0,2.73-5.3s0,0,0-.06l0,0h0a2.88,2.88,0,0,0,.59.06,2.68,2.68,0,0,0,2.11-1,2.62,2.62,0,0,0-2.09-4.23Z"/><path class="cls-2" d="M32.24,24.07a7.1,7.1,0,0,1-3.33.76,10.36,10.36,0,0,1-3.05-.48,10.79,10.79,0,0,1-1.79-.73l-.95-.49.49.95a5.57,5.57,0,0,0,4.84,3h.1a5.55,5.55,0,0,0,4.65-2.81l-.48-.45A5.5,5.5,0,0,1,32.24,24.07Z"/><path class="cls-3" d="M35.28,24.43l-.34-.25-.17.38a6.81,6.81,0,0,1-6.06,4h-.07a6.85,6.85,0,0,1-6.09-4.24l-.13-.34-.32.15a9.86,9.86,0,0,0-3.34,2.47,10,10,0,0,0-2.34,5l-.06.38h.38c5.19.16,10.46.24,15.67.24,2.36,0,4.74,0,7.08,0h.4l-.07-.38A11.22,11.22,0,0,0,35.28,24.43Z"/><path class="cls-4" d="M33.7,23.48l-.32-.15-.14.33a5.36,5.36,0,0,1-4.69,3.17h-.09a5.37,5.37,0,0,1-4.73-3l-.13-.26-.28.08c-.26.08-.53.18-.79.28l-.31.12.12.32a7.09,7.09,0,0,0,6.3,4.39h.08A7,7,0,0,0,35,24.57l.11-.26-.23-.16A12.55,12.55,0,0,0,33.7,23.48Z"/><path d="M20.44,15.09a1.32,1.32,0,0,0-1.05-.18.23.23,0,1,0,.12.44.87.87,0,0,1,.69.13.92.92,0,0,1,.25.23h0a1.38,1.38,0,0,0-1.1.55.24.24,0,0,0,.05.32.23.23,0,0,0,.14,0,.23.23,0,0,0,.18-.09.93.93,0,0,1,1-.31.23.23,0,0,0,.23,0,.27.27,0,0,0,.08-.22A1.32,1.32,0,0,0,20.44,15.09Z"/><path d="M35.11,17a.2.2,0,0,0,.11,0,.24.24,0,0,0,.14-.05,1.61,1.61,0,0,1,1.24-.29.23.23,0,1,0,.09-.45,2.13,2.13,0,0,0-1.17.12,2.38,2.38,0,0,1,.57-1,.48.48,0,0,1,.22-.16.09.09,0,0,1,.08,0,.23.23,0,1,0,.42-.18.54.54,0,0,0-.6-.28.9.9,0,0,0-.44.29A2.79,2.79,0,0,0,35,16.79.22.22,0,0,0,35.11,17Z"/><path class="cls-5" d="M40.34,32.1a11.75,11.75,0,0,0-6.32-9,5.26,5.26,0,0,0,1.43-4,3.08,3.08,0,0,0,2.87-4.53,3,3,0,0,0-1-1.1,5.05,5.05,0,0,0,.86-4.83,11.86,11.86,0,0,0-.5-1.08,7.77,7.77,0,0,1-.35-.71c-.09-.21-.17-.42-.25-.64A8.08,8.08,0,0,0,36.56,5a7.46,7.46,0,0,0-2.48-2.28,8.46,8.46,0,0,0-3.43-1.59A8.52,8.52,0,0,0,28,1.32a10.06,10.06,0,0,1-2.08.21c-.28,0-.55-.06-.84-.1a9.33,9.33,0,0,0-.94-.1,2.72,2.72,0,0,0-2,.56,3.43,3.43,0,0,0-.94,2,7,7,0,0,1-.29,1,5.74,5.74,0,0,1-1,1.42,11.7,11.7,0,0,0-.75.93,5.36,5.36,0,0,0,0,5.89,2.84,2.84,0,0,0-1,.58A2.75,2.75,0,0,0,17.58,17,2.35,2.35,0,0,0,19,18.09a2.27,2.27,0,0,0,1,.05,5.88,5.88,0,0,0,1.55,4,7.39,7.39,0,0,0,1.28,1.14,10.32,10.32,0,0,0-7,8.61.39.39,0,0,0,.1.31.36.36,0,0,0,.29.14c5.35.17,10.76.25,16.15.25,2.51,0,5,0,7.51-.05a.47.47,0,0,0,.3-.14A.39.39,0,0,0,40.34,32.1ZM23.42,24a5.68,5.68,0,0,0,5,3.21h.09a5.67,5.67,0,0,0,5-3.38,10,10,0,0,1,1.15.65,6.71,6.71,0,0,1-6.05,4,6.7,6.7,0,0,1-6-4.18A6.81,6.81,0,0,1,23.42,24Zm2.34.71a10.48,10.48,0,0,0,3.14.5,7.61,7.61,0,0,0,3.5-.8q.26-.14.51-.3a5.09,5.09,0,0,1-9-.15A11.52,11.52,0,0,0,25.76,24.67Zm-5.91-17a10.39,10.39,0,0,1,.69-.86,6.5,6.5,0,0,0,1.13-1.63A7.91,7.91,0,0,0,22,4.07a2.78,2.78,0,0,1,.69-1.58,2.06,2.06,0,0,1,1.4-.36,6.68,6.68,0,0,1,.86.1c.29,0,.6.08.91.1a10.57,10.57,0,0,0,2.26-.22,7.72,7.72,0,0,1,2.42-.18A8,8,0,0,1,33.63,3.4a6.83,6.83,0,0,1,2.23,2,7.07,7.07,0,0,1,.48,1.08q.12.34.27.69c.11.26.24.52.37.76a9.4,9.4,0,0,1,.45,1,4.17,4.17,0,0,1-.79,4.13.43.43,0,0,0,0,.07,2.6,2.6,0,0,0-.67-.15,7,7,0,0,0-2.36-6.62,7.94,7.94,0,0,0-8.82-.93A7.84,7.84,0,0,0,21.5,8.88a8.47,8.47,0,0,0-.72,2.29,3.91,3.91,0,0,0,0,.7,3.86,3.86,0,0,1-.07,1.07,2.48,2.48,0,0,1-.49,0h-.15v0A4.56,4.56,0,0,1,19.85,7.71Zm2.34,13.91a4.94,4.94,0,0,1-1.3-4,.38.38,0,0,0-.39-.46.54.54,0,0,0-.21.05,1.32,1.32,0,0,1-1,.12,1.55,1.55,0,0,1-1-.74,2,2,0,0,1,.48-2.26,2.36,2.36,0,0,1,1.06-.53,2,2,0,0,1,.37,0,1.59,1.59,0,0,0,1-.2c.39-.33.37-1,.36-1.72a5.12,5.12,0,0,1,0-.56,7.26,7.26,0,0,1,.65-2.06,7.08,7.08,0,0,1,2.91-3.11A7.21,7.21,0,0,1,33,7a6.11,6.11,0,0,1,2,6.27.4.4,0,0,0,.41.52,2.29,2.29,0,1,1-.38,4.5.39.39,0,0,0-.37.11.41.41,0,0,0-.11.38A4.61,4.61,0,0,1,32,23.66a8,8,0,0,1-6,.25A8.32,8.32,0,0,1,22.19,21.62Zm-5.43,9.94a9.48,9.48,0,0,1,5.48-7.16,7.17,7.17,0,0,0,6.4,4.46h.07a7.17,7.17,0,0,0,6.37-4.16,11,11,0,0,1,4.41,7.05C31.94,31.85,24.3,31.79,16.76,31.56Z"/><path class="cls-6" d="M21.21,8.23a3.36,3.36,0,0,1-.64-.93,3.35,3.35,0,0,1-.18-1.08c0-.13,0-.25,0-.37a5.9,5.9,0,0,0-3.62-4.62,9.61,9.61,0,0,0-4-.77A17.16,17.16,0,0,0,10.67.6,11.27,11.27,0,0,0,6.76,1.7,6.07,6.07,0,0,0,4,4.51c-.11.24-.19.48-.28.73l0,0a6.59,6.59,0,0,1-.49,1.17,6.61,6.61,0,0,1-1,1.15,8.87,8.87,0,0,0-.61.68,5.15,5.15,0,0,0,.52,7l0,0,.11.2.23,0a4.28,4.28,0,0,1,.52,0,2.73,2.73,0,0,0,1.25-.26A3.43,3.43,0,0,0,5.87,12.6a9.47,9.47,0,0,0-.76-4.06.07.07,0,0,1,0-.07H5.2a10.47,10.47,0,0,0,6.4,2.23h.22a10.28,10.28,0,0,0,3.4-.67A8.91,8.91,0,0,0,17,9a12,12,0,0,1,1.26-.76h0l.06,0c.15.27,0,.58-.29.93a1.05,1.05,0,0,0-.14.2A9.27,9.27,0,0,0,17.19,11,4.43,4.43,0,0,0,17,13.74a2.61,2.61,0,0,0,1.17,1.53.94.94,0,0,0,.82,0,4.52,4.52,0,0,1,1.65-.39,1.7,1.7,0,0,1,.4,0l.2,0,.13-.16a5.09,5.09,0,0,0,0-6.33Z"/><path class="cls-7" d="M12,28.86l.27.16q.47,1.14,1,2.37l.44,1,.74-3.85L13.09,27.2Z"/><path class="cls-7" d="M10.6,27.57l-.2-.47L9,28.51l.62,3.6,1.62-3.36-.1-.16A6.69,6.69,0,0,1,10.6,27.57Z"/><path class="cls-8" d="M15.92,24.08l-.42-.25L14,31.56l-.13.45,8.66,0-.2-.47A16.37,16.37,0,0,0,15.92,24.08Z"/><path class="cls-8" d="M7.64,24a15.62,15.62,0,0,0-6.48,7.66L1,32.08l8.52,0L8.07,23.71Z"/><path class="cls-9" d="M12.08,25.76l-.38,0-.39-.06A3.76,3.76,0,0,1,9,24.34l-.61.27.72,4.16,2.6-2.62,2.77,2.62,1-5.2-.83.93A3.83,3.83,0,0,1,12.08,25.76Z"/><path class="cls-2" d="M20.66,15a4.39,4.39,0,0,0-1.59.39,1.11,1.11,0,0,1-.43.09,1.07,1.07,0,0,1-.49-.12,2.69,2.69,0,0,1-1.24-1.61,4.58,4.58,0,0,1,.17-2.86,9.06,9.06,0,0,1,.7-1.47L17.3,9l-.2.13a9.38,9.38,0,0,1-1.84,1,10.46,10.46,0,0,1-3.44.67h-.21a10.66,10.66,0,0,1-5.5-1.57l-.77-.47.26.86a7.43,7.43,0,0,1,.4,3,3.56,3.56,0,0,1-1.69,2.72A2.88,2.88,0,0,1,3,15.6a1.81,1.81,0,0,0-1.63.65,1.79,1.79,0,0,0,0,2.14A1.8,1.8,0,0,0,2.8,19a1.66,1.66,0,0,0,.7-.15h0s0,0,0,0a9.11,9.11,0,0,0,8.3,5.31A8.42,8.42,0,0,0,13,24.14a7.09,7.09,0,0,0,4.16-1.92A4.86,4.86,0,0,0,18.6,18a.14.14,0,0,1,0-.06l.05,0h0a7.89,7.89,0,0,0,1,.08,2.94,2.94,0,0,0,1.36-.28,1.85,1.85,0,0,0,.89-1,1.21,1.21,0,0,0-.06-.94A1.31,1.31,0,0,0,20.66,15Z"/><path class="cls-2" d="M13,24.26a8.68,8.68,0,0,1-1.13.07,9.3,9.3,0,0,1-2.77-.42l-1-.32.65.85a4,4,0,0,0,3,1.56h.05a4,4,0,0,0,3.11-1.56l.66-.87-1,.35A8.53,8.53,0,0,1,13,24.26Z"/><path class="cls-10" d="M12.53,29l-.14-.35.87-1.32-1.61-1.52-1.41,1.42.08.21a7.32,7.32,0,0,0,.68,1.3L9.42,32l4.41,0-.22-.48C13.23,30.7,12.86,29.85,12.53,29Z"/><path class="cls-5" d="M23,32.24a.37.37,0,0,0,0-.37,16.72,16.72,0,0,0-6.94-8.24,6.47,6.47,0,0,0,1.43-1.08,5.48,5.48,0,0,0,1.63-4.12,3.87,3.87,0,0,0,2.17-.3,2.28,2.28,0,0,0,1.12-1.32A1.71,1.71,0,0,0,21.88,15a5.64,5.64,0,0,0-.08-6.76l-.24-.29A2.92,2.92,0,0,1,21,7.13a3,3,0,0,1-.14-.93c0-.13,0-.26,0-.39a6.34,6.34,0,0,0-3.9-5A11.66,11.66,0,0,0,10.61.14,11.85,11.85,0,0,0,6.55,1.29a6.55,6.55,0,0,0-3,3c-.11.26-.21.54-.3.8a6.38,6.38,0,0,1-.46,1.09,6.25,6.25,0,0,1-.88,1.07c-.22.23-.44.46-.64.71a5.64,5.64,0,0,0,.35,7.44A1.85,1.85,0,0,0,1,16a2.27,2.27,0,0,0,.06,2.7,2.3,2.3,0,0,0,2.26.74,9.65,9.65,0,0,0,3.89,4l.19.11A16.13,16.13,0,0,0,.52,32a.38.38,0,0,0,0,.37.41.41,0,0,0,.33.16h0l21.73-.12A.39.39,0,0,0,23,32.24ZM12.58,28.85a.24.24,0,0,0-.09-.11l.66-1,1,.9-.5,2.61C13.25,30.45,12.9,29.65,12.58,28.85Zm-.77.1a.73.73,0,0,1-.12.14s0,0-.15-.14a6.86,6.86,0,0,1-.9-1.61l1-1,1.16,1.1ZM10.29,27.7a7.42,7.42,0,0,0,.57,1.08L9.78,31l-.4-2.39Zm1.49-2A3.66,3.66,0,0,1,9,24.23a9.66,9.66,0,0,0,2.87.44,9.18,9.18,0,0,0,1.17-.07,8.48,8.48,0,0,0,1.62-.36,3.68,3.68,0,0,1-2.84,1.42Zm-.52.41-2,2-.6-3.52A4.18,4.18,0,0,0,11.26,26.07Zm-.1,3.14,0,0a.68.68,0,0,0,.51.31h0a.69.69,0,0,0,.46-.34l0,0c.35.84.71,1.69,1.09,2.51l-3.34,0Zm3.05-1.11-2.11-2a4.15,4.15,0,0,0,2.76-1.37Zm-11.86-13A4.83,4.83,0,0,1,1.86,8.5c.18-.22.38-.43.59-.65a6.64,6.64,0,0,0,1-1.22A6.86,6.86,0,0,0,4,5.4c.09-.26.18-.51.29-.75A5.69,5.69,0,0,1,6.92,2,11.09,11.09,0,0,1,10.71.94a10.93,10.93,0,0,1,5.9.6A5.55,5.55,0,0,1,20,5.88c0,.12,0,.24,0,.36a3.48,3.48,0,0,0,.2,1.18,3.6,3.6,0,0,0,.7,1l.23.27a4.76,4.76,0,0,1-.05,5.89,4,4,0,0,0-2.24.38.7.7,0,0,1-.55,0,2.34,2.34,0,0,1-1-1.33,4,4,0,0,1,.16-2.57,9.41,9.41,0,0,1,.72-1.49l.13-.18c.23-.32.57-.8.3-1.28A.39.39,0,0,0,18.13,8a12.61,12.61,0,0,0-1.29.78,8.29,8.29,0,0,1-1.74,1,9.87,9.87,0,0,1-3.29.65,10.15,10.15,0,0,1-6.4-2.15.39.39,0,0,0-.62.44,9.18,9.18,0,0,1,.75,3.91,3.12,3.12,0,0,1-1.45,2.36A2.53,2.53,0,0,1,3,15.14a3.35,3.35,0,0,0-.54,0A.31.31,0,0,0,2.35,15.07Zm1.54,3.69a.39.39,0,0,0-.23-.21.31.31,0,0,0-.13,0,.47.47,0,0,0-.17,0,1.46,1.46,0,0,1-1.68-.39,1.47,1.47,0,0,1,0-1.72C2,16,2.36,16,3,15.94a3.2,3.2,0,0,0,1.46-.32,3.86,3.86,0,0,0,1.85-3,7.74,7.74,0,0,0-.4-3.11,11,11,0,0,0,5.9,1.62,10.62,10.62,0,0,0,3.55-.7,10,10,0,0,0,1.91-1.05l.2-.14a9.77,9.77,0,0,0-.73,1.52,4.85,4.85,0,0,0-.17,3.09A3,3,0,0,0,18,15.69a1.45,1.45,0,0,0,1.19,0c1.72-.7,2.2-.25,2.42.16a.91.91,0,0,1,0,.68,1.49,1.49,0,0,1-.72.84,3.74,3.74,0,0,1-2.21.17.37.37,0,0,0-.34.12.41.41,0,0,0-.11.35A4.55,4.55,0,0,1,16.92,22a6.74,6.74,0,0,1-4,1.82,8.77,8.77,0,0,1-9.06-5Zm3.93,5.49L9.09,31.7l-7.62,0A15.45,15.45,0,0,1,7.82,24.25Zm6.52,7.42s0,0,0,0l1.39-7.26A16,16,0,0,1,22,31.62Z"/><path d="M3,16.65a.91.91,0,0,0-1,.09.24.24,0,0,0,0,.33.23.23,0,0,0,.32,0A.5.5,0,0,1,2.74,17a.53.53,0,0,1,.19.25.86.86,0,0,0-.59.25.22.22,0,0,0,0,.32.22.22,0,0,0,.32,0,.43.43,0,0,1,.43-.09.25.25,0,0,0,.19,0,.21.21,0,0,0,.11-.15A.9.9,0,0,0,3,16.65Z"/><path d="M19.34,17.1h.06l1.15-.27a.24.24,0,0,0,.17-.28.24.24,0,0,0-.28-.17l-.58.14a1.85,1.85,0,0,1,.65-.45.22.22,0,0,0,.13-.29.23.23,0,0,0-.3-.13,2.21,2.21,0,0,0-1.2,1.13.21.21,0,0,0,0,.24A.23.23,0,0,0,19.34,17.1Z"/></g></g></svg>