<svg xmlns="http://www.w3.org/2000/svg" viewBox="0 0 24.45 31.51"><defs><style>.cls-1{fill:#af7979;}.cls-2{fill:#ffd2bb;}.cls-3{fill:#f7b36f;}.cls-4{fill:#f9d889;}.cls-5{fill:#333;}</style></defs><title>Asset 1</title><g id="Layer_2" data-name="Layer 2"><g id="design"><path class="cls-1" d="M21.38,6.69c-.11-.21-.25-.47-.36-.73s-.19-.47-.26-.68v0a7.94,7.94,0,0,0-.49-1.11A7.17,7.17,0,0,0,17.92,2,8.18,8.18,0,0,0,14.69.5a4.54,4.54,0,0,0-.65,0,11.31,11.31,0,0,0-1.88.22,11.07,11.07,0,0,1-1.92.23H10C9.69.88,9.4.84,9.12.8h0C8.79.76,8.5.71,8.2.7H8a2.16,2.16,0,0,0-1.46.45,3.09,3.09,0,0,0-.8,1.76A7.61,7.61,0,0,1,5.46,4,6.29,6.29,0,0,1,4.38,5.54h0a11.24,11.24,0,0,0-.7.88,4.92,4.92,0,0,0,.21,5.63h0l.12.15h.4a1.91,1.91,0,0,0,.5,0l.13,0L5.1,12a2.82,2.82,0,0,0,.11-1.25,4.27,4.27,0,0,1,0-.64,7.76,7.76,0,0,1,.69-2.19A7.48,7.48,0,0,1,9,4.63a7.57,7.57,0,0,1,8.44.89A6.71,6.71,0,0,1,19.7,11.8l-.08.37.37,0a3.26,3.26,0,0,1,.6.14l.26.09L21,12.2v0a4.53,4.53,0,0,0,.86-4.46A9.5,9.5,0,0,0,21.38,6.69Z"/><path class="cls-2" d="M19.69,12.32h-.18l0,0s0,0,0-.05a6.49,6.49,0,0,0-2.09-6.64,7.5,7.5,0,0,0-4.84-1.73,7.21,7.21,0,0,0-3.46.86A7.39,7.39,0,0,0,6,8a7.68,7.68,0,0,0-.68,2.15,4,4,0,0,0,0,.63c0,.57,0,1.23-.24,1.45a1.24,1.24,0,0,1-.69.12H4.19a1.3,1.3,0,0,0-.34,0,2.64,2.64,0,0,0-1.2.61,2.31,2.31,0,0,0-.56,2.66,1.94,1.94,0,0,0,1.17.92,2.23,2.23,0,0,0,.5.07,1.61,1.61,0,0,0,.81-.22h.07a0,0,0,0,1,0,.06A5.27,5.27,0,0,0,6,20.76a8.51,8.51,0,0,0,4,2.38,10.15,10.15,0,0,0,3,.48,7,7,0,0,0,3.28-.75A5,5,0,0,0,19,17.57a.07.07,0,0,1,0-.06l0,0h0a2.88,2.88,0,0,0,.59.06,2.62,2.62,0,1,0,0-5.24Z"/><path class="cls-2" d="M16.34,23a7.08,7.08,0,0,1-3.33.76,10.36,10.36,0,0,1-3-.48,10.79,10.79,0,0,1-1.79-.73L7.23,22l.48.95a5.57,5.57,0,0,0,4.85,3h.09a5.53,5.53,0,0,0,4.65-2.81l-.48-.45A5.5,5.5,0,0,1,16.34,23Z"/><path class="cls-3" d="M19.39,23.34l-.34-.25-.17.38a6.84,6.84,0,0,1-6.07,4h-.06a6.84,6.84,0,0,1-6.09-4.24l-.13-.34L6.2,23A9.88,9.88,0,0,0,.52,30.42l-.06.38H.85c5.18.16,10.45.24,15.67.24,2.35,0,4.73,0,7.07-.05H24l-.07-.38A11.25,11.25,0,0,0,19.39,23.34Z"/><path class="cls-4" d="M17.8,22.39l-.32-.15-.14.33a5.36,5.36,0,0,1-4.68,3.17h-.1a5.37,5.37,0,0,1-4.73-3l-.12-.26-.29.08c-.26.08-.53.18-.79.28l-.31.12.12.32a7.09,7.09,0,0,0,6.3,4.39h.08a7,7,0,0,0,6.29-4.17l.12-.26L19,23.07A10.75,10.75,0,0,0,17.8,22.39Z"/><path d="M4.54,14a1.31,1.31,0,0,0-1-.18.23.23,0,0,0,.12.44.87.87,0,0,1,.69.13.79.79,0,0,1,.25.23h0a1.38,1.38,0,0,0-1.1.55.24.24,0,0,0,.05.32.23.23,0,0,0,.14,0,.21.21,0,0,0,.18-.09.94.94,0,0,1,1-.31.22.22,0,0,0,.22,0,.22.22,0,0,0,.08-.22A1.32,1.32,0,0,0,4.54,14Z"/><path d="M19.21,15.92a.23.23,0,0,0,.11,0,.24.24,0,0,0,.14,0,1.61,1.61,0,0,1,1.24-.29.23.23,0,0,0,.09-.45,2.13,2.13,0,0,0-1.17.12,2.4,2.4,0,0,1,.58-1,.51.51,0,0,1,.21-.16.09.09,0,0,1,.08,0,.23.23,0,0,0,.3.12.22.22,0,0,0,.12-.3.52.52,0,0,0-.6-.27.86.86,0,0,0-.44.28,2.79,2.79,0,0,0-.78,1.74A.24.24,0,0,0,19.21,15.92Z"/><path class="cls-5" d="M24.45,31a11.75,11.75,0,0,0-6.33-9,5.3,5.3,0,0,0,1.44-4,3.08,3.08,0,0,0,1.87-5.63,5,5,0,0,0,.86-4.83,9.66,9.66,0,0,0-.5-1.08c-.13-.24-.24-.47-.35-.71s-.17-.42-.25-.64a7.17,7.17,0,0,0-.53-1.21,7.46,7.46,0,0,0-2.48-2.28A8.4,8.4,0,0,0,14.75.05a8.52,8.52,0,0,0-2.67.18A10.06,10.06,0,0,1,10,.44c-.27,0-.55,0-.84-.1a9,9,0,0,0-.94-.1,2.68,2.68,0,0,0-2,.56,3.38,3.38,0,0,0-.95,2,6,6,0,0,1-.29,1A5.7,5.7,0,0,1,4,5.24a8.47,8.47,0,0,0-.75.93,5.36,5.36,0,0,0,0,5.89,2.84,2.84,0,0,0-1,.58,2.75,2.75,0,0,0-.66,3.22A2.35,2.35,0,0,0,3.14,17a2.13,2.13,0,0,0,1,.05,5.88,5.88,0,0,0,1.55,4A7.39,7.39,0,0,0,7,22.2a10.32,10.32,0,0,0-7,8.61.39.39,0,0,0,.1.31.37.37,0,0,0,.29.14c5.35.17,10.76.25,16.15.25,2.51,0,5,0,7.51-.05a.47.47,0,0,0,.3-.14A.45.45,0,0,0,24.45,31ZM7.52,22.87a5.69,5.69,0,0,0,5,3.21h.1a5.68,5.68,0,0,0,5-3.38,9.86,9.86,0,0,1,1.14.65,6.7,6.7,0,0,1-6.05,4,6.7,6.7,0,0,1-6-4.18A6.81,6.81,0,0,1,7.52,22.87Zm2.34.71a10.49,10.49,0,0,0,3.15.5,7.6,7.6,0,0,0,3.49-.8A5.24,5.24,0,0,0,17,23a5.22,5.22,0,0,1-4.36,2.64A5.22,5.22,0,0,1,8,22.83,11.91,11.91,0,0,0,9.86,23.58ZM4,6.62a10.39,10.39,0,0,1,.69-.86A6.5,6.5,0,0,0,5.77,4.13,7.91,7.91,0,0,0,6.1,3,2.78,2.78,0,0,1,6.79,1.4,2.07,2.07,0,0,1,8.19,1a6.68,6.68,0,0,1,.86.1c.29,0,.6.08.91.1A10.57,10.57,0,0,0,12.22,1,7.75,7.75,0,0,1,14.64.84a7.89,7.89,0,0,1,3.09,1.47,7,7,0,0,1,2.24,2,7,7,0,0,1,.47,1.08q.12.34.27.69c.11.26.24.52.37.76a9.53,9.53,0,0,1,.46,1A4.21,4.21,0,0,1,20.75,12a.18.18,0,0,0-.05.07,2.6,2.6,0,0,0-.67-.15,7,7,0,0,0-2.36-6.62,7.94,7.94,0,0,0-8.82-.93A8,8,0,0,0,5.6,7.79a8.47,8.47,0,0,0-.72,2.29,5.15,5.15,0,0,0,0,.7,3.51,3.51,0,0,1-.07,1.07,2.48,2.48,0,0,1-.49,0H4.16v0A4.58,4.58,0,0,1,4,6.62ZM6.29,20.53a4.9,4.9,0,0,1-1.29-4,.42.42,0,0,0-.17-.4.46.46,0,0,0-.23-.06.54.54,0,0,0-.21.05,1.32,1.32,0,0,1-1,.12,1.61,1.61,0,0,1-1-.74,2,2,0,0,1,.48-2.26,2.41,2.41,0,0,1,1.06-.53,2,2,0,0,1,.37,0,1.58,1.58,0,0,0,1-.2c.39-.33.38-1,.36-1.72a3.21,3.21,0,0,1,0-.56,7,7,0,0,1,.65-2.06A7.06,7.06,0,0,1,9.23,5a7.23,7.23,0,0,1,7.92.84,6.12,6.12,0,0,1,2,6.27.4.4,0,0,0,.41.52,2.29,2.29,0,1,1-.37,4.51.38.38,0,0,0-.38.1.41.41,0,0,0-.11.38,4.61,4.61,0,0,1-2.55,4.92,8,8,0,0,1-6,.25A8.31,8.31,0,0,1,6.29,20.53ZM.86,30.47a9.48,9.48,0,0,1,5.48-7.16,7.17,7.17,0,0,0,6.4,4.46h.08a7.19,7.19,0,0,0,6.37-4.16,11,11,0,0,1,4.4,7.05C16,30.77,8.4,30.7.86,30.47Z"/></g></g></svg>