<svg xmlns="http://www.w3.org/2000/svg" viewBox="0 0 160.31 93.99"><defs><style>.cls-1{fill:#5b5d6d;}.cls-2{fill:#d8deec;}.cls-3{fill:#288fc9;}.cls-4{fill:#fff;}.cls-5{fill:#ffd2bb;}.cls-6{fill:#f7b71d;}.cls-7{fill:#ff6969;}.cls-8{fill:#333;}</style></defs><title>Asset 5</title><g id="Layer_2" data-name="Layer 2"><g id="design"><path class="cls-1" d="M61.25,23.76a9.36,9.36,0,0,1-1.86-2.68,9.5,9.5,0,0,1-.5-3.13c0-.35,0-.71-.07-1.06-.48-5.5-4.59-10.73-10.46-13.35A28,28,0,0,0,36.81,1.33a49.79,49.79,0,0,0-6,.4A33.22,33.22,0,0,0,19.52,4.9,17.5,17.5,0,0,0,11.4,13c-.31.68-.55,1.37-.8,2.09l0,.15a19.18,19.18,0,0,1-1.44,3.38A19.44,19.44,0,0,1,6.38,22c-.68.7-1.24,1.29-1.77,2A14.91,14.91,0,0,0,6.13,44.23a.25.25,0,0,1,0,.07l.31.58.67-.08c.49-.06,1-.08,1.5-.1A8,8,0,0,0,12.28,44,10,10,0,0,0,17,36.38c.46-4.05-.95-8.11-2.21-11.71a.17.17,0,0,1,.07-.2.14.14,0,0,1,.1,0,.16.16,0,0,1,.1,0A30.24,30.24,0,0,0,33.5,30.9h.64A29.62,29.62,0,0,0,43.94,29a26.7,26.7,0,0,0,5.25-2.93,37.06,37.06,0,0,1,3.62-2.2.12.12,0,0,1,.08,0,.16.16,0,0,1,.15.09c.44.78-.11,1.66-.84,2.67-.15.22-.29.42-.39.6a26,26,0,0,0-2.16,4.43,12.76,12.76,0,0,0-.48,8.05,7.61,7.61,0,0,0,3.38,4.44,3,3,0,0,0,1.28.3,3,3,0,0,0,1.1-.22,13.06,13.06,0,0,1,4.76-1.13,5.93,5.93,0,0,1,1.15.1l.57.12.38-.45a14.71,14.71,0,0,0,.14-18.28C61.71,24.28,61.48,24,61.25,23.76Z"/><path class="cls-2" d="M34.67,83.33l.79.47c.89,2.19,1.88,4.49,2.95,6.84l1.27,2.81,2.13-11.11-4-3.79Z"/><path class="cls-2" d="M30.62,79.61l-.57-1.35-4,4.06,1.79,10.42L32.5,83l-.3-.46A18.84,18.84,0,0,1,30.62,79.61Z"/><path class="cls-3" d="M46,69.55l-1.21-.74L40.48,91.14l-.36,1.3,25-.14-.59-1.37A47.23,47.23,0,0,0,46,69.55Z"/><path class="cls-3" d="M22.07,69.2A45.18,45.18,0,0,0,3.34,91.31l-.53,1.34,24.6-.14-4.11-24Z"/><path class="cls-4" d="M34.88,74.4l-1.09.08-1.12-.17a10.94,10.94,0,0,1-6.84-4l-1.73.77,2.06,12,7.51-7.58,8,7.57,2.88-15-2.38,2.68A11,11,0,0,1,34.88,74.4Z"/><path class="cls-5" d="M59.67,43.39a12.5,12.5,0,0,0-4.61,1.12,3.15,3.15,0,0,1-1.23.25,3.35,3.35,0,0,1-1.43-.33,8,8,0,0,1-3.56-4.65,13.06,13.06,0,0,1,.48-8.27,26.57,26.57,0,0,1,2-4.25L50,26l-.58.38a26.71,26.71,0,0,1-5.31,3,29.85,29.85,0,0,1-9.93,1.94h-.61a30.82,30.82,0,0,1-15.89-4.52l-2.22-1.36.76,2.48a21.19,21.19,0,0,1,1.13,8.56,10.21,10.21,0,0,1-4.86,7.85A8.12,8.12,0,0,1,8.68,45c-1.85.09-3.45.16-4.73,1.89A5.16,5.16,0,0,0,4.1,53.1a5.16,5.16,0,0,0,4,1.82,5,5,0,0,0,2-.43l.07,0h.06a.29.29,0,0,1,.1.09A26.36,26.36,0,0,0,37.53,69.72a20.53,20.53,0,0,0,12-5.54,14.21,14.21,0,0,0,4.16-12.24.17.17,0,0,1,0-.15.18.18,0,0,1,.15,0h0A21.54,21.54,0,0,0,57,52a8.45,8.45,0,0,0,3.93-.83,5.3,5.3,0,0,0,2.56-3,3.58,3.58,0,0,0-.18-2.73A3.78,3.78,0,0,0,59.67,43.39Z"/><path class="cls-5" d="M37.57,70.06a25.6,25.6,0,0,1-3.26.21,26.86,26.86,0,0,1-8-1.22l-2.94-.92,1.87,2.45A11.54,11.54,0,0,0,34,75.07h.14a11.51,11.51,0,0,0,9-4.48l1.93-2.52-3,1A23.34,23.34,0,0,1,37.57,70.06Z"/><path class="cls-6" d="M134,6.42a68.13,68.13,0,0,0-19.9-3A58.09,58.09,0,0,0,96.91,5.9a43,43,0,0,0-16.74,9.46A33.33,33.33,0,0,0,77,18.74c-5.32,6.62-7.32,15.2-5.22,22.41C74,48.81,81.28,54.58,88.68,54.58l.67,0h0a.18.18,0,0,1,.13,0,.19.19,0,0,1,0,.13,37.1,37.1,0,0,1-2.51,12.88l-1,2.5,2.36-1.29A26.52,26.52,0,0,0,99.66,57a.17.17,0,0,1,.16-.1h0a96.46,96.46,0,0,0,21.66,2.47c2.94,0,5.93-.13,8.87-.41,9.44-.87,16.06-3.18,20.82-7.27A22.59,22.59,0,0,0,159,34.26C158.67,19.35,145.89,10.1,134,6.42Z"/><path class="cls-7" d="M36.18,83.85l-.41-1L38.28,79l-4.62-4.38-4.08,4.11.23.59a20.39,20.39,0,0,0,2,3.77L27.2,92.51l12.74-.07-.64-1.38C38.2,88.64,37.15,86.22,36.18,83.85Z"/><path class="cls-8" d="M66.31,93.12a1.14,1.14,0,0,0,.12-1.07A48.23,48.23,0,0,0,46.38,68.23a18.64,18.64,0,0,0,4.13-3.11,15.86,15.86,0,0,0,4.71-11.89,11.24,11.24,0,0,0,6.27-.88,6.61,6.61,0,0,0,3.23-3.81,4.84,4.84,0,0,0-.28-3.75,5.07,5.07,0,0,0-1.26-1.57A16.25,16.25,0,0,0,63,23.71c-.23-.28-.47-.55-.71-.83a8.38,8.38,0,0,1-1.62-2.29,8.39,8.39,0,0,1-.41-2.69c0-.38,0-.75-.07-1.13-.53-6-4.94-11.64-11.24-14.44C43.93.11,38-.51,30.64.41A34.43,34.43,0,0,0,18.91,3.72a18.85,18.85,0,0,0-8.73,8.77c-.35.78-.62,1.57-.89,2.34A17.11,17.11,0,0,1,8,18a17.78,17.78,0,0,1-2.55,3.1c-.62.64-1.26,1.31-1.85,2a16.23,16.23,0,0,0,1,21.48,5.57,5.57,0,0,0-1.71,1.55,6.53,6.53,0,0,0,.19,7.8,6.55,6.55,0,0,0,6.51,2.13A27.82,27.82,0,0,0,20.81,67.76c.19.11.38.2.57.3A46.77,46.77,0,0,0,1.49,92.45a1.19,1.19,0,0,0,.15,1,1.15,1.15,0,0,0,.94.49h0l62.77-.37A1.15,1.15,0,0,0,66.31,93.12Zm-30-9.8a.59.59,0,0,0-.27-.31L38,80.07l2.76,2.61L39.3,90.23C38.26,88,37.27,85.63,36.33,83.32Zm-2.24.28c-.23.35-.32.39-.34.4s-.12,0-.41-.39A18.94,18.94,0,0,1,30.73,79l2.95-3L37,79.15ZM29.72,80a20.21,20.21,0,0,0,1.65,3.12l-3.11,6.45-1.19-6.91ZM34,74.09A10.52,10.52,0,0,1,26,70a27.74,27.74,0,0,0,8.29,1.27A27.26,27.26,0,0,0,37.69,71a26,26,0,0,0,4.67-1,10.53,10.53,0,0,1-8.18,4.09Zm-1.51,1.19L26.8,81.05,25.06,70.91A12.06,12.06,0,0,0,32.52,75.28Zm-.28,9.07,0,.06a1.93,1.93,0,0,0,1.46.91h.14a1.92,1.92,0,0,0,1.31-1l.07-.11c1,2.44,2,4.87,3.14,7.26l-9.64,0ZM41,81.14,35,75.38a12,12,0,0,0,7.95-4ZM6.8,43.51a13.92,13.92,0,0,1-1.42-19c.52-.64,1.09-1.25,1.71-1.89A19.08,19.08,0,0,0,10,19.14a19.51,19.51,0,0,0,1.51-3.55c.27-.76.52-1.47.82-2.15A16.48,16.48,0,0,1,20,5.77a32.24,32.24,0,0,1,11-3.06c6.89-.88,12.46-.31,17,1.73,5.54,2.47,9.42,7.39,9.88,12.54,0,.34,0,.69.06,1a10.08,10.08,0,0,0,.57,3.43,10.49,10.49,0,0,0,2,3c.23.25.45.5.66.76a13.84,13.84,0,0,1-.13,17,11.65,11.65,0,0,0-6.48,1.08A1.85,1.85,0,0,1,53,43.22a6.68,6.68,0,0,1-2.87-3.84A11.82,11.82,0,0,1,50.57,32a25.69,25.69,0,0,1,2.08-4.28c.08-.14.22-.33.36-.53.67-.93,1.66-2.32.89-3.71A1.16,1.16,0,0,0,52.37,23a38.86,38.86,0,0,0-3.73,2.26,25.57,25.57,0,0,1-5,2.83,28.62,28.62,0,0,1-9.49,1.85A29.11,29.11,0,0,1,15.63,23.7,1.16,1.16,0,0,0,13.82,25C15,28.48,16.42,32.44,16,36.26a9,9,0,0,1-4.18,6.83,7.08,7.08,0,0,1-3.19.62c-.52,0-1,0-1.58.12A1.22,1.22,0,0,0,6.8,43.51Zm4.43,10.66a1.18,1.18,0,0,0-.65-.61,1.34,1.34,0,0,0-.4-.07,1.13,1.13,0,0,0-.48.11,4.22,4.22,0,0,1-4.84-1.12,4.2,4.2,0,0,1-.12-5c1-1.3,2.08-1.41,4-1.5a9.18,9.18,0,0,0,4.21-.9,11.21,11.21,0,0,0,5.36-8.6,22.12,22.12,0,0,0-1.17-9,31.63,31.63,0,0,0,17.05,4.66,30.7,30.7,0,0,0,10.24-2,27.29,27.29,0,0,0,5.51-3.06l.58-.38a28.6,28.6,0,0,0-2.11,4.39,14.14,14.14,0,0,0-.49,8.9c.57,1.8,2,4.25,4.08,5.25a4.24,4.24,0,0,0,3.45.1c5-2,6.35-.71,7,.46a2.52,2.52,0,0,1,.11,2,4.28,4.28,0,0,1-2.07,2.45c-1.87,1-4.17.79-6.38.48a1.12,1.12,0,0,0-1,.34,1.16,1.16,0,0,0-.31,1,13.18,13.18,0,0,1-3.89,11.38,19.53,19.53,0,0,1-11.46,5.25A25.32,25.32,0,0,1,11.23,54.17ZM22.57,70l3.68,21.5-22,.13A44.45,44.45,0,0,1,22.57,70ZM41.41,91.45l0-.11,4-21A46,46,0,0,1,63.64,91.32Z"/><path d="M8.57,48.08a2.63,2.63,0,0,0-3,.27.66.66,0,1,0,.86,1,1.34,1.34,0,0,1,1.46-.13,1.39,1.39,0,0,1,.55.71,2.57,2.57,0,0,0-1.71.72.65.65,0,0,0,0,.93.67.67,0,0,0,.47.2.7.7,0,0,0,.47-.19,1.21,1.21,0,0,1,1.24-.28.66.66,0,0,0,.55-.05.69.69,0,0,0,.32-.44A2.62,2.62,0,0,0,8.57,48.08Z"/><path d="M55.86,49.4l.15,0,3.32-.78a.66.66,0,1,0-.3-1.29l-1.69.4a5.18,5.18,0,0,1,1.88-1.29.66.66,0,0,0,.38-.85.67.67,0,0,0-.86-.38,6.49,6.49,0,0,0-3.47,3.27.64.64,0,0,0,.08.69A.66.66,0,0,0,55.86,49.4Z"/><path class="cls-8" d="M100.45,58.36a97.55,97.55,0,0,0,30.05,1.89c9.73-.9,16.59-3.31,21.57-7.59a23.89,23.89,0,0,0,8.23-18.43C160,18.61,146.73,9,134.42,5.16,121.83,1.25,108,1.06,96.51,4.63a44.23,44.23,0,0,0-17.24,9.76A32.92,32.92,0,0,0,76,17.91c-5.6,6.94-7.69,16-5.47,23.61,2.38,8.17,9.84,14.15,17.69,14.38a35.78,35.78,0,0,1-3.56,13.92,1.15,1.15,0,0,0,1,1.66,1.26,1.26,0,0,0,.43-.08A27.9,27.9,0,0,0,100.45,58.36ZM88,68a38.12,38.12,0,0,0,2.57-13.22,1.14,1.14,0,0,0-1.16-1.17h0c-7.13.36-14.42-5.23-16.6-12.7-2-6.91-.08-15.16,5-21.52a32.42,32.42,0,0,1,3.06-3.28A42.13,42.13,0,0,1,97.2,6.83c11.06-3.43,24.38-3.24,36.54.53,11.53,3.58,24,12.53,24.25,26.92a21.56,21.56,0,0,1-7.43,16.62c-4.6,4-11,6.2-20.27,7.05a95.07,95.07,0,0,1-30.22-2.05,1.15,1.15,0,0,0-1.3.63A25.54,25.54,0,0,1,88,68Z"/><path d="M123.9,43.09c.32-.31.64-.62.94-1A18.06,18.06,0,0,0,127.71,23a19,19,0,0,0-9.91-9.18A13.79,13.79,0,0,0,109,13c-6,1.64-9.93,7.69-11.33,10.21-2.87,5.22-3.15,11.39-.72,16.12a16.08,16.08,0,0,0,9.18,7.7,17.1,17.1,0,0,0,5.4.87,18.54,18.54,0,0,0,10.35-3.2l1.71,2a1.31,1.31,0,0,0,1,.46,1.28,1.28,0,0,0,.85-.32,1.3,1.3,0,0,0,.15-1.84Zm-17,1.5a13.43,13.43,0,0,1-7.69-6.42c-2-4-1.77-9.19.69-13.65,2.57-4.65,6.2-8,9.73-9a9.71,9.71,0,0,1,2.49-.32,12.18,12.18,0,0,1,4.64,1,16.37,16.37,0,0,1,8.54,7.86,15.4,15.4,0,0,1-2.44,16.32l-.7.72-2.29-2.69a1.31,1.31,0,0,0-2,1.7l2.23,2.62A15.41,15.41,0,0,1,106.94,44.59Z"/></g></g></svg>