<svg id="layout" xmlns="http://www.w3.org/2000/svg" viewBox="0 0 91.13 100.24"><defs><style>.cls-1{fill:#3fa9f5;}</style></defs><title>Internship</title><path class="cls-1" d="M.42,56.78A2.34,2.34,0,0,0,1.29,60l23,13.13a2.34,2.34,0,0,0,3.2-.87l9.07-16a2.34,2.34,0,0,0-.87-3.2l-5.92-3.37.78-1.36a3.32,3.32,0,0,0,0-3.35,4.84,4.84,0,0,0,.71-.95c.05-.1,3.59-5.63,6.68-9.59,1.44-1.84,3.94-3,6.43-3.73L38.63,52.9a9.79,9.79,0,0,0-.32,4L28.52,74.55,17.2,79.63a6,6,0,0,0,1.12,11.52,5.58,5.58,0,0,0,1.15.12,7.25,7.25,0,0,0,3.09-.81l12.72-5.71a6.11,6.11,0,0,0,2.81-2.58l9-16.31a11.57,11.57,0,0,0,1.81.24l10.6,13v15a6,6,0,0,0,12.08,0V76.91a6,6,0,0,0-1.36-3.82L59.81,60.27a9.54,9.54,0,0,0,.78-1.87l4.81-19a36.72,36.72,0,0,0,20.15,9.93,4.59,4.59,0,0,0,.66,0A4.85,4.85,0,0,0,91,45.12a4.91,4.91,0,0,0-4.17-5.46c-8.84-1.5-22-16.12-23.42-17.11a67.2,67.2,0,0,0-7.11-3.62c-1.82-.84-19.59,1.31-26,9.57-3.5,4.48-7.18,10.28-7.43,10.7a5,5,0,0,0-.46,1.11,3.32,3.32,0,0,0-3,1.68l-.78,1.36L12.7,40a2.34,2.34,0,0,0-3.2.87Zm20.79-12L22,43.46a.37.37,0,0,1,.51-.14l0,0a4.81,4.81,0,0,0,2.11,2.5,4.86,4.86,0,0,0,2.43.66,4.43,4.43,0,0,0,.84-.08.36.36,0,0,1,.11.47l-.78,1.36Z"/><circle class="cls-1" cx="67.15" cy="10.51" r="10.39"/></svg>