<svg xmlns="http://www.w3.org/2000/svg" xmlns:xlink="http://www.w3.org/1999/xlink" viewBox="0 0 460 391.55"><defs><style>.cls-1{fill:url(#New_Gradient_Swatch_3);}.cls-2{fill:#fff;}</style><linearGradient id="New_Gradient_Swatch_3" x1="-4.4" y1="9.39" x2="459.87" y2="378.57" gradientUnits="userSpaceOnUse"><stop offset="0" stop-color="#ff5f6d"/><stop offset="1" stop-color="#ffc371"/></linearGradient></defs><title>business-discount-background</title><g id="Layer_2" data-name="Layer 2"><g id="design"><rect class="cls-1" width="460" height="391.55" rx="2"/><path class="cls-2" d="M450,382.05h-2a.5.5,0,0,1-.5-.5.5.5,0,0,1,.5-.5h1.5v-1.5a.5.5,0,1,1,1,0v2A.5.5,0,0,1,450,382.05Z"/><path class="cls-2" d="M444,382.05h-4a.5.5,0,0,1-.5-.5.5.5,0,0,1,.5-.5h4a.5.5,0,0,1,.5.5A.5.5,0,0,1,444,382.05Zm-8,0h-4a.5.5,0,0,1-.5-.5.5.5,0,0,1,.5-.5h4a.5.5,0,0,1,.5.5A.5.5,0,0,1,436,382.05Zm-8,0h-4a.5.5,0,0,1-.5-.5.5.5,0,0,1,.5-.5h4a.5.5,0,0,1,.5.5A.5.5,0,0,1,428,382.05Zm-8,0h-4a.5.5,0,0,1-.5-.5.5.5,0,0,1,.5-.5h4a.5.5,0,0,1,.5.5A.5.5,0,0,1,420,382.05Zm-8,0h-4a.5.5,0,0,1-.5-.5.5.5,0,0,1,.5-.5h4a.5.5,0,0,1,.5.5A.5.5,0,0,1,412,382.05Zm-8,0h-4a.5.5,0,0,1-.5-.5.5.5,0,0,1,.5-.5h4a.5.5,0,0,1,.5.5A.5.5,0,0,1,404,382.05Zm-8,0h-4a.5.5,0,0,1-.5-.5.5.5,0,0,1,.5-.5h4a.5.5,0,0,1,.5.5A.5.5,0,0,1,396,382.05Zm-8,0h-4a.5.5,0,0,1-.5-.5.5.5,0,0,1,.5-.5h4a.5.5,0,0,1,.5.5A.5.5,0,0,1,388,382.05Zm-8,0h-4a.5.5,0,0,1-.5-.5.5.5,0,0,1,.5-.5h4a.5.5,0,0,1,.5.5A.5.5,0,0,1,380,382.05Zm-8,0h-4a.5.5,0,0,1-.5-.5.5.5,0,0,1,.5-.5h4a.5.5,0,0,1,.5.5A.5.5,0,0,1,372,382.05Zm-8,0h-4a.5.5,0,0,1-.5-.5.5.5,0,0,1,.5-.5h4a.5.5,0,0,1,.5.5A.5.5,0,0,1,364,382.05Zm-8,0h-4a.5.5,0,0,1-.5-.5.5.5,0,0,1,.5-.5h4a.5.5,0,0,1,.5.5A.5.5,0,0,1,356,382.05Zm-8,0h-4a.5.5,0,0,1-.5-.5.5.5,0,0,1,.5-.5h4a.5.5,0,0,1,.5.5A.5.5,0,0,1,348,382.05Zm-8,0h-4a.5.5,0,0,1-.5-.5.5.5,0,0,1,.5-.5h4a.5.5,0,0,1,.5.5A.5.5,0,0,1,340,382.05Zm-8,0h-4a.5.5,0,0,1-.5-.5.5.5,0,0,1,.5-.5h4a.5.5,0,0,1,.5.5A.5.5,0,0,1,332,382.05Zm-8,0h-4a.5.5,0,0,1-.5-.5.5.5,0,0,1,.5-.5h4a.5.5,0,0,1,.5.5A.5.5,0,0,1,324,382.05Zm-8,0h-4a.5.5,0,0,1-.5-.5.5.5,0,0,1,.5-.5h4a.5.5,0,0,1,.5.5A.5.5,0,0,1,316,382.05Zm-8,0h-4a.5.5,0,0,1-.5-.5.5.5,0,0,1,.5-.5h4a.5.5,0,0,1,.5.5A.5.5,0,0,1,308,382.05Zm-8,0h-4a.5.5,0,0,1-.5-.5.5.5,0,0,1,.5-.5h4a.5.5,0,0,1,.5.5A.5.5,0,0,1,300,382.05Zm-8,0h-4a.5.5,0,0,1-.5-.5.5.5,0,0,1,.5-.5h4a.5.5,0,0,1,.5.5A.5.5,0,0,1,292,382.05Zm-8,0h-4a.5.5,0,0,1-.5-.5.5.5,0,0,1,.5-.5h4a.5.5,0,0,1,.5.5A.5.5,0,0,1,284,382.05Zm-8,0h-4a.5.5,0,0,1-.5-.5.5.5,0,0,1,.5-.5h4a.5.5,0,0,1,.5.5A.5.5,0,0,1,276,382.05Zm-8,0h-4a.5.5,0,0,1-.5-.5.5.5,0,0,1,.5-.5h4a.5.5,0,0,1,.5.5A.5.5,0,0,1,268,382.05Zm-8,0h-4a.5.5,0,0,1-.5-.5.5.5,0,0,1,.5-.5h4a.5.5,0,0,1,.5.5A.5.5,0,0,1,260,382.05Zm-8,0h-4a.5.5,0,0,1-.5-.5.5.5,0,0,1,.5-.5h4a.5.5,0,0,1,.5.5A.5.5,0,0,1,252,382.05Zm-8,0h-4a.5.5,0,0,1-.5-.5.5.5,0,0,1,.5-.5h4a.5.5,0,0,1,.5.5A.5.5,0,0,1,244,382.05Zm-8,0h-4a.5.5,0,0,1-.5-.5.5.5,0,0,1,.5-.5h4a.5.5,0,0,1,.5.5A.5.5,0,0,1,236,382.05Zm-8,0h-4a.5.5,0,0,1-.5-.5.5.5,0,0,1,.5-.5h4a.5.5,0,0,1,.5.5A.5.5,0,0,1,228,382.05Zm-8,0h-4a.5.5,0,0,1-.5-.5.5.5,0,0,1,.5-.5h4a.5.5,0,0,1,.5.5A.5.5,0,0,1,220,382.05Zm-8,0h-4a.5.5,0,0,1-.5-.5.5.5,0,0,1,.5-.5h4a.5.5,0,0,1,.5.5A.5.5,0,0,1,212,382.05Zm-8,0h-4a.5.5,0,0,1-.5-.5.5.5,0,0,1,.5-.5h4a.5.5,0,0,1,.5.5A.5.5,0,0,1,204,382.05Zm-8,0h-4a.5.5,0,0,1-.5-.5.5.5,0,0,1,.5-.5h4a.5.5,0,0,1,.5.5A.5.5,0,0,1,196,382.05Zm-8,0h-4a.5.5,0,0,1-.5-.5.5.5,0,0,1,.5-.5h4a.5.5,0,0,1,.5.5A.5.5,0,0,1,188,382.05Zm-8,0h-4a.5.5,0,0,1-.5-.5.5.5,0,0,1,.5-.5h4a.5.5,0,0,1,.5.5A.5.5,0,0,1,180,382.05Zm-8,0h-4a.5.5,0,0,1-.5-.5.5.5,0,0,1,.5-.5h4a.5.5,0,0,1,.5.5A.5.5,0,0,1,172,382.05Zm-8,0h-4a.5.5,0,0,1-.5-.5.5.5,0,0,1,.5-.5h4a.5.5,0,0,1,.5.5A.5.5,0,0,1,164,382.05Zm-8,0h-4a.5.5,0,0,1-.5-.5.5.5,0,0,1,.5-.5h4a.5.5,0,0,1,.5.5A.5.5,0,0,1,156,382.05Zm-8,0h-4a.5.5,0,0,1-.5-.5.5.5,0,0,1,.5-.5h4a.5.5,0,0,1,.5.5A.5.5,0,0,1,148,382.05Zm-8,0h-4a.5.5,0,0,1-.5-.5.5.5,0,0,1,.5-.5h4a.5.5,0,0,1,.5.5A.5.5,0,0,1,140,382.05Zm-8,0h-4a.5.5,0,0,1-.5-.5.5.5,0,0,1,.5-.5h4a.5.5,0,0,1,.5.5A.5.5,0,0,1,132,382.05Zm-8,0h-4a.5.5,0,0,1-.5-.5.5.5,0,0,1,.5-.5h4a.5.5,0,0,1,.5.5A.5.5,0,0,1,124,382.05Zm-8,0h-4a.5.5,0,0,1-.5-.5.5.5,0,0,1,.5-.5h4a.5.5,0,0,1,.5.5A.5.5,0,0,1,116,382.05Zm-8,0h-4a.5.5,0,0,1-.5-.5.5.5,0,0,1,.5-.5h4a.5.5,0,0,1,.5.5A.5.5,0,0,1,108,382.05Zm-8,0H96a.5.5,0,0,1-.5-.5.5.5,0,0,1,.5-.5h4a.5.5,0,0,1,.5.5A.5.5,0,0,1,100,382.05Zm-8,0H88a.5.5,0,0,1-.5-.5.5.5,0,0,1,.5-.5h4a.5.5,0,0,1,.5.5A.5.5,0,0,1,92,382.05Zm-8,0H80a.5.5,0,0,1-.5-.5.5.5,0,0,1,.5-.5h4a.5.5,0,0,1,.5.5A.5.5,0,0,1,84,382.05Zm-8,0H72a.5.5,0,0,1-.5-.5.5.5,0,0,1,.5-.5h4a.5.5,0,0,1,.5.5A.5.5,0,0,1,76,382.05Zm-8,0H64a.5.5,0,0,1-.5-.5.5.5,0,0,1,.5-.5h4a.5.5,0,0,1,.5.5A.5.5,0,0,1,68,382.05Zm-8,0H56a.5.5,0,0,1-.5-.5.5.5,0,0,1,.5-.5h4a.5.5,0,0,1,.5.5A.5.5,0,0,1,60,382.05Zm-8,0H48a.5.5,0,0,1-.5-.5.5.5,0,0,1,.5-.5h4a.5.5,0,0,1,.5.5A.5.5,0,0,1,52,382.05Zm-8,0H40a.5.5,0,0,1-.5-.5.5.5,0,0,1,.5-.5h4a.5.5,0,0,1,.5.5A.5.5,0,0,1,44,382.05Zm-8,0H32a.5.5,0,0,1-.5-.5.5.5,0,0,1,.5-.5h4a.5.5,0,0,1,.5.5A.5.5,0,0,1,36,382.05Zm-8,0H24a.5.5,0,0,1-.5-.5.5.5,0,0,1,.5-.5h4a.5.5,0,0,1,.5.5A.5.5,0,0,1,28,382.05Zm-8,0H16a.5.5,0,0,1-.5-.5.5.5,0,0,1,.5-.5h4a.5.5,0,0,1,.5.5A.5.5,0,0,1,20,382.05Z"/><path class="cls-2" d="M12,382.05H10a.5.5,0,0,1-.5-.5v-2a.5.5,0,0,1,1,0v1.5H12a.5.5,0,0,1,.5.5A.5.5,0,0,1,12,382.05Z"/><path class="cls-2" d="M10,376a.5.5,0,0,1-.5-.5v-4a.5.5,0,0,1,1,0v4A.5.5,0,0,1,10,376Zm0-8.07a.5.5,0,0,1-.5-.5v-4a.5.5,0,0,1,1,0v4A.5.5,0,0,1,10,367.94Zm0-8.08a.5.5,0,0,1-.5-.5v-4a.5.5,0,0,1,1,0v4A.5.5,0,0,1,10,359.86Zm0-8.08a.5.5,0,0,1-.5-.5v-4a.5.5,0,0,1,1,0v4A.5.5,0,0,1,10,351.78Zm0-8.08a.5.5,0,0,1-.5-.5v-4a.5.5,0,0,1,1,0v4A.5.5,0,0,1,10,343.7Zm0-8.08a.5.5,0,0,1-.5-.5v-4a.5.5,0,0,1,1,0v4A.5.5,0,0,1,10,335.62Zm0-8.07a.5.5,0,0,1-.5-.5v-4a.5.5,0,0,1,1,0v4A.5.5,0,0,1,10,327.55Zm0-8.08a.5.5,0,0,1-.5-.5v-4a.5.5,0,0,1,1,0v4A.5.5,0,0,1,10,319.47Zm0-8.08a.5.5,0,0,1-.5-.5v-4a.5.5,0,0,1,1,0v4A.5.5,0,0,1,10,311.39Zm0-8.08a.5.5,0,0,1-.5-.5v-4a.5.5,0,0,1,1,0v4A.5.5,0,0,1,10,303.31Zm0-8.08a.5.5,0,0,1-.5-.5v-4a.5.5,0,0,1,1,0v4A.5.5,0,0,1,10,295.23Zm0-8.07a.5.5,0,0,1-.5-.5v-4a.5.5,0,0,1,1,0v4A.5.5,0,0,1,10,287.16Zm0-8.08a.5.5,0,0,1-.5-.5v-4a.5.5,0,0,1,1,0v4A.5.5,0,0,1,10,279.08ZM10,271a.5.5,0,0,1-.5-.5v-4a.5.5,0,0,1,1,0v4A.5.5,0,0,1,10,271Zm0-8.08a.5.5,0,0,1-.5-.5v-4a.5.5,0,0,1,1,0v4A.5.5,0,0,1,10,262.92Zm0-8.08a.5.5,0,0,1-.5-.5v-4a.5.5,0,0,1,1,0v4A.5.5,0,0,1,10,254.84Zm0-8.08a.5.5,0,0,1-.5-.5v-4a.5.5,0,0,1,1,0v4A.5.5,0,0,1,10,246.76Zm0-8.07a.5.5,0,0,1-.5-.5v-4a.5.5,0,0,1,1,0v4A.5.5,0,0,1,10,238.69Zm0-8.08a.5.5,0,0,1-.5-.5v-4a.5.5,0,0,1,1,0v4A.5.5,0,0,1,10,230.61Zm0-8.08a.5.5,0,0,1-.5-.5v-4a.5.5,0,0,1,1,0v4A.5.5,0,0,1,10,222.53Zm0-8.08a.5.5,0,0,1-.5-.5v-4a.5.5,0,0,1,1,0v4A.5.5,0,0,1,10,214.45Zm0-8.08a.5.5,0,0,1-.5-.5v-4a.5.5,0,0,1,1,0v4A.5.5,0,0,1,10,206.37Zm0-8.07a.5.5,0,0,1-.5-.5v-4a.5.5,0,0,1,1,0v4A.5.5,0,0,1,10,198.3Zm0-8.08a.5.5,0,0,1-.5-.5v-4a.5.5,0,0,1,1,0v4A.5.5,0,0,1,10,190.22Zm0-8.08a.5.5,0,0,1-.5-.5v-4a.5.5,0,0,1,1,0v4A.5.5,0,0,1,10,182.14Zm0-8.08a.5.5,0,0,1-.5-.5v-4a.5.5,0,0,1,1,0v4A.5.5,0,0,1,10,174.06ZM10,166a.5.5,0,0,1-.5-.5v-4a.5.5,0,0,1,1,0v4A.5.5,0,0,1,10,166Zm0-8.07a.5.5,0,0,1-.5-.5v-4a.5.5,0,0,1,1,0v4A.5.5,0,0,1,10,157.91Zm0-8.08a.5.5,0,0,1-.5-.5v-4a.5.5,0,0,1,1,0v4A.5.5,0,0,1,10,149.83Zm0-8.08a.5.5,0,0,1-.5-.5v-4a.5.5,0,0,1,1,0v4A.5.5,0,0,1,10,141.75Zm0-8.08a.5.5,0,0,1-.5-.5v-4a.5.5,0,0,1,1,0v4A.5.5,0,0,1,10,133.67Zm0-8.08a.5.5,0,0,1-.5-.5v-4a.5.5,0,0,1,1,0v4A.5.5,0,0,1,10,125.59Zm0-8.07a.5.5,0,0,1-.5-.5v-4a.5.5,0,0,1,1,0v4A.5.5,0,0,1,10,117.52Zm0-8.08a.5.5,0,0,1-.5-.5v-4a.5.5,0,0,1,1,0v4A.5.5,0,0,1,10,109.44Zm0-8.08a.5.5,0,0,1-.5-.5v-4a.5.5,0,0,1,1,0v4A.5.5,0,0,1,10,101.36Zm0-8.08a.5.5,0,0,1-.5-.5v-4a.5.5,0,0,1,1,0v4A.5.5,0,0,1,10,93.28Zm0-8.08a.5.5,0,0,1-.5-.5v-4a.5.5,0,0,1,1,0v4A.5.5,0,0,1,10,85.2Zm0-8.08a.5.5,0,0,1-.5-.5v-4a.5.5,0,0,1,1,0v4A.5.5,0,0,1,10,77.12Zm0-8.07a.5.5,0,0,1-.5-.5v-4a.5.5,0,0,1,1,0v4A.5.5,0,0,1,10,69.05ZM10,61a.5.5,0,0,1-.5-.5v-4a.5.5,0,0,1,1,0v4A.5.5,0,0,1,10,61Zm0-8.08a.5.5,0,0,1-.5-.5v-4a.5.5,0,0,1,1,0v4A.5.5,0,0,1,10,52.89Zm0-8.08a.5.5,0,0,1-.5-.5v-4a.5.5,0,0,1,1,0v4A.5.5,0,0,1,10,44.81Zm0-8.08a.5.5,0,0,1-.5-.5v-4a.5.5,0,0,1,1,0v4A.5.5,0,0,1,10,36.73Zm0-8.07a.5.5,0,0,1-.5-.5v-4a.5.5,0,0,1,1,0v4A.5.5,0,0,1,10,28.66Zm0-8.08a.5.5,0,0,1-.5-.5V16a.5.5,0,0,1,1,0v4A.5.5,0,0,1,10,20.58Z"/><path class="cls-2" d="M10,12.5a.5.5,0,0,1-.5-.5V10a.5.5,0,0,1,.5-.5h2a.5.5,0,0,1,0,1H10.5V12A.5.5,0,0,1,10,12.5Z"/><path class="cls-2" d="M444,10.5h-4a.5.5,0,0,1,0-1h4a.5.5,0,0,1,0,1Zm-8,0h-4a.5.5,0,0,1,0-1h4a.5.5,0,0,1,0,1Zm-8,0h-4a.5.5,0,0,1,0-1h4a.5.5,0,0,1,0,1Zm-8,0h-4a.5.5,0,0,1,0-1h4a.5.5,0,0,1,0,1Zm-8,0h-4a.5.5,0,0,1,0-1h4a.5.5,0,0,1,0,1Zm-8,0h-4a.5.5,0,0,1,0-1h4a.5.5,0,0,1,0,1Zm-8,0h-4a.5.5,0,0,1,0-1h4a.5.5,0,0,1,0,1Zm-8,0h-4a.5.5,0,0,1,0-1h4a.5.5,0,0,1,0,1Zm-8,0h-4a.5.5,0,0,1,0-1h4a.5.5,0,0,1,0,1Zm-8,0h-4a.5.5,0,0,1,0-1h4a.5.5,0,0,1,0,1Zm-8,0h-4a.5.5,0,0,1,0-1h4a.5.5,0,0,1,0,1Zm-8,0h-4a.5.5,0,0,1,0-1h4a.5.5,0,0,1,0,1Zm-8,0h-4a.5.5,0,0,1,0-1h4a.5.5,0,0,1,0,1Zm-8,0h-4a.5.5,0,0,1,0-1h4a.5.5,0,0,1,0,1Zm-8,0h-4a.5.5,0,0,1,0-1h4a.5.5,0,0,1,0,1Zm-8,0h-4a.5.5,0,0,1,0-1h4a.5.5,0,0,1,0,1Zm-8,0h-4a.5.5,0,0,1,0-1h4a.5.5,0,0,1,0,1Zm-8,0h-4a.5.5,0,0,1,0-1h4a.5.5,0,0,1,0,1Zm-8,0h-4a.5.5,0,0,1,0-1h4a.5.5,0,0,1,0,1Zm-8,0h-4a.5.5,0,0,1,0-1h4a.5.5,0,0,1,0,1Zm-8,0h-4a.5.5,0,0,1,0-1h4a.5.5,0,0,1,0,1Zm-8,0h-4a.5.5,0,0,1,0-1h4a.5.5,0,0,1,0,1Zm-8,0h-4a.5.5,0,0,1,0-1h4a.5.5,0,0,1,0,1Zm-8,0h-4a.5.5,0,0,1,0-1h4a.5.5,0,0,1,0,1Zm-8,0h-4a.5.5,0,0,1,0-1h4a.5.5,0,0,1,0,1Zm-8,0h-4a.5.5,0,0,1,0-1h4a.5.5,0,0,1,0,1Zm-8,0h-4a.5.5,0,0,1,0-1h4a.5.5,0,0,1,0,1Zm-8,0h-4a.5.5,0,0,1,0-1h4a.5.5,0,0,1,0,1Zm-8,0h-4a.5.5,0,0,1,0-1h4a.5.5,0,0,1,0,1Zm-8,0h-4a.5.5,0,0,1,0-1h4a.5.5,0,0,1,0,1Zm-8,0h-4a.5.5,0,0,1,0-1h4a.5.5,0,0,1,0,1Zm-8,0h-4a.5.5,0,0,1,0-1h4a.5.5,0,0,1,0,1Zm-8,0h-4a.5.5,0,0,1,0-1h4a.5.5,0,0,1,0,1Zm-8,0h-4a.5.5,0,0,1,0-1h4a.5.5,0,0,1,0,1Zm-8,0h-4a.5.5,0,0,1,0-1h4a.5.5,0,0,1,0,1Zm-8,0h-4a.5.5,0,0,1,0-1h4a.5.5,0,0,1,0,1Zm-8,0h-4a.5.5,0,0,1,0-1h4a.5.5,0,0,1,0,1Zm-8,0h-4a.5.5,0,0,1,0-1h4a.5.5,0,0,1,0,1Zm-8,0h-4a.5.5,0,0,1,0-1h4a.5.5,0,0,1,0,1Zm-8,0h-4a.5.5,0,0,1,0-1h4a.5.5,0,0,1,0,1Zm-8,0h-4a.5.5,0,0,1,0-1h4a.5.5,0,0,1,0,1Zm-8,0h-4a.5.5,0,0,1,0-1h4a.5.5,0,0,1,0,1Zm-8,0h-4a.5.5,0,0,1,0-1h4a.5.5,0,0,1,0,1Zm-8,0H96a.5.5,0,0,1,0-1h4a.5.5,0,0,1,0,1Zm-8,0H88a.5.5,0,0,1,0-1h4a.5.5,0,0,1,0,1Zm-8,0H80a.5.5,0,0,1,0-1h4a.5.5,0,0,1,0,1Zm-8,0H72a.5.5,0,0,1,0-1h4a.5.5,0,0,1,0,1Zm-8,0H64a.5.5,0,0,1,0-1h4a.5.5,0,0,1,0,1Zm-8,0H56a.5.5,0,0,1,0-1h4a.5.5,0,0,1,0,1Zm-8,0H48a.5.5,0,0,1,0-1h4a.5.5,0,0,1,0,1Zm-8,0H40a.5.5,0,0,1,0-1h4a.5.5,0,0,1,0,1Zm-8,0H32a.5.5,0,0,1,0-1h4a.5.5,0,0,1,0,1Zm-8,0H24a.5.5,0,0,1,0-1h4a.5.5,0,0,1,0,1Zm-8,0H16a.5.5,0,0,1,0-1h4a.5.5,0,0,1,0,1Z"/><path class="cls-2" d="M450,12.5a.5.5,0,0,1-.5-.5V10.5H448a.5.5,0,0,1,0-1h2a.5.5,0,0,1,.5.5v2A.5.5,0,0,1,450,12.5Z"/><path class="cls-2" d="M450,376a.5.5,0,0,1-.5-.5v-4a.5.5,0,0,1,1,0v4A.5.5,0,0,1,450,376Zm0-8.07a.5.5,0,0,1-.5-.5v-4a.5.5,0,0,1,1,0v4A.5.5,0,0,1,450,367.94Zm0-8.08a.5.5,0,0,1-.5-.5v-4a.5.5,0,1,1,1,0v4A.5.5,0,0,1,450,359.86Zm0-8.08a.5.5,0,0,1-.5-.5v-4a.5.5,0,0,1,1,0v4A.5.5,0,0,1,450,351.78Zm0-8.08a.5.5,0,0,1-.5-.5v-4a.5.5,0,0,1,1,0v4A.5.5,0,0,1,450,343.7Zm0-8.08a.5.5,0,0,1-.5-.5v-4a.5.5,0,1,1,1,0v4A.5.5,0,0,1,450,335.62Zm0-8.07a.5.5,0,0,1-.5-.5v-4a.5.5,0,0,1,1,0v4A.5.5,0,0,1,450,327.55Zm0-8.08a.5.5,0,0,1-.5-.5v-4a.5.5,0,0,1,1,0v4A.5.5,0,0,1,450,319.47Zm0-8.08a.5.5,0,0,1-.5-.5v-4a.5.5,0,0,1,1,0v4A.5.5,0,0,1,450,311.39Zm0-8.08a.5.5,0,0,1-.5-.5v-4a.5.5,0,0,1,1,0v4A.5.5,0,0,1,450,303.31Zm0-8.08a.5.5,0,0,1-.5-.5v-4a.5.5,0,0,1,1,0v4A.5.5,0,0,1,450,295.23Zm0-8.07a.5.5,0,0,1-.5-.5v-4a.5.5,0,0,1,1,0v4A.5.5,0,0,1,450,287.16Zm0-8.08a.5.5,0,0,1-.5-.5v-4a.5.5,0,1,1,1,0v4A.5.5,0,0,1,450,279.08Zm0-8.08a.5.5,0,0,1-.5-.5v-4a.5.5,0,0,1,1,0v4A.5.5,0,0,1,450,271Zm0-8.08a.5.5,0,0,1-.5-.5v-4a.5.5,0,0,1,1,0v4A.5.5,0,0,1,450,262.92Zm0-8.08a.5.5,0,0,1-.5-.5v-4a.5.5,0,1,1,1,0v4A.5.5,0,0,1,450,254.84Zm0-8.08a.5.5,0,0,1-.5-.5v-4a.5.5,0,0,1,1,0v4A.5.5,0,0,1,450,246.76Zm0-8.07a.5.5,0,0,1-.5-.5v-4a.5.5,0,1,1,1,0v4A.5.5,0,0,1,450,238.69Zm0-8.08a.5.5,0,0,1-.5-.5v-4a.5.5,0,1,1,1,0v4A.5.5,0,0,1,450,230.61Zm0-8.08a.5.5,0,0,1-.5-.5v-4a.5.5,0,0,1,1,0v4A.5.5,0,0,1,450,222.53Zm0-8.08a.5.5,0,0,1-.5-.5v-4a.5.5,0,1,1,1,0v4A.5.5,0,0,1,450,214.45Zm0-8.08a.5.5,0,0,1-.5-.5v-4a.5.5,0,0,1,1,0v4A.5.5,0,0,1,450,206.37Zm0-8.07a.5.5,0,0,1-.5-.5v-4a.5.5,0,0,1,1,0v4A.5.5,0,0,1,450,198.3Zm0-8.08a.5.5,0,0,1-.5-.5v-4a.5.5,0,0,1,1,0v4A.5.5,0,0,1,450,190.22Zm0-8.08a.5.5,0,0,1-.5-.5v-4a.5.5,0,0,1,1,0v4A.5.5,0,0,1,450,182.14Zm0-8.08a.5.5,0,0,1-.5-.5v-4a.5.5,0,1,1,1,0v4A.5.5,0,0,1,450,174.06Zm0-8.08a.5.5,0,0,1-.5-.5v-4a.5.5,0,0,1,1,0v4A.5.5,0,0,1,450,166Zm0-8.07a.5.5,0,0,1-.5-.5v-4a.5.5,0,0,1,1,0v4A.5.5,0,0,1,450,157.91Zm0-8.08a.5.5,0,0,1-.5-.5v-4a.5.5,0,1,1,1,0v4A.5.5,0,0,1,450,149.83Zm0-8.08a.5.5,0,0,1-.5-.5v-4a.5.5,0,0,1,1,0v4A.5.5,0,0,1,450,141.75Zm0-8.08a.5.5,0,0,1-.5-.5v-4a.5.5,0,0,1,1,0v4A.5.5,0,0,1,450,133.67Zm0-8.08a.5.5,0,0,1-.5-.5v-4a.5.5,0,1,1,1,0v4A.5.5,0,0,1,450,125.59Zm0-8.07a.5.5,0,0,1-.5-.5v-4a.5.5,0,0,1,1,0v4A.5.5,0,0,1,450,117.52Zm0-8.08a.5.5,0,0,1-.5-.5v-4a.5.5,0,1,1,1,0v4A.5.5,0,0,1,450,109.44Zm0-8.08a.5.5,0,0,1-.5-.5v-4a.5.5,0,1,1,1,0v4A.5.5,0,0,1,450,101.36Zm0-8.08a.5.5,0,0,1-.5-.5v-4a.5.5,0,0,1,1,0v4A.5.5,0,0,1,450,93.28Zm0-8.08a.5.5,0,0,1-.5-.5v-4a.5.5,0,1,1,1,0v4A.5.5,0,0,1,450,85.2Zm0-8.08a.5.5,0,0,1-.5-.5v-4a.5.5,0,0,1,1,0v4A.5.5,0,0,1,450,77.12Zm0-8.07a.5.5,0,0,1-.5-.5v-4a.5.5,0,1,1,1,0v4A.5.5,0,0,1,450,69.05ZM450,61a.5.5,0,0,1-.5-.5v-4a.5.5,0,0,1,1,0v4A.5.5,0,0,1,450,61Zm0-8.08a.5.5,0,0,1-.5-.5v-4a.5.5,0,0,1,1,0v4A.5.5,0,0,1,450,52.89Zm0-8.08a.5.5,0,0,1-.5-.5v-4a.5.5,0,1,1,1,0v4A.5.5,0,0,1,450,44.81Zm0-8.08a.5.5,0,0,1-.5-.5v-4a.5.5,0,1,1,1,0v4A.5.5,0,0,1,450,36.73Zm0-8.07a.5.5,0,0,1-.5-.5v-4a.5.5,0,0,1,1,0v4A.5.5,0,0,1,450,28.66Zm0-8.08a.5.5,0,0,1-.5-.5V16a.5.5,0,0,1,1,0v4A.5.5,0,0,1,450,20.58Z"/><path class="cls-2" d="M133.32,6.87a2.07,2.07,0,1,0-2.18,2.05L133.66,10l-2.5,1.07a2.07,2.07,0,1,0,2.2,2.06,2.09,2.09,0,0,0-.79-1.63l2.32-1,7.24,3.07a.48.48,0,0,0,.63-.26.47.47,0,0,0-.24-.63L136.13,10l6.39-2.74a.47.47,0,0,0,.25-.63.49.49,0,0,0-.64-.25l-7.24,3.1-2.34-1A2,2,0,0,0,133.32,6.87Zm-2,1.1a1.11,1.11,0,1,1,1.1-1.1A1.11,1.11,0,0,1,131.27,8Zm1.14,5.15A1.12,1.12,0,1,1,131.29,12,1.12,1.12,0,0,1,132.41,13.12Z"/></g></g></svg>