<svg xmlns="http://www.w3.org/2000/svg" xmlns:xlink="http://www.w3.org/1999/xlink" viewBox="0 0 700 484.52"><defs><style>.cls-1{fill:url(#New_Gradient_Swatch_2);}.cls-2{fill:#fff;}</style><linearGradient id="New_Gradient_Swatch_2" x1="19.95" y1="-20.19" x2="673.68" y2="499.64" gradientUnits="userSpaceOnUse"><stop offset="0" stop-color="#ff5f6d"/><stop offset="1" stop-color="#ffc371"/></linearGradient></defs><title>discount-for-business-job-postings-background</title><g id="Layer_2" data-name="Layer 2"><g id="desktop"><rect class="cls-1" width="700" height="484.52" rx="2"/><path class="cls-2" d="M684.78,472.77h-3a.63.63,0,1,1,0-1.24H684v-1.86a.78.78,0,0,1,1.52,0v2.48A.7.7,0,0,1,684.78,472.77Z"/><path class="cls-2" d="M675.65,472.77h-6.08a.63.63,0,1,1,0-1.24h6.08a.63.63,0,1,1,0,1.24Zm-12.17,0h-6.09a.63.63,0,1,1,0-1.24h6.09a.63.63,0,1,1,0,1.24Zm-12.18,0h-6.08a.63.63,0,1,1,0-1.24h6.08a.63.63,0,1,1,0,1.24Zm-12.17,0H633a.63.63,0,1,1,0-1.24h6.09a.63.63,0,1,1,0,1.24Zm-12.17,0h-6.09a.63.63,0,1,1,0-1.24H627a.63.63,0,1,1,0,1.24Zm-12.18,0H608.7a.63.63,0,1,1,0-1.24h6.08a.63.63,0,1,1,0,1.24Zm-12.17,0h-6.09a.63.63,0,1,1,0-1.24h6.09a.63.63,0,1,1,0,1.24Zm-12.17,0h-6.09a.63.63,0,1,1,0-1.24h6.09a.63.63,0,1,1,0,1.24Zm-12.18,0h-6.09a.63.63,0,1,1,0-1.24h6.09a.63.63,0,1,1,0,1.24Zm-12.17,0H560a.63.63,0,1,1,0-1.24h6.09a.63.63,0,1,1,0,1.24Zm-12.18,0h-6.08a.63.63,0,1,1,0-1.24h6.08a.63.63,0,1,1,0,1.24Zm-12.17,0h-6.09a.63.63,0,1,1,0-1.24h6.09a.63.63,0,1,1,0,1.24Zm-12.17,0h-6.09a.63.63,0,1,1,0-1.24h6.09a.63.63,0,1,1,0,1.24Zm-12.18,0H511.3a.63.63,0,1,1,0-1.24h6.09a.63.63,0,1,1,0,1.24Zm-12.17,0h-6.09a.63.63,0,1,1,0-1.24h6.09a.63.63,0,1,1,0,1.24Zm-12.18,0H487a.63.63,0,1,1,0-1.24H493a.63.63,0,1,1,0,1.24Zm-12.17,0h-6.09a.63.63,0,1,1,0-1.24h6.09a.63.63,0,1,1,0,1.24Zm-12.17,0h-6.09a.63.63,0,1,1,0-1.24h6.09a.63.63,0,1,1,0,1.24Zm-12.18,0h-6.08a.63.63,0,1,1,0-1.24h6.08a.63.63,0,1,1,0,1.24Zm-12.17,0h-6.09a.63.63,0,1,1,0-1.24h6.09a.63.63,0,1,1,0,1.24Zm-12.18,0h-6.08a.63.63,0,1,1,0-1.24h6.08a.63.63,0,1,1,0,1.24Zm-12.17,0h-6.09a.63.63,0,1,1,0-1.24H420a.63.63,0,1,1,0,1.24Zm-12.17,0h-6.09a.63.63,0,1,1,0-1.24h6.09a.63.63,0,1,1,0,1.24Zm-12.18,0h-6.08a.63.63,0,1,1,0-1.24h6.08a.63.63,0,1,1,0,1.24Zm-12.17,0h-6.09a.63.63,0,1,1,0-1.24h6.09a.63.63,0,1,1,0,1.24Zm-12.18,0h-6.08a.63.63,0,1,1,0-1.24h6.08a.63.63,0,1,1,0,1.24Zm-12.17,0H353a.63.63,0,1,1,0-1.24h6.09a.63.63,0,1,1,0,1.24Zm-12.17,0h-6.09a.63.63,0,1,1,0-1.24H347a.63.63,0,1,1,0,1.24Zm-12.18,0H328.7a.63.63,0,1,1,0-1.24h6.08a.63.63,0,1,1,0,1.24Zm-12.17,0h-6.09a.63.63,0,1,1,0-1.24h6.09a.63.63,0,1,1,0,1.24Zm-12.17,0h-6.09a.63.63,0,1,1,0-1.24h6.09a.63.63,0,1,1,0,1.24Zm-12.18,0h-6.09a.63.63,0,1,1,0-1.24h6.09a.63.63,0,1,1,0,1.24Zm-12.17,0H280a.63.63,0,1,1,0-1.24h6.09a.63.63,0,1,1,0,1.24Zm-12.18,0h-6.08a.63.63,0,1,1,0-1.24h6.08a.63.63,0,1,1,0,1.24Zm-12.17,0h-6.09a.63.63,0,1,1,0-1.24h6.09a.63.63,0,1,1,0,1.24Zm-12.17,0h-6.09a.63.63,0,1,1,0-1.24h6.09a.63.63,0,1,1,0,1.24Zm-12.18,0H231.3a.63.63,0,1,1,0-1.24h6.09a.63.63,0,1,1,0,1.24Zm-12.17,0h-6.09a.63.63,0,1,1,0-1.24h6.09a.63.63,0,1,1,0,1.24Zm-12.18,0H207a.63.63,0,1,1,0-1.24H213a.63.63,0,1,1,0,1.24Zm-12.17,0h-6.09a.63.63,0,1,1,0-1.24h6.09a.63.63,0,1,1,0,1.24Zm-12.17,0h-6.09a.63.63,0,1,1,0-1.24h6.09a.63.63,0,1,1,0,1.24Zm-12.18,0h-6.08a.63.63,0,1,1,0-1.24h6.08a.63.63,0,1,1,0,1.24Zm-12.17,0h-6.09a.63.63,0,1,1,0-1.24h6.09a.63.63,0,1,1,0,1.24Zm-12.18,0h-6.08a.63.63,0,1,1,0-1.24h6.08a.63.63,0,1,1,0,1.24Zm-12.17,0h-6.09a.63.63,0,1,1,0-1.24H140a.63.63,0,1,1,0,1.24Zm-12.17,0h-6.09a.63.63,0,1,1,0-1.24h6.09a.63.63,0,1,1,0,1.24Zm-12.18,0h-6.08a.63.63,0,1,1,0-1.24h6.08a.63.63,0,1,1,0,1.24Zm-12.17,0H97.39a.63.63,0,1,1,0-1.24h6.09a.63.63,0,1,1,0,1.24Zm-12.18,0H85.22a.63.63,0,1,1,0-1.24H91.3a.63.63,0,1,1,0,1.24Zm-12.17,0H73a.63.63,0,1,1,0-1.24h6.09a.63.63,0,1,1,0,1.24Zm-12.17,0H60.87a.63.63,0,1,1,0-1.24H67a.63.63,0,1,1,0,1.24Zm-12.18,0H48.7a.63.63,0,1,1,0-1.24h6.08a.63.63,0,1,1,0,1.24Zm-12.17,0H36.52a.63.63,0,1,1,0-1.24h6.09a.63.63,0,1,1,0,1.24Zm-12.17,0H24.35a.63.63,0,1,1,0-1.24h6.09a.63.63,0,1,1,0,1.24Z"/><path class="cls-2" d="M18.26,472.77h-3a.7.7,0,0,1-.76-.62v-2.48a.78.78,0,0,1,1.52,0v1.86h2.28a.63.63,0,1,1,0,1.24Z"/><path class="cls-2" d="M15.22,465.29a.7.7,0,0,1-.76-.62v-5a.78.78,0,0,1,1.52,0v5A.7.7,0,0,1,15.22,465.29Zm0-10a.7.7,0,0,1-.76-.62v-5a.78.78,0,0,1,1.52,0v5A.7.7,0,0,1,15.22,455.3Zm0-10a.7.7,0,0,1-.76-.62v-5a.78.78,0,0,1,1.52,0v5A.7.7,0,0,1,15.22,445.3Zm0-10a.7.7,0,0,1-.76-.61v-5a.78.78,0,0,1,1.52,0v5A.7.7,0,0,1,15.22,435.3Zm0-10a.7.7,0,0,1-.76-.62v-5a.78.78,0,0,1,1.52,0v5A.7.7,0,0,1,15.22,425.31Zm0-10a.7.7,0,0,1-.76-.62v-5a.78.78,0,0,1,1.52,0v5A.7.7,0,0,1,15.22,415.31Zm0-10a.7.7,0,0,1-.76-.62v-5a.78.78,0,0,1,1.52,0v5A.7.7,0,0,1,15.22,405.32Zm0-10a.7.7,0,0,1-.76-.62v-5a.78.78,0,0,1,1.52,0v5A.7.7,0,0,1,15.22,395.32Zm0-10a.7.7,0,0,1-.76-.61v-5a.78.78,0,0,1,1.52,0v5A.7.7,0,0,1,15.22,385.32Zm0-10a.7.7,0,0,1-.76-.62v-5a.78.78,0,0,1,1.52,0v5A.7.7,0,0,1,15.22,375.33Zm0-10a.7.7,0,0,1-.76-.62v-5a.78.78,0,0,1,1.52,0v5A.7.7,0,0,1,15.22,365.33Zm0-10a.7.7,0,0,1-.76-.62v-5a.78.78,0,0,1,1.52,0v5A.7.7,0,0,1,15.22,355.34Zm0-10a.7.7,0,0,1-.76-.62v-5a.78.78,0,0,1,1.52,0v5A.7.7,0,0,1,15.22,345.34Zm0-10a.7.7,0,0,1-.76-.62v-5a.78.78,0,0,1,1.52,0v5A.7.7,0,0,1,15.22,335.34Zm0-10a.7.7,0,0,1-.76-.62v-5a.78.78,0,0,1,1.52,0v5A.7.7,0,0,1,15.22,325.35Zm0-10a.7.7,0,0,1-.76-.62v-5a.78.78,0,0,1,1.52,0v5A.7.7,0,0,1,15.22,315.35Zm0-10a.7.7,0,0,1-.76-.61v-5a.78.78,0,0,1,1.52,0v5A.7.7,0,0,1,15.22,305.35Zm0-10a.7.7,0,0,1-.76-.62v-5a.78.78,0,0,1,1.52,0v5A.7.7,0,0,1,15.22,295.36Zm0-10a.7.7,0,0,1-.76-.62v-5a.78.78,0,0,1,1.52,0v5A.7.7,0,0,1,15.22,285.36Zm0-10a.7.7,0,0,1-.76-.62v-5a.78.78,0,0,1,1.52,0v5A.7.7,0,0,1,15.22,275.37Zm0-10a.7.7,0,0,1-.76-.62v-5a.78.78,0,0,1,1.52,0v5A.7.7,0,0,1,15.22,265.37Zm0-10a.7.7,0,0,1-.76-.61v-5a.78.78,0,0,1,1.52,0v5A.7.7,0,0,1,15.22,255.37Zm0-10a.7.7,0,0,1-.76-.62v-5a.78.78,0,0,1,1.52,0v5A.7.7,0,0,1,15.22,245.38Zm0-10a.7.7,0,0,1-.76-.62v-5a.78.78,0,0,1,1.52,0v5A.7.7,0,0,1,15.22,235.38Zm0-10a.7.7,0,0,1-.76-.62v-5a.78.78,0,0,1,1.52,0v5A.7.7,0,0,1,15.22,225.39Zm0-10a.7.7,0,0,1-.76-.62v-5a.78.78,0,0,1,1.52,0v5A.7.7,0,0,1,15.22,215.39Zm0-10a.7.7,0,0,1-.76-.62v-5a.78.78,0,0,1,1.52,0v5A.7.7,0,0,1,15.22,205.39Zm0-10a.7.7,0,0,1-.76-.62v-5a.78.78,0,0,1,1.52,0v5A.7.7,0,0,1,15.22,195.4Zm0-10a.7.7,0,0,1-.76-.62v-5a.78.78,0,0,1,1.52,0v5A.7.7,0,0,1,15.22,185.4Zm0-10a.7.7,0,0,1-.76-.62v-5a.78.78,0,0,1,1.52,0v5A.7.7,0,0,1,15.22,175.41Zm0-10a.7.7,0,0,1-.76-.62v-5a.78.78,0,0,1,1.52,0v5A.7.7,0,0,1,15.22,165.41Zm0-10a.7.7,0,0,1-.76-.61v-5a.78.78,0,0,1,1.52,0v5A.7.7,0,0,1,15.22,155.41Zm0-10a.7.7,0,0,1-.76-.62v-5a.78.78,0,0,1,1.52,0v5A.7.7,0,0,1,15.22,145.42Zm0-10a.7.7,0,0,1-.76-.62v-5a.78.78,0,0,1,1.52,0v5A.7.7,0,0,1,15.22,135.42Zm0-10a.7.7,0,0,1-.76-.62v-5a.78.78,0,0,1,1.52,0v5A.7.7,0,0,1,15.22,125.43Zm0-10a.7.7,0,0,1-.76-.62v-5a.78.78,0,0,1,1.52,0v5A.7.7,0,0,1,15.22,115.43Zm0-10a.7.7,0,0,1-.76-.62v-5a.78.78,0,0,1,1.52,0v5A.7.7,0,0,1,15.22,105.43Zm0-10a.7.7,0,0,1-.76-.62v-5a.78.78,0,0,1,1.52,0v5A.7.7,0,0,1,15.22,95.44Zm0-10a.7.7,0,0,1-.76-.62v-5a.78.78,0,0,1,1.52,0v5A.7.7,0,0,1,15.22,85.44Zm0-10a.7.7,0,0,1-.76-.61v-5a.78.78,0,0,1,1.52,0v5A.7.7,0,0,1,15.22,75.44Zm0-10a.7.7,0,0,1-.76-.62v-5a.78.78,0,0,1,1.52,0v5A.7.7,0,0,1,15.22,65.45Zm0-10a.7.7,0,0,1-.76-.62v-5a.78.78,0,0,1,1.52,0v5A.7.7,0,0,1,15.22,55.45Zm0-10a.7.7,0,0,1-.76-.62v-5a.78.78,0,0,1,1.52,0v5A.7.7,0,0,1,15.22,45.46Zm0-10a.7.7,0,0,1-.76-.62v-5a.78.78,0,0,1,1.52,0v5A.7.7,0,0,1,15.22,35.46Zm0-10a.7.7,0,0,1-.76-.61v-5a.78.78,0,0,1,1.52,0v5A.7.7,0,0,1,15.22,25.46Z"/><path class="cls-2" d="M15.22,15.47a.7.7,0,0,1-.76-.62V12.37a.7.7,0,0,1,.76-.61h3a.7.7,0,0,1,.76.61.7.7,0,0,1-.76.62H16v1.86A.7.7,0,0,1,15.22,15.47Z"/><path class="cls-2" d="M675.65,13h-6.08a.71.71,0,0,1-.77-.62.71.71,0,0,1,.77-.61h6.08a.7.7,0,0,1,.76.61A.7.7,0,0,1,675.65,13Zm-12.17,0h-6.09a.7.7,0,0,1-.76-.62.7.7,0,0,1,.76-.61h6.09a.7.7,0,0,1,.76.61A.7.7,0,0,1,663.48,13ZM651.3,13h-6.08a.7.7,0,0,1-.76-.62.7.7,0,0,1,.76-.61h6.08a.7.7,0,0,1,.77.61A.7.7,0,0,1,651.3,13Zm-12.17,0H633a.7.7,0,0,1-.76-.62.7.7,0,0,1,.76-.61h6.09a.7.7,0,0,1,.76.61A.7.7,0,0,1,639.13,13ZM627,13h-6.09a.7.7,0,0,1-.76-.62.7.7,0,0,1,.76-.61H627a.7.7,0,0,1,.76.61A.7.7,0,0,1,627,13Zm-12.18,0H608.7a.7.7,0,0,1-.76-.62.7.7,0,0,1,.76-.61h6.08a.7.7,0,0,1,.76.61A.7.7,0,0,1,614.78,13Zm-12.17,0h-6.09a.7.7,0,0,1-.76-.62.7.7,0,0,1,.76-.61h6.09a.7.7,0,0,1,.76.61A.7.7,0,0,1,602.61,13Zm-12.17,0h-6.09a.7.7,0,0,1-.76-.62.7.7,0,0,1,.76-.61h6.09a.7.7,0,0,1,.76.61A.7.7,0,0,1,590.44,13Zm-12.18,0h-6.09a.7.7,0,0,1-.76-.62.7.7,0,0,1,.76-.61h6.09a.7.7,0,0,1,.76.61A.7.7,0,0,1,578.26,13Zm-12.17,0H560a.7.7,0,0,1-.76-.62.7.7,0,0,1,.76-.61h6.09a.7.7,0,0,1,.76.61A.7.7,0,0,1,566.09,13Zm-12.18,0h-6.08a.7.7,0,0,1-.76-.62.7.7,0,0,1,.76-.61h6.08a.7.7,0,0,1,.76.61A.7.7,0,0,1,553.91,13Zm-12.17,0h-6.09a.7.7,0,0,1-.76-.62.7.7,0,0,1,.76-.61h6.09a.7.7,0,0,1,.76.61A.7.7,0,0,1,541.74,13Zm-12.17,0h-6.09a.7.7,0,0,1-.76-.62.7.7,0,0,1,.76-.61h6.09a.7.7,0,0,1,.76.61A.7.7,0,0,1,529.57,13Zm-12.18,0H511.3a.7.7,0,0,1-.76-.62.7.7,0,0,1,.76-.61h6.09a.7.7,0,0,1,.76.61A.7.7,0,0,1,517.39,13Zm-12.17,0h-6.09a.7.7,0,0,1-.76-.62.7.7,0,0,1,.76-.61h6.09a.7.7,0,0,1,.76.61A.7.7,0,0,1,505.22,13ZM493,13H487a.7.7,0,0,1-.76-.62.7.7,0,0,1,.76-.61H493a.7.7,0,0,1,.76.61A.7.7,0,0,1,493,13Zm-12.17,0h-6.09a.7.7,0,0,1-.76-.62.7.7,0,0,1,.76-.61h6.09a.7.7,0,0,1,.76.61A.7.7,0,0,1,480.87,13ZM468.7,13h-6.09a.7.7,0,0,1-.76-.62.7.7,0,0,1,.76-.61h6.09a.7.7,0,0,1,.76.61A.7.7,0,0,1,468.7,13Zm-12.18,0h-6.08a.7.7,0,0,1-.77-.62.7.7,0,0,1,.77-.61h6.08a.7.7,0,0,1,.76.61A.7.7,0,0,1,456.52,13Zm-12.17,0h-6.09a.7.7,0,0,1-.76-.62.7.7,0,0,1,.76-.61h6.09a.7.7,0,0,1,.76.61A.7.7,0,0,1,444.35,13Zm-12.18,0h-6.08a.7.7,0,0,1-.76-.62.7.7,0,0,1,.76-.61h6.08a.71.71,0,0,1,.77.61A.71.71,0,0,1,432.17,13ZM420,13h-6.09a.7.7,0,0,1-.76-.62.7.7,0,0,1,.76-.61H420a.7.7,0,0,1,.76.61A.7.7,0,0,1,420,13Zm-12.17,0h-6.09a.7.7,0,0,1-.76-.62.7.7,0,0,1,.76-.61h6.09a.7.7,0,0,1,.76.61A.7.7,0,0,1,407.83,13Zm-12.18,0h-6.08a.71.71,0,0,1-.77-.62.71.71,0,0,1,.77-.61h6.08a.7.7,0,0,1,.76.61A.7.7,0,0,1,395.65,13Zm-12.17,0h-6.09a.7.7,0,0,1-.76-.62.7.7,0,0,1,.76-.61h6.09a.7.7,0,0,1,.76.61A.7.7,0,0,1,383.48,13ZM371.3,13h-6.08a.7.7,0,0,1-.76-.62.7.7,0,0,1,.76-.61h6.08a.7.7,0,0,1,.77.61A.7.7,0,0,1,371.3,13Zm-12.17,0H353a.7.7,0,0,1-.76-.62.7.7,0,0,1,.76-.61h6.09a.7.7,0,0,1,.76.61A.7.7,0,0,1,359.13,13ZM347,13h-6.09a.7.7,0,0,1-.76-.62.7.7,0,0,1,.76-.61H347a.7.7,0,0,1,.76.61A.7.7,0,0,1,347,13Zm-12.18,0H328.7a.7.7,0,0,1-.76-.62.7.7,0,0,1,.76-.61h6.08a.7.7,0,0,1,.76.61A.7.7,0,0,1,334.78,13Zm-12.17,0h-6.09a.7.7,0,0,1-.76-.62.7.7,0,0,1,.76-.61h6.09a.7.7,0,0,1,.76.61A.7.7,0,0,1,322.61,13Zm-12.17,0h-6.09a.7.7,0,0,1-.76-.62.7.7,0,0,1,.76-.61h6.09a.7.7,0,0,1,.76.61A.7.7,0,0,1,310.44,13Zm-12.18,0h-6.09a.7.7,0,0,1-.76-.62.7.7,0,0,1,.76-.61h6.09a.7.7,0,0,1,.76.61A.7.7,0,0,1,298.26,13Zm-12.17,0H280a.7.7,0,0,1-.76-.62.7.7,0,0,1,.76-.61h6.09a.7.7,0,0,1,.76.61A.7.7,0,0,1,286.09,13Zm-12.18,0h-6.08a.7.7,0,0,1-.76-.62.7.7,0,0,1,.76-.61h6.08a.7.7,0,0,1,.76.61A.7.7,0,0,1,273.91,13Zm-12.17,0h-6.09a.7.7,0,0,1-.76-.62.7.7,0,0,1,.76-.61h6.09a.7.7,0,0,1,.76.61A.7.7,0,0,1,261.74,13Zm-12.17,0h-6.09a.7.7,0,0,1-.76-.62.7.7,0,0,1,.76-.61h6.09a.7.7,0,0,1,.76.61A.7.7,0,0,1,249.57,13Zm-12.18,0H231.3a.7.7,0,0,1-.76-.62.7.7,0,0,1,.76-.61h6.09a.7.7,0,0,1,.76.61A.7.7,0,0,1,237.39,13Zm-12.17,0h-6.09a.7.7,0,0,1-.76-.62.7.7,0,0,1,.76-.61h6.09a.7.7,0,0,1,.76.61A.7.7,0,0,1,225.22,13ZM213,13H207a.7.7,0,0,1-.76-.62.7.7,0,0,1,.76-.61H213a.7.7,0,0,1,.76.61A.7.7,0,0,1,213,13Zm-12.17,0h-6.09a.7.7,0,0,1-.76-.62.7.7,0,0,1,.76-.61h6.09a.7.7,0,0,1,.76.61A.7.7,0,0,1,200.87,13ZM188.7,13h-6.09a.7.7,0,0,1-.76-.62.7.7,0,0,1,.76-.61h6.09a.7.7,0,0,1,.76.61A.7.7,0,0,1,188.7,13Zm-12.18,0h-6.08a.7.7,0,0,1-.77-.62.7.7,0,0,1,.77-.61h6.08a.7.7,0,0,1,.76.61A.7.7,0,0,1,176.52,13Zm-12.17,0h-6.09a.7.7,0,0,1-.76-.62.7.7,0,0,1,.76-.61h6.09a.7.7,0,0,1,.76.61A.7.7,0,0,1,164.35,13Zm-12.18,0h-6.08a.7.7,0,0,1-.76-.62.7.7,0,0,1,.76-.61h6.08a.71.71,0,0,1,.77.61A.71.71,0,0,1,152.17,13ZM140,13h-6.09a.7.7,0,0,1-.76-.62.7.7,0,0,1,.76-.61H140a.7.7,0,0,1,.76.61A.7.7,0,0,1,140,13Zm-12.17,0h-6.09a.7.7,0,0,1-.76-.62.7.7,0,0,1,.76-.61h6.09a.7.7,0,0,1,.76.61A.7.7,0,0,1,127.83,13Zm-12.18,0h-6.08a.71.71,0,0,1-.77-.62.71.71,0,0,1,.77-.61h6.08a.7.7,0,0,1,.76.61A.7.7,0,0,1,115.65,13Zm-12.17,0H97.39a.7.7,0,0,1-.76-.62.7.7,0,0,1,.76-.61h6.09a.7.7,0,0,1,.76.61A.7.7,0,0,1,103.48,13ZM91.3,13H85.22a.7.7,0,0,1-.76-.62.7.7,0,0,1,.76-.61H91.3a.7.7,0,0,1,.77.61A.7.7,0,0,1,91.3,13ZM79.13,13H73a.7.7,0,0,1-.76-.62.7.7,0,0,1,.76-.61h6.09a.7.7,0,0,1,.76.61A.7.7,0,0,1,79.13,13ZM67,13H60.87a.7.7,0,0,1-.76-.62.7.7,0,0,1,.76-.61H67a.7.7,0,0,1,.76.61A.7.7,0,0,1,67,13ZM54.78,13H48.7a.7.7,0,0,1-.76-.62.7.7,0,0,1,.76-.61h6.08a.7.7,0,0,1,.76.61A.7.7,0,0,1,54.78,13ZM42.61,13H36.52a.7.7,0,0,1-.76-.62.7.7,0,0,1,.76-.61h6.09a.7.7,0,0,1,.76.61A.7.7,0,0,1,42.61,13ZM30.44,13H24.35a.7.7,0,0,1-.76-.62.7.7,0,0,1,.76-.61h6.09a.7.7,0,0,1,.76.61A.7.7,0,0,1,30.44,13Z"/><path class="cls-2" d="M684.78,15.47a.7.7,0,0,1-.76-.62V13h-2.28a.7.7,0,0,1-.76-.62.7.7,0,0,1,.76-.61h3a.7.7,0,0,1,.76.61v2.48A.7.7,0,0,1,684.78,15.47Z"/><path class="cls-2" d="M684.78,465.29a.7.7,0,0,1-.76-.62v-5a.78.78,0,0,1,1.52,0v5A.7.7,0,0,1,684.78,465.29Zm0-10a.7.7,0,0,1-.76-.62v-5a.78.78,0,0,1,1.52,0v5A.7.7,0,0,1,684.78,455.3Zm0-10a.7.7,0,0,1-.76-.62v-5a.78.78,0,0,1,1.52,0v5A.7.7,0,0,1,684.78,445.3Zm0-10a.7.7,0,0,1-.76-.61v-5a.78.78,0,0,1,1.52,0v5A.7.7,0,0,1,684.78,435.3Zm0-10a.7.7,0,0,1-.76-.62v-5a.78.78,0,0,1,1.52,0v5A.7.7,0,0,1,684.78,425.31Zm0-10a.7.7,0,0,1-.76-.62v-5a.78.78,0,0,1,1.52,0v5A.7.7,0,0,1,684.78,415.31Zm0-10a.7.7,0,0,1-.76-.62v-5a.78.78,0,0,1,1.52,0v5A.7.7,0,0,1,684.78,405.32Zm0-10a.7.7,0,0,1-.76-.62v-5a.78.78,0,0,1,1.52,0v5A.7.7,0,0,1,684.78,395.32Zm0-10a.7.7,0,0,1-.76-.61v-5a.78.78,0,0,1,1.52,0v5A.7.7,0,0,1,684.78,385.32Zm0-10a.7.7,0,0,1-.76-.62v-5a.78.78,0,0,1,1.52,0v5A.7.7,0,0,1,684.78,375.33Zm0-10a.7.7,0,0,1-.76-.62v-5a.78.78,0,0,1,1.52,0v5A.7.7,0,0,1,684.78,365.33Zm0-10a.7.7,0,0,1-.76-.62v-5a.78.78,0,0,1,1.52,0v5A.7.7,0,0,1,684.78,355.34Zm0-10a.7.7,0,0,1-.76-.62v-5a.78.78,0,0,1,1.52,0v5A.7.7,0,0,1,684.78,345.34Zm0-10a.7.7,0,0,1-.76-.62v-5a.78.78,0,0,1,1.52,0v5A.7.7,0,0,1,684.78,335.34Zm0-10a.7.7,0,0,1-.76-.62v-5a.78.78,0,0,1,1.52,0v5A.7.7,0,0,1,684.78,325.35Zm0-10a.7.7,0,0,1-.76-.62v-5a.78.78,0,0,1,1.52,0v5A.7.7,0,0,1,684.78,315.35Zm0-10a.7.7,0,0,1-.76-.61v-5a.78.78,0,0,1,1.52,0v5A.7.7,0,0,1,684.78,305.35Zm0-10a.7.7,0,0,1-.76-.62v-5a.78.78,0,0,1,1.52,0v5A.7.7,0,0,1,684.78,295.36Zm0-10a.7.7,0,0,1-.76-.62v-5a.78.78,0,0,1,1.52,0v5A.7.7,0,0,1,684.78,285.36Zm0-10a.7.7,0,0,1-.76-.62v-5a.78.78,0,0,1,1.52,0v5A.7.7,0,0,1,684.78,275.37Zm0-10a.7.7,0,0,1-.76-.62v-5a.78.78,0,0,1,1.52,0v5A.7.7,0,0,1,684.78,265.37Zm0-10a.7.7,0,0,1-.76-.62v-5a.78.78,0,0,1,1.52,0v5A.7.7,0,0,1,684.78,255.38Zm0-10a.7.7,0,0,1-.76-.62v-5a.78.78,0,0,1,1.52,0v5A.7.7,0,0,1,684.78,245.38Zm0-10a.7.7,0,0,1-.76-.62v-5a.78.78,0,0,1,1.52,0v5A.7.7,0,0,1,684.78,235.38Zm0-10a.7.7,0,0,1-.76-.62v-5a.78.78,0,0,1,1.52,0v5A.7.7,0,0,1,684.78,225.39Zm0-10a.7.7,0,0,1-.76-.62v-5a.78.78,0,0,1,1.52,0v5A.7.7,0,0,1,684.78,215.39Zm0-10a.7.7,0,0,1-.76-.61v-5a.78.78,0,0,1,1.52,0v5A.7.7,0,0,1,684.78,205.39Zm0-10a.7.7,0,0,1-.76-.62v-5a.78.78,0,0,1,1.52,0v5A.7.7,0,0,1,684.78,195.4Zm0-10a.7.7,0,0,1-.76-.62v-5a.78.78,0,0,1,1.52,0v5A.7.7,0,0,1,684.78,185.4Zm0-10a.7.7,0,0,1-.76-.62v-5a.78.78,0,0,1,1.52,0v5A.7.7,0,0,1,684.78,175.41Zm0-10a.7.7,0,0,1-.76-.62v-5a.78.78,0,0,1,1.52,0v5A.7.7,0,0,1,684.78,165.41Zm0-10a.7.7,0,0,1-.76-.61v-5a.78.78,0,0,1,1.52,0v5A.7.7,0,0,1,684.78,155.41Zm0-10a.7.7,0,0,1-.76-.62v-5a.78.78,0,0,1,1.52,0v5A.7.7,0,0,1,684.78,145.42Zm0-10a.7.7,0,0,1-.76-.62v-5a.78.78,0,0,1,1.52,0v5A.7.7,0,0,1,684.78,135.42Zm0-10a.7.7,0,0,1-.76-.62v-5a.78.78,0,0,1,1.52,0v5A.7.7,0,0,1,684.78,125.43Zm0-10a.7.7,0,0,1-.76-.62v-5a.78.78,0,0,1,1.52,0v5A.7.7,0,0,1,684.78,115.43Zm0-10a.7.7,0,0,1-.76-.62v-5a.78.78,0,0,1,1.52,0v5A.7.7,0,0,1,684.78,105.43Zm0-10a.7.7,0,0,1-.76-.62v-5a.78.78,0,0,1,1.52,0v5A.7.7,0,0,1,684.78,95.44Zm0-10a.7.7,0,0,1-.76-.62v-5a.78.78,0,0,1,1.52,0v5A.7.7,0,0,1,684.78,85.44Zm0-10a.7.7,0,0,1-.76-.61v-5a.78.78,0,0,1,1.52,0v5A.7.7,0,0,1,684.78,75.44Zm0-10a.7.7,0,0,1-.76-.62v-5a.78.78,0,0,1,1.52,0v5A.7.7,0,0,1,684.78,65.45Zm0-10a.7.7,0,0,1-.76-.62v-5a.78.78,0,0,1,1.52,0v5A.7.7,0,0,1,684.78,55.45Zm0-10a.7.7,0,0,1-.76-.62v-5a.78.78,0,0,1,1.52,0v5A.7.7,0,0,1,684.78,45.46Zm0-10a.7.7,0,0,1-.76-.62v-5a.78.78,0,0,1,1.52,0v5A.7.7,0,0,1,684.78,35.46Zm0-10a.7.7,0,0,1-.76-.61v-5a.78.78,0,0,1,1.52,0v5A.7.7,0,0,1,684.78,25.46Z"/><path class="cls-2" d="M202.88,8.5a3.21,3.21,0,0,0-6.28,0,2.85,2.85,0,0,0,3,2.54l3.84,1.32-3.8,1.32a2.87,2.87,0,0,0-3,2.56,3.23,3.23,0,0,0,6.33,0,2.45,2.45,0,0,0-1.2-2L205.27,13l11,3.79a.78.78,0,0,0,1-.32.55.55,0,0,0-.36-.79l-9.73-3.33L216.88,9a.55.55,0,0,0,.37-.78.79.79,0,0,0-1-.31l-11,3.84-3.57-1.22A2.38,2.38,0,0,0,202.88,8.5Zm-3.12,1.36a1.55,1.55,0,0,1-1.68-1.36,1.72,1.72,0,0,1,3.36,0A1.56,1.56,0,0,1,199.76,9.86Zm1.73,6.38a1.73,1.73,0,0,1-3.39,0,1.73,1.73,0,0,1,3.39,0Z"/></g></g></svg>