<svg xmlns="http://www.w3.org/2000/svg" viewBox="0 0 100 80.37"><defs><style>.cls-1{fill:#b3b3b3;}</style></defs><title>Asset 65</title><g id="Layer_2" data-name="Layer 2"><g id="layout"><path class="cls-1" d="M86.45,51.5A8.24,8.24,0,0,0,80,44.75C67.1,41.72,63.86,34.26,63.32,26A75.37,75.37,0,0,0,50,25.11,75.37,75.37,0,0,0,36.68,26c-.55,8.26-3.8,15.72-16.73,18.75a8.23,8.23,0,0,0-6.4,6.74l-2.5,17.29a10,10,0,0,0,9.81,11.58H79.13a10,10,0,0,0,9.81-11.58L86.45,51.5ZM50,67.77A12.56,12.56,0,1,1,62.69,55.21,12.63,12.63,0,0,1,50,67.77Zm50-47.68C99.86,12.56,80.69,0,50,0S.14,12.56,0,20.09s.11,17.34,12.74,15.7c14.77-1.92,13.87-7.07,13.87-14.45C26.62,16.2,38.64,15,50,15S73.39,16.2,73.4,21.35c0,7.38-.91,12.53,13.87,14.45C99.87,37.43,100.1,27.62,100,20.09Z"/></g></g></svg>