<svg xmlns="http://www.w3.org/2000/svg" viewBox="0 0 100 69.23"><defs><style>.cls-1{fill:#b3b3b3;}</style></defs><title>Asset 63</title><g id="Layer_2" data-name="Layer 2"><g id="layout"><path class="cls-1" d="M4.73.48A7.11,7.11,0,0,1,7.25,0H92.75a7.1,7.1,0,0,1,2.51.48L57,37.16a10,10,0,0,1-13.91,0Zm94.2,65.18a7.39,7.39,0,0,0,1.07-3.8V7.36a7.43,7.43,0,0,0-.55-2.79L63.6,38.9ZM60.36,42a15.69,15.69,0,0,1-20.72,0L4.41,68.64a7.12,7.12,0,0,0,2.84.59H92.75a7.12,7.12,0,0,0,2.84-.59ZM.55,4.57A7.43,7.43,0,0,0,0,7.36v54.5a7.39,7.39,0,0,0,1.07,3.8L36.4,38.9Z"/></g></g></svg>