<svg id="layout" xmlns="http://www.w3.org/2000/svg" viewBox="0 0 101.26 99.98"><defs><style>.cls-1,.cls-3{opacity:0.5;}.cls-2,.cls-3{fill:#3fa9f5;}.cls-4{fill:#fff;}</style></defs><title>degree</title><g class="cls-1"><path class="cls-2" d="M68.17,46,76,53.85l25.23-25.23c-4,4-11.43,4.11-18.36.57l0,0L68.17,43.92c.07,1.26,0,2.64,0,2.06"/><path class="cls-2" d="M50.36,63.79c.58,0-.8.07-2.06,0L37.46,74.63,22.62,89.46a3.12,3.12,0,0,0,.74-1.14,3.52,3.52,0,0,0,.2-1.34,8.91,8.91,0,0,0-2.05-4.71,22,22,0,0,0-3-3.21c-.58-.51-1.19-1-1.82-1.47-5-3.66-10.53-7.28-14.84-3S1.22,85.88,7.78,92.43c8.2,8.2,19.88,9.8,25.23,4.45L58.23,71.66Z"/></g><path class="cls-3" d="M62.68,31.59a18.89,18.89,0,1,1-26.71,0,18.89,18.89,0,0,1,26.71,0"/><path class="cls-2" d="M62.68,58.3a18.79,18.79,0,0,1-12.32,5.48L73.07,86.5V68.69H90.88L68.17,46A18.79,18.79,0,0,1,62.68,58.3"/><path class="cls-2" d="M23.56,87a3.52,3.52,0,0,1-.2,1.34,3.12,3.12,0,0,1-.74,1.14L48.3,63.79A18.81,18.81,0,0,1,30.49,46L1.84,74.63c4.31-4.31,9.88-.69,14.84,3,.63.47,1.24,1,1.82,1.47a22,22,0,0,1,3,3.21A8.91,8.91,0,0,1,23.56,87"/><path class="cls-2" d="M74.55,1.92,50.36,26.11A18.81,18.81,0,0,1,68.17,43.92L96.58,15.5a4.44,4.44,0,0,0,.23-6.06c-.47-.54-1-1.07-1.49-1.59C88,.48,78.65-2.18,74.55,1.92"/><path class="cls-4" d="M56.75,37.53a10.49,10.49,0,1,1-14.84,0,10.49,10.49,0,0,1,14.84,0"/></svg>