<svg xmlns="http://www.w3.org/2000/svg" viewBox="0 0 100 100"><defs><style>.cls-1{fill:#b3b3b3;}</style></defs><title>Asset 85</title><g id="Layer_2" data-name="Layer 2"><g id="layout"><path class="cls-1" d="M50,0a50,50,0,1,0,50,50A50.05,50.05,0,0,0,50,0Zm0,90.72a40.66,40.66,0,0,1-29.6-68.6,9.41,9.41,0,0,0,.41,5.42c2.78,7,1.74,3.48,4.51,10.45s7.33,3.83,10.49,4.53S40.66,45,41.7,45.3a6.61,6.61,0,0,1,4.6,5.33c.42,3.59-.77,3.37-2.81,5.12s.3,3.83,0,6.62,4.13,1,9.7,4.87,1.74,5.23.7,7.31-3.48,1-7.59,1,0,2.44,0,2.44S48,80.12,50,79.77a51,51,0,0,0,7-1.39c2.07-.7,4.89-2.44,8.72-3.13s8.36-9.75,12.88-12.54,2.09-5.23,2.09-8-2.44,0-4.88,0-3.83-.35-8-4.07S64.68,48.08,61.08,46s-7.54-1.39-9.29-1.39-8-.7-12.54-3.83S31.6,35.2,33,33.11s0,0,2.82,0,6.47-.46,7.68,1c.44.54-.49,2.29,0,2.79,1.15,1.15,5.26,1.05,6.51,0,.75-.63.41-2.44.75-3.83s-.35-3.48,0-6.62,0,0,1.06-1.39,4.16-1.74,7-3.48,2.44-1.39,2.09-3.83,0-2.44,0-2.44-4.53-2.09-5.91-2.44-3-3.29-3.1-3.55A40.7,40.7,0,0,1,50,90.72Z"/></g></g></svg>