<svg xmlns="http://www.w3.org/2000/svg" viewBox="0 0 87.44 100"><defs><style>.cls-1{fill:#4d4d4d;}</style></defs><title>Asset 81</title><g id="Layer_2" data-name="Layer 2"><g id="layout"><path class="cls-1" d="M11.54,37.44.73,45.94A1.9,1.9,0,0,0,0,47.43V98.1A1.9,1.9,0,0,0,1.9,100H12.72a1.9,1.9,0,0,0,1.9-1.9V38.94A1.9,1.9,0,0,0,11.54,37.44Z"/><path class="cls-1" d="M84.5,0H23.07a2.94,2.94,0,0,0-2.94,2.94V97.06A2.94,2.94,0,0,0,23.07,100H49.79V86h8V100h0v0H84.5a2.94,2.94,0,0,0,2.94-2.94V2.94A2.94,2.94,0,0,0,84.5,0Zm-9,25.22H66.17v-11H75.5Zm0,20.19H66.17v-11H75.5Zm0,20.19H66.17v-11H75.5Zm0,9.17v11H66.17v-11ZM58.45,25.22H49.12v-11h9.33Zm0,20.19H49.12v-11h9.33Zm0,9.17v11H49.12v-11ZM41.4,14.2v11H32.07v-11Zm0,20.19v11H32.07v-11Zm0,20.19v11H32.07v-11Zm0,20.19v11H32.07v-11Z"/></g></g></svg>