<svg id="layout" xmlns="http://www.w3.org/2000/svg" viewBox="0 0 100 99.98"><defs><style>.cls-1{fill:#3fa9f5;}</style></defs><title>18+</title><path class="cls-1" d="M89.05,36.76A41.19,41.19,0,1,1,63.23,10.94V1.76a50,50,0,1,0,35,35Z"/><polygon class="cls-1" points="86.56 13.4 86.56 3.82 79.66 3.82 79.66 13.4 70.14 13.4 70.14 20.3 79.66 20.3 79.66 29.88 86.56 29.88 86.56 20.3 96.14 20.3 96.14 13.4 86.56 13.4"/><path class="cls-1" d="M25.55,32.65H39v35.6H30.52V40.12h-5Z"/><path class="cls-1" d="M68.07,48.81a10.86,10.86,0,0,1,5.16,4,10.41,10.41,0,0,1,1.83,6,9.59,9.59,0,0,1-3.18,7.55,12.38,12.38,0,0,1-8.53,2.83q-5.46,0-8.63-2.8a9.59,9.59,0,0,1-3.17-7.57,13.8,13.8,0,0,1,.17-2.25,9.59,9.59,0,0,1,.54-2,8.86,8.86,0,0,1,.92-1.73,9,9,0,0,1,1.3-1.51,10.27,10.27,0,0,1,1.75-1.29q1-.6,2.09-1.19v-.05h-.06s0-.05-.06-.05,0-.05-.06-.05a12.83,12.83,0,0,1-2.91-1.65,7.25,7.25,0,0,1-2-2.57,8.63,8.63,0,0,1-.82-3.85,7.91,7.91,0,0,1,3.1-6.36,11.79,11.79,0,0,1,7.74-2.55A11.46,11.46,0,0,1,71,34.3a8.36,8.36,0,0,1,3,6.64,7.17,7.17,0,0,1-1.45,4.53A12.29,12.29,0,0,1,68.07,48.81Zm-1.64,9.33q0-5.23-3.16-5.23T60,57.72q0,5.12,3.36,5.12Q66.43,62.84,66.43,58.14Zm-.93-16.05q0-3.87-2.22-3.87T61,41.66a5.87,5.87,0,0,0,.54,2.95,2,2,0,0,0,1.8.87Q65.49,45.48,65.49,42.09Z"/></svg>