<svg id="layout" xmlns="http://www.w3.org/2000/svg" viewBox="0 0 100 99.98"><defs><style>.cls-1{fill:#3fa9f5;}</style></defs><title>21+</title><path class="cls-1" d="M89.05,37A41.19,41.19,0,1,1,63.23,11.13V2a50,50,0,1,0,35,35Z"/><polygon class="cls-1" points="86.56 13.59 86.56 4 79.66 4 79.66 13.59 70.14 13.59 70.14 20.48 79.66 20.48 79.66 30.07 86.56 30.07 86.56 20.48 96.14 20.48 96.14 13.59 86.56 13.59"/><path class="cls-1" d="M35.37,46H26.81a41.52,41.52,0,0,1,.37-6.27,10.07,10.07,0,0,1,1.52-4A7.92,7.92,0,0,1,32.23,33a13.9,13.9,0,0,1,5.65-1.05q5.41,0,8.3,2.59T49.08,42A15.13,15.13,0,0,1,48,47.36a35.79,35.79,0,0,1-3.33,6.36l-4.79,7.47H47.7v7.25H25.44L38.18,48.57a12.18,12.18,0,0,0,2.34-6.51,3.89,3.89,0,0,0-.7-2.4,2.34,2.34,0,0,0-3.93.28,14.48,14.48,0,0,0-.51,4.79Z"/><path class="cls-1" d="M58.78,32.84H72.19v35.6H63.74V40.31h-5Z"/></svg>