<svg id="layout" xmlns="http://www.w3.org/2000/svg" viewBox="0 0 111.73 100"><defs><style>.cls-1{fill:#fff;}</style></defs><title>applicant stroke white</title><path class="cls-1" d="M61.52,15.2a1.7,1.7,0,0,1,1.57,1.57V36.32a1.7,1.7,0,0,1-1.57,1.57H61v-2.4a4,4,0,0,0-3.15-4C57,31.15,55,30.52,54,30.2c0,0,0-.09,0-.14a7.78,7.78,0,0,0,2.16-5.58c0-4.17-2.94-6.35-5.84-6.35-3.44,0-5.84,2.61-5.84,6.35a7.9,7.9,0,0,0,2.14,5.56v.18c-.86.3-2.46.84-3.38,1.12C41,32,39.74,33,39.74,35.6V38H39.2a1.7,1.7,0,0,1-1.57-1.57V16.87c0-1.14,1-1.61,2-1.67H61.52m0-1H39.61c-1.75.1-3,1.13-3,2.67V36.42A2.69,2.69,0,0,0,39.2,39h1.54V35.6c0-2.06.82-2.67,2.78-3.29,1.34-.41,4-1.34,4-1.34s.1-.82.1-1.34a6.81,6.81,0,0,1-2.16-5.14c0-3.4,2.16-5.35,4.84-5.35s4.84,2,4.84,5.35A6.65,6.65,0,0,1,53,29.63a6.32,6.32,0,0,0,.1,1.34s3.29,1,4.42,1.44A3,3,0,0,1,60,35.49v3.4h1.54a2.69,2.69,0,0,0,2.57-2.57V16.77a2.69,2.69,0,0,0-2.57-2.57Z"/><path class="cls-1" d="M29.35,32v1.81H12.11V32H29.35m1-1H11.11v3.81H30.35V31Z"/><path class="cls-1" d="M63.61,45.86v1.81H12.11V45.86h51.5m1-1H11.11v3.81h53.5V44.86Z"/><path class="cls-1" d="M63.61,59.64v1.81H12.11V59.64h51.5m1-1H11.11v3.81h53.5V58.64Z"/><path class="cls-1" d="M74.31,1V56.73l.47.29c.15.09,3.66,2.3,5.13,3a33.09,33.09,0,0,1,5.82,4.15l.87.84c3.75,3.66,10.73,10.47,15.77,12.25a61.53,61.53,0,0,0,8.37,2.09V99l-20.59-.39h-.07l-.85,0A10.15,10.15,0,0,1,82.13,96L73.2,88l-.28-.26H1v-57c0-4.84,1.76-8.25,5.28-10.15C6.49,20.48,27.27,7.89,34,3.3A12.07,12.07,0,0,1,40.95,1H74.31m-48,22.81a41.5,41.5,0,0,0-11.55-2.18h-.38c-9.55.12-10.66,5.27-10.66,9.13v54.4H70.33l-2.8-1.84L55.59,75.5l-.25-.16H12.21V73.53H54.4v-1A5,5,0,0,1,55.17,70a4.13,4.13,0,0,1,3.49-2.13,3.77,3.77,0,0,1,2,.61l9.26,5.76,1.53,1v-1.8l-.1-68.62v-1H40.84c-7.15,0-13.1,10.15-14.52,20.07M75.31,0H40.95a13.11,13.11,0,0,0-7.51,2.47C26.65,7.1,5.76,19.75,5.76,19.75,2,21.81,0,25.51,0,30.76v58H72.53l9,8a11.15,11.15,0,0,0,7.75,2.8l.89,0,21.6.41V78.5a54.63,54.63,0,0,1-9.05-2.16c-5.25-1.85-13.17-9.88-16.26-12.86a33.54,33.54,0,0,0-6.07-4.32c-1.44-.72-5-3-5-3V0ZM27.16,25.21c1-10,7-20.47,13.68-20.47H70.37l.1,68.62-9.26-5.76a4.74,4.74,0,0,0-2.55-.76,5.12,5.12,0,0,0-4.34,2.61,6,6,0,0,0-.93,3.09H11.21v3.81H55L67,84.16H4.73V30.76c0-4,1.23-8,9.67-8.13h.37a39.43,39.43,0,0,1,12.39,2.58Z"/></svg>