<svg id="layout" xmlns="http://www.w3.org/2000/svg" viewBox="0 0 111.6 100"><defs><style>.cls-1{fill:#fff;}</style></defs><title>applicant full white</title><path class="cls-1" d="M36.63,16.87V36.42A2.69,2.69,0,0,0,39.2,39h1.54V35.6c0-2.06.82-2.67,2.78-3.29,1.34-.41,4-1.34,4-1.34s.1-.82.1-1.34a6.81,6.81,0,0,1-2.16-5.14c0-3.4,2.16-5.35,4.84-5.35s4.84,2,4.84,5.35A6.65,6.65,0,0,1,53,29.63a6.33,6.33,0,0,0,.1,1.34s3.29,1,4.42,1.44A3,3,0,0,1,60,35.49v3.4h1.54a2.69,2.69,0,0,0,2.57-2.57V16.77a2.69,2.69,0,0,0-2.57-2.57H39.61C37.86,14.3,36.63,15.33,36.63,16.87Z"/><rect class="cls-1" x="11.11" y="30.97" width="19.24" height="3.81"/><rect class="cls-1" x="11.11" y="44.86" width="53.5" height="3.81"/><rect class="cls-1" x="11.11" y="58.64" width="53.5" height="3.81"/><path class="cls-1" d="M80.35,59.16c-1.44-.72-5-3-5-3V0H40.95a13.11,13.11,0,0,0-7.51,2.47C26.65,7.1,5.76,19.75,5.76,19.75,2,21.81,0,25.51,0,30.76v58H72.53l9,8a11.37,11.37,0,0,0,8.64,2.78l21.6.41V78.5a54.64,54.64,0,0,1-9.05-2.16c-5.25-1.85-13.17-9.88-16.26-12.86A33.54,33.54,0,0,0,80.35,59.16Zm-9.88,14.2-9.26-5.76a4.88,4.88,0,0,0-6.89,1.85,6,6,0,0,0-.93,3.09H11.21v3.81H55L67,84.16H4.73V30.76c0-4,1.23-8,9.67-8.13a38.79,38.79,0,0,1,12.76,2.57c1-10,7-20.47,13.68-20.47H70.37l.1,68.62Z"/></svg>