<svg xmlns="http://www.w3.org/2000/svg" viewBox="0 0 1374 196.15"><defs><style>.cls-1{fill:#f892ab;}.cls-2{fill:#f75252;opacity:0.8;}.cls-3{fill:#f3bbcd;}</style></defs><title>Asset 3</title><g id="Layer_2" data-name="Layer 2"><g id="take_1_desktop" data-name="take 1 desktop"><path class="cls-1" d="M1374,107.76v67.3l0,0C1227.23,127.36,987.69,67.57,687,71.88c-303,4.35-541.75,72-687,124.27v-90C68.66,87.23,155,69.9,249.71,56,387.6,35.81,543.07,22.92,687,22.92c135.38,0,281,11.77,412.58,30.34C1203.93,68,1299.44,87,1374,107.76Z"/><path class="cls-1" d="M1099.58,53.26C968,34.69,822.38,22.92,687,22.92c-143.93,0-299.4,12.89-437.29,33.1C373.21,23.21,520.76-2.54,687,.2A1872.82,1872.82,0,0,1,1099.58,53.26Z"/><path class="cls-2" d="M1374,142.81V175C1227.23,127.36,987.69,67.57,687,71.88c-303,4.35-541.75,72-687,124.27V138.24C65.61,113.76,149.79,82.58,249.71,56,387.6,35.81,543.07,22.92,687,22.92c135.38,0,281,11.77,412.58,30.34A1888.52,1888.52,0,0,1,1374,142.81Z"/><path class="cls-3" d="M1374,155.06v20l0,0C1227.23,127.36,987.69,67.57,687,71.88,384,76.23,145.25,143.83,0,196.15v-20C145.25,123.83,384,56.23,687,51.88c300.69-4.31,540.23,55.48,687,103.16Z"/></g></g></svg>