<svg id="layout" xmlns="http://www.w3.org/2000/svg" viewBox="0 0 79.28 100"><defs><style>.cls-1{fill:#fff;}</style></defs><title>bell stroke white</title><path class="cls-1" d="M39.67,1A5.83,5.83,0,0,1,42,1.51a9.27,9.27,0,0,1,2.32,1.94c.78,1.13.9,1.36,1,6.3l.22,5.43,0,.74.71.19,2.1.55A47.18,47.18,0,0,1,54.21,19c3.13,1.62,4.42,2.6,7.62,5.81,6.1,6.1,8.7,11.77,9.58,20.88.28,3.33,1.18,11.47,1.45,13.9L74,68.69l0,.39.3.25,1.45,1.22A6.34,6.34,0,0,1,78.28,76c.1,2.36-.32,2.89-1.88,3.56-1.48.31-16.86.53-36.71.53s-35.3-.22-36.8-.53C1.33,78.93.91,78.39,1,76a6.29,6.29,0,0,1,2.5-5.42l1.55-1.22.33-.26,0-.42,1-9c.29-2.57.61-5.51.9-8.13.26-2.36.49-4.47.65-5.85.88-9.34,3.36-14.78,9.48-20.79,4.18-4.29,8.18-6.77,13-8.05l2.66-.78.7-.21v-.73l.11-5.43c.11-5,.23-5.12,1.13-6.3A5.7,5.7,0,0,1,39.67,1m0-1a6.73,6.73,0,0,0-5.4,2.83c-1.11,1.44-1.22,1.88-1.33,6.87l-.11,5.43-2.66.78c-5,1.33-9.09,3.88-13.41,8.31-6.32,6.21-8.87,12-9.76,21.4-.33,2.88-1,9.09-1.55,14l-1,9L2.9,69.79A7.29,7.29,0,0,0,0,76c-.11,2.66.44,3.66,2.55,4.55,1.05.39,19.1.58,37.13.58s36-.19,37-.58c2.11-.89,2.66-1.88,2.55-4.55a7.29,7.29,0,0,0-2.88-6.21L75,68.57l-1.11-9.09c-.55-5-1.22-11.2-1.44-13.86-.89-9.2-3.55-15.19-9.87-21.51-3.33-3.33-4.66-4.32-7.87-6a48.67,48.67,0,0,0-6-2.44l-2.11-.55L46.35,9.7c-.11-5-.22-5.43-1.22-6.87A10.14,10.14,0,0,0,42.47.61,6.88,6.88,0,0,0,39.67,0Z"/><path class="cls-1" d="M50.41,89.31l-.06.39A10.81,10.81,0,0,1,39.63,99a11.25,11.25,0,0,1-7.25-2.7,14.05,14.05,0,0,1-3.43-6.59l-.06-.41H50.41m1.15-1H27.73L28,89.86a15,15,0,0,0,3.77,7.21A12.29,12.29,0,0,0,39.63,100,11.83,11.83,0,0,0,51.34,89.86l.22-1.55Z"/></svg>