<svg id="layout" xmlns="http://www.w3.org/2000/svg" viewBox="0 0 81.74 100"><defs><style>.cls-1{fill:#fbb03b;}</style></defs><title>bookmark stroke</title><path class="cls-1" d="M78.19,1a2.49,2.49,0,0,1,2.55,2.43V96.54a2.43,2.43,0,0,1-1.41,2.17A2.78,2.78,0,0,1,78.2,99a2.59,2.59,0,0,1-1.6-.54l-34.89-27-.61-.47-.61.47-35.34,27A2.64,2.64,0,0,1,3.55,99a2.68,2.68,0,0,1-1.12-.25A2.4,2.4,0,0,1,1,96.53V3.47A2.49,2.49,0,0,1,3.55,1H78.19m0-1H3.55A3.49,3.49,0,0,0,0,3.47V96.53a3.41,3.41,0,0,0,2,3.08,3.66,3.66,0,0,0,3.75-.4l35.34-27L76,99.2a3.61,3.61,0,0,0,2.22.75,3.78,3.78,0,0,0,1.53-.33,3.43,3.43,0,0,0,2-3.09V3.47A3.49,3.49,0,0,0,78.19,0Z"/></svg>