<svg id="layout" xmlns="http://www.w3.org/2000/svg" viewBox="0 0 100 100"><defs><style>.cls-1{fill:#fff;}.cls-2{fill:#273b7a;}.cls-3{fill:#121149;}.cls-4{fill:#c8ebed;}.cls-5{fill:#71e2ef;}.cls-6{fill:#ffc61b;}.cls-7{fill:#eaa22f;}.cls-8{fill:#ff5419;}.cls-9{fill:#c92f00;}.cls-10{fill:#fee187;}.cls-11{fill:#930000;}</style></defs><title>business avatar</title><rect class="cls-1" width="100" height="100"/><path class="cls-2" d="M77.78,30.58v47.2H47.47V30.58a3.31,3.31,0,0,1,3.31-3.31H62.35v.94H73.74v-.94h.73A3.31,3.31,0,0,1,77.78,30.58Z"/><path class="cls-3" d="M77.78,30.58v47.2H62.35V28.21H73.74v-.94h.73A3.31,3.31,0,0,1,77.78,30.58Z"/><rect class="cls-4" x="51.52" y="33.33" width="22.22" height="5.56"/><rect class="cls-4" x="51.52" y="40.74" width="22.22" height="5.56"/><rect class="cls-4" x="51.52" y="55.56" width="22.22" height="5.56"/><rect class="cls-4" x="51.52" y="48.15" width="22.22" height="5.56"/><rect class="cls-4" x="51.52" y="40.74" width="10.83" height="5.56"/><rect class="cls-5" x="62.35" y="40.74" width="11.39" height="5.56"/><rect class="cls-5" x="62.35" y="55.56" width="11.39" height="5.56"/><rect class="cls-4" x="51.52" y="55.56" width="10.83" height="5.56"/><rect class="cls-4" x="51.52" y="48.15" width="10.83" height="5.56"/><rect class="cls-5" x="62.35" y="48.15" width="11.39" height="5.56"/><path class="cls-2" d="M42.42,77.78H22.22V25.05a2.83,2.83,0,0,1,2.83-2.83H39.59a2.83,2.83,0,0,1,2.83,2.83V77.78Z"/><path class="cls-3" d="M42.42,25.05a2.83,2.83,0,0,0-2.83-2.83H32.21V77.78H42.42V25.05Z"/><path class="cls-6" d="M62.79,77.78H41.17V40.62a2.47,2.47,0,0,1,2.47-2.47H60.32a2.47,2.47,0,0,1,2.47,2.47Z"/><path class="cls-7" d="M62.79,40.62a2.47,2.47,0,0,0-2.47-2.47H51.57V77.78H62.79V40.62Z"/><rect class="cls-8" x="44.28" y="41.5" width="5.56" height="5.56"/><rect class="cls-9" x="54.13" y="41.5" width="5.56" height="5.56"/><rect class="cls-8" x="44.28" y="49.75" width="5.56" height="5.56"/><rect class="cls-9" x="54.13" y="49.75" width="5.56" height="5.56"/><rect class="cls-8" x="44.28" y="58" width="5.56" height="5.56"/><rect class="cls-9" x="54.13" y="58" width="5.56" height="5.56"/><rect class="cls-10" x="24.6" y="15.29" width="6.14" height="4.14"/><rect class="cls-6" x="33.91" y="15.29" width="6.14" height="4.14"/><rect class="cls-10" x="24.6" y="21.44" width="6.14" height="4.14"/><rect class="cls-6" x="33.91" y="21.44" width="6.14" height="4.14"/><rect class="cls-10" x="24.6" y="38.27" width="6.14" height="4.14"/><rect class="cls-6" x="33.91" y="38.27" width="6.14" height="4.14"/><rect class="cls-10" x="24.6" y="44.42" width="6.14" height="4.14"/><rect class="cls-6" x="33.91" y="44.42" width="6.14" height="4.14"/><rect class="cls-10" x="24.6" y="50.58" width="6.14" height="4.14"/><rect class="cls-6" x="33.91" y="50.58" width="6.14" height="4.14"/><rect class="cls-10" x="24.6" y="56.73" width="6.14" height="4.14"/><rect class="cls-6" x="33.91" y="56.73" width="6.14" height="4.14"/><rect class="cls-9" x="46.43" y="66.67" width="11.11" height="11.11"/><rect class="cls-11" x="51.57" y="66.67" width="5.97" height="11.11"/><rect class="cls-6" x="27.95" y="66.67" width="8.75" height="11.11"/><rect class="cls-7" x="32.21" y="66.67" width="4.49" height="11.11"/><path class="cls-8" d="M80.56,81.06H19.44a2.78,2.78,0,0,1-2.78-2.78h0a2.78,2.78,0,0,1,2.78-2.78H80.56a2.78,2.78,0,0,1,2.78,2.78h0A2.78,2.78,0,0,1,80.56,81.06Z"/><path class="cls-9" d="M80.56,75.51H50.06v5.56h30.5a2.78,2.78,0,1,0,0-5.56Z"/></svg>