<svg id="layout" xmlns="http://www.w3.org/2000/svg" viewBox="0 0 120 100"><title>camera</title><path d="M75.92,58.82C75.92,68,68.8,75.36,60,75.36S44.08,68,44.08,58.82,51.2,42.28,60,42.28,75.92,49.68,75.92,58.82Zm32.57-41.46a11.74,11.74,0,0,1,11.51,12V87.25A12.52,12.52,0,0,1,107.73,100H12.27A12.52,12.52,0,0,1,0,87.25V29.32H0a11.74,11.74,0,0,1,11.51-12h23l1.08-4.76A15.82,15.82,0,0,1,50.88,0H69.14A15.82,15.82,0,0,1,84.42,12.6l1.06,4.76h23ZM24,34.62a5.89,5.89,0,0,0-5.77-6,6,6,0,0,0,0,12A5.86,5.86,0,0,0,24,34.62Zm64.39,24.2c0-16.29-12.71-29.5-28.39-29.5S31.61,42.54,31.61,58.82,44.33,88.32,60,88.32,88.39,75.11,88.39,58.82Z"/></svg>