<svg id="layout" xmlns="http://www.w3.org/2000/svg" viewBox="0 0 120 100"><title>camera outline</title><path d="M69.14,1a14.76,14.76,0,0,1,14.3,11.82l1.06,4.76.17.78h23.82a10.75,10.75,0,0,1,10.51,11V87.25A11.53,11.53,0,0,1,107.73,99H12.27A11.53,11.53,0,0,1,1,87.25V29.32a10.75,10.75,0,0,1,10.51-11H35.32l.18-.78,1.08-4.77A14.76,14.76,0,0,1,50.88,1H69.14M18.2,41.61h.05a7,7,0,0,0,0-14,7,7,0,0,0,0,14M60,89.32c16.2,0,29.39-13.68,29.39-30.5S76.2,28.32,60,28.32,30.61,42,30.61,58.82,43.8,89.32,60,89.32m0-46c8.23,0,14.92,7,14.92,15.54S68.23,74.36,60,74.36s-14.92-7-14.92-15.54S51.77,43.28,60,43.28M69.14,0H50.88A15.82,15.82,0,0,0,35.61,12.6l-1.08,4.76h-23A11.74,11.74,0,0,0,0,29.32V87.25A12.52,12.52,0,0,0,12.27,100h95.46A12.52,12.52,0,0,0,120,87.25V29.32a11.74,11.74,0,0,0-11.51-12h-23L84.42,12.6A15.82,15.82,0,0,0,69.14,0ZM18.25,40.61h0a6,6,0,0,1,0-12,6,6,0,0,1,0,12ZM60,88.32c-15.67,0-28.39-13.21-28.39-29.5S44.33,29.32,60,29.32s28.39,13.21,28.39,29.5S75.67,88.32,60,88.32Zm0-46c-8.8,0-15.92,7.4-15.92,16.54S51.2,75.36,60,75.36,75.92,68,75.92,58.82,68.8,42.28,60,42.28Z"/></svg>