<svg id="layout" xmlns="http://www.w3.org/2000/svg" viewBox="0 0 100 100"><defs><style>.cls-1{fill:none;stroke:#3fa9f5;stroke-miterlimit:10;}</style></defs><title>check in a circle</title><path class="cls-1" d="M0,50a50,50,0,1,1,50,50A50,50,0,0,1,0,50ZM73.33,27.42c-1.8-2.57-4.75-2.57-6.6,0L42.13,62.57,30.73,46.32a4.17,4.17,0,0,0-3.25-1.85,4.16,4.16,0,0,0-3.25,1.85,8.75,8.75,0,0,0,0,9.34l14.7,21a3.65,3.65,0,0,0,4.2,1.71A3.35,3.35,0,0,0,44,78c.3-.21.55-.43.8-.64a2.58,2.58,0,0,0,.75-.86l27.8-39.64a8.61,8.61,0,0,0,0-9.41Z"/></svg>