<svg id="layout" xmlns="http://www.w3.org/2000/svg" viewBox="0 0 100 100"><defs><style>.cls-1{fill:#7ac943;}</style></defs><title>check in a flower</title><path class="cls-1" d="M89.85,66.82a18.84,18.84,0,0,1-14.64,23.3,17.8,17.8,0,0,1-8.06-.22.37.37,0,0,0-.49.22A18.5,18.5,0,0,1,54,99.54c-7,1.45-13-.56-18-5.68a16.31,16.31,0,0,1-2.65-3.66.47.47,0,0,0-.64-.27,18.69,18.69,0,0,1-19.64-7.22,18.22,18.22,0,0,1-3.5-12.16,32.19,32.19,0,0,1,.49-3.37c0-.27,0-.39-.23-.53a18.27,18.27,0,0,1-8.15-8.85C-1.3,50.64-.34,44,4.46,37.85a17.59,17.59,0,0,1,5.45-4.51c.24-.13.26-.26.2-.5a18.78,18.78,0,0,1,22.7-22.76.46.46,0,0,0,.61-.27,19,19,0,0,1,33.22,0,.45.45,0,0,0,.61.27A18.77,18.77,0,0,1,89.93,32.73a.5.5,0,0,0,.28.67,18.77,18.77,0,0,1,9.5,13.41,19,19,0,0,1-9.46,19.78ZM73.95,34.58a4.71,4.71,0,0,0-6.6,0L42.75,59.24l-11.4-11.4a4.71,4.71,0,0,0-6.5,0,4.65,4.65,0,0,0,0,6.55L39.55,69.1a4.45,4.45,0,0,0,4.2,1.2A4.23,4.23,0,0,0,44.6,70c.3-.15.55-.3.8-.45a2.21,2.21,0,0,0,.75-.6l27.8-27.81a4.59,4.59,0,0,0,0-6.6Z"/></svg>