<svg id="layout" xmlns="http://www.w3.org/2000/svg" viewBox="0 0 100 100"><defs><style>.cls-1{fill:#ffc61b;}.cls-2{fill:#ce9c6d;}.cls-3{fill:#b47c52;}.cls-4{fill:#c69c6d;}.cls-5{fill:#a67c52;}.cls-6{fill:#71e2ef;}.cls-7{fill:#38c6d9;}.cls-8{fill:#2ba8b2;}.cls-9{fill:#fff;}.cls-10{fill:#e0e2e2;}.cls-11{fill:#603813;}.cls-12{fill:#42210b;}.cls-13{fill:#afafaf;}</style></defs><title>colored photo icon</title><circle class="cls-1" cx="50" cy="50" r="50"/><rect class="cls-2" x="41.67" y="57.36" width="16.67" height="20.37"/><rect class="cls-3" x="50.06" y="57.36" width="8.28" height="20.37"/><path class="cls-4" d="M67.88,40.13A22.76,22.76,0,0,0,68,37.68c0-10.54-8.07-19.09-18-19.09S32,27.14,32,37.68a22.82,22.82,0,0,0,.14,2.44c-1.75.45-2.58,3.14-1.86,6S33,51,34.76,50.57a2,2,0,0,0,.45-.18C38.47,56.92,43.88,62.22,50,62.22s11.53-5.3,14.78-11.83a2,2,0,0,0,.45.18C67,51,69,49,69.73,46.14S69.62,40.58,67.88,40.13Z"/><path class="cls-5" d="M67.88,40.13A22.76,22.76,0,0,0,68,37.68c0-10.52-8-19.05-18-19.09V62.22c6.1,0,11.48-5.32,14.73-11.83a2,2,0,0,0,.45.18C67,51,69,49,69.73,46.14S69.62,40.58,67.88,40.13Z"/><path class="cls-6" d="M69.63,71.17,61,68.78l-1.62-2.26a1.08,1.08,0,0,0-1.31-.38L50,69.63l-8.06-3.49a1.08,1.08,0,0,0-1.31.37L39,68.78l-8.64,2.31c-4.47.89-7.8,4.27-7.8,8.83V91.68A49.74,49.74,0,0,0,73.68,94c1.29-.8,2.54-1.61,3.76-2.43V79.91C77.44,75.35,74.1,72.06,69.63,71.17Z"/><path class="cls-6" d="M50,69.63l-8.06-3.49a1.08,1.08,0,0,0-1.31.37L39,68.78l-8.64,2.31c-4.47.89-7.8,4.27-7.8,8.83V91.68A49.46,49.46,0,0,0,50,99.95h.06V69.61Z"/><path class="cls-7" d="M69.63,71.17,61,68.78l-1.62-2.26a1.08,1.08,0,0,0-1.31-.38l-8.06,3.47V99.95a49.47,49.47,0,0,0,23.62-6c1.29-.8,2.54-1.61,3.76-2.43V79.91C77.44,75.35,74.1,72.06,69.63,71.17Z"/><path class="cls-7" d="M58.67,78.45,50,69.81l-8.67,8.65L39,68.78,36.2,70,38.46,98.6a50,50,0,0,0,25.79-.73L63.8,70.1,61,68.78Z"/><path class="cls-8" d="M63.8,70.1,61,68.78l-2.37,9.67-8.62-8.59V99.94a49.69,49.69,0,0,0,14.19-2.08Z"/><path class="cls-9" d="M69.88,70.69,61,68.78,50,93.66,39,68.78l-8.88,1.91a9.62,9.62,0,0,0-7.73,9.43V91.69a50,50,0,0,0,55.22,0V80.13A9.62,9.62,0,0,0,69.88,70.69Z"/><path class="cls-10" d="M77.61,80.13a9.62,9.62,0,0,0-7.73-9.43L61,68.78l-11,24.79V100a49.76,49.76,0,0,0,27.55-8.31Z"/><path class="cls-11" d="M39.87,33.33s7.83,7.49,23.82,4.8c0,0,1.55-.39,4.18,2,0,0,4.4-6.37,1.79-16.72,0,0-8.08-2.61-11.87-5s-13.89-4.88-16.16,2.19a8.64,8.64,0,0,0-9.34,6.65c-2,7.58-.17,12.85-.17,12.85S35.91,31,39.87,33.33Z"/><path class="cls-12" d="M69.67,23.4s-8.08-2.61-11.87-5A18.54,18.54,0,0,0,50.06,16V38a36.13,36.13,0,0,0,13.64.12s1.55-.39,4.18,2C67.88,40.12,72.28,33.75,69.67,23.4Z"/><path class="cls-13" d="M61,68.78l2.55,3.56a1.07,1.07,0,0,1-.16,1.45l-3.07,2.6a1.07,1.07,0,0,0,.14,1.73l2.27,1.38a1.07,1.07,0,0,1,.19,1.68L50,93.66Z"/><path class="cls-10" d="M39,68.78l-2.55,3.56a1.07,1.07,0,0,0,.16,1.45l3.07,2.6a1.07,1.07,0,0,1-.14,1.73L37.28,79.5a1.07,1.07,0,0,0-.19,1.68L50,93.66Z"/></svg>