<svg id="layout" xmlns="http://www.w3.org/2000/svg" viewBox="0 0 83.08 100"><title>Contact book</title><path d="M15.38,50a3.85,3.85,0,0,1-3.85,3.85H3.85A3.85,3.85,0,0,1,0,50H0a3.85,3.85,0,0,1,3.85-3.85h7.69A3.85,3.85,0,0,1,15.38,50Zm0-24.62a3.85,3.85,0,0,0-3.85-3.85H3.85A3.85,3.85,0,0,0,0,25.38H0a3.85,3.85,0,0,0,3.85,3.85h7.69a3.85,3.85,0,0,0,3.85-3.85Zm0,49.23a3.85,3.85,0,0,0-3.85-3.85H3.85A3.85,3.85,0,0,0,0,74.62H0a3.85,3.85,0,0,0,3.85,3.85h7.69a3.85,3.85,0,0,0,3.85-3.85ZM83.08,12.31V87.69A12.31,12.31,0,0,1,70.77,100H16.92A12.31,12.31,0,0,1,4.62,87.69V81.54h6.92a6.92,6.92,0,0,0,0-13.85H4.62V56.92h6.92a6.92,6.92,0,0,0,0-13.85H4.62V32.31h6.92a6.92,6.92,0,1,0,0-13.85H4.62V12.31A12.31,12.31,0,0,1,16.92,0H70.77A12.31,12.31,0,0,1,83.08,12.31ZM34.29,36.48A11.87,11.87,0,1,0,46.15,24.62,11.87,11.87,0,0,0,34.29,36.48Zm30.33,29A13.19,13.19,0,0,0,51.43,52.31H40.88A13.19,13.19,0,0,0,27.69,65.49v5.28H64.62Z"/></svg>