<svg id="layout" xmlns="http://www.w3.org/2000/svg" viewBox="0 0 83.07 100"><title>contact book outline</title><path d="M70.77,1A11.32,11.32,0,0,1,82.08,12.31V87.69A11.32,11.32,0,0,1,70.77,99H16.92A11.32,11.32,0,0,1,5.62,87.69V82.54h5.92a7.92,7.92,0,0,0,0-15.85H5.62V57.92h5.92a7.92,7.92,0,1,0,0-15.85H5.62V33.31h5.92a7.92,7.92,0,1,0,0-15.85H5.62V12.31A11.32,11.32,0,0,1,16.92,1H70.77M46.15,49.35A12.87,12.87,0,1,0,33.29,36.48,12.88,12.88,0,0,0,46.15,49.35M26.69,71.77H65.62V65.49A14.2,14.2,0,0,0,51.43,51.31H40.88A14.2,14.2,0,0,0,26.69,65.49v6.28M11.54,22.54a2.85,2.85,0,1,1,0,5.69H3.85a2.85,2.85,0,1,1,0-5.69h7.69m0,24.62a2.85,2.85,0,1,1,0,5.69H3.85a2.85,2.85,0,1,1,0-5.69h7.69m0,24.62a2.85,2.85,0,1,1,0,5.69H3.85a2.85,2.85,0,1,1,0-5.69h7.69M70.77,0H16.92A12.31,12.31,0,0,0,4.62,12.31v6.15h6.92a6.92,6.92,0,1,1,0,13.85H4.62V43.08h6.92a6.92,6.92,0,1,1,0,13.85H4.62V67.69h6.92a6.92,6.92,0,0,1,0,13.85H4.62v6.15A12.31,12.31,0,0,0,16.92,100H70.77A12.31,12.31,0,0,0,83.08,87.69V12.31A12.31,12.31,0,0,0,70.77,0ZM46.15,48.35A11.87,11.87,0,1,1,58,36.48,11.87,11.87,0,0,1,46.15,48.35ZM27.69,70.77V65.49A13.19,13.19,0,0,1,40.88,52.31H51.43A13.19,13.19,0,0,1,64.62,65.49v5.28ZM11.54,21.54H3.85a3.85,3.85,0,1,0,0,7.69h7.69a3.85,3.85,0,1,0,0-7.69Zm0,24.62H3.85a3.85,3.85,0,1,0,0,7.69h7.69a3.85,3.85,0,1,0,0-7.69Zm0,24.62H3.85a3.85,3.85,0,1,0,0,7.69h7.69a3.85,3.85,0,1,0,0-7.69Z"/></svg>