<svg id="layout" xmlns="http://www.w3.org/2000/svg" viewBox="0 0 100 100"><defs><style>.cls-1{fill:#b3b3b3;}</style></defs><title>edit full</title><path class="cls-1" d="M99.4,11.46C95.56,7.61,92,3.28,87.53.11c-4.08-.85-6,3.56-8.85,5.62C83.42,11.23,88.94,16.09,94,21.29,96.34,18.54,101.81,15.73,99.4,11.46ZM96.87,32.24c-3.23,3.24-6.58,6.41-9.7,9.78-.08,13,0,26,0,39a9.65,9.65,0,0,1-9.06,9.21q-29.6.12-59.22,0C13.51,90.13,9.25,85,9.67,79.8q0-28.25,0-56.48A9.87,9.87,0,0,1,18.81,12.9c13.07-.17,26.15,0,39.21-.09,3.39-3.06,6.52-6.42,9.77-9.64-17.41,0-34.8-.09-52.2.05C7.46,3.36.18,10.46,0,18.63c0,22-.08,43.91,0,65.86C.1,92.4,6.82,99.26,14.6,100H83c7.38-1.3,13.7-7.73,13.8-15.4C97,67.15,96.84,49.69,96.87,32.24ZM91.66,23.7Q84,16,76.19,8.32c-11.35,11.26-22.71,22.5-34,33.82q7.67,7.71,15.44,15.34Q74.66,40.62,91.66,23.7ZM33.8,65.78c6.95-1.89,10.65-3.08,17.6-4.95,1.86-.59,3.09-.95,4.05-1.33C50.53,54.82,44.88,49,40,44.32,37.9,51.47,35.86,58.62,33.8,65.78Z"/></svg>