<svg id="layout" xmlns="http://www.w3.org/2000/svg" viewBox="0 0 100 100"><defs><style>.cls-1{fill:#b3b3b3;}</style></defs><title>edit stoke</title><path class="cls-1" d="M86.53,1a3.86,3.86,0,0,1,.6,0,63.83,63.83,0,0,1,8.55,8c.95,1,1.93,2,2.91,3,1.21,2.29-.46,4-3.12,6.43-.51.46-1,.9-1.46,1.35-1.57-1.59-3.19-3.16-4.76-4.68-3.08-3-6.26-6.07-9.13-9.32.6-.54,1.15-1.15,1.7-1.74C83.28,2.51,84.67,1,86.53,1M38.42,4.14h27L64.1,5.47C62,7.59,59.86,9.78,57.63,11.81c-2.77,0-5.75,0-9.32,0H32.88c-5.64,0-10,0-14.1.08a10.42,10.42,0,0,0-7.32,3.55,10.78,10.78,0,0,0-2.79,7.9q0,28.19,0,56.4a10.86,10.86,0,0,0,2.83,8,10.2,10.2,0,0,0,7.34,3.5c9.6,0,19.23.05,28.62.05,10.27,0,20.57,0,30.64-.06a10.61,10.61,0,0,0,10-10.21c0-6.34,0-12.78,0-19,0-6.44,0-13.09,0-19.64,2.06-2.2,4.25-4.36,6.36-6.44l1.34-1.32c0,5.14,0,10.32,0,15.35,0,11.34.05,23.07-.1,34.59C95.71,91.39,90.05,97.7,82.9,99H14.65C7.19,98.26,1.1,91.76,1.07,84.48,1,66.52,1,48.25,1,30.59V18.64C1.17,11.09,8,4.35,15.59,4.22c6.65-.05,13.91-.08,22.83-.08M76.19,9.73c5.14,5.06,9.75,9.65,14.05,14-9.73,9.67-21.11,21-32.62,32.39-4.17-4.07-8.55-8.43-14-13.93C52.1,33.62,60.77,25,69.16,16.7l7-7M40.47,46.19c1.93,1.87,4,3.89,5.94,5.85,2.39,2.37,4.85,4.81,7.17,7l-1.09.34-1.35.43c-3.62,1-6.43,1.78-9.14,2.57-2.07.6-4.21,1.21-6.75,1.91l2-6.81q1.63-5.67,3.26-11.34M86.53,0c-3.42,0-5.27,3.84-7.84,5.73C83.42,11.23,88.94,16.09,94,21.29c2.31-2.74,7.78-5.56,5.37-9.83C95.56,7.61,92,3.28,87.53.11a4.94,4.94,0,0,0-1-.11ZM38.42,3.14q-11.42,0-22.84.08C7.46,3.36.18,10.46,0,18.63c0,22-.08,43.91,0,65.86C.1,92.4,6.82,99.26,14.6,100H83c7.38-1.3,13.7-7.73,13.8-15.4.22-17.45.05-34.92.08-52.36-3.23,3.24-6.58,6.41-9.7,9.78-.08,13,0,26,0,39a9.65,9.65,0,0,1-9.06,9.21q-15.3.06-30.61.06-14.31,0-28.62-.05C13.51,90.13,9.25,85,9.67,79.8q0-28.25,0-56.48A9.87,9.87,0,0,1,18.81,12.9c4.69-.06,9.38-.08,14.07-.08l15.44,0q4.85,0,9.71,0c3.39-3.06,6.52-6.42,9.77-9.64l-29.37,0ZM76.19,8.32c-11.35,11.26-22.71,22.5-34,33.82q7.67,7.71,15.44,15.34,17-16.87,34-33.78Q84,16,76.19,8.32ZM40,44.32c-2.07,7.15-4.11,14.31-6.17,21.46,6.95-1.89,10.65-3.08,17.6-4.95,1.86-.59,3.09-.95,4.05-1.33C50.53,54.82,44.88,49,40,44.32Z"/></svg>