<svg id="layout" xmlns="http://www.w3.org/2000/svg" viewBox="0 0 100 100"><defs><style>.cls-1{fill:#2e3192;}</style></defs><title>facebook stroke</title><g id="svg_1" data-name="svg 1"><g id="svg_2" data-name="svg 2"><path class="cls-1" d="M50,1A49,49,0,0,1,98.59,56.34a48.54,48.54,0,0,1-4.45,15A49,49,0,1,1,47.05,1.09C48,1,49,1,50,1M42.2,42.43H31.59V54.69H42.2V85.36H56.07V54.69H68.41V42.43H56.07v-2.9c0-4.29.06-4.39.55-5.16l.1-.16a1.47,1.47,0,0,0,.11-.2,24,24,0,0,1,4.2-.18h1l5.3-.06h1v-1l0-5.46,0-5.44v-1H62c-5.85,0-6.7.05-8.5.54-4.88,1.3-9,5.59-10.58,10.93-.56,1.95-.68,3.26-.68,7.38v2.7M50,0q-1.51,0-3,.09A49.93,49.93,0,1,0,50,0ZM32.59,53.69V43.43H43.2v-3.7c0-4,.12-5.27.65-7.1,1.45-5,5.33-9,9.88-10.24,1.66-.45,2.38-.48,8.24-.51h5.44l0,5.44,0,5.45-5.3.06c-6,.07-5.63,0-6.27,1s-.7,1.41-.7,5.7v3.9H67.41V53.69H55.07V84.36H43.2V53.69H32.59Z"/></g></g></svg>