<svg id="layout" xmlns="http://www.w3.org/2000/svg" viewBox="0 0 100 100"><defs><style>.cls-1{fill:gray;}</style></defs><title>forward</title><path id="path2985" class="cls-1" d="M100,50.15a7.58,7.58,0,0,0-2.38-5.37L53.52,2.65a8.49,8.49,0,0,0-11.57-.17,7.49,7.49,0,0,0-.18,11l.14.14L80.26,50.24,41.78,86.66a7.49,7.49,0,0,0-.16,11,8.49,8.49,0,0,0,11.57.15l.15-.14,44.25-41.9A7.57,7.57,0,0,0,100,50.15Z"/><path id="path2985-1" class="cls-1" d="M60.69,49.87a7.58,7.58,0,0,0-2.38-5.37L14.21,2.36A8.49,8.49,0,0,0,2.64,2.19a7.49,7.49,0,0,0-.18,11l.14.14L41,50,2.48,86.37a7.49,7.49,0,0,0-.16,11,8.49,8.49,0,0,0,11.57.15l.15-.14,44.25-41.9A7.57,7.57,0,0,0,60.69,49.87Z"/></svg>