<svg id="layout" xmlns="http://www.w3.org/2000/svg" viewBox="0 0 100 100"><defs><style>.cls-1{fill:gray;}</style></defs><title>globe</title><path class="cls-1" d="M50.25,0h-.5A50,50,0,0,0,50,100h.26a50,50,0,0,0,0-100ZM39.61,6A63.23,63.23,0,0,0,27.13,25.7a60.69,60.69,0,0,1-10.9-5.75A45.14,45.14,0,0,1,39.61,6ZM13.24,23.67a65.83,65.83,0,0,0,12.29,6.5A66.12,66.12,0,0,0,22.7,44.35c-.1,1.1-.17,2.18-.21,3.27H4.82A45,45,0,0,1,13.24,23.67Zm0,52.67a45.11,45.11,0,0,1-8.42-24H22.48a63.47,63.47,0,0,0,3,17.47A65.76,65.76,0,0,0,13.24,76.33Zm3,3.72a60.81,60.81,0,0,1,10.86-5.73A62.29,62.29,0,0,0,37.27,91.17c.85,1,1.72,2,2.64,2.92A45.18,45.18,0,0,1,16.23,80.06ZM47.62,94.85a57.37,57.37,0,0,1-16-22.15,61.23,61.23,0,0,1,16-2.77Zm0-29.69A65.39,65.39,0,0,0,30,68.22a60.2,60.2,0,0,1-2.7-15.84H47.62Zm0-17.54H27.35A61.25,61.25,0,0,1,30.1,31.81a66,66,0,0,0,17.51,3Zm0-17.54A61,61,0,0,1,31.7,27.32,58.43,58.43,0,0,1,47.62,4.85Zm39.12-6.39a45,45,0,0,1,8.44,23.93H77.62a63.1,63.1,0,0,0-3.17-17.44A65.56,65.56,0,0,0,86.74,23.69Zm-3-3.73a60.75,60.75,0,0,1-11,5.77,63,63,0,0,0-10-16.41C62.37,8.89,62,8.43,61.59,8l-1.77-2.1A45.42,45.42,0,0,1,83.75,20ZM52.38,4.87A64.78,64.78,0,0,1,57.93,11l1.16,1.39a58.41,58.41,0,0,1,9.19,14.94,61.35,61.35,0,0,1-15.9,2.74Zm0,30a66,66,0,0,0,17.58-3,58.35,58.35,0,0,1,2.9,15.83H52.38Zm0,17.55H72.87a58.48,58.48,0,0,1-2.78,15.87,65.5,65.5,0,0,0-17.7-3.09Zm0,42.46V69.92a61,61,0,0,1,16.07,2.8A58.13,58.13,0,0,1,52.38,94.84Zm7.72-.74A62.59,62.59,0,0,0,72.94,74.33a61.46,61.46,0,0,1,10.83,5.72A45.24,45.24,0,0,1,60.1,94.1ZM86.76,76.32a65.37,65.37,0,0,0-12.19-6.46,63.67,63.67,0,0,0,3.07-17.49H95.18A44.94,44.94,0,0,1,86.76,76.32Z"/></svg>