<svg id="layout" xmlns="http://www.w3.org/2000/svg" viewBox="0 0 100 100"><defs><style>.cls-1{fill:#ffc61b;}.cls-2{fill:#fff;}.cls-3{fill:#ff7058;}.cls-4{fill:#54c0eb;}.cls-5{fill:#e6e9ee;}</style></defs><title>id card front</title><circle class="cls-1" cx="50.15" cy="50" r="50"/><path class="cls-2" d="M78.42,72.44H21.88a4,4,0,0,1-3.94-3.94V34.8a4,4,0,0,1,3.94-3.94H78.42a4,4,0,0,1,3.94,3.94V68.5A3.85,3.85,0,0,1,78.42,72.44Z"/><rect class="cls-3" x="35.27" y="26.54" width="29.76" height="8.35"/><circle class="cls-4" cx="32.83" cy="47.17" r="4.57"/><path class="cls-4" d="M41.65,61.81a13.27,13.27,0,0,1-8.74,3.39,12.74,12.74,0,0,1-8.74-3.39,8.71,8.71,0,0,1,8.74-8.11A8.82,8.82,0,0,1,41.65,61.81Z"/><rect class="cls-5" x="50.78" y="42.68" width="23.46" height="3.39"/><rect class="cls-5" x="50.78" y="50" width="23.46" height="3.39"/><rect class="cls-5" x="50.78" y="57.32" width="14.65" height="3.39"/></svg>