<svg id="layout" xmlns="http://www.w3.org/2000/svg" viewBox="0 0 72.57 100"><defs><style>.cls-1{fill:#f75252;}</style></defs><title>kunvet logo</title><g id="_Group_" data-name="&lt;Group&gt;"><path class="cls-1" d="M59.82,2.79C71,8.32,72.57,16.61,72.57,23.52c-.49,12.07-7.81,31.49-9.33,33.1H7.9c-.29,0-10.67-19.68-7.19-33.1C1.88,19,8.06,9.52,17.94,5.27c4.59-2.1,11.61-4.61,17.93-5C37.87,0,53.46-.87,59.82,2.79Z"/><path class="cls-1" d="M53.84,75.4,36.55,100,17.94,74.67c0-.31,5.33-6.33,18.61-6.73C46,68.15,51.39,72.66,53.84,75.4Z"/><path class="cls-1" d="M59.82,2.79C71,8.32,72.57,16.61,72.57,23.52c-.49,12.07-7.81,31.49-9.33,33.1H7.9c-.29,0-10.67-19.68-7.19-33.1C1.88,19,8.06,9.52,17.94,5.27c4.59-2.1,11.61-4.61,17.93-5C37.87,0,53.46-.87,59.82,2.79Z"/><path class="cls-1" d="M53.84,75.4,36.55,100,17.94,74.67c0-.31,5.33-6.33,18.61-6.73C46,68.15,51.39,72.66,53.84,75.4Z"/></g></svg>