<svg id="layout" xmlns="http://www.w3.org/2000/svg" viewBox="0 0 85.81 100"><defs><style>.cls-1{fill:#666;}.cls-2{fill:#ef5454;}</style></defs><title>kunvet character</title><rect class="cls-1" x="44.95" y="90.93" width="9.55" height="1.01" transform="matrix(0.01, -1, 1, 0.01, -41.99, 140.62)"/><polygon class="cls-2" points="49.47 64.51 55.62 84.3 49.7 88.57 44.65 85.63 49.47 64.51"/><path class="cls-1" d="M65.53,56.87c9.24-.55,15.82-8.09,15.82-18.33,0-11.27-7.52-20.44-16.76-20.44H35.69c-9.36,0-17,8.27-17,18.44v1.94c0,10.16,7.63,18.43,17,18.43h.74c-6.53.9-13.22,2.46-15.41,7C18.08,70,18.6,80,19.1,89.72c.19,3.72.37,7.23.37,10.53h1c0-3.33-.19-7-.37-10.58-.49-9.59-1-19.51,1.82-25.32,2.45-5.07,11.66-6.13,19.06-7l1.9-.22L41.25,58.2a.52.52,0,0,0-.23.39.5.5,0,0,0,.18.41l8.07,6.85a.47.47,0,0,0,.15.09.39.39,0,0,0,.18,0,.47.47,0,0,0,.17,0l.07,0,.08-.05L58,61.48a.49.49,0,0,0,.25-.36.5.5,0,0,0-.12-.42L54.75,57c1.68.18,3.42.28,5.1.38,7.06.41,13.73.8,16.69,6.85C79.38,70.09,78.9,80,78.44,89.6c-.17,3.56-.35,7.25-.34,10.58h1c0-3.31.16-6.82.33-10.53.47-9.72,1-19.77-2-25.82C75.08,59,70.56,57.49,65.53,56.87ZM42.37,58.68l2.41-1.55L48,63.47Zm7.2,5.62L45.8,56.91h7Zm7.37-3.4-6.3,3.43,3-7Zm-21.26-5c-8.8,0-16-7.82-16-17.42V36.54c0-9.62,7.17-17.43,16-17.43H64.58c8.69,0,15.75,8.72,15.75,19.44,0,10.22-6.55,17.36-15.92,17.36Z"/><path class="cls-1" d="M28.56,100.31a129.86,129.86,0,0,1,.78-31.12l1,.17a128.83,128.83,0,0,0-.77,30.84Z"/><path class="cls-1" d="M69.64,100l-1-.08a236,236,0,0,0-.18-30.61l1-.08A236.87,236.87,0,0,1,69.64,100Z"/><path class="cls-1" d="M55.52,48.88a3.28,3.28,0,0,1-3,3.5A2.91,2.91,0,0,1,50,50.81a2.89,2.89,0,0,1-2.48,1.57,3.28,3.28,0,0,1-3-3.5h1a2.28,2.28,0,0,0,2,2.49,2.28,2.28,0,0,0,2-2.49h1a2.29,2.29,0,0,0,2,2.49,2.29,2.29,0,0,0,2-2.49Z"/><circle class="cls-1" cx="33.14" cy="32.42" r="2.52"/><circle class="cls-1" cx="66.59" cy="32.42" r="2.52"/><polygon class="cls-2" points="13.79 8.19 49.71 0 85.82 8.19 85.82 10.39 49.75 14.59 13.79 10.39 13.79 8.19"/><path class="cls-1" d="M49.71,1,84.81,9v.5L49.75,13.58l-35-4.08V9L49.71,1m0-1L13.78,8.19v2.2l36,4.2,36.07-4.2V8.19L49.71,0Z"/><path class="cls-2" d="M30.64,12.23v7.18a172.73,172.73,0,0,1,19.11-.79,187.65,187.65,0,0,1,19.11.72V12.23S59.07,7.9,49.75,7.9,30.64,12.23,30.64,12.23Z"/><path class="cls-1" d="M49.75,8.9c7.7,0,15.86,3.08,18.1,4v5.34c-2.33-.2-8.27-.62-18.1-.62s-15.77.45-18.1.67V12.9c2.24-.91,10.41-4,18.1-4m0-1c-9.32,0-19.11,4.33-19.11,4.33v7.18a172.72,172.72,0,0,1,19.11-.79,187.64,187.64,0,0,1,19.11.72V12.23S59.07,7.9,49.75,7.9Z"/><path class="cls-2" d="M5.41,35.32a3.22,3.22,0,0,0,0-.4,8.26,8.26,0,0,1,0-1.41c0-.66.27-1.3.27-1.95a2.14,2.14,0,0,1-1.15-.28l-.17-.09-.14-.07c0,.08-.13.15-.17.23s-.12.19-.17.29a.15.15,0,0,1-.1.08,9.53,9.53,0,0,1-1,1.43c0,.12-.09.24-.13.35a5.9,5.9,0,0,1-.72.58A2.4,2.4,0,0,1,.72,35a.56.56,0,0,0,.07.14.1.1,0,0,0,0,.19l.06,0h0l.06,0a.94.94,0,0,0,.21.09h.08a2.26,2.26,0,0,1,.88.48l.07,0a1,1,0,0,1,.64.38l.6.23c1.18.27,2.31.3,2.16-.78A1.39,1.39,0,0,0,5.41,35.32Z"/><path class="cls-1" d="M22.19,6l0-.07c-.71-1.5-2.26-2.26-3.52-.85A7.36,7.36,0,0,0,18,6a10.85,10.85,0,0,0-.79,1.44l-.07.16c-.06.13-.11.26-.16.4A14.84,14.84,0,0,1,16,10.65l-.07.11a.4.4,0,0,0-.06.16q-.21.32-.41.65v0a29,29,0,0,0-2,4.38c-1,2.66-2.13,5-4.36,6.91-1.81,1.51-3.9,3-4.2,5.49A1.73,1.73,0,0,0,4,31.09a11.81,11.81,0,0,1-4,4.26.1.1,0,0,0,.08.18,2.2,2.2,0,0,1,1.76.27A7.71,7.71,0,0,0,3,36.47a3.64,3.64,0,0,0,2.52.14.41.41,0,0,0,.3-.36,1.68,1.68,0,0,0-.15-.52A6.68,6.68,0,0,1,5.53,35a6.86,6.86,0,0,1,.27-3.35,1.71,1.71,0,0,0-.08-3.25c.36-2.57,3-4,4.75-5.63A15.28,15.28,0,0,0,13.92,17a30.75,30.75,0,0,1,2.48-5.45v0q.22-.34.46-.66h0v0a.36.36,0,0,0,.08-.12.44.44,0,0,0,0-.21c.35-.8.53-1.7.84-2.52.07-.18.14-.36.23-.53l.16-.31A8.18,8.18,0,0,1,19,6l.15-.18c.49-.57.89-1,1.79-.28a1.64,1.64,0,0,1,.38.46,5,5,0,0,1,.23.46h0c.17.38.67.17.72-.17A.41.41,0,0,0,22.19,6ZM5.29,32.92h0c0,.23-.07.46-.09.69s0,.27,0,.4h0s0,0,0,.06a4.69,4.69,0,0,0,0,.93v.1a1.11,1.11,0,0,0,0,.18c0,.59-.12,1.14-.52,1.26h0a3.62,3.62,0,0,1-1.06-.12h0q.6-1.45,1.14-2.91a6,6,0,0,0,.56-1.83h0l.26,0A7.34,7.34,0,0,0,5.29,32.92ZM1.78,35.54a2.5,2.5,0,0,0-1-.26,3,3,0,0,0,.57-.39,7.84,7.84,0,0,0,1.13-1.09,20.46,20.46,0,0,0,1.77-2.45,1.46,1.46,0,0,0,.25.17q-1.31,2-2.73,4A.08.08,0,0,0,1.78,35.54Zm.47.23a16.37,16.37,0,0,0,1.22-2l.66-1a1.21,1.21,0,0,0,.25-.41A3.87,3.87,0,0,0,4.62,32c.09-.14.17-.27.24-.41l.12,0a18.69,18.69,0,0,1-2,4.55,5.31,5.31,0,0,1-.76-.41Z"/></svg>