<svg id="layout" xmlns="http://www.w3.org/2000/svg" viewBox="0 0 119.83 100"><defs><style>.cls-1{fill:#1a1a1a;}</style></defs><title>mail outline</title><path class="cls-1" d="M110.15,0H9.5C4.15,0-.17,5.09-.17,11.36V88.64C-.17,94.91,4.15,100,9.5,100H110.15c5.35,0,9.67-5.09,9.67-11.36V11.36C119.83,5.09,115.5,0,110.15,0ZM9.5,4.55H110.15A5.12,5.12,0,0,1,113,5.4L64.69,54.82a6.44,6.44,0,0,1-9.13,0L7.06,5.18A5.12,5.12,0,0,1,9.5,4.55ZM116,88.64c0,3.76-2.6,6.81-5.81,6.81H9.5c-3.21,0-5.81-3.05-5.81-6.81V11.36a7.8,7.8,0,0,1,.59-3L53,58.25a9.91,9.91,0,0,0,14.21,0L115.54,8.81a8,8,0,0,1,.42,2.55Z"/></svg>