<svg id="layout" xmlns="http://www.w3.org/2000/svg" viewBox="0 0 119.95 100"><defs><style>.cls-1{fill:#f2f2f2;}</style></defs><title>mail</title><path class="cls-1" d="M110.27,0H9.62C4.27,0-.05,5.09-.05,11.36V88.64C-.05,94.91,4.27,100,9.62,100H110.27c5.35,0,9.67-5.09,9.67-11.36V11.36C119.95,5.09,115.62,0,110.27,0Z"/><path d="M110.27,0H9.62C4.27,0-.05,5.09-.05,11.36V88.64C-.05,94.91,4.27,100,9.62,100H110.27c5.35,0,9.67-5.09,9.67-11.36V11.36C119.95,5.09,115.62,0,110.27,0ZM9.62,4.55H110.27a5.12,5.12,0,0,1,2.81.85L64.81,54.82a6.44,6.44,0,0,1-9.13,0L7.18,5.18A5.12,5.12,0,0,1,9.62,4.55ZM116.08,88.64c0,3.76-2.6,6.81-5.81,6.81H9.62c-3.21,0-5.81-3.05-5.81-6.81V11.36a7.8,7.8,0,0,1,.59-3L53.13,58.25a9.91,9.91,0,0,0,14.21,0L115.66,8.81a8,8,0,0,1,.42,2.55Z"/></svg>