<svg id="layout" xmlns="http://www.w3.org/2000/svg" viewBox="0 0 112.1 100"><title>messages</title><path d="M103.45,0H31.56a8.65,8.65,0,0,0-8.65,8.62v42.6a8.65,8.65,0,0,0,8.65,8.62H70.5l22.3,20.9,0-20.9h10.67a8.66,8.66,0,0,0,8.66-8.62V8.61A8.66,8.66,0,0,0,103.45,0ZM47,35.34a5.42,5.42,0,1,1,5.44-5.43h0A5.43,5.43,0,0,1,47,35.34Zm20.48,0a5.42,5.42,0,1,1,5.44-5.42,5.43,5.43,0,0,1-5.44,5.42h0Zm22.1,0A5.42,5.42,0,1,1,95,29.91h0a5.43,5.43,0,0,1-5.43,5.42h0Z"/><path d="M81.71,78.38H43L19.92,100l0-21.62h-11A9,9,0,0,1,0,69.47V25.4a9,9,0,0,1,8.93-8.91h7.62V55.72a9.64,9.64,0,0,0,9.62,9.62H68Z"/></svg>