<svg id="layout" xmlns="http://www.w3.org/2000/svg" viewBox="0 0 112.1 100"><title>messages outline</title><path d="M103.45,1h0a7.67,7.67,0,0,1,7.65,7.61v42.6a7.67,7.67,0,0,1-7.66,7.62H91.77v1l0,18.58L71.18,59.1l-.29-.27H31.56a7.67,7.67,0,0,1-7.65-7.62V8.62A7.67,7.67,0,0,1,31.56,1h71.89M89.6,36.34h0a6.42,6.42,0,1,0-6.45-6.42,6.4,6.4,0,0,0,6.45,6.42m-22.09,0v-1h0v1a6.44,6.44,0,0,0,6.44-6.42,6.43,6.43,0,0,0-6.44-6.43,6.44,6.44,0,0,0-6.44,6.42,6.43,6.43,0,0,0,6.44,6.43M47,36.34h0a6.42,6.42,0,1,0-4.56-11,6.37,6.37,0,0,0-1.88,4.54A6.44,6.44,0,0,0,47,36.34M103.45,0H31.56a8.65,8.65,0,0,0-8.65,8.62v42.6a8.65,8.65,0,0,0,8.65,8.62H70.5l22.3,20.9,0-20.9h10.67a8.66,8.66,0,0,0,8.66-8.62V8.61A8.66,8.66,0,0,0,103.45,0ZM89.6,35.34a5.42,5.42,0,1,1,0-10.85h0A5.43,5.43,0,0,1,95,29.91h0a5.43,5.43,0,0,1-5.43,5.42h0Zm-22.1,0h0a5.42,5.42,0,1,1,0-10.85h0a5.42,5.42,0,1,1,0,10.85h0ZM47,35.34a5.42,5.42,0,1,1,0-10.85h0a5.43,5.43,0,0,1,5.44,5.42h0A5.43,5.43,0,0,1,47,35.34Z"/><path d="M15.55,17.49V55.73A10.67,10.67,0,0,0,26.17,66.34h41.4l11.64,11H42.56l-.29.27-21.34,20,0-19.3v-1h-12A8,8,0,0,1,1,69.47V25.4a8,8,0,0,1,7.93-7.92h6.62m1-1H8.93A9,9,0,0,0,0,25.4V69.47a9,9,0,0,0,8.93,8.91h11l0,21.62L43,78.38H81.71L68,65.34H26.17a9.64,9.64,0,0,1-9.62-9.62V16.49Z"/></svg>