<svg id="Layer_1" data-name="Layer 1" xmlns="http://www.w3.org/2000/svg" viewBox="0 0 800 800"><defs><style>.cls-1{fill:#232728;}.cls-2{fill:#d39959;}.cls-3{fill:#960808;}.cls-4{fill:#ff7300;}.cls-5{fill:#ff4800;}.cls-6{fill:#efc286;}.cls-7{fill:#e8b374;}.cls-8{fill:#870e0e;}.cls-9{fill:#a11;}.cls-10{fill:#e55;}.cls-11{fill:#333;}.cls-12{fill:#1a1a1a;}.cls-13{fill:#4d4d4d;}.cls-14{fill:#ff931e;}.cls-15{fill:#fff;}.cls-16{fill:#ff8b00;}</style></defs><title>Artboard 1</title><path class="cls-1" d="M115.43,427C92.14,406.29-11.91,292.44,1.13,277.73S139.4,353.1,162.69,373.8s31.57,49.42,18.52,64.11S138.69,447.69,115.43,427Z"/><path class="cls-1" d="M275.59,427c23.29-20.7,127.34-134.55,114.3-149.26S251.62,353.1,228.34,373.8s-31.57,49.42-18.52,64.11S252.33,447.69,275.59,427Z"/><path class="cls-2" d="M341.7,355.7c29.29-34.76,55.08-70.2,48.19-78-7.08-7.92-46.89,14.74-85.67,40.5Z"/><path class="cls-2" d="M82.37,315.31C45,290.8,7.95,270.12,1.14,277.73c-6.63,7.47,17,40.52,44.85,74Z"/><path class="cls-3" d="M272.58,497.76a46,46,0,0,1,46,46c0,25.39-20.59,162.35-46,162.35s-46-137-46-162.35A46,46,0,0,1,272.58,497.76Z"/><path class="cls-3" d="M118.45,497.76a46,46,0,0,1,46,46c0,25.39-20.59,162.35-46,162.35s-46-137-46-162.35A46,46,0,0,1,118.45,497.76Z"/><path class="cls-1" d="M195.51,312.66c71.64,0,129.76,76.26,129.76,170.32,0,164.51-58.1,109.73-129.76,109.73S65.75,647.5,65.75,483C65.75,388.93,123.85,312.67,195.51,312.66Z"/><path class="cls-4" d="M272.57,660.7c28.57,0,51.75,26.78,51.75,46.24s-23.18,22-51.75,22-51.75-2.56-51.75-22S244,660.7,272.57,660.7Z"/><path class="cls-5" d="M324.32,706.94c0,19.46-23.18,22-51.75,22s-51.75-2.56-51.75-22Z"/><path class="cls-4" d="M118.43,660.7c28.57,0,51.75,26.78,51.75,46.24S147,729,118.43,729s-51.75-2.56-51.75-22S89.87,660.7,118.43,660.7Z"/><path class="cls-5" d="M170.18,706.94c0,19.46-23.18,22-51.75,22s-51.75-2.56-51.75-22Z"/><path class="cls-6" d="M195.49,72.46c92.74,0,168,79.74,168,161.82s-75.21,123.3-168,123.3S27.58,316.32,27.58,234.27,102.77,72.46,195.49,72.46Z"/><path class="cls-7" d="M363.44,234.27c0,82.05-75.21,123.3-168,123.3S27.58,316.32,27.58,234.27Z"/><path class="cls-1" d="M272.49,265.09a3.26,3.26,0,0,1,0-4.6,46.1,46.1,0,0,1,32.83-13.59h0a46,46,0,0,1,32.78,13.61,3.26,3.26,0,0,1-4.65,4.57,39.5,39.5,0,0,0-28.14-11.67h0a39.63,39.63,0,0,0-28.19,11.68,3.24,3.24,0,0,1-2.31,1A3.15,3.15,0,0,1,272.49,265.09Z"/><path class="cls-1" d="M178.38,265.09a3.32,3.32,0,0,0,0-4.6,46.15,46.15,0,0,0-32.82-13.59h0a45.92,45.92,0,0,0-32.77,13.61,3.25,3.25,0,0,0,4.62,4.57,39.57,39.57,0,0,1,28.16-11.67h0a39.65,39.65,0,0,1,28.19,11.68,3.26,3.26,0,0,0,4.62,0Z"/><path class="cls-8" d="M224.93,323c-15.91,0-28.84,12-28.84-8.09s12.94-36.37,28.84-36.37,28.81,16.3,28.81,36.37S240.84,323,224.93,323Z"/><path class="cls-9" d="M247.93,293.22c-5.26-8.88-13.56-14.7-23-14.7s-17.77,5.85-23,14.71c5.25,8.87,13.57,14.69,23,14.69S242.68,302.11,247.93,293.22Z"/><path class="cls-1" d="M195.49,72.46c-71.17,0-131.85,47-156.3,106a205.23,205.23,0,0,0,39.36-14.91c30.25,15.49,72.72,25.18,119.89,25.18,58.35,0,109.57-14.78,139.19-37.11C307.92,105.87,255.45,72.46,195.49,72.46Z"/><g id="Layer_2" data-name="Layer 2"><g id="logo"><g id="_Group_" data-name=" Group "><path class="cls-10" d="M225.23,409.73c13.91,6.88,15.84,17.19,15.84,25.79-.6,15-9.71,39.18-11.6,41.19H160.71c-.36,0-13.27-24.49-8.93-41.19,1.45-5.61,9.13-17.41,21.4-22.71,5.69-2.62,14.42-5.73,22.27-6.23C198,406.31,217.32,405.17,225.23,409.73Z"/><path class="cls-10" d="M217.79,500,196.3,530.63l-23.12-31.52c0-.39,6.63-7.87,23.12-8.38C208,491,214.75,496.6,217.79,500Z"/><path class="cls-10" d="M225.23,409.73c13.91,6.88,15.84,17.19,15.84,25.79-.6,15-9.71,39.18-11.6,41.19H160.71c-.36,0-13.27-24.49-8.93-41.19,1.45-5.61,9.13-17.41,21.4-22.71,5.69-2.62,14.42-5.73,22.27-6.23C198,406.31,217.32,405.17,225.23,409.73Z"/><path class="cls-10" d="M217.79,500,196.3,530.63l-23.12-31.52c0-.39,6.63-7.87,23.12-8.38C208,491,214.75,496.6,217.79,500Z"/></g></g></g><path class="cls-11" d="M764.9,636.22H707a20.52,20.52,0,0,1-20.52-20.52V454.88A20.52,20.52,0,0,1,707,434.37H764.9a20.52,20.52,0,0,1,20.52,20.52V615.7A20.52,20.52,0,0,1,764.9,636.22Z"/><path class="cls-12" d="M737.23,615.38a20.84,20.84,0,0,1-20.84,20.84H658.78a20.52,20.52,0,0,1-20.52-20.52V454.88a20.52,20.52,0,0,1,20.52-20.52h57.94a20.52,20.52,0,0,1,20.52,20.52v160.5Z"/><path class="cls-10" d="M618.8,437.36C605.74,422.67,614,394,637.31,373.25s148.48-110.71,161.56-96.06-91,128.56-114.3,149.26S631.86,452,618.8,437.36Z"/><path class="cls-10" d="M590.18,437.36c13.06-14.69,4.77-43.38-18.52-64.11S423.18,262.53,410.1,277.18s91,128.56,114.3,149.26S577.12,452,590.18,437.36Z"/><path class="cls-13" d="M573.44,543.21c0,25.4-20.6,162.35-46,162.35s-46-137-46-162.35a46,46,0,1,1,92,0Z"/><path class="cls-13" d="M727.56,543.21c0,25.4-20.6,162.35-46,162.35s-46-137-46-162.35a46,46,0,1,1,92,0Z"/><path class="cls-10" d="M734.25,482.43c0,164.51-58.08,109.73-129.76,109.73S474.73,646.95,474.73,482.43c0-94.06,58.12-170.31,129.76-170.31S734.25,388.38,734.25,482.43Z"/><path class="cls-14" d="M579.18,706.39c0,19.45-23.18,22-51.75,22s-51.75-2.55-51.75-22,23.18-46.24,51.75-46.24S579.18,686.93,579.18,706.39Z"/><path class="cls-5" d="M579.18,706.39c0,19.45-23.18,22-51.75,22s-51.75-2.55-51.75-22"/><path class="cls-14" d="M733.32,706.39c0,19.45-23.18,22-51.75,22s-51.75-2.55-51.75-22,23.18-46.24,51.75-46.24S733.32,686.93,733.32,706.39Z"/><path class="cls-5" d="M733.32,706.39c0,19.45-23.18,22-51.75,22s-51.75-2.55-51.75-22"/><g id="Layer_2-2" data-name="Layer 2"><g id="logo-2" data-name="logo"><g id="_Group_2" data-name=" Group "><path class="cls-15" d="M631.09,439c11.87,5.87,13.52,14.67,13.52,22-.51,12.82-8.29,33.44-9.9,35.15H576c-.31,0-11.32-20.9-7.62-35.15,1.24-4.78,7.79-14.86,18.26-19.38,4.86-2.23,12.31-4.89,19-5.31C607.81,436.1,624.34,435.13,631.09,439Z"/><path class="cls-15" d="M624.74,516.08,606.4,542.21l-19.73-26.9c0-.33,5.66-6.72,19.73-7.15C616.39,508.38,622.15,513.17,624.74,516.08Z"/><path class="cls-15" d="M631.09,439c11.87,5.87,13.52,14.67,13.52,22-.51,12.82-8.29,33.44-9.9,35.15H576c-.31,0-11.32-20.9-7.62-35.15,1.24-4.78,7.79-14.86,18.26-19.38,4.86-2.23,12.31-4.89,19-5.31C607.81,436.1,624.34,435.13,631.09,439Z"/><path class="cls-15" d="M624.74,516.08,606.4,542.21l-19.73-26.9c0-.33,5.66-6.72,19.73-7.15C616.39,508.38,622.15,513.17,624.74,516.08Z"/></g></g></g><path class="cls-2" d="M495.78,317.68c-38.79-25.76-78.6-48.42-85.67-40.5-6.89,7.77,18.9,43.21,48.19,78Z"/><path class="cls-2" d="M754,351.14c27.87-33.44,51.47-66.49,44.85-74-6.81-7.61-43.9,13.07-81.23,37.57Z"/><circle class="cls-2" cx="607.54" cy="347.15" r="34.62"/><path class="cls-13" d="M750.08,514.18c10.4,10.41,12.88,24.8,5.55,32.16h0c-7.33,7.33-21.74,4.83-32.14-5.57L548.61,365.9c-10.42-10.44-12.9-24.82-5.55-32.16h0c7.32-7.36,21.72-4.87,32.14,5.55Z"/><path class="cls-6" d="M772.42,233.72c0,82.05-75.19,123.3-167.91,123.3s-168-41.25-168-123.3,75.21-161.82,168-161.82S772.42,151.65,772.42,233.72Z"/><path class="cls-7" d="M772.42,233.72c0,82.05-75.19,123.3-167.91,123.3s-168-41.25-168-123.3"/><path class="cls-1" d="M569.65,282.93a3.19,3.19,0,0,1-2.31-1,39.66,39.66,0,0,0-28.2-11.68h0A39.52,39.52,0,0,0,511,282a3.26,3.26,0,0,1-4.64-4.57,46,46,0,0,1,32.77-13.61h0A46.08,46.08,0,0,1,572,277.36a3.28,3.28,0,0,1,0,4.6A3.13,3.13,0,0,1,569.65,282.93Z"/><path class="cls-1" d="M668.4,282.93a3.17,3.17,0,0,0,2.29-1,39.66,39.66,0,0,1,28.2-11.68h0A39.57,39.57,0,0,1,727.07,282a3.25,3.25,0,0,0,4.62-4.57,45.94,45.94,0,0,0-32.77-13.61h0a46.15,46.15,0,0,0-32.83,13.59,3.32,3.32,0,0,0,0,4.6A3.2,3.2,0,0,0,668.4,282.93Z"/><path class="cls-16" d="M462.37,151c29.61,22.33,65.66-24.43,124-24.43,47.18,0,92.86,15.49,123.09,0,11.48,5.89,36.73,47.28,51.34,51.28-24.45-59-85.14-106-156.31-106C544.55,71.91,492.08,105.31,462.37,151Z"/></svg>