<svg id="layout" xmlns="http://www.w3.org/2000/svg" viewBox="0 0 119.67 100"><defs><style>.cls-1{fill:#fff;}</style></defs><title>people stroke white</title><path class="cls-1" d="M59.8,1c4.06,0,7.54,1.67,10.63,5.12a28,28,0,0,1,6.37,13.28,43.91,43.91,0,0,1,.65,7,35.6,35.6,0,0,1-2.06,12,21.89,21.89,0,0,1-7.33,10.44l-1.24.91,1.33.76,7.54,4.32L93.29,65.12c1.46.88,2.16,2.38,2.16,4.59V94.07a6.23,6.23,0,0,1-1,3.61A2.56,2.56,0,0,1,92.22,99h-65a2.41,2.41,0,0,1-2.08-1.32,6.24,6.24,0,0,1-1-3.61V69.71c0-2.21.71-3.71,2.14-4.58L44.55,54.88l7.14-4L53,50.11l-1.25-.92A22,22,0,0,1,44.45,39,32.84,32.84,0,0,1,42,26.44a28.49,28.49,0,0,1,.26-3.87c.17-1.25.39-2.46.65-3.6A28.19,28.19,0,0,1,49.36,6c3-3.34,6.46-5,10.44-5M29.4,10.54a8.86,8.86,0,0,1,3.55.72,16.52,16.52,0,0,1,2.78,1.55A45.78,45.78,0,0,0,35,37.43a39,39,0,0,0,3.46,9,12.53,12.53,0,0,1-2.38,2.3L22.59,56.58a12.08,12.08,0,0,0-5,5.31,17.11,17.11,0,0,0-1.75,7.74V89.31H3.37a1.89,1.89,0,0,1-1.51-.79,5,5,0,0,1-.84-3V66c0-2.88,1.15-3.41,1.52-3.58l0,0,0,0L23,50.8,24.38,50l-1.24-.92a18,18,0,0,1-5.61-7.37,26.69,26.69,0,0,1-2.15-10.89,27.52,27.52,0,0,1,1.14-8,22.52,22.52,0,0,1,3.09-6.52,15.63,15.63,0,0,1,4.46-4.3,9.94,9.94,0,0,1,5.33-1.53m61,0a10.32,10.32,0,0,1,5.42,1.54,15.32,15.32,0,0,1,4.52,4.29,22.5,22.5,0,0,1,3.09,6.52,27.45,27.45,0,0,1,1.15,8,26.25,26.25,0,0,1-2.16,10.73A19.22,19.22,0,0,1,97.08,49l-1.15.91,1.27.74,20.18,11.69C118.48,63,119,64.18,119,66V85.5a5.07,5.07,0,0,1-.75,2.88,1.77,1.77,0,0,1-1.55.92h-13V69.64A17.09,17.09,0,0,0,102,61.9a12.35,12.35,0,0,0-4.82-5.31l-13-7.51a13.52,13.52,0,0,1-2.92-2.93,40.89,40.89,0,0,0,3.29-8.89,45.25,45.25,0,0,0,1.28-10.9,46.64,46.64,0,0,0-.54-7.21,42.76,42.76,0,0,0-1.41-6.07,14.51,14.51,0,0,1,2.94-1.76,9,9,0,0,1,3.69-.79M59.8,0Q53.45,0,48.62,5.29a29,29,0,0,0-6.68,13.46q-.4,1.76-.66,3.69a29.36,29.36,0,0,0-.26,4,33.68,33.68,0,0,0,2.51,13A22.84,22.84,0,0,0,51.2,50l-7.14,4L25.8,64.26q-2.65,1.6-2.65,5.45V94.07a7.27,7.27,0,0,0,1.19,4.17A3.46,3.46,0,0,0,27.25,100h65a3.56,3.56,0,0,0,3-1.76,7.26,7.26,0,0,0,1.19-4.17V69.71q0-3.85-2.65-5.45L76.21,54l-7.54-4.33a22.76,22.76,0,0,0,7.67-10.9,36.44,36.44,0,0,0,2.12-12.34,44.69,44.69,0,0,0-.66-7.21A28.89,28.89,0,0,0,71.18,5.45Q66.29,0,59.8,0ZM29.4,9.54a10.88,10.88,0,0,0-5.86,1.68,16.54,16.54,0,0,0-4.74,4.57,23.41,23.41,0,0,0-3.23,6.81,28.39,28.39,0,0,0-1.19,8.25,27.56,27.56,0,0,0,2.24,11.3,18.93,18.93,0,0,0,5.93,7.77L2.13,61.47Q0,62.43,0,66V85.5a5.9,5.9,0,0,0,1,3.61,2.88,2.88,0,0,0,2.32,1.2H16.88V69.64a16,16,0,0,1,1.65-7.29,11.05,11.05,0,0,1,4.55-4.89l13.57-7.85a14,14,0,0,0,3-3A37.4,37.4,0,0,1,36,37.19a44.75,44.75,0,0,1,.92-24.76,17.72,17.72,0,0,0-3.56-2.08,9.81,9.81,0,0,0-4-.8Zm61,0a10,10,0,0,0-4.09.88,15.57,15.57,0,0,0-3.7,2.32,41.5,41.5,0,0,1,1.58,6.57,45.43,45.43,0,0,1,.53,7.05A44.05,44.05,0,0,1,83.51,37,39.33,39.33,0,0,1,80,46.24a15.05,15.05,0,0,0,3.56,3.69l13.07,7.53a11.31,11.31,0,0,1,4.42,4.89,16,16,0,0,1,1.65,7.29V90.31h14a2.77,2.77,0,0,0,2.38-1.36A6,6,0,0,0,120,85.5V66q0-3.21-2.11-4.49L97.7,49.77A20.11,20.11,0,0,0,103.38,42a27.12,27.12,0,0,0,2.24-11.14,28.32,28.32,0,0,0-1.19-8.25,23.39,23.39,0,0,0-3.23-6.81,16.24,16.24,0,0,0-4.82-4.57,11.26,11.26,0,0,0-5.94-1.68Z"/></svg>