<svg id="Layer_1" data-name="Layer 1" xmlns="http://www.w3.org/2000/svg" viewBox="0 0 800 800"><defs><style>.cls-1{fill:#333;}.cls-2{fill:#1a1a1a;}.cls-3{fill:#e55;}.cls-4{fill:#4d4d4d;}.cls-5{fill:#ff931e;}.cls-6{fill:#ff4800;}.cls-7{fill:#fff;}.cls-8{fill:#d39959;}.cls-9{fill:#efc286;}.cls-10{fill:#e8b374;}.cls-11{fill:#232728;}.cls-12{fill:#ff8b00;}</style></defs><title>Artboard 1</title><path class="cls-1" d="M559.9,636.22H502a20.52,20.52,0,0,1-20.52-20.52V454.88A20.52,20.52,0,0,1,502,434.37H559.9a20.52,20.52,0,0,1,20.52,20.52V615.7A20.52,20.52,0,0,1,559.9,636.22Z"/><path class="cls-2" d="M532.23,615.38a20.84,20.84,0,0,1-20.84,20.84H453.78a20.52,20.52,0,0,1-20.52-20.52V454.88a20.52,20.52,0,0,1,20.52-20.52h57.94a20.52,20.52,0,0,1,20.52,20.52v160.5Z"/><path class="cls-3" d="M413.8,437.36C400.74,422.67,409,394,432.31,373.25s148.48-110.71,161.56-96.06-91,128.56-114.3,149.26S426.86,452,413.8,437.36Z"/><path class="cls-3" d="M385.18,437.36c13.06-14.69,4.77-43.38-18.52-64.11S218.18,262.53,205.1,277.18s91,128.56,114.3,149.26S372.12,452,385.18,437.36Z"/><path class="cls-4" d="M368.44,543.21c0,25.4-20.6,162.35-46,162.35s-46-137-46-162.35a46,46,0,1,1,92,0Z"/><path class="cls-4" d="M522.56,543.21c0,25.4-20.6,162.35-46,162.35s-46-137-46-162.35a46,46,0,1,1,92,0Z"/><path class="cls-3" d="M529.25,482.43c0,164.51-58.08,109.73-129.76,109.73S269.73,646.95,269.73,482.43c0-94.06,58.12-170.31,129.76-170.31S529.25,388.38,529.25,482.43Z"/><path class="cls-5" d="M374.18,706.39c0,19.45-23.18,22-51.75,22s-51.75-2.55-51.75-22,23.18-46.24,51.75-46.24S374.18,686.93,374.18,706.39Z"/><path class="cls-6" d="M374.18,706.39c0,19.45-23.18,22-51.75,22s-51.75-2.55-51.75-22"/><path class="cls-5" d="M528.32,706.39c0,19.45-23.18,22-51.75,22s-51.75-2.55-51.75-22,23.18-46.24,51.75-46.24S528.32,686.93,528.32,706.39Z"/><path class="cls-6" d="M528.32,706.39c0,19.45-23.18,22-51.75,22s-51.75-2.55-51.75-22"/><g id="Layer_2" data-name="Layer 2"><g id="logo"><g id="_Group_" data-name=" Group "><path class="cls-7" d="M426.09,439c11.87,5.87,13.52,14.67,13.52,22-.51,12.82-8.29,33.44-9.9,35.15H371c-.31,0-11.32-20.9-7.62-35.15,1.24-4.78,7.79-14.86,18.26-19.38,4.86-2.23,12.31-4.89,19-5.31C402.81,436.1,419.34,435.13,426.09,439Z"/><path class="cls-7" d="M419.74,516.08,401.4,542.21l-19.73-26.9c0-.33,5.66-6.72,19.73-7.15C411.39,508.38,417.15,513.17,419.74,516.08Z"/><path class="cls-7" d="M426.09,439c11.87,5.87,13.52,14.67,13.52,22-.51,12.82-8.29,33.44-9.9,35.15H371c-.31,0-11.32-20.9-7.62-35.15,1.24-4.78,7.79-14.86,18.26-19.38,4.86-2.23,12.31-4.89,19-5.31C402.81,436.1,419.34,435.13,426.09,439Z"/><path class="cls-7" d="M419.74,516.08,401.4,542.21l-19.73-26.9c0-.33,5.66-6.72,19.73-7.15C411.39,508.38,417.15,513.17,419.74,516.08Z"/></g></g></g><path class="cls-8" d="M290.78,317.68c-38.79-25.76-78.6-48.42-85.67-40.5-6.89,7.77,18.9,43.21,48.19,78Z"/><path class="cls-8" d="M549,351.14c27.87-33.44,51.47-66.49,44.85-74-6.81-7.61-43.9,13.07-81.23,37.57Z"/><circle class="cls-8" cx="402.54" cy="347.15" r="34.62"/><path class="cls-4" d="M545.08,514.18c10.4,10.41,12.88,24.8,5.55,32.16h0c-7.33,7.33-21.74,4.83-32.14-5.57L343.61,365.9c-10.42-10.44-12.9-24.82-5.55-32.16h0c7.32-7.36,21.72-4.87,32.14,5.55Z"/><path class="cls-9" d="M567.42,233.72c0,82.05-75.19,123.3-167.91,123.3s-168-41.25-168-123.3,75.21-161.82,168-161.82S567.42,151.65,567.42,233.72Z"/><path class="cls-10" d="M567.42,233.72c0,82.05-75.19,123.3-167.91,123.3s-168-41.25-168-123.3"/><path class="cls-11" d="M364.65,282.93a3.19,3.19,0,0,1-2.31-1,39.66,39.66,0,0,0-28.2-11.68h0A39.52,39.52,0,0,0,306,282a3.26,3.26,0,0,1-4.64-4.57,46,46,0,0,1,32.77-13.61h0A46.08,46.08,0,0,1,367,277.36a3.28,3.28,0,0,1,0,4.6A3.13,3.13,0,0,1,364.65,282.93Z"/><path class="cls-11" d="M463.4,282.93a3.17,3.17,0,0,0,2.29-1,39.66,39.66,0,0,1,28.2-11.68h0A39.57,39.57,0,0,1,522.07,282a3.25,3.25,0,0,0,4.62-4.57,45.94,45.94,0,0,0-32.77-13.61h0a46.15,46.15,0,0,0-32.83,13.59,3.32,3.32,0,0,0,0,4.6A3.2,3.2,0,0,0,463.4,282.93Z"/><path class="cls-12" d="M257.37,151c29.61,22.33,65.66-24.43,124-24.43,47.18,0,92.86,15.49,123.09,0,11.48,5.89,36.73,47.28,51.34,51.28-24.45-59-85.14-106-156.31-106C339.55,71.91,287.08,105.31,257.37,151Z"/></svg>