<svg id="layout" xmlns="http://www.w3.org/2000/svg" viewBox="0 0 78.97 100"><defs><style>.cls-1{fill:#b3b3b3;}</style></defs><title>resume stroke</title><path class="cls-1" d="M62.15,74.77a.4.4,0,1,1,0,.79H16.84a.4.4,0,1,1,0-.79H62.15m0-1H16.84a1.4,1.4,0,1,0,0,2.79H62.15a1.4,1.4,0,1,0,0-2.79Z"/><path class="cls-1" d="M62.15,63.24a.4.4,0,1,1,0,.79H16.84a.4.4,0,1,1,0-.79H62.15m0-1H16.84a1.4,1.4,0,1,0,0,2.79H62.15a1.4,1.4,0,1,0,0-2.79Z"/><path class="cls-1" d="M62.15,51.71a.4.4,0,1,1,0,.79H16.84a.4.4,0,1,1,0-.79H62.15m0-1H16.84a1.4,1.4,0,1,0,0,2.79H62.15a1.4,1.4,0,1,0,0-2.79Z"/><path class="cls-1" d="M37.57,40.45a.4.4,0,1,1,0,.79H16.84a.4.4,0,1,1,0-.79H37.57m0-1H16.84a1.4,1.4,0,1,0,0,2.79H37.57a1.4,1.4,0,1,0,0-2.79Z"/><path class="cls-1" d="M60.82,1a2.85,2.85,0,0,1,1.94.74L77.18,15A2.37,2.37,0,0,1,78,16.78V96.51A2.62,2.62,0,0,1,75.25,99H3.73A2.62,2.62,0,0,1,1,96.51v-93A2.61,2.61,0,0,1,3.73,1H60.82M6.46,94H72.53V19.42H59.19A1.17,1.17,0,0,1,58,18.33V6H6.46V94M60.82,0H3.73A3.61,3.61,0,0,0,0,3.48v93A3.61,3.61,0,0,0,3.73,100H75.25A3.61,3.61,0,0,0,79,96.51V16.78a3.38,3.38,0,0,0-1.11-2.49L63.44,1a3.85,3.85,0,0,0-2.62-1ZM7.46,93V7H57V18.33a2.17,2.17,0,0,0,2.23,2.1H71.53V93Z"/><path class="cls-1" d="M20.34,15.52a2.65,2.65,0,0,1,1.88.8,3.17,3.17,0,0,1,.9,2.24,2.92,2.92,0,0,1-2.78,3,2.91,2.91,0,0,1-2.77-3,2.91,2.91,0,0,1,2.77-3m0-1a3.91,3.91,0,0,0-3.77,4,3.91,3.91,0,0,0,3.77,4,3.91,3.91,0,0,0,3.78-4,3.91,3.91,0,0,0-3.78-4Z"/><path class="cls-1" d="M23.37,24.19a.79.79,0,0,1,.55.25,1.58,1.58,0,0,1,.41,1.11v5.7h-8v-5.7c0-.72.45-1.36,1-1.36h6.05m0-1H17.32a2.2,2.2,0,0,0-2,2.36V32c0,.07,0,.14,0,.21H25.3c0-.07,0-.14,0-.21v-6.5a2.19,2.19,0,0,0-2-2.36Z"/></svg>