<svg xmlns="http://www.w3.org/2000/svg" viewBox="0 0 26.7 30.81"><defs><style>.cls-1{fill:#ff6969;}</style></defs><title>resume</title><g id="Layer_2" data-name="Layer 2"><g id="applicants_page" data-name="applicants page"><path class="cls-1" d="M11.81,19.51H20a.51.51,0,0,0,0-1H11.81a.51.51,0,0,0,0,1Z"/><path class="cls-1" d="M19,15.41H15.92a.51.51,0,0,0,0,1H19a.51.51,0,1,0,0-1Z"/><path class="cls-1" d="M5.65,9.24h5.13a.51.51,0,1,0,0-1H5.65a.51.51,0,1,0,0,1Z"/><path class="cls-1" d="M5.65,16.43H9.76a.51.51,0,0,0,0-1H5.65a.51.51,0,1,0,0,1Z"/><path class="cls-1" d="M26.19,7.19H21.06a1.55,1.55,0,0,1-1.55-1.54V3.08a.51.51,0,0,0-1,0V5.65a2.58,2.58,0,0,0,2.57,2.57h4.62v20a1.55,1.55,0,0,1-1.54,1.55H2.57A1.55,1.55,0,0,1,1,28.24V2.57A1.54,1.54,0,0,1,2.57,1H18.79l5,5a.52.52,0,0,0,.73,0,.51.51,0,0,0,0-.72L19.36.15A.48.48,0,0,0,19,0H2.57A2.57,2.57,0,0,0,0,2.57V28.24a2.57,2.57,0,0,0,2.57,2.57H24.14a2.57,2.57,0,0,0,2.56-2.57V7.7A.51.51,0,0,0,26.19,7.19Z"/><path class="cls-1" d="M5.65,13.35h9.24a.51.51,0,1,0,0-1H5.65a.51.51,0,0,0,0,1Z"/><path class="cls-1" d="M11.81,16.43h2.06a.51.51,0,0,0,0-1H11.81a.51.51,0,0,0,0,1Z"/><path class="cls-1" d="M13.87,25.68H19a.52.52,0,0,0,0-1H13.87a.52.52,0,1,0,0,1Z"/><path class="cls-1" d="M21.57,22.08a.51.51,0,0,0-.51-.51H18a.52.52,0,0,0,0,1h3.09A.51.51,0,0,0,21.57,22.08Z"/><path class="cls-1" d="M21.06,12.32H17a.52.52,0,0,0-.52.52.51.51,0,0,0,.52.51h4.11a.51.51,0,0,0,.51-.51A.52.52,0,0,0,21.06,12.32Z"/><path class="cls-1" d="M5.65,25.68h6.16a.52.52,0,0,0,0-1H5.65a.52.52,0,0,0,0,1Z"/><path class="cls-1" d="M5.65,22.6H8.73a.52.52,0,0,0,0-1H5.65a.52.52,0,0,0,0,1Z"/><path class="cls-1" d="M16.43,22.08a.51.51,0,0,0-.51-.51H10.78a.52.52,0,0,0,0,1h5.14A.51.51,0,0,0,16.43,22.08Z"/><path class="cls-1" d="M5.65,19.51H9.76a.51.51,0,0,0,0-1H5.65a.51.51,0,1,0,0,1Z"/></g></g></svg>