<svg xmlns="http://www.w3.org/2000/svg" xmlns:xlink="http://www.w3.org/1999/xlink" viewBox="0 0 310 220.69"><defs><style>.cls-1{fill:#4d70ff;}.cls-2,.cls-22{fill:none;stroke-miterlimit:10;}.cls-2{stroke:#fff;}.cls-3{fill:#916262;}.cls-4{fill:url(#linear-gradient);}.cls-5{fill:url(#linear-gradient-2);}.cls-6{fill:url(#linear-gradient-3);}.cls-7{fill:#392ecf;}.cls-8{fill:#d99393;}.cls-9{fill:#42444d;}.cls-10{fill:#ffbdbd;}.cls-11{fill:#31aee0;}.cls-12,.cls-13{opacity:0.2;}.cls-13{fill:#212226;}.cls-14{fill:#2d24a3;}.cls-15{fill:#544dff;}.cls-16{fill:#a67070;}.cls-17{fill:#fff;}.cls-18{fill:#4340a3;}.cls-19{fill:#ed7e7e;}.cls-20{fill:#6a64ff;opacity:0.34;}.cls-21{fill:#2e2bba;}.cls-22{stroke:#6a64ff;}</style><linearGradient id="linear-gradient" x1="114.7" y1="121.58" x2="114.7" y2="187.15" gradientTransform="matrix(1, 0, -0.1, 1, 10.12, 0)" gradientUnits="userSpaceOnUse"><stop offset="0" stop-color="#402c2c"/><stop offset="1" stop-color="#916262"/></linearGradient><linearGradient id="linear-gradient-2" x1="-5144.7" y1="121.58" x2="-5144.7" y2="187.15" gradientTransform="matrix(-1, 0, -0.1, 1, -4965.01, 0)" xlink:href="#linear-gradient"/><linearGradient id="linear-gradient-3" x1="142.12" y1="77.89" x2="142.12" y2="148.2" gradientTransform="matrix(1, 0, -0.1, 1, 10.12, 0)" gradientUnits="userSpaceOnUse"><stop offset="0" stop-color="#ffe7db"/><stop offset="0.33" stop-color="#ffe4d9"/><stop offset="0.56" stop-color="#ffdbd1"/><stop offset="0.76" stop-color="#ffcbc5"/><stop offset="0.94" stop-color="#ffb5b4"/><stop offset="1" stop-color="#ffadad"/></linearGradient></defs><title>Asset 5</title><g id="Layer_2" data-name="Layer 2"><g id="take_1_desktop" data-name="take 1 desktop"><path class="cls-1" d="M4,0H306a4,4,0,0,1,4,4V220.69a0,0,0,0,1,0,0H0a0,0,0,0,1,0,0V4A4,4,0,0,1,4,0Z"/><line class="cls-2" x1="278.72" y1="220.35" x2="278.72" y2="155.42"/><path class="cls-2" d="M289.77,184c7.5-13.08-2.53-20.49-2.53-20.49,4.42-11.63-8.52-20-8.52-20s-12.94,8.38-8.52,20c0,0-10,7.4-2.53,20.49,0,0-12,6.78,11,25C301.82,190.79,289.77,184,289.77,184Z"/><polyline class="cls-2" points="282.6 157.84 278.72 161.59 274.84 157.84"/><polyline class="cls-2" points="285.66 165.55 278.72 172.28 271.77 165.55"/><polyline class="cls-2" points="288.01 186.75 278.72 195.75 269.43 186.75"/><polyline class="cls-2" points="289.3 174.03 278.72 184.28 268.14 174.03"/><line class="cls-2" x1="242.75" y1="213.24" x2="242.75" y2="148.31"/><path class="cls-2" d="M253.8,176.9c7.5-13.08-2.53-20.49-2.53-20.49,4.42-11.63-8.52-20-8.52-20s-12.94,8.38-8.52,20c0,0-10,7.4-2.53,20.49,0,0-12,6.78,11,25C265.84,183.68,253.8,176.9,253.8,176.9Z"/><polyline class="cls-2" points="246.62 150.73 242.75 154.49 238.87 150.73"/><polyline class="cls-2" points="249.69 158.44 242.75 165.17 235.8 158.44"/><polyline class="cls-2" points="252.03 179.64 242.75 188.64 233.46 179.64"/><polyline class="cls-2" points="253.33 166.92 242.75 177.17 232.17 166.92"/><polygon class="cls-3" points="164.06 162.35 109.2 162.35 109.66 157.55 164.53 157.55 164.06 162.35"/><polygon class="cls-4" points="100.53 207.43 95.42 207.43 117.66 119.45 122.78 119.45 100.53 207.43"/><polygon class="cls-5" points="164.07 207.43 169.18 207.43 163.85 119.45 158.74 119.45 164.07 207.43"/><polygon class="cls-3" points="142.78 120.59 138.52 120.59 145.25 50.52 149.52 50.52 142.78 120.59"/><polygon class="cls-6" points="167.36 136.06 110.97 136.06 118.51 57.6 174.9 57.6 167.36 136.06"/><polygon class="cls-3" points="168.57 139.26 109.14 139.26 109.47 135.81 168.9 135.81 168.57 139.26"/><path class="cls-7" d="M174.42,62.56c-10.19,3.67-23,5.4-31.69,8.57-16.57,6-21.36,10-18.78,21.28s11.2,18.92,4.42,25c-4.74,4.26-10.51,5-16.15,5.56L111,136.06h56.39Z"/><polygon class="cls-8" points="120.59 86.23 126.58 86.67 126.07 88.33 121.86 89.54 122.68 92.09 121.83 92.09 119.92 90.18 120.59 86.23"/><rect class="cls-9" x="119.4" y="73.78" width="1.33" height="24.9" transform="translate(-26.66 104.15) rotate(-42.65)"/><path class="cls-10" d="M39.42,206.88l-5.16,13.81H57.21s-.47-1.76-8.44-4.39c-4.21-1.39-6.24-2.23-2.75-9.42Z"/><path class="cls-10" d="M79.75,205.19,79.95,219h22.95s-.47-1.76-8.44-4.39c-4.21-1.39-7.27-2.85-8.11-9.42Z"/><polygon class="cls-11" points="85.73 165.21 68.52 124.02 62.64 126.02 62.65 125.69 43.26 124.02 47.58 168.03 37.54 208.55 47.13 208.59 61.81 170.33 62.16 151.74 71.78 168.84 79.28 207.99 87.79 208.04 85.73 165.21"/><polygon class="cls-12" points="68.52 124.02 62.64 126.02 62.65 125.69 43.26 124.02 43.81 129.6 74.47 138.26 68.52 124.02"/><path class="cls-10" d="M79.72,59.7l3.59,10-2,.64s0,5.48-1.26,6.16-4.45.52-4.45.52L73.84,81.4l-8-2.34,1-3.19-3.73-4.62V63.46l16.16-7.58Z"/><path class="cls-13" d="M73.84,81.4l1.78-4.34a16.11,16.11,0,0,0,3.67-.25c-10-1.36-11.57-5.3-11.57-5.3l-3.48,1.06,2.67,3.3-1,3.19Z"/><path class="cls-14" d="M66.65,76.68a22.38,22.38,0,0,0,8,2.87L75,81.4s4.67.63,6.84,4.12,5.09,10.25,10.25,15.34l-6,8.65-9.24-8.6s-3.39,14.95-5.41,23.75C69.53,133,58.19,130.09,54,129.32s-12.48-1.53-12.28-5.3,9-30.79,9-30.79l5.87-15.44,8.13,1.05Z"/><path class="cls-15" d="M44.77,112.26,73,117.83l.22-.95-28.16-5.56Z"/><path class="cls-15" d="M46.83,105.5l27.91,4.65.22-.95-27.84-4.64Z"/><path class="cls-15" d="M49.3,97.66l-.3.93,27.35,4.49.21-.95Z"/><polygon class="cls-15" points="77.92 94.88 51.77 90.48 51.41 91.41 77.75 95.83 77.92 94.88"/><path class="cls-12" d="M57.13,79.91l-3.19,4.84-3.22,8.47s-1.34,4.13-3,9.39C59.86,95.72,57.13,79.91,57.13,79.91Z"/><path class="cls-14" d="M56.59,77.78c-3.2-.3-6.81,1.11-9.79,4.46s-11,15.33-11,15.33l8.11,5.65s8.49-12.29,10.93-14.8C58.62,84.47,56.59,77.78,56.59,77.78Z"/><polygon class="cls-10" points="44.24 101.33 41.72 105.52 54.18 117.13 53.49 122.15 30.11 106.72 36.73 96.14 44.24 101.33"/><path class="cls-10" d="M85.62,109.08l7.94,6.27S109,101.23,114.8,93.17c0,0,4,.24,5.74-2.32l5.81-.52V89.25l-5-.63-2-2.16-7,3.73L94.82,103.74l-2.3-2.14Z"/><path class="cls-16" d="M52.54,110.77c3.9-2.19,6.42,4.88,13,6.9S80.5,123,81.06,129.46s-9.46,6.37-17.79,2.44C52,126.6,47.45,113.63,52.54,110.77Z"/><path class="cls-9" d="M83.83,56.09s-.21-5-6.22-6.64-8,3.5-8,3.5c-7.06.68-6.17,6.24-6.17,6.24C58.4,61,62,66.37,62,66.37c-3.17,4.36,2.34,7.43,2.34,7.43-.38,2.51,2.54,2.07,2.54,2.07l.82-4.36c-3.8.27-4.48-4.84-3.47-6.06s3,1,3,1L68,70.18a10.54,10.54,0,0,0,1.17-4A8.06,8.06,0,0,0,72,63c5.58,2.23,7.67-3.42,7.67-3.42l2.79,7.79a7.17,7.17,0,0,0,5.09-6.83C87.44,56.92,83.83,56.09,83.83,56.09Z"/><polygon class="cls-12" points="79.29 87.26 76.84 100.91 80.88 104.67 79.29 87.26"/><polygon class="cls-15" points="82.47 107.25 90.64 98.51 94.03 101.96 88.25 111.95 82.47 107.25"/><polygon class="cls-15" points="37.38 93.17 47.01 100.08 43.71 104.42 33.62 98.51 37.38 93.17"/><ellipse class="cls-17" cx="71.19" cy="122.92" rx="1.9" ry="3.15" transform="translate(-70.17 136.89) rotate(-65.57)"/><ellipse class="cls-18" cx="73.21" cy="128.98" rx="1.9" ry="3.15" transform="translate(-74.5 142.28) rotate(-65.57)"/><ellipse class="cls-10" cx="64.24" cy="125.08" rx="1.9" ry="3.15" transform="translate(-76.21 131.83) rotate(-65.57)"/><polygon class="cls-12" points="79.28 207.99 87.79 208.04 85.73 165.21 85.71 165.16 62.16 139.76 62.16 151.74 71.78 168.84 79.28 207.99"/><path class="cls-9" d="M34.26,220.69H57.21s-.47-1.76-8.44-4.39c-1.93-.64-3.4-1.17-4.09-2.24L41,216.32,36,215.91Z"/><path class="cls-9" d="M79.95,219h22.95s-.47-1.76-8.44-4.39a13.1,13.1,0,0,1-5.36-2.82l-2.72,2.43-6.5-.33Z"/><path class="cls-17" d="M129,94.93l.37.1a2,2,0,0,1,1.38,1.25l.45,1.2a1.47,1.47,0,0,0,1,.91l.61.15-1.54.11a2.11,2.11,0,0,1-1.09-.22l-1.07-.54a2,2,0,0,1-1.11-2v-.07Z"/><polygon class="cls-12" points="132.22 98.39 113.36 110.35 112.69 118.19 132.22 98.39"/><path class="cls-15" d="M81.7,18.65V35.07a6.85,6.85,0,0,0-2.57.44c-2.17.79-3.59,2.35-3.18,3.48s2.5,1.41,4.67.62c2-.73,3.35-2.11,3.22-3.21h0V21.65l9.32-1.71V31.86a6.85,6.85,0,0,0-2.57.44c-2.17.79-3.59,2.35-3.18,3.48s2.5,1.41,4.67.62c2-.73,3.35-2.11,3.22-3.21h0v-17Z"/><path class="cls-17" d="M270.55,24.29V40.71a6.84,6.84,0,0,0-2.57.44c-2.17.79-3.59,2.35-3.18,3.48s2.5,1.41,4.67.62c2-.73,3.35-2.11,3.22-3.21h0V27.29l9.32-1.7V37.51a6.84,6.84,0,0,0-2.57.44c-2.17.79-3.59,2.35-3.18,3.48s2.5,1.41,4.67.62c2-.73,3.35-2.11,3.22-3.21h0v-17Z"/><path class="cls-19" d="M146.35,8.47a4.09,4.09,0,0,0-3.43-1.61h-2.17v13.6a6.85,6.85,0,0,0-2.57.44c-2.17.79-3.59,2.35-3.18,3.48s2.5,1.41,4.67.62c2-.73,3.35-2.11,3.22-3.21h0V8.8a2.2,2.2,0,0,1,2,1,3.52,3.52,0,0,0,2.87,1.43V9.25C147.05,9.25,146.82,9,146.35,8.47Z"/><path class="cls-20" d="M105.42,65.79A4.09,4.09,0,0,0,102,64.18H99.81v13.6a6.85,6.85,0,0,0-2.57.44c-2.17.79-3.59,2.35-3.18,3.48s2.5,1.41,4.67.62c2-.73,3.35-2.11,3.22-3.21h0v-13a2.2,2.2,0,0,1,2,1,3.52,3.52,0,0,0,2.87,1.43V66.58C106.12,66.58,105.89,66.31,105.42,65.79Z"/><path class="cls-17" d="M197.39,128.13a4.09,4.09,0,0,1,3.43-1.61H203v13.6a6.85,6.85,0,0,1,2.57.44c2.17.79,3.59,2.35,3.18,3.48s-2.5,1.41-4.67.62c-2-.73-3.35-2.11-3.22-3.21h0v-13a2.2,2.2,0,0,0-2,1,3.52,3.52,0,0,1-2.87,1.43v-1.94C196.69,128.92,196.92,128.65,197.39,128.13Z"/><rect class="cls-12" x="196.12" y="7.51" width="34.03" height="24.43" rx="1.27" ry="1.27"/><rect class="cls-17" x="194.64" y="6.13" width="34.03" height="24.43" rx="1.27" ry="1.27"/><polygon class="cls-10" points="209.07 16.15 209.07 26.49 215.87 21.32 209.07 16.15"/><rect x="214.28" y="74.28" width="23.92" height="13.73"/><polygon points="213.16 78.84 213.16 83.44 204.54 88 204.54 74.28 213.16 78.84"/><circle cx="231.57" cy="68.53" r="4.89"/><circle cx="220.91" cy="68.53" r="4.89"/><rect class="cls-17" x="215.2" y="73.31" width="23.92" height="13.73" transform="translate(454.32 160.34) rotate(180)"/><polygon class="cls-21" points="205.46 87.04 214.08 82.47 214.08 77.87 205.46 73.31 205.46 87.04"/><circle class="cls-19" cx="232.49" cy="67.57" r="4.89"/><circle class="cls-17" cx="232.49" cy="67.57" r="2.86"/><circle class="cls-19" cx="221.83" cy="67.57" r="4.89"/><circle class="cls-17" cx="221.83" cy="67.57" r="2.86"/><polygon class="cls-12" points="173.85 91.47 172.09 88.4 162.4 88.4 160.64 91.47 154.07 91.47 154.07 90.97 155.34 90.97 155.34 89.46 154.07 89.46 150.89 89.46 149.62 89.46 149.62 90.97 150.89 90.97 150.89 91.47 148.72 91.47 148.72 110.8 178.42 110.8 178.42 91.47 173.85 91.47"/><rect class="cls-15" x="148.36" y="88.88" width="5.72" height="1.51"/><rect class="cls-15" x="149.63" y="88.88" width="3.18" height="2.24"/><rect class="cls-17" x="147.46" y="90.9" width="29.7" height="19.32"/><circle class="cls-19" cx="165.99" cy="100.56" r="8.14"/><circle class="cls-15" cx="165.99" cy="100.56" r="6.49"/><circle class="cls-2" cx="165.99" cy="100.56" r="4.54"/><line class="cls-22" x1="153.87" y1="92.31" x2="153.87" y2="108.84"/><polygon class="cls-21" points="172.59 90.9 159.38 90.9 161.14 87.82 170.84 87.82 172.59 90.9"/><path class="cls-2" d="M288.09,97.45a3.49,3.49,0,0,0-1.57.36,1.69,1.69,0,0,1-1.54,0,3.6,3.6,0,0,0-3.14,0,1.69,1.69,0,0,1-1.54,0,3.6,3.6,0,0,0-3.14,0,1.69,1.69,0,0,1-1.54,0,3.6,3.6,0,0,0-3.14,0,1.69,1.69,0,0,1-1.54,0,3.49,3.49,0,0,0-1.57-.36"/><path class="cls-2" d="M147.88,121.88a3.49,3.49,0,0,0-1.57.36,1.69,1.69,0,0,1-1.54,0,3.6,3.6,0,0,0-3.14,0,1.69,1.69,0,0,1-1.54,0,3.6,3.6,0,0,0-3.14,0,1.69,1.69,0,0,1-1.54,0,3.6,3.6,0,0,0-3.14,0,1.69,1.69,0,0,1-1.54,0,3.49,3.49,0,0,0-1.57-.36"/></g></g></svg>