<svg id="layout" xmlns="http://www.w3.org/2000/svg" viewBox="0 0 100 100"><defs><style>.cls-1{fill:#fff;}</style></defs><title>setting stroke white</title><path class="cls-1" d="M55,1c.9,0,1.45,0,6.59,13l.16.4.39.16,4.17,1.72.4.17.4-.18c9.68-4.48,12.13-5.15,12.72-5.15h.49l.43.37,7.41,7.39c.68.7,1.05,1.09-4.51,13.92l-.17.39.16.39,1.7,4.12.17.41.41.15C92.69,40.7,96.13,42.09,97.79,43c1.21.69,1.21.87,1.21,1.49V55c0,.93,0,1.49-13,6.63l-.4.16-.16.39-1.69,4.11-.17.4.18.4c5.84,12.56,5.44,13,4.78,13.65l-7.79,7.79-.57,0c-.48,0-2.7-.48-12.93-4.89l-.39-.17-.39.16L62.28,85.4l-.41.17-.15.41c-4.77,13-5.33,13-6.25,13H45c-.91,0-1.45,0-6.59-13l-.16-.39-.39-.16-4.16-1.73-.41-.17-.4.18c-9.69,4.49-12.13,5.16-12.71,5.16h-.49l-.43-.38-7.42-7.41c-.66-.67-1.05-1.08,4.51-13.91l.17-.39-.16-.39-1.7-4.1-.17-.41L14,61.77C1,57,1,56.43,1,55.48V45c0-1,0-1.49,13-6.62l.4-.16.16-.39,1.7-4.11.17-.41-.19-.4c-3-6.52-4.47-9.93-5-11.78-.36-1.33-.22-1.46.25-1.92l7.73-7.74.57,0c.49,0,2.72.48,13,4.89l.39.17.39-.16,4.15-1.72.41-.17.15-.41C43,1,43.61,1,44.51,1H55M50,68.49A18.5,18.5,0,1,0,31.51,50,18.51,18.51,0,0,0,50,68.49M55,0H44.51c-1.58,0-2.19,0-7.18,13.68L33.18,15.4c-7.65-3.3-12.14-5-13.35-5l-1,0-8,8C9.6,19.65,9.17,20.06,15.34,33.3l-1.7,4.11C0,42.79,0,43.31,0,45V55.48c0,1.65,0,2.23,13.69,7.24l1.7,4.1c-5.83,13.44-5.44,13.85-4.31,15l7.45,7.44.74.65h.87c.45,0,1.79,0,13.13-5.25l4.16,1.73C42.82,100,43.37,100,45,100H55.47c1.61,0,2.18,0,7.19-13.67l4.17-1.72c7.65,3.3,12.12,5,13.33,5l1,0,8.08-8.07c1.15-1.18,1.55-1.59-4.58-14.78l1.69-4.11C100,57.21,100,56.64,100,55V44.52c0-1.66,0-2.23-13.71-7.22l-1.7-4.12c5.83-13.45,5.45-13.85,4.31-15l-7.45-7.43-.74-.64h-.86c-.46,0-1.81,0-13.14,5.24l-4.17-1.72C57.15,0,56.6,0,55,0ZM50,67.49A17.5,17.5,0,1,1,67.46,50,17.52,17.52,0,0,1,50,67.49Z"/></svg>