<svg id="layout" xmlns="http://www.w3.org/2000/svg" viewBox="0 0 100 100"><defs><style>.cls-1{fill:#fff;}</style></defs><title>setting full white</title><path class="cls-1" d="M86.3,37.3l-1.7-4.12c5.83-13.45,5.44-13.85,4.31-15l-7.44-7.43-.74-.64h-.86c-.45,0-1.81,0-13.13,5.24l-4.17-1.72C57.19,0,56.63,0,55.06,0H44.56C43,0,42.37,0,37.38,13.68L33.23,15.4c-7.65-3.3-12.13-5-13.34-5l-1,0-8,8c-1.22,1.17-1.64,1.58,4.52,14.82l-1.7,4.11C.08,42.79.08,43.31.08,45V55.48c0,1.65,0,2.23,13.68,7.24l1.7,4.1c-5.83,13.45-5.44,13.85-4.3,15l7.44,7.44.74.65h.87c.45,0,1.79,0,13.12-5.25l4.16,1.73C42.87,100,43.42,100,45,100H55.5c1.61,0,2.18,0,7.18-13.67l4.17-1.72c7.64,3.3,12.11,5,13.32,5l1,0,8.07-8.07c1.15-1.18,1.55-1.59-4.58-14.78l1.68-4.11C100,57.21,100,56.64,100,55V44.52C100,42.87,100,42.29,86.3,37.3ZM50,67.49A17.5,17.5,0,1,1,67.49,50,17.51,17.51,0,0,1,50,67.49Z"/></svg>