<svg xmlns="http://www.w3.org/2000/svg" xmlns:xlink="http://www.w3.org/1999/xlink" viewBox="0 0 310 306"><defs><style>.cls-1{fill:none;}.cls-2{isolation:isolate;}.cls-3,.cls-51{fill:#ffca55;}.cls-4{fill:#d8d8d8;}.cls-108,.cls-111,.cls-4{mix-blend-mode:multiply;}.cls-5{fill:url(#Gradient_bez_nazwy_8);}.cls-6{fill:url(#Gradient_bez_nazwy_8-2);}.cls-7{fill:url(#Gradient_bez_nazwy_8-3);}.cls-8{fill:url(#Gradient_bez_nazwy_7);}.cls-9{fill:url(#Gradient_bez_nazwy_8-4);}.cls-10{fill:url(#Gradient_bez_nazwy_8-5);}.cls-11{fill:url(#Gradient_bez_nazwy_8-6);}.cls-12{fill:url(#Gradient_bez_nazwy_8-7);}.cls-13{fill:url(#Gradient_bez_nazwy_8-8);}.cls-14{fill:url(#Gradient_bez_nazwy_13);}.cls-15{fill:url(#Gradient_bez_nazwy_15);}.cls-16,.cls-55{opacity:0.7;}.cls-17{fill:#fff;}.cls-18{fill:#f8fff8;}.cls-111,.cls-18,.cls-51{opacity:0.3;}.cls-19{fill:url(#Gradient_bez_nazwy_13-2);}.cls-20{opacity:0.8;}.cls-21{fill:#56a8ed;}.cls-22{fill:#62afef;}.cls-23{fill:#7abaf9;}.cls-24{fill:url(#Gradient_bez_nazwy_8-9);}.cls-25{fill:url(#Gradient_bez_nazwy_8-10);}.cls-26{fill:url(#Gradient_bez_nazwy_8-11);}.cls-27{fill:url(#Gradient_bez_nazwy_8-12);}.cls-28{fill:url(#Gradient_bez_nazwy_8-13);}.cls-29{fill:url(#Gradient_bez_nazwy_8-14);}.cls-30{fill:url(#Gradient_bez_nazwy_8-15);}.cls-31{fill:url(#Gradient_bez_nazwy_8-16);}.cls-32{fill:url(#Gradient_bez_nazwy_8-17);}.cls-33{fill:url(#Gradient_bez_nazwy_8-18);}.cls-34{fill:url(#Gradient_bez_nazwy_8-19);}.cls-35{fill:url(#Gradient_bez_nazwy_8-20);}.cls-36{fill:url(#Gradient_bez_nazwy_8-21);}.cls-37{fill:url(#Gradient_bez_nazwy_8-22);}.cls-38{fill:url(#Gradient_bez_nazwy_8-23);}.cls-39{fill:url(#Gradient_bez_nazwy_8-24);}.cls-40{fill:url(#Gradient_bez_nazwy_7-2);}.cls-41{fill:url(#Gradient_bez_nazwy_7-3);}.cls-42{fill:url(#Gradient_bez_nazwy_13-3);}.cls-43{fill:#ffe7c0;}.cls-44{fill:url(#Gradient_bez_nazwy_13-4);}.cls-45{fill:url(#Gradient_bez_nazwy_13-5);}.cls-46{fill:url(#Gradient_bez_nazwy_13-6);}.cls-47{fill:url(#Gradient_bez_nazwy_13-7);}.cls-48{fill:url(#Gradient_bez_nazwy_13-8);}.cls-49{fill:url(#Gradient_bez_nazwy_14);}.cls-50{fill:url(#Gradient_bez_nazwy_13-9);}.cls-52{fill:#f99569;}.cls-52,.cls-68,.cls-78{opacity:0.4;}.cls-53,.cls-64{opacity:0.6;}.cls-53{fill:url(#Gradient_bez_nazwy_7-4);}.cls-54{fill:#57afff;}.cls-55{fill:#164dd6;}.cls-56{fill:#f9f4ea;}.cls-57{fill:url(#New_Gradient_Swatch_2);}.cls-58{fill:#33333d;}.cls-59{fill:url(#New_Gradient_Swatch_2-2);}.cls-60{fill:url(#New_Gradient_Swatch_2-3);}.cls-61{fill:#d3d3d3;}.cls-62{fill:#f2f2f2;}.cls-63{fill:url(#Gradient_bez_nazwy_11);}.cls-65{opacity:0.9;fill:url(#Gradient_bez_nazwy_7-5);}.cls-66{fill:url(#Gradient_bez_nazwy_7-6);}.cls-67{fill:url(#Gradient_bez_nazwy_7-7);}.cls-68{fill:url(#Gradient_bez_nazwy_7-8);}.cls-69{fill:url(#New_Gradient_Swatch_2-4);}.cls-70{fill:url(#New_Gradient_Swatch_2-5);}.cls-71{fill:url(#New_Gradient_Swatch_2-6);}.cls-72{fill:url(#New_Gradient_Swatch_2-7);}.cls-73{fill:url(#New_Gradient_Swatch_2-8);}.cls-74{fill:url(#New_Gradient_Swatch_2-9);}.cls-75{fill:url(#New_Gradient_Swatch_2-10);}.cls-76{fill:url(#New_Gradient_Swatch_2-11);}.cls-77{fill:url(#New_Gradient_Swatch_2-12);}.cls-79{fill:url(#Gradient_bez_nazwy_8-25);}.cls-80{fill:url(#Gradient_bez_nazwy_8-26);}.cls-81{fill:#231a66;}.cls-82{fill:url(#Gradient_bez_nazwy_5);}.cls-83{fill:url(#Gradient_bez_nazwy_5-2);}.cls-84{fill:url(#Gradient_bez_nazwy_7-9);}.cls-85{fill:url(#Gradient_bez_nazwy_7-10);}.cls-86{fill:#ffaf84;}.cls-87{fill:url(#Gradient_bez_nazwy_7-11);}.cls-88{fill:url(#Gradient_bez_nazwy_5-3);}.cls-89{fill:url(#Gradient_bez_nazwy_5-4);}.cls-90{fill:url(#Gradient_bez_nazwy_5-5);}.cls-91{fill:url(#Gradient_bez_nazwy_5-6);}.cls-92{fill:url(#Gradient_bez_nazwy_7-12);}.cls-93{fill:url(#Gradient_bez_nazwy_5-7);}.cls-94{fill:url(#Gradient_bez_nazwy_3);}.cls-95{fill:url(#Gradient_bez_nazwy_4);}.cls-96{fill:url(#Gradient_bez_nazwy_3-2);}.cls-97{fill:#e3c1e8;}.cls-98{fill:url(#Gradient_bez_nazwy_2);}.cls-99{fill:url(#Gradient_bez_nazwy_2-2);}.cls-100{fill:url(#Gradient_bez_nazwy_2-3);}.cls-101{fill:url(#Gradient_bez_nazwy_3-3);}.cls-102{fill:url(#Gradient_bez_nazwy_2-4);}.cls-103{fill:url(#Gradient_bez_nazwy_3-4);}.cls-104{fill:url(#Gradient_bez_nazwy_2-5);}.cls-105{fill:url(#Gradient_bez_nazwy_3-5);}.cls-106{fill:url(#Gradient_bez_nazwy_2-6);}.cls-107{fill:url(#Gradient_bez_nazwy_3-6);}.cls-108{fill:#cecece;}.cls-109{fill:url(#Gradient_bez_nazwy_2-7);}.cls-110{clip-path:url(#clip-path);}.cls-111{fill:url(#Gradient_bez_nazwy_2-8);}</style><linearGradient id="Gradient_bez_nazwy_8" x1="237.49" y1="118.97" x2="258.33" y2="101.62" gradientUnits="userSpaceOnUse"><stop offset="0" stop-color="#f70f47"/><stop offset="1" stop-color="#ffb41d"/></linearGradient><linearGradient id="Gradient_bez_nazwy_8-2" x1="234.28" y1="138.38" x2="225.51" y2="86.12" xlink:href="#Gradient_bez_nazwy_8"/><linearGradient id="Gradient_bez_nazwy_8-3" x1="246.29" y1="104.42" x2="235.75" y2="120.72" xlink:href="#Gradient_bez_nazwy_8"/><linearGradient id="Gradient_bez_nazwy_7" x1="234.23" y1="153.63" x2="234.23" y2="112.22" gradientUnits="userSpaceOnUse"><stop offset="0" stop-color="#36078b"/><stop offset="1" stop-color="#16b1ff"/></linearGradient><linearGradient id="Gradient_bez_nazwy_8-4" x1="235.23" y1="97.27" x2="224.69" y2="113.57" xlink:href="#Gradient_bez_nazwy_8"/><linearGradient id="Gradient_bez_nazwy_8-5" x1="230.38" y1="94.13" x2="219.84" y2="110.44" xlink:href="#Gradient_bez_nazwy_8"/><linearGradient id="Gradient_bez_nazwy_8-6" x1="231.42" y1="134.41" x2="249.3" y2="91.76" xlink:href="#Gradient_bez_nazwy_8"/><linearGradient id="Gradient_bez_nazwy_8-7" x1="236.24" y1="136.43" x2="254.11" y2="93.78" xlink:href="#Gradient_bez_nazwy_8"/><linearGradient id="Gradient_bez_nazwy_8-8" x1="237.89" y1="98.99" x2="227.35" y2="115.29" xlink:href="#Gradient_bez_nazwy_8"/><linearGradient id="Gradient_bez_nazwy_13" x1="62.76" y1="146.74" x2="139.51" y2="73.99" gradientUnits="userSpaceOnUse"><stop offset="0" stop-color="#fe7200"/><stop offset="1" stop-color="#efdb29"/></linearGradient><linearGradient id="Gradient_bez_nazwy_15" x1="110.95" y1="98.63" x2="110.95" y2="213.88" gradientTransform="translate(221.91 205.99) rotate(-180)" gradientUnits="userSpaceOnUse"><stop offset="0" stop-color="#86deed"/><stop offset="1" stop-color="#ff980e"/></linearGradient><linearGradient id="Gradient_bez_nazwy_13-2" x1="222.19" y1="102.99" x2="60.51" y2="102.99" xlink:href="#Gradient_bez_nazwy_13"/><linearGradient id="Gradient_bez_nazwy_8-9" x1="-5678.11" y1="176.75" x2="-5666.46" y2="164.28" gradientTransform="matrix(-1, -0.01, -0.01, 1, -5608.93, -31.45)" xlink:href="#Gradient_bez_nazwy_8"/><linearGradient id="Gradient_bez_nazwy_8-10" x1="-5532.53" y1="-876.44" x2="-5520.89" y2="-888.91" gradientTransform="matrix(-0.93, -0.37, -0.37, 0.93, -5387.3, -1063.09)" xlink:href="#Gradient_bez_nazwy_8"/><linearGradient id="Gradient_bez_nazwy_8-11" x1="-4834.84" y1="-1989.58" x2="-4824.3" y2="-2000.88" gradientTransform="matrix(-0.66, -0.75, -0.75, 0.66, -4615.54, -2117.84)" xlink:href="#Gradient_bez_nazwy_8"/><linearGradient id="Gradient_bez_nazwy_8-12" x1="-3741.91" y1="-2661.99" x2="-3732.44" y2="-2672.14" gradientTransform="matrix(-0.27, -0.96, -0.96, 0.27, -3485.1, -2708.9)" xlink:href="#Gradient_bez_nazwy_8"/><linearGradient id="Gradient_bez_nazwy_8-13" x1="95.13" y1="196.69" x2="66.88" y2="153.44" xlink:href="#Gradient_bez_nazwy_8"/><linearGradient id="Gradient_bez_nazwy_8-14" x1="-5782.05" y1="200.15" x2="-5747.35" y2="145.27" gradientTransform="matrix(-1, 0, 0, 1, -5693.76, 0)" xlink:href="#Gradient_bez_nazwy_8"/><linearGradient id="Gradient_bez_nazwy_8-15" x1="-82.8" y1="732.67" x2="-51.01" y2="698.6" gradientTransform="translate(13.29 -571.65) rotate(-11.52)" xlink:href="#Gradient_bez_nazwy_8"/><linearGradient id="Gradient_bez_nazwy_8-16" x1="-5757.6" y1="201.04" x2="-5795.06" y2="141.8" gradientTransform="matrix(-1, 0, 0, 1, -5693.76, 0)" xlink:href="#Gradient_bez_nazwy_8"/><linearGradient id="Gradient_bez_nazwy_8-17" x1="-5691.33" y1="-638.37" x2="-5632.86" y2="-701.03" gradientTransform="matrix(-0.96, -0.27, -0.27, 0.96, -5582.63, -793.54)" xlink:href="#Gradient_bez_nazwy_8"/><linearGradient id="Gradient_bez_nazwy_8-18" x1="-5779" y1="200.51" x2="-5727.24" y2="106.14" gradientTransform="matrix(-1, 0, 0, 1, -5693.76, 0)" xlink:href="#Gradient_bez_nazwy_8"/><linearGradient id="Gradient_bez_nazwy_8-19" x1="-5738.22" y1="313.17" x2="-5696.03" y2="267.96" gradientTransform="matrix(-1, 0.05, 0.05, 1, -5690.35, 152.75)" xlink:href="#Gradient_bez_nazwy_8"/><linearGradient id="Gradient_bez_nazwy_8-20" x1="-5773.68" y1="198.51" x2="-5717.07" y2="146.81" gradientTransform="matrix(-1, 0, 0, 1, -5693.76, 0)" xlink:href="#Gradient_bez_nazwy_8"/><linearGradient id="Gradient_bez_nazwy_8-21" x1="-5743.92" y1="138.09" x2="-5737.59" y2="126.55" gradientTransform="matrix(-1, 0, 0, 1, -5693.76, 0)" xlink:href="#Gradient_bez_nazwy_8"/><linearGradient id="Gradient_bez_nazwy_8-22" x1="-5741.6" y1="126.29" x2="-5737.6" y2="115.84" gradientTransform="matrix(-1, 0, 0, 1, -5693.76, 0)" xlink:href="#Gradient_bez_nazwy_8"/><linearGradient id="Gradient_bez_nazwy_8-23" x1="-5762.29" y1="131.62" x2="-5762.26" y2="121.72" gradientTransform="matrix(-1, 0, 0, 1, -5693.76, 0)" xlink:href="#Gradient_bez_nazwy_8"/><linearGradient id="Gradient_bez_nazwy_8-24" x1="-5755.58" y1="119.92" x2="-5753.9" y2="112.39" gradientTransform="matrix(-1, 0, 0, 1, -5693.76, 0)" xlink:href="#Gradient_bez_nazwy_8"/><linearGradient id="Gradient_bez_nazwy_7-2" x1="-5764.61" y1="189.2" x2="-5764.61" y2="206.98" gradientTransform="matrix(-1, 0, 0, 1, -5693.76, 0)" xlink:href="#Gradient_bez_nazwy_7"/><linearGradient id="Gradient_bez_nazwy_7-3" x1="-5764.61" y1="193.74" x2="-5764.61" y2="185.99" gradientTransform="matrix(-1, 0, 0, 1, -5693.76, 0)" xlink:href="#Gradient_bez_nazwy_7"/><linearGradient id="Gradient_bez_nazwy_13-3" x1="-5776.87" y1="154.55" x2="-5776.87" y2="96.87" gradientTransform="matrix(-1, 0, 0, 1, -5609.77, 0)" xlink:href="#Gradient_bez_nazwy_13"/><linearGradient id="Gradient_bez_nazwy_13-4" x1="-5822.39" y1="154.82" x2="-5822.39" y2="94.12" gradientTransform="matrix(-1, 0, 0, 1, -5609.77, 0)" xlink:href="#Gradient_bez_nazwy_13"/><linearGradient id="Gradient_bez_nazwy_13-5" x1="-5729.86" y1="154.82" x2="-5729.86" y2="94.12" gradientTransform="matrix(-1, 0, 0, 1, -5609.77, 0)" xlink:href="#Gradient_bez_nazwy_13"/><linearGradient id="Gradient_bez_nazwy_13-6" x1="-5690.18" y1="154.82" x2="-5690.18" y2="94.12" gradientTransform="matrix(-1, 0, 0, 1, -5609.77, 0)" xlink:href="#Gradient_bez_nazwy_13"/><linearGradient id="Gradient_bez_nazwy_13-7" x1="-5862.07" y1="154.55" x2="-5862.07" y2="96.88" gradientTransform="matrix(-1, 0, 0, 1, -5609.77, 0)" xlink:href="#Gradient_bez_nazwy_13"/><linearGradient id="Gradient_bez_nazwy_13-8" x1="-5823.87" y1="154.55" x2="-5823.87" y2="96.88" gradientTransform="matrix(-1, 0, 0, 1, -5609.77, 0)" xlink:href="#Gradient_bez_nazwy_13"/><linearGradient id="Gradient_bez_nazwy_14" x1="-5729.86" y1="141.88" x2="-5729.86" y2="129.61" gradientTransform="matrix(-1, 0, 0, 1, -5609.77, 0)" gradientUnits="userSpaceOnUse"><stop offset="0" stop-color="#fe4500"/><stop offset="1" stop-color="#efdb29"/></linearGradient><linearGradient id="Gradient_bez_nazwy_13-9" x1="-5691.66" y1="154.55" x2="-5691.66" y2="96.88" gradientTransform="matrix(-1, 0, 0, 1, -5609.77, 0)" xlink:href="#Gradient_bez_nazwy_13"/><linearGradient id="Gradient_bez_nazwy_7-4" x1="169.74" y1="154.08" x2="217.24" y2="79.83" xlink:href="#Gradient_bez_nazwy_7"/><linearGradient id="New_Gradient_Swatch_2" x1="171.22" y1="108.05" x2="176.78" y2="108.05" gradientUnits="userSpaceOnUse"><stop offset="0" stop-color="#fea600"/><stop offset="1" stop-color="#efdb29"/></linearGradient><linearGradient id="New_Gradient_Swatch_2-2" x1="199.57" y1="109.04" x2="224.89" y2="109.04" xlink:href="#New_Gradient_Swatch_2"/><linearGradient id="New_Gradient_Swatch_2-3" x1="213.99" y1="102.23" x2="218.19" y2="102.23" xlink:href="#New_Gradient_Swatch_2"/><linearGradient id="Gradient_bez_nazwy_11" x1="196.19" y1="173.57" x2="196.19" y2="88.27" gradientUnits="userSpaceOnUse"><stop offset="0" stop-color="#fea600"/><stop offset="1" stop-color="#efdb29" stop-opacity="0"/></linearGradient><linearGradient id="Gradient_bez_nazwy_7-5" x1="-513.97" y1="1912.94" x2="-510.08" y2="1906.85" gradientTransform="translate(-582.56 -1718.98) rotate(-38.53)" xlink:href="#Gradient_bez_nazwy_7"/><linearGradient id="Gradient_bez_nazwy_7-6" x1="-513.98" y1="1916.68" x2="-512.05" y2="1910.06" gradientTransform="translate(-582.56 -1718.98) rotate(-38.53)" xlink:href="#Gradient_bez_nazwy_7"/><linearGradient id="Gradient_bez_nazwy_7-7" x1="174.76" y1="150.76" x2="184.16" y2="136.06" xlink:href="#Gradient_bez_nazwy_7"/><linearGradient id="Gradient_bez_nazwy_7-8" x1="179.48" y1="139.94" x2="179.48" y2="136.87" xlink:href="#Gradient_bez_nazwy_7"/><linearGradient id="New_Gradient_Swatch_2-4" x1="111.7" y1="60.64" x2="112.57" y2="53.52" xlink:href="#New_Gradient_Swatch_2"/><linearGradient id="New_Gradient_Swatch_2-5" x1="61.03" y1="84.08" x2="63.33" y2="65.35" xlink:href="#New_Gradient_Swatch_2"/><linearGradient id="New_Gradient_Swatch_2-6" x1="158.33" y1="84.08" x2="160.63" y2="65.35" xlink:href="#New_Gradient_Swatch_2"/><linearGradient id="New_Gradient_Swatch_2-7" x1="111.7" y1="63.64" x2="112.57" y2="56.52" xlink:href="#New_Gradient_Swatch_2"/><linearGradient id="New_Gradient_Swatch_2-8" x1="111.7" y1="66.64" x2="112.57" y2="59.52" xlink:href="#New_Gradient_Swatch_2"/><linearGradient id="New_Gradient_Swatch_2-9" x1="111.7" y1="69.64" x2="112.57" y2="62.52" xlink:href="#New_Gradient_Swatch_2"/><linearGradient id="New_Gradient_Swatch_2-10" x1="111.7" y1="72.64" x2="112.57" y2="65.52" xlink:href="#New_Gradient_Swatch_2"/><linearGradient id="New_Gradient_Swatch_2-11" x1="111.7" y1="75.64" x2="112.57" y2="68.52" xlink:href="#New_Gradient_Swatch_2"/><linearGradient id="New_Gradient_Swatch_2-12" x1="111.7" y1="78.64" x2="112.57" y2="71.52" xlink:href="#New_Gradient_Swatch_2"/><linearGradient id="Gradient_bez_nazwy_8-25" x1="278.67" y1="65.6" x2="278.67" y2="81.48" xlink:href="#Gradient_bez_nazwy_8"/><linearGradient id="Gradient_bez_nazwy_8-26" x1="278.67" y1="67.83" x2="278.67" y2="-19.1" xlink:href="#Gradient_bez_nazwy_8"/><linearGradient id="Gradient_bez_nazwy_5" x1="151.57" y1="162.39" x2="153.7" y2="210.64" gradientUnits="userSpaceOnUse"><stop offset="0" stop-color="#ff664f"/><stop offset="1" stop-color="#9e005d"/></linearGradient><linearGradient id="Gradient_bez_nazwy_5-2" x1="139.49" y1="153.83" x2="141.99" y2="186.46" xlink:href="#Gradient_bez_nazwy_5"/><linearGradient id="Gradient_bez_nazwy_7-9" x1="70.26" y1="607.23" x2="77.86" y2="571.36" gradientTransform="translate(-50.16 -453.95) rotate(-9)" xlink:href="#Gradient_bez_nazwy_7"/><linearGradient id="Gradient_bez_nazwy_7-10" x1="-447.68" y1="-1716.39" x2="-431.93" y2="-1790.75" gradientTransform="matrix(0.79, 0.62, -0.62, 0.79, -603.06, 1762.94)" xlink:href="#Gradient_bez_nazwy_7"/><linearGradient id="Gradient_bez_nazwy_7-11" x1="-5884.2" y1="142.69" x2="-5869.2" y2="71.86" gradientTransform="matrix(-1, 0, 0, 1, -5753.68, 0)" xlink:href="#Gradient_bez_nazwy_7"/><linearGradient id="Gradient_bez_nazwy_5-3" x1="135.96" y1="193.34" x2="141.46" y2="222.84" xlink:href="#Gradient_bez_nazwy_5"/><linearGradient id="Gradient_bez_nazwy_5-4" x1="163.95" y1="188.12" x2="169.45" y2="217.62" xlink:href="#Gradient_bez_nazwy_5"/><linearGradient id="Gradient_bez_nazwy_5-5" x1="157.86" y1="189.26" x2="163.36" y2="218.76" xlink:href="#Gradient_bez_nazwy_5"/><linearGradient id="Gradient_bez_nazwy_5-6" x1="-5883.95" y1="95.94" x2="-5894.11" y2="125.44" gradientTransform="matrix(-1, 0, 0, 1, -5753.68, 0)" xlink:href="#Gradient_bez_nazwy_5"/><linearGradient id="Gradient_bez_nazwy_7-12" x1="-207.32" y1="1413.53" x2="-176.16" y2="1389.2" gradientTransform="translate(-281.09 -1225.55) rotate(-25.73)" xlink:href="#Gradient_bez_nazwy_7"/><linearGradient id="Gradient_bez_nazwy_5-7" x1="-5879.49" y1="97.48" x2="-5889.66" y2="126.98" gradientTransform="matrix(-1, 0, 0, 1, -5753.68, 0)" xlink:href="#Gradient_bez_nazwy_5"/><linearGradient id="Gradient_bez_nazwy_3" x1="165.07" y1="194.34" x2="53.23" y2="260.39" gradientUnits="userSpaceOnUse"><stop offset="0" stop-color="#e068a9"/><stop offset="1" stop-color="#9e005d"/></linearGradient><linearGradient id="Gradient_bez_nazwy_4" x1="134.51" y1="80.99" x2="134.51" y2="154.26" gradientUnits="userSpaceOnUse"><stop offset="0" stop-color="blue"/><stop offset="0.87" stop-color="#890073"/><stop offset="1" stop-color="#9e005d"/></linearGradient><linearGradient id="Gradient_bez_nazwy_3-2" x1="151.94" y1="176" x2="40.1" y2="242.05" xlink:href="#Gradient_bez_nazwy_3"/><linearGradient id="Gradient_bez_nazwy_2" x1="134.51" y1="60.35" x2="134.51" y2="133.62" gradientUnits="userSpaceOnUse"><stop offset="0" stop-color="blue"/><stop offset="1" stop-color="#9e005d"/></linearGradient><linearGradient id="Gradient_bez_nazwy_2-2" x1="134.51" y1="60.34" x2="134.51" y2="133.61" xlink:href="#Gradient_bez_nazwy_2"/><linearGradient id="Gradient_bez_nazwy_2-3" x1="126.33" y1="60.35" x2="126.33" y2="133.62" xlink:href="#Gradient_bez_nazwy_2"/><linearGradient id="Gradient_bez_nazwy_3-3" x1="164.04" y1="192.61" x2="52.2" y2="258.66" xlink:href="#Gradient_bez_nazwy_3"/><linearGradient id="Gradient_bez_nazwy_2-4" x1="144.07" y1="60.35" x2="144.07" y2="133.62" xlink:href="#Gradient_bez_nazwy_2"/><linearGradient id="Gradient_bez_nazwy_3-4" x1="168.63" y1="200.37" x2="56.79" y2="266.42" xlink:href="#Gradient_bez_nazwy_3"/><linearGradient id="Gradient_bez_nazwy_2-5" x1="115.41" y1="60.35" x2="115.41" y2="133.62" xlink:href="#Gradient_bez_nazwy_2"/><linearGradient id="Gradient_bez_nazwy_3-5" x1="161.21" y1="187.83" x2="49.38" y2="253.87" xlink:href="#Gradient_bez_nazwy_3"/><linearGradient id="Gradient_bez_nazwy_2-6" x1="154.99" y1="60.35" x2="154.99" y2="133.62" xlink:href="#Gradient_bez_nazwy_2"/><linearGradient id="Gradient_bez_nazwy_3-6" x1="171.45" y1="205.16" x2="59.61" y2="271.21" xlink:href="#Gradient_bez_nazwy_3"/><linearGradient id="Gradient_bez_nazwy_2-7" x1="134.51" y1="64.24" x2="134.51" y2="137.51" xlink:href="#Gradient_bez_nazwy_2"/><clipPath id="clip-path"><path class="cls-1" d="M173.17,122.51h0c-4.42,1.25-13.9,4.22-17.26,5.92-2.36-1.29-7.46-6.55-15.75-11.53a7.58,7.58,0,0,0-3.5-1.13,22.81,22.81,0,0,0-6.23-1.21c0-.28,0-.55,0-.82s0-.34,0-.51c2.35-.12,3.9-3,4.44-4.93a21.06,21.06,0,0,0,.5-2.51,4.25,4.25,0,0,0,1.84-2.25c.67-1.64.52-3.26-.34-3.61a1.34,1.34,0,0,0-1.26.28c0-1-.12-2-.26-3.1A4.67,4.67,0,0,0,135,96l.17,0c2.92-1,2.71-6.66-1.46-7-2.35,0-.65.56-2.55,1.33-.89.36-10,.7-9.93,3-2.21,1-2.59,3.45-2.41,6.77-.77.44-.89,2-.24,3.55a5.33,5.33,0,0,0,1,1.63,11.31,11.31,0,0,0,1,2.47,6,6,0,0,0,2,3.26,3.42,3.42,0,0,0-.15.74c-.07,1-.15,2-.2,3a15.91,15.91,0,0,0-3,.56,10,10,0,0,0-6.07,4.51,75.25,75.25,0,0,0-4.67,6.23c-5,7.36-6.7,11.26-7.25,13.31-.78,1.76-.73,3.6.54,4.22.53,5.69,2,21.8,3,27.63,1.29,8.1,7.1,12.94,15.53,12.94h9.33v3.62a1.4,1.4,0,0,0,1.4,1.4h.22v16a1.38,1.38,0,0,0-1.14,1.36v2.64H116.38a3.75,3.75,0,0,0-3.74,3.74,2.07,2.07,0,0,0,0,.36,2.82,2.82,0,0,0,2,5.21,2.82,2.82,0,0,0,2.15-5.15h6.62a2.82,2.82,0,0,0,2.15,5.15,2.82,2.82,0,0,0,2.15-5.15h13.44a3.25,3.25,0,1,0,5.48,3.42,9.41,9.41,0,0,1,1.06.05,14.39,14.39,0,0,0,3.23,0,2.84,2.84,0,0,0,.22.41.8.8,0,0,0,.77.81,5,5,0,0,0,4.66,0c.53,0,1,0,1.57.09,1.52.16,4.52.51,7-.43s-2.11-1.16-4.32-2a11.09,11.09,0,0,1-3.93-2.42l0-.05c5.71-16.23,14.6-31.18,18.81-39.86a8.2,8.2,0,0,0,1.51-4.83A4.41,4.41,0,0,0,176,165c-1.31-1.4-3.66-2.32-7.52-2.16-1.21.05-3.08.09-5.28.11a3.9,3.9,0,0,0-1-1.16c-1.42-1.29-3.84-2-7.67-1.53-1.77.22-4.91.52-8.51.84l0-.36s-.12-15.19-1.31-28.78c6,3.4,9,4.29,10.53,4.5a1,1,0,0,0,.22,0h.07l.19,0a2.11,2.11,0,0,0,.35-.07,73.08,73.08,0,0,0,14.12-6.65c3.89-2.29,5.2-2.73,6.05-3.64a8.81,8.81,0,0,0,3.43-1.49c1.27-.87,4.78-3.9,4.91-6.71C184.59,115.27,174.36,121.77,173.17,122.51Zm-59.34,12.62c.18.62.35,1.23.51,1.82l-1.73-.39Zm48,43.12h-2.48l.35-.82,2.55-.32Zm-24,26.88v-16H138a1.4,1.4,0,0,0,1.4-1.4v-3.62h7.81c-1.78,8.64-3.14,18-4.9,25h-3.39v-2.64A1.38,1.38,0,0,0,137.81,205.13Zm11.65,9a5.39,5.39,0,0,1-1.57-.85h3.56a.6.6,0,0,0,.19.38,2.83,2.83,0,0,0-.63.91A12.51,12.51,0,0,1,149.46,214.13Zm3.38-5-.2,0h-4.82a219.1,219.1,0,0,1,9-25h3C157.32,192.49,155.16,201.91,152.84,209.14Z"/></clipPath><linearGradient id="Gradient_bez_nazwy_2-8" x1="-5574.65" y1="2322" x2="-5394.21" y2="2432.86" gradientTransform="matrix(-0.71, -0.64, 0.3, -0.65, -4528.5, -1798.01)" xlink:href="#Gradient_bez_nazwy_2"/></defs><title>Asset 6</title><g class="cls-2"><g id="Layer_2" data-name="Layer 2"><g id="take_1_desktop" data-name="take 1 desktop"><path class="cls-3" d="M4,0H306a4,4,0,0,1,4,4V220.69a0,0,0,0,1,0,0H0a0,0,0,0,1,0,0V4A4,4,0,0,1,4,0Z"/><ellipse class="cls-4" cx="160.64" cy="218.53" rx="93.36" ry="2.16"/><ellipse class="cls-4" cx="71.21" cy="208.67" rx="14.04" ry="1.13"/><path class="cls-5" d="M241.77,102c2.83-.88,4,1.17,3.69,2.74-.38,2.23-1.6,2.49,1.38,4.42,2.2,1.42,2.72,4.37.24,5.85-3.47,2.07.23,3.66,1,5.44,1.67,3.66-1.06,4.55-5.48,6.37s-7.92,1-11.08-1.92c-2.33-2.13-3.73-4.53-2.32-6.7,2-3.12,5.31-1,4-4-.77-1.82-.84-5.21,3.29-5.5S237.69,103.27,241.77,102Z"/><path class="cls-6" d="M225,96.16c-3.56-.74-4.7,1.89-4.18,3.79.74,2.68,2.25,2.85-1.16,5.56-2.52,2-2.8,5.66.41,7.17,4.48,2.11.16,4.5-.62,6.76-1.6,4.66,1.84,5.43,7.45,7.13s9.79.23,13.31-3.67c2.6-2.88,4-6,2-8.46-2.83-3.57-6.61-.59-5.41-4.45.72-2.31.41-6.46-4.68-6.33S230.08,97.23,225,96.16Z"/><path class="cls-7" d="M231.15,121c-3.69,5.39-4.88,9.06-.22,9.52s10.68-11.54,7.22-13.85C235.71,115,232.91,118.4,231.15,121Z"/><path class="cls-8" d="M228.94,143.38h10.58a2.69,2.69,0,0,0,2.66-2.26l2.33-14.24a.54.54,0,0,0-.53-.62H224.48a.54.54,0,0,0-.53.62l2.33,14.24A2.69,2.69,0,0,0,228.94,143.38Z"/><path class="cls-9" d="M225.24,111.36c3.29,1,6,2.38,3.9,3.35s-9.54-2.11-8.5-3.43C221.37,110.34,223.67,110.88,225.24,111.36Z"/><path class="cls-10" d="M225,100.84c.76,2.08,1.53,3.13,2.58,1.94s-1.07-5.21-2.39-4.71C224.29,98.41,224.67,99.84,225,100.84Z"/><path class="cls-11" d="M242.39,104.93c-.81,2.06-.93,3.36.65,3.16s2.65-4.61,1.33-5.11C243.45,102.62,242.78,103.94,242.39,104.93Z"/><path class="cls-12" d="M246.22,114.71c1.44-1.27,2-2.24.74-2.7s-3.87,2.53-3,3.44C244.5,116.09,245.54,115.32,246.22,114.71Z"/><path class="cls-13" d="M230.23,110.75c-1.3-.44-2.11-.47-1.94.5s2.94,1.5,3.21.67C231.69,111.33,230.85,111,230.23,110.75Z"/><path class="cls-14" d="M39,144.84H178.77V61.15H39Zm137.54-2.19H41.23V63.34H176.59Z"/><rect class="cls-15" x="42.18" y="62.25" width="137.54" height="81.5" transform="translate(221.91 205.99) rotate(180)"/><g class="cls-16"><path class="cls-17" d="M131.39,81a1.33,1.33,0,0,1-.36-1.07c.13-.6.91-1,2.09-1.06a1.42,1.42,0,0,1-.2-1c.35-1.59,4.29-1.87,8.82-.64A21.85,21.85,0,0,1,146,78.88a1,1,0,0,1,0-.57c.41-1.18,3.47-1,6.84.5A18.53,18.53,0,0,1,155.14,80c.26-.47,1.59-.44,3.06.08a7,7,0,0,1,1.91,1l11.76.73H119.67Z"/><path class="cls-17" d="M89.85,114.23a.9.9,0,0,1-.25-.73c.09-.41.63-.65,1.43-.72a1,1,0,0,1-.14-.68c.24-1.09,2.94-1.28,6-.44a14.92,14.92,0,0,1,2.94,1.12.69.69,0,0,1,0-.39c.28-.81,2.38-.66,4.68.34a12.83,12.83,0,0,1,1.56.8c.18-.32,1.09-.3,2.1.06a4.77,4.77,0,0,1,1.31.68l8.05.5H81.83Z"/><path class="cls-17" d="M65,101.64a1.54,1.54,0,0,1-.15-1c.2-1,1.71-1.53,3.84-1.45a3.13,3.13,0,0,1-.08-1.45c.73-3.7,9-4.37,18.49-1.49a45.92,45.92,0,0,1,5.08,1.87,2.72,2.72,0,0,1-.09-1.32c.51-2.59,5.28-3.46,11.42-2.39a2,2,0,0,1,.06-.23c.9-2.89,7.45-2.46,14.81.91,1.84-.75,5.58-.23,9.62,1.49a25.3,25.3,0,0,1,5.8,3.39,1.12,1.12,0,0,1-.1-.75c.29-1.06,2.73-1,5.44.18a11.13,11.13,0,0,1,3.69,2.42L158.14,103H47.94Z"/></g><polygon class="cls-18" points="98.81 143.74 122.46 143.74 80.25 62.24 56.6 62.24 98.81 143.74"/><polygon class="cls-18" points="88.78 143.74 94.6 143.74 52.4 62.24 46.58 62.24 88.78 143.74"/><polygon class="cls-18" points="169.59 143.74 175.41 143.74 133.21 62.24 127.39 62.24 169.59 143.74"/><path class="cls-19" d="M41.09,144.84H180.82V61.15H41.09Zm137.54-2.19H43.28V63.34H178.63Z"/><g class="cls-20"><rect class="cls-21" x="78.91" y="123.42" width="14.47" height="19.23"/><rect class="cls-22" x="50.3" y="132.02" width="11.71" height="10.63"/><rect class="cls-23" x="76.47" y="123.42" width="6.5" height="19.23"/><rect class="cls-21" x="62" y="110.78" width="14.47" height="31.87"/><rect class="cls-22" x="76.47" y="123.42" width="1.54" height="19.23"/><rect class="cls-23" x="59.57" y="110.78" width="6.5" height="31.87"/><rect class="cls-23" x="66.07" y="116.37" width="10.4" height="2.2" transform="translate(142.54 234.94) rotate(180)"/><rect class="cls-23" x="66.07" y="120.38" width="10.4" height="2.2" transform="translate(142.54 242.96) rotate(180)"/><rect class="cls-23" x="66.07" y="124.39" width="10.4" height="2.2" transform="translate(142.54 250.99) rotate(180)"/><rect class="cls-23" x="66.07" y="128.41" width="10.4" height="2.2" transform="translate(142.54 259.02) rotate(180)"/><rect class="cls-23" x="66.07" y="132.42" width="10.4" height="2.2" transform="translate(142.54 267.04) rotate(180)"/><rect class="cls-23" x="66.07" y="136.43" width="10.4" height="2.2" transform="translate(142.54 275.07) rotate(180)"/><rect class="cls-23" x="66.07" y="140.44" width="10.4" height="2.2"/><rect class="cls-23" x="66.07" y="112.35" width="10.4" height="2.2" transform="translate(142.54 226.91) rotate(180)"/><polygon class="cls-21" points="94.84 133 94.84 142.65 109.3 142.65 109.3 128.41 98.9 128.41 94.84 133"/><polygon class="cls-23" points="92.4 135.75 92.4 142.65 98.9 142.65 98.9 128.41 94.84 133 93.38 134.64 92.4 135.75"/><rect class="cls-23" x="98.9" y="128.41" width="10.4" height="2.2" transform="translate(208.21 259.02) rotate(180)"/><rect class="cls-23" x="98.9" y="132.42" width="10.4" height="2.2" transform="translate(208.21 267.04) rotate(180)"/><rect class="cls-23" x="98.9" y="136.43" width="10.4" height="2.2" transform="translate(208.21 275.07) rotate(180)"/><rect class="cls-23" x="98.9" y="140.44" width="10.4" height="2.2"/><rect class="cls-21" x="78.91" y="120.87" width="13.03" height="2.55" transform="translate(170.85 244.29) rotate(180)"/><rect class="cls-21" x="81.39" y="118.57" width="8.07" height="2.55" transform="translate(170.85 239.69) rotate(180)"/><rect class="cls-21" x="114.69" y="137.7" width="9.88" height="4.95"/><rect class="cls-23" x="113.02" y="137.7" width="4.44" height="4.95"/><rect class="cls-21" x="114.07" y="135.09" width="9.51" height="2.61" transform="translate(237.65 272.79) rotate(180)"/><rect class="cls-21" x="117.6" y="132.02" width="3.07" height="3.24" transform="translate(238.27 267.28) rotate(180)"/><rect class="cls-22" x="121.44" y="139.54" width="0.77" height="3.1"/></g><path class="cls-24" d="M68.68,190.43c3.28-2.09-.92-8.47-8.54-9.09a15.27,15.27,0,0,0-.07,6.34C60.71,190.24,64.1,193.35,68.68,190.43Z"/><path class="cls-25" d="M73.08,190.94c3.81-.74,2.25-8.22-4.62-11.58a15.28,15.28,0,0,0-2.38,5.88C65.73,187.84,67.74,192,73.08,190.94Z"/><path class="cls-26" d="M75.74,191.45c3.38.95,5.15-5.74,1-11.25A13.81,13.81,0,0,0,72.39,184C71.06,186,71,190.13,75.74,191.45Z"/><path class="cls-27" d="M77.22,190.6c2.36,2.1,6.42-2.6,5.2-8.71a12.43,12.43,0,0,0-5,1.36C75.59,184.32,73.91,187.66,77.22,190.6Z"/><path class="cls-28" d="M84,174.87c13-5.09,2.6-30.44-23.83-37.87,0,0-5.18,11.26-4.6,22.29C56.11,168.7,65.88,182,84,174.87Z"/><path class="cls-29" d="M62.85,140.2a23.52,23.52,0,0,1,6,6.37,18,18,0,0,1,1.18,1.84c.36.63.78,1.22,1.08,1.89s.63,1.31,1,2l.48,1,.38,1a55.45,55.45,0,0,1,2.56,8.3c.27,1.43.58,2.85.88,4.28l.51,4.35c.09.73.23,1.44.27,2.18l.11,2.2c.08,1.47.14,2.93.24,4.4,0,3,0,5.91-.09,8.87-.08,1.48-.19,3-.25,4.45l-.09,2.24,0,1.12L77,197.75l-.36,4.48-.18,2.25-.11,2.27.21,0,1.56-8.88.19-1.11.12-1.12.25-2.24.49-4.48.12-1.12,0-1.13.09-2.25.18-4.51-.17-4.51-.09-2.26c0-.75-.17-1.5-.24-2.24l-.59-4.48-1-4.41a50,50,0,0,0-3-8.52l-.45-1-.55-1-1.11-2c-.36-.67-.84-1.25-1.26-1.88a17.35,17.35,0,0,0-1.36-1.81A22,22,0,0,0,62.94,140Z"/><path class="cls-30" d="M75.85,162.43c-9.87-3.87-2-23.17,18.14-28.83,0,0,3.94,8.57,3.5,17C97.12,157.73,89.68,167.85,75.85,162.43Z"/><path class="cls-31" d="M91.88,135.91a58.82,58.82,0,0,0-5.33,7.67c-.77,1.36-1.53,2.72-2.21,4.12l-1.06,2.09-1,2.13a104.58,104.58,0,0,0-6.05,17.72c-.35,1.52-.65,3.06-1,4.58l-.47,2.29-.35,2.32-.65,4.64c-.16,1.55-.27,3.11-.38,4.66l-.17,2.33c0,.78,0,1.56-.06,2.34l-.09,4.66c0,1.55.15,3.11.22,4.66s.19,3.1.33,4.64h.16c.06-3.09,0-6.18.15-9.26l.29-4.62c.05-.77.09-1.54.16-2.31l.27-2.3.53-4.6L76,179.1l.38-2.28.48-2.26c.33-1.51.64-3,1-4.52a129,129,0,0,1,5.64-17.62A87.58,87.58,0,0,1,92,136Z"/><path class="cls-32" d="M70.42,151.16c18.64-5.71,6.87-42.21-29.21-55.4,0,0-8.43,15.17-8.8,30.62C32.1,139.56,44.31,159.16,70.42,151.16Z"/><path class="cls-33" d="M44.53,100.46q1,1.42,2,2.92c.65,1,1.26,2,1.86,3s1.19,2,1.75,3,1.15,2,1.65,3.08c1.06,2.07,2.17,4.11,3.09,6.24.48,1.06,1,2.1,1.48,3.14l1.34,3.21,1.34,3.2,1.21,3.25,1.21,3.25c.41,1.08.7,2.2,1.06,3.3s.71,2.2,1.06,3.3l.54,1.65c.17.55.3,1.12.45,1.67l1.76,6.7c.53,2.25,1,4.52,1.47,6.78.23,1.13.51,2.26.7,3.4s.33,2.29.53,3.43c.36,2.29.78,4.57,1.09,6.86s.47,4.61.74,6.92l.39,3.47.18,3.48.43,7c.28,4.67.1,9.34.37,14.06l.26,0,.41-7,.21-3.52c.07-1.17.15-2.34.11-3.52l-.06-7,0-3.52-.26-3.51-.52-7c-.25-2.33-.63-4.66-.94-7l-.49-3.49c-.18-1.16-.45-2.3-.68-3.46-.48-2.3-.91-4.61-1.43-6.9A150.15,150.15,0,0,0,59.5,124.2a106,106,0,0,0-14.78-23.91Z"/><path class="cls-34" d="M59.82,168.13c11.4-8.25-5.15-30.43-32.86-31,0,0-2.22,12.32,1.13,23C31,169.15,43.86,179.69,59.82,168.13Z"/><path class="cls-35" d="M30.33,139.56a58,58,0,0,1,7.84,6.34L40,147.61l1.75,1.8c1.19,1.17,2.25,2.46,3.34,3.73a113,113,0,0,1,11.41,16.37l2.4,4.39A23.46,23.46,0,0,1,60,176.13l1.06,2.27,1.09,2.26c.18.38.37.75.54,1.13l.46,1.16c.61,1.56,1.26,3.1,1.92,4.65s1.2,3.13,1.76,4.72l1.66,4.77c1.07,3.2,1.91,6.47,3,9.7l.18,0c-.76-3.3-1.45-6.62-2.26-9.91L68,192c-.49-1.62-.92-3.27-1.56-4.84l-1.77-4.77-.44-1.19c-.16-.39-.34-.77-.51-1.16l-1-2.32-1-2.32a23.86,23.86,0,0,0-1.11-2.29l-2.4-4.49a94.77,94.77,0,0,0-12-16.42c-1.16-1.24-2.3-2.5-3.56-3.63l-1.85-1.74-1.94-1.64a50.43,50.43,0,0,0-8.39-5.75Z"/><path class="cls-36" d="M56.47,133.88a17.18,17.18,0,0,0-4.37-2.34c-.76-.32-1.54-.53-2.32-.77s-1.58-.37-2.38-.55a25.4,25.4,0,0,0-4.89-.38,14.41,14.41,0,0,0-4.91.91v.17a49.12,49.12,0,0,1,9.49,1A92.35,92.35,0,0,1,56.42,134Z"/><path class="cls-37" d="M53.49,123.42a12.74,12.74,0,0,0-3.27-2.61,18.72,18.72,0,0,0-1.82-.94c-.62-.27-1.27-.5-1.9-.74a18.94,18.94,0,0,0-4-.82,10.9,10.9,0,0,0-4.2.38l0,.17a40.91,40.91,0,0,1,7.71,1.9,77,77,0,0,1,7.45,2.8Z"/><path class="cls-38" d="M66.57,131.63a13.57,13.57,0,0,0,1.27-2.45c.32-.79.61-1.54.86-2.27.09-.38.25-.72.37-1.08l.18-.53a4.28,4.28,0,0,0,.2-.52,11.77,11.77,0,0,1,1.17-2.24l-.06-.15A4.92,4.92,0,0,0,68.45,124a8.5,8.5,0,0,0-1.24,2.37,16.13,16.13,0,0,0-.79,5.25Z"/><path class="cls-39" d="M60.43,120.23a9.93,9.93,0,0,0,.51-2.07c.11-.65.15-1.28.22-1.88s.09-1.19.15-1.76a7.49,7.49,0,0,1,.44-1.88l-.07-.1a3.68,3.68,0,0,0-1.24,1.63,6.75,6.75,0,0,0-.47,2,14.7,14.7,0,0,0,.33,4.07Z"/><path class="cls-40" d="M62.83,209.14h16a1.57,1.57,0,0,0,1.56-1.39l2.21-18.58a1.57,1.57,0,0,0-1.56-1.76H60.62a1.57,1.57,0,0,0-1.56,1.76l2.21,18.58A1.57,1.57,0,0,0,62.83,209.14Z"/><path class="cls-41" d="M58.55,191.1H83.14a1,1,0,0,0,1-.88l.48-3.16a1,1,0,0,0-1-1.19H58.07a1,1,0,0,0-1,1.19l.48,3.16A1,1,0,0,0,58.55,191.1Z"/><path class="cls-42" d="M77.65,149.32h178.9a3,3,0,0,0,3-3h0a3,3,0,0,0-3-3H77.65a3,3,0,0,0-3,3h0A3,3,0,0,0,77.65,149.32Z"/><path class="cls-43" d="M209.84,149.32h46.71a3,3,0,0,0,3-3h0a3,3,0,0,0-3-3H209.84a3,3,0,0,0-3,3h0A3,3,0,0,0,209.84,149.32Z"/><rect class="cls-43" x="249.33" y="149.32" width="5.95" height="69.2"/><rect class="cls-43" x="211.13" y="149.33" width="5.95" height="69.19"/><rect class="cls-44" x="211.13" y="149.33" width="2.98" height="69.19"/><rect class="cls-43" x="78.92" y="149.33" width="5.95" height="69.19"/><rect class="cls-45" x="117.12" y="149.32" width="5.94" height="69.2"/><rect class="cls-46" x="78.92" y="149.33" width="2.98" height="69.19"/><polygon class="cls-47" points="255.28 149.32 255.28 151.23 249.34 155.47 249.34 149.32 255.28 149.32"/><polygon class="cls-48" points="211.13 149.32 217.08 149.32 217.08 151.23 211.13 155.47 211.13 149.32"/><polygon class="cls-49" points="117.12 149.32 123.07 149.32 123.07 151.23 117.12 155.47 117.12 149.32"/><polygon class="cls-50" points="84.86 149.32 84.86 151.23 78.92 155.47 78.92 149.32 84.86 149.32"/><polygon class="cls-51" points="220.36 125.67 165.42 125.67 169.45 89.91 224.4 89.91 220.36 125.67"/><polygon class="cls-52" points="170.82 92.48 170.24 97.64 166.2 133.4 221.15 133.4 225.19 97.64 225.77 92.48 170.82 92.48"/><polygon class="cls-53" points="220.36 132.62 165.42 132.62 169.45 96.85 224.4 96.85 220.36 132.62"/><polygon class="cls-17" points="219.05 130.58 167.19 130.58 169.14 113.26 221.01 113.26 219.05 130.58"/><polygon class="cls-54" points="183.44 128.56 168.64 128.56 170.22 114.49 185.03 114.49 183.44 128.56"/><polygon class="cls-55" points="188 123.13 176.09 123.13 177.36 111.82 189.27 111.82 188 123.13"/><polygon class="cls-56" points="180.82 110.92 169.41 110.92 169.83 107.15 181.25 107.15 180.82 110.92"/><polygon class="cls-57" points="176.72 108.31 171.22 108.31 171.28 107.79 176.78 107.79 176.72 108.31"/><polygon class="cls-54" points="219.18 120.15 204.38 120.15 205.28 112.2 220.08 112.2 219.18 120.15"/><polygon class="cls-58" points="218.98 121.95 204.18 121.95 204.24 121.38 219.04 121.38 218.98 121.95"/><polygon class="cls-58" points="218.84 123.13 204.04 123.13 204.11 122.56 218.91 122.56 218.84 123.13"/><polygon class="cls-56" points="194.31 109.59 182.89 109.59 183.31 105.82 194.73 105.82 194.31 109.59"/><polygon class="cls-59" points="224.47 110.92 199.56 110.92 199.99 107.15 224.89 107.15 224.47 110.92"/><polygon class="cls-56" points="210.29 108.31 200.79 108.31 200.85 107.79 210.35 107.79 210.29 108.31"/><polygon class="cls-56" points="210.18 109.3 200.68 109.3 200.73 108.78 210.23 108.78 210.18 109.3"/><polygon class="cls-17" points="218.49 104.83 166.62 104.83 167.21 99.62 219.07 99.62 218.49 104.83"/><polygon class="cls-60" points="217.77 104.11 213.99 104.11 214.42 100.34 218.19 100.34 217.77 104.11"/><polygon class="cls-54" points="212.36 104.11 208.59 104.11 209.01 100.34 212.79 100.34 212.36 104.11"/><polygon class="cls-54" points="206.96 104.11 203.18 104.11 203.61 100.34 207.38 100.34 206.96 104.11"/><polygon class="cls-54" points="180.95 101.25 168.54 101.25 168.63 100.52 181.03 100.52 180.95 101.25"/><polygon class="cls-54" points="180.8 102.55 168.4 102.55 168.48 101.82 180.89 101.82 180.8 102.55"/><polygon class="cls-54" points="173.75 103.84 168.25 103.84 168.33 103.11 173.83 103.11 173.75 103.84"/><polygon class="cls-54" points="201.76 125.33 186.96 125.33 187.86 117.38 202.66 117.38 201.76 125.33"/><polygon class="cls-58" points="201.56 127.13 186.76 127.13 186.82 126.56 201.63 126.56 201.56 127.13"/><polygon class="cls-58" points="201.43 128.31 186.63 128.31 186.69 127.74 201.49 127.74 201.43 128.31"/><polygon class="cls-55" points="201.32 121.13 195.64 121.13 196.2 116.17 201.88 116.17 201.32 121.13"/><polygon class="cls-61" points="224.4 96.85 169.45 96.85 170.04 91.69 224.98 91.69 224.4 96.85"/><polygon class="cls-62" points="223.51 95.77 170.59 95.77 170.78 94.07 223.7 94.07 223.51 95.77"/><polygon class="cls-56" points="171.73 93.49 170.85 93.49 170.95 92.61 171.83 92.61 171.73 93.49"/><polygon class="cls-56" points="173.31 93.49 172.42 93.49 172.52 92.61 173.41 92.61 173.31 93.49"/><polygon class="cls-56" points="174.88 93.49 173.99 93.49 174.09 92.61 174.98 92.61 174.88 93.49"/><polygon class="cls-63" points="175.09 138.03 166.62 92.3 225.77 92.3 184.24 138.03 175.09 138.03"/><g class="cls-64"><path class="cls-65" d="M210,90.39l1.59,4a.43.43,0,0,1-.24.56L203.68,98a.43.43,0,0,1-.56-.24l-1.59-4a.43.43,0,0,1,.24-.56l7.66-3.06a.43.43,0,0,1,.56.24Z"/><path class="cls-66" d="M209.74,90.15,207.54,94a1.5,1.5,0,0,1-1.73.69l-4.26-1.28a.43.43,0,0,1,.23-.21l7.66-3.06A.43.43,0,0,1,209.74,90.15Z"/></g><path class="cls-67" d="M182.23,139h-5.5a8.93,8.93,0,0,0-7.38,3.91l-.34.5h21l-.34-.5A8.93,8.93,0,0,0,182.23,139Z"/><ellipse class="cls-68" cx="179.48" cy="139.65" rx="3.4" ry="0.32"/><polygon class="cls-69" points="179.49 66.8 41.66 66.8 42.66 64.63 180.49 64.63 179.49 66.8"/><path class="cls-70" d="M62.18,84.21a.5.5,0,0,1-.5-.5v-18a.5.5,0,0,1,1,0v18A.5.5,0,0,1,62.18,84.21Z"/><path class="cls-71" d="M159.48,84.21a.5.5,0,0,1-.5-.5v-18a.5.5,0,1,1,1,0v18A.5.5,0,0,1,159.48,84.21Z"/><polygon class="cls-72" points="179.49 69.8 41.66 69.8 42.66 67.63 180.49 67.63 179.49 69.8"/><polygon class="cls-73" points="179.49 72.8 41.66 72.8 42.66 70.63 180.49 70.63 179.49 72.8"/><polygon class="cls-74" points="179.49 75.8 41.66 75.8 42.66 73.63 180.49 73.63 179.49 75.8"/><polygon class="cls-75" points="179.49 78.8 41.66 78.8 42.66 76.63 180.49 76.63 179.49 78.8"/><polygon class="cls-76" points="179.49 81.8 41.66 81.8 42.66 79.63 180.49 79.63 179.49 81.8"/><polygon class="cls-77" points="179.49 84.8 41.66 84.8 42.66 82.63 180.49 82.63 179.49 84.8"/><g class="cls-78"><circle class="cls-79" cx="278.67" cy="73.71" r="6.3"/><path class="cls-80" d="M285,62.73V57.52a2.79,2.79,0,0,0-2.78-2.78h-2.59V0h-1.88V54.74h-2.59a2.79,2.79,0,0,0-2.78,2.78v5.21a12.66,12.66,0,0,0-6.36,11h25.33A12.66,12.66,0,0,0,285,62.73Z"/></g><path class="cls-81" d="M146.85,211.76a3.68,3.68,0,0,0,2.61,2.37c2.21.83,6.84,1,4.32,2a12.19,12.19,0,0,1-6,.63,26,26,0,0,0-4.2.16c-2.35.1-2.37,0-2.18-2.61C141.66,210.77,145.69,209.83,146.85,211.76Z"/><path class="cls-82" d="M141.66,211.69c3.83-13.14,5.6-37.72,12.2-47.32,4.19-6.1,12.33-3.69,9.31,4.49-3.22,8.75-11.39,25.08-16,42.51C146.75,213.08,141.23,213.23,141.66,211.69Z"/><path class="cls-83" d="M160.82,171.89c3.5-1.29,6.53-13.26-6.35-11.65-5.72.72-25.93,2.24-29,2.62s-7.48,1.11-8,2.67c-2.43,7.79,7,14.79,18.4,12.25C143.53,176.07,153.56,174.57,160.82,171.89Z"/><path class="cls-84" d="M126.4,142.1c-1.87,1.42-3.87,1.4-9.36,2.05-7.91.95-9.84.66-14.87-.49-3.28-.75-.7-7.91,3.84-8.11,3.84-.17,17.21,3.88,19.55,3.77C127.1,139.26,127.92,140.95,126.4,142.1Z"/><path class="cls-85" d="M101.05,140c.34-1.81,1.72-5.71,7.41-14a64.4,64.4,0,0,1,6.58-8.37c2.27-2.5,5.65-1.65,6.44-.06,1.27,2.56,1.25,6.88.14,8.26-6.26,7.79-11.56,13.4-12.74,15.55C107.15,144.5,100.65,142.13,101.05,140Z"/><path class="cls-81" d="M156.72,212.89a9.74,9.74,0,0,0,4.21,2.77c2.21.83,6.84,1,4.32,2s-5.52.59-7,.43a31.83,31.83,0,0,0-4.77,0c-2.35.1-2.37,0-2.18-2.6C151.53,211.9,155.57,211,156.72,212.89Z"/><path class="cls-86" d="M120,103.26c.47,4.75.61,5.8,2.69,7.75s5.32,2.23,7.57,2.23c2.43,0,4-2.93,4.58-4.94a29.29,29.29,0,0,0,.47-11.19c-.35-2.64-3.6-5.84-7-5.84S118.81,91.66,120,103.26Z"/><path class="cls-86" d="M122.39,111.63c-.13,1.65-.25,3.54-.3,5.27a4.53,4.53,0,0,0,4,4.6h.26c2.05,0,4.47-1.86,4.29-3.91-.12-1.34-.16-2.68-.17-3.86a5.34,5.34,0,0,0-3.56-5h0A3.36,3.36,0,0,0,122.39,111.63Z"/><path class="cls-87" d="M112.88,131.94c3.81,12.53,5.06,20,4.32,28.78h28.71s-.17-21.31-2.09-36a11,11,0,0,0-6.06-8.44,20.61,20.61,0,0,0-7.65-1.69h-5.3a20.1,20.1,0,0,0-5.6.7C111.37,117.64,110.67,124.67,112.88,131.94Z"/><path class="cls-88" d="M117.32,178.28s-2.48-6-.12-17.56h28.71a163.12,163.12,0,0,1,1,17.56Z"/><path class="cls-89" d="M151.48,213c4.89-12.78,8.67-37.13,16-46.17,4.68-5.74,12.59-2.67,8.92,5.24C172.5,180.57,163,196.18,157,213.18,156.44,214.85,150.93,214.55,151.48,213Z"/><path class="cls-90" d="M173.83,174.95c3.6-1,7.6-12.69-5.38-12.13-5.76.25-26,.12-29.09.24s-7.55.49-8.16,2c-3.06,7.56,5.79,15.32,17.34,13.71C156.26,177.7,166.38,177,173.83,174.95Z"/><ellipse class="cls-86" cx="135.59" cy="102.9" rx="3.21" ry="1.68" transform="translate(-10.94 189.51) rotate(-67.78)"/><ellipse class="cls-86" cx="120.1" cy="102.9" rx="1.68" ry="3.21" transform="translate(-30 53.08) rotate(-22.23)"/><path class="cls-91" d="M121.43,93.9c1.85,2.76,10.79,3,13.71,2s2.71-6.66-1.46-7c-2.35,0-.65.56-2.55,1.33C130.16,90.58,119.46,91,121.43,93.9Z"/><path class="cls-86" d="M173.17,122.51c1.19-.75,11.43-7.24,11.3-4.7-.14,2.81-3.65,5.84-4.91,6.71-2.32,1.59-4.82,2.1-5.78.85C173.1,124.49,172,123.22,173.17,122.51Z"/><path class="cls-92" d="M175.19,122c-2.17.48-15.21,4.4-19.29,6.45-2.36-1.29-7.46-6.55-15.75-11.53-3.08-1.85-5.88-1.22-8.38.16-1.55.86-2.24,4.27.35,6.43a64.36,64.36,0,0,0,8.66,6.2c8.54,5.3,12.5,6.5,14.33,6.76a1,1,0,0,0,.22,0h.07l.19,0a2.11,2.11,0,0,0,.35-.07,73.08,73.08,0,0,0,14.12-6.65c5.25-3.09,5.81-2.81,6.87-4.87A1.84,1.84,0,0,0,175.19,122Z"/><path class="cls-93" d="M131.49,93.42c2.75,1.66,3.39,3.12,3.32,6.52s-1.53,9.21-7.8,10.51-7.75-4.92-8.12-9.21-.13-7.5,3-8.27C126.62,91.83,129.82,92.42,131.49,93.42Z"/><path class="cls-94" d="M154.3,214.94a2.08,2.08,0,0,1-2-1.66H116.76a2.08,2.08,0,0,1-4.12-.42,3.75,3.75,0,0,1,3.74-3.74h36.26a3.75,3.75,0,0,1,3.74,3.74A2.08,2.08,0,0,1,154.3,214.94Z"/><path class="cls-95" d="M164.84,178.25h-11c-5.79,0-9.47-3.06-10.35-8.61-1.08-6.8-3.09-29-3.11-29.26a2.59,2.59,0,0,0-3.18-2.3h-33a3.3,3.3,0,0,0-2.66,3.42c.08.92,2,22.65,3.16,29.64,1.29,8.1,7.1,12.94,15.53,12.94h44a3.32,3.32,0,0,0,3.23-2.92A2.57,2.57,0,0,0,164.84,178.25Z"/><path class="cls-96" d="M129.59,184.09h9.84a0,0,0,0,1,0,0v3.62a1.4,1.4,0,0,1-1.4,1.4h-7a1.4,1.4,0,0,1-1.4-1.4v-3.62A0,0,0,0,1,129.59,184.09Z"/><rect class="cls-97" x="131.21" y="189.11" width="6.6" height="19.56"/><path class="cls-98" d="M131.45,205.1h6.12a1.38,1.38,0,0,1,1.38,1.38v4.72a0,0,0,0,1,0,0h-8.88a0,0,0,0,1,0,0v-4.72A1.38,1.38,0,0,1,131.45,205.1Z"/><path class="cls-99" d="M143.38,214.94a2.08,2.08,0,0,1-2-1.66H127.68a2.08,2.08,0,0,1-4.12-.42,3.75,3.75,0,0,1,3.74-3.74h14.41a3.75,3.75,0,0,1,3.74,3.74A2.08,2.08,0,0,1,143.38,214.94Z"/><circle class="cls-100" cx="126.33" cy="215.7" r="2.83"/><circle class="cls-101" cx="124.95" cy="215.7" r="2.83"/><circle class="cls-102" cx="144.07" cy="215.7" r="2.83"/><circle class="cls-103" cx="142.69" cy="215.7" r="2.83"/><circle class="cls-104" cx="115.41" cy="215.7" r="2.83"/><circle class="cls-105" cx="114.03" cy="215.7" r="2.83"/><circle class="cls-106" cx="154.99" cy="215.7" r="2.83"/><circle class="cls-107" cx="153.61" cy="215.7" r="2.83"/><polygon class="cls-108" points="137.81 191.45 131.21 189.6 131.21 189.11 137.81 189.11 137.81 191.45"/><polygon class="cls-109" points="139.43 186.42 129.59 184.58 129.59 184.09 139.43 184.09 139.43 186.42"/><path class="cls-97" d="M164.22,184.09h-11c-8.43,0-14.24-4.84-15.53-12.94-1.11-7-3.07-28.72-3.16-29.64a3.3,3.3,0,0,1,2.66-3.42,2.59,2.59,0,0,1,3.18,2.3c0,.22,2,22.47,3.11,29.26.88,5.55,4.56,8.61,10.35,8.61h11a2.57,2.57,0,0,1,2.61,2.92A3.32,3.32,0,0,1,164.22,184.09Z"/><g class="cls-110"><path class="cls-111" d="M76.47,76.47c14.35-9.27,38.44,5.2,49.86,19.45C138,110.47,111,118.65,121.19,134c11.93,18,5,25.16,9.21,41.84,3.82,15,28.12,4.22,42,25.5,21.37,32.7.55,81.23-20.46,99.17C130.39,319,110.29,286.46,82.29,266c-20.68-15.11-36.51-33.13-34.77-51.53,2.5-26.42,29-12.14,11.85-35.32-10.25-13.87-21.17-40.78,2.85-46.39S55.81,89.81,76.47,76.47Z"/></g></g></g></g></svg>