<svg id="layout" xmlns="http://www.w3.org/2000/svg" viewBox="0 0 100 100"><defs><style>.cls-1{fill:#fff;}</style></defs><title>suitcase stroke white</title><path class="cls-1" d="M56.25,1A17.19,17.19,0,0,1,68.82,6.18,17.19,17.19,0,0,1,74,18.75V26H93.75a5.08,5.08,0,0,1,3.7,1.52A5,5,0,0,1,99,31.25V49H63.44a7,7,0,0,0-2-4.15,7,7,0,0,0-5.15-2.1H43.75a7.08,7.08,0,0,0-5.09,2.09A6.88,6.88,0,0,0,36.56,49H1V31.25a5,5,0,0,1,1.51-3.74A5,5,0,0,1,6.25,26H26V18.75A17.19,17.19,0,0,1,31.18,6.18,17.19,17.19,0,0,1,43.75,1h12.5M36.5,26h27V18.75a7.17,7.17,0,0,0-7.25-7.25H43.75a7.08,7.08,0,0,0-5.09,2.09,7,7,0,0,0-2.16,5.16V26m21,25a.39.39,0,0,1,.39.39V62.47a.39.39,0,0,1-.39.39H43.08a.39.39,0,0,1-.39-.39V51.39a.39.39,0,0,1,.39-.39H57.45M99,57.25v36.5a5,5,0,0,1-1.55,3.73A5.08,5.08,0,0,1,93.75,99H6.25a5,5,0,0,1-3.69-1.56A5,5,0,0,1,1,93.75V57.25H36.5V62.5a7.34,7.34,0,0,0,7.25,7.25h12.5a7,7,0,0,0,5.16-2.16A7.08,7.08,0,0,0,63.5,62.5V57.25H99M56.25,0H43.75A18.08,18.08,0,0,0,30.47,5.47,18.08,18.08,0,0,0,25,18.75V25H6.25a6,6,0,0,0-4.44,1.81A6,6,0,0,0,0,31.25V50H37.5a6,6,0,0,1,1.86-4.44,6.09,6.09,0,0,1,4.39-1.81h12.5A6.17,6.17,0,0,1,62.5,50H100V31.25a6,6,0,0,0-1.86-4.44A6.09,6.09,0,0,0,93.75,25H75V18.75A18.08,18.08,0,0,0,69.53,5.47,18.08,18.08,0,0,0,56.25,0ZM37.5,25V18.75a6,6,0,0,1,1.86-4.44,6.09,6.09,0,0,1,4.39-1.81h12.5a6.17,6.17,0,0,1,6.25,6.25V25Zm20,25H43.08a1.39,1.39,0,0,0-1.39,1.39V62.47a1.39,1.39,0,0,0,1.39,1.39H57.45a1.39,1.39,0,0,0,1.39-1.39V51.39A1.39,1.39,0,0,0,57.45,50ZM100,56.25H62.5V62.5a6.09,6.09,0,0,1-1.81,4.39,6,6,0,0,1-4.44,1.86H43.75A6.34,6.34,0,0,1,37.5,62.5V56.25H0v37.5a6,6,0,0,0,1.86,4.39A6,6,0,0,0,6.25,100h87.5a6.09,6.09,0,0,0,4.39-1.81A6,6,0,0,0,100,93.75V56.25Z"/></svg>