<svg id="layout" xmlns="http://www.w3.org/2000/svg" viewBox="0 0 100 100"><defs><style>.cls-1{fill:#fff;}</style></defs><title>suitcase full white</title><path class="cls-1" d="M56.25,43.75H43.75a6.09,6.09,0,0,0-4.39,1.81A6,6,0,0,0,37.5,50H0V31.25a6,6,0,0,1,1.81-4.44A6,6,0,0,1,6.25,25H25V18.75A18.08,18.08,0,0,1,30.47,5.47,18.08,18.08,0,0,1,43.75,0h12.5A18.08,18.08,0,0,1,69.53,5.47,18.08,18.08,0,0,1,75,18.75V25H93.75a6.09,6.09,0,0,1,4.39,1.81A6,6,0,0,1,100,31.25V50H62.5a6.17,6.17,0,0,0-6.25-6.25Zm6.25-25a6.17,6.17,0,0,0-6.25-6.25H43.75a6.09,6.09,0,0,0-4.39,1.81,6,6,0,0,0-1.86,4.44V25h25ZM93.75,100H6.25a6,6,0,0,1-4.39-1.86A6,6,0,0,1,0,93.75V56.25H37.5V62.5a6.34,6.34,0,0,0,6.25,6.25h12.5a6,6,0,0,0,4.44-1.86A6.09,6.09,0,0,0,62.5,62.5V56.25H100v37.5a6,6,0,0,1-1.86,4.44A6.09,6.09,0,0,1,93.75,100ZM57.45,63.86H43.08a1.39,1.39,0,0,1-1.39-1.39V51.39A1.39,1.39,0,0,1,43.08,50H57.45a1.39,1.39,0,0,1,1.39,1.39V62.47A1.39,1.39,0,0,1,57.45,63.86Z"/></svg>