<svg id="layout" xmlns="http://www.w3.org/2000/svg" viewBox="0 0 120 100"><defs><style>.cls-1{fill:gray;}</style></defs><title>telephone</title><path class="cls-1" d="M103.73,64.07a10.11,10.11,0,0,0-7.68-8.39C80.52,51.91,76.62,42.63,76,32.35a87.3,87.3,0,0,0-16-1.1,87.3,87.3,0,0,0-16,1.1c-.66,10.28-4.55,19.56-20.08,23.33a10.09,10.09,0,0,0-7.68,8.39l-3,21.52C12.21,93.17,17.57,100,25,100H95c7.46,0,12.83-6.83,11.77-14.41l-3-21.52ZM60,84.32A15.63,15.63,0,1,1,75.23,68.69,15.43,15.43,0,0,1,60,84.32ZM120,25c-.15-9.37-23.15-25-60-25S.16,15.63,0,25,.15,46.57,15.31,44.53c17.73-2.39,16.64-8.8,16.64-18,0-6.4,14.42-7.95,28.06-7.95s28.05,1.55,28.06,7.95c0,9.18-1.09,15.59,16.64,18C119.84,46.57,120.11,34.37,120,25Z"/></svg>