<svg id="layout" xmlns="http://www.w3.org/2000/svg" viewBox="0 0 100 100"><defs><style>.cls-1{fill:#3fa9f5;}</style></defs><title>twitter stroke</title><path class="cls-1" d="M50.08,1a49,49,0,1,1-49,49,49.06,49.06,0,0,1,49-49M63.83,35.66a8.85,8.85,0,0,0-6.16-2.38,9,9,0,0,0-9.12,8.95c0,.23,0,.45,0,.67A21.88,21.88,0,0,1,33.9,35.06L33,33.93l-.72,1.27a9.09,9.09,0,0,0,.08,9.13l-1.44-1v2a8.36,8.36,0,0,0,.61,3.22A9.66,9.66,0,0,0,33.91,52l-.78-.26.63,1.9a9,9,0,0,0,5.79,5.73,15.43,15.43,0,0,1-7.31,1.79,6.35,6.35,0,0,1-1.7-.15l-5.8-1.45,5,3.26a23.59,23.59,0,0,0,12.91,3.69c14,0,21.38-10,23.41-18.62a23,23,0,0,0,.55-5v-.47a12.2,12.2,0,0,0,3.89-3.93l2.09-3.13L69.23,37.1q-.38.19-.79.35a7.38,7.38,0,0,0,1.14-2.37l.62-2.29-2.07,1.15a17.48,17.48,0,0,1-4.31,1.72M50.08,0a50,50,0,1,0,50,50,50,50,0,0,0-50-50Zm-.35,44a5.44,5.44,0,0,1-.18-1.77,8.07,8.07,0,0,1,8.12-7.95,7.72,7.72,0,0,1,5.83,2.47,18,18,0,0,0,5.12-1.94,8,8,0,0,1-3.53,4.42A13.62,13.62,0,0,0,69.68,38a10.73,10.73,0,0,1-4.06,3.89v1.06a21.92,21.92,0,0,1-.53,4.77c-2.12,9-9.71,17.84-22.43,17.84A22.51,22.51,0,0,1,30.3,62a7.24,7.24,0,0,0,1.94.18,16.43,16.43,0,0,0,10.07-3.36,8,8,0,0,1-7.59-5.48,4.89,4.89,0,0,0,1.59.18,8.86,8.86,0,0,0,2.12-.35,8.18,8.18,0,0,1-6-4.95,7.32,7.32,0,0,1-.53-2.83v-.18a7,7,0,0,0,3.71,1.06,8,8,0,0,1-2.47-10.6A23,23,0,0,0,49.72,44Z"/></svg>