<svg id="layout" xmlns="http://www.w3.org/2000/svg" viewBox="0 0 100 100"><defs><style>.cls-1{fill:#fff;}.cls-2{fill:#74594e;}.cls-3{fill:#f0ba7a;}.cls-4{fill:#f1f3f7;}.cls-5{fill:#c7b299;}.cls-6{fill:#f7cfa2;}.cls-7{fill:#886c60;}.cls-8{fill:#f75252;}.cls-9{fill:#fcfcfd;}</style></defs><title>user avatar</title><rect class="cls-1" width="100" height="100"/><path class="cls-2" d="M72.64,60.59V57a6.35,6.35,0,0,0-6.49-6.18H33.81A6.35,6.35,0,0,0,27.32,57v3.58Z"/><path class="cls-3" d="M56.56,56.34a7.68,7.68,0,0,1-13.21,0V47.7H56.56Z"/><path class="cls-4" d="M74.21,61.27a5.15,5.15,0,0,0-3.54-3.63L58.31,53.92l-3,2.82-10.61,0-3.4-2.87-12,3.72a5.32,5.32,0,0,0-3.54,3.63l-1.84,7.39a33.63,33.63,0,0,0,52.17,0Z"/><circle class="cls-5" cx="49.8" cy="32.2" r="16.57"/><path class="cls-6" d="M55.71,25.84c-4.7,9.81-16,8.6-19.39,8V39a13.48,13.48,0,1,0,27,0V32.83C57.05,32.33,55.71,25.84,55.71,25.84Z"/><path class="cls-7" d="M31.8,75.69a31.76,31.76,0,0,0,4.88,2.6V55H31.8Z"/><path class="cls-7" d="M63.32,78.28a34,34,0,0,0,4.88-2.6V55H63.32Z"/><path class="cls-8" d="M51.14,56.83H48.77l-3.18,3.81,2.6,3.76L45.68,80.79a34.54,34.54,0,0,0,8.6,0L51.72,64.4l2.6-3.76Z"/><polygon class="cls-9" points="43.39 51.32 49.8 56.83 44.65 64.4 41.24 53.92 43.39 51.32"/><polygon class="cls-9" points="56.38 51.32 49.98 56.83 55.13 64.4 58.53 53.92 56.38 51.32"/></svg>