<svg id="layout" xmlns="http://www.w3.org/2000/svg" viewBox="0 0 99.73 99.91"><title>user outline</title><path d="M50,.91c9.25,0,15.5,3.1,18.59,9.21,2.63,5.21,2.63,11.63,2.63,17.3,0,7.27-3.7,16-10.16,23.91l-4.19,5.14-.59.72.68.64,4.82,4.56c2.27,2.15,7.08,4.73,15.71,9.05,7.92,4,13.3,6.74,15.8,9.24,4.37,4.36,5.63,12.63,5.69,16.83a1.37,1.37,0,0,1-1.38,1.4H2.38a1.38,1.38,0,0,1-1-.41,1.4,1.4,0,0,1-.4-1C1,96.36,1.35,86,6.69,80.69c2.49-2.49,7.87-5.28,15.8-9.24,8.64-4.32,13.44-6.9,15.71-9.05L43,57.83l.67-.64-.59-.72-4.19-5.14c-6.45-7.93-10.15-16.64-10.15-23.91,0-5.67,0-12.09,2.63-17.29C34.5,4,40.75.91,50,.91m0-1c-9.66,0-16.21,3.29-19.49,9.77-2.73,5.42-2.73,12-2.73,17.75,0,7.49,3.78,16.44,10.38,24.54l4.19,5.14-4.82,4.56C35.34,63.73,30.6,66.28,22,70.55,14,74.56,8.59,77.38,6,80,.35,85.62,0,96.3,0,97.5A2.41,2.41,0,0,0,.69,99.2a2.38,2.38,0,0,0,1.69.71H97.62A2.37,2.37,0,0,0,100,97.5c-.06-4.35-1.4-12.93-6-17.52C91.41,77.37,86,74.55,78,70.55c-8.55-4.28-13.29-6.82-15.47-8.88l-4.82-4.56L61.84,52c6.6-8.1,10.38-17,10.38-24.54,0-5.78,0-12.33-2.73-17.75C66.22,3.2,59.66-.09,50-.09Z"/></svg>