<svg id="layout" xmlns="http://www.w3.org/2000/svg" viewBox="0 0 400 400"><defs><style>.cls-1{fill:#ccc;}.cls-2{fill:#f4f5f5;}</style></defs><title>city view</title><polygon class="cls-1" points="84.5 212.55 90.84 212.55 90.84 206.92 90.92 206.92 106.34 206.85 106.35 206.09 101.92 201.81 84.5 201.75 84.5 212.55"/><polygon class="cls-1" points="59.14 210.32 58.52 210.32 58.52 203.87 57.23 203.87 57.23 210.32 56.66 210.32 56.66 212.08 59.14 212.08 59.14 210.32"/><polygon class="cls-1" points="91.52 212.55 108.67 212.55 108.67 207.64 91.52 207.58 91.52 212.55"/><polygon class="cls-1" points="335.97 205.43 315.9 205.26 315.9 213.74 340.78 213.74 340.78 204.33 335.83 200.35 323.31 200.35 323.31 202.29 321.07 202.29 321.07 204.53 335.97 204.55 335.97 205.43"/><path class="cls-1" d="M32,185.31c-1-1.25-1.17-1.16-1.83-2.12v14.58H32Z"/><path class="cls-1" d="M133.5,188.73h0v-.05h4.27v-.28l-15.12-.12v21.4H122l.08-22.12h6.4c.1-4.6-.12-9.56.09-14.05l-1.79-1.86h-1.65v-2.06h-9v2.06h-3.44v38.07H133.5Z"/><polygon class="cls-1" points="134.05 186.34 131.34 186.34 131.34 182.14 130.13 182.14 130.13 186.34 128.91 186.34 128.91 187.55 134.05 187.55 134.05 186.34"/><polygon class="cls-1" points="25.22 179.07 18.03 179.07 18.03 168.99 17.05 168.99 17.05 179.07 10.57 179.07 10.57 182.33 25.22 182.33 25.22 179.07"/><polygon class="cls-1" points="354.94 191.69 354.99 191.69 354.99 191.55 365.38 191.55 365.38 183.33 362.18 183.33 362.18 180.55 351.4 180.55 351.4 183.18 346.65 183.18 346.65 205.32 354.94 205.32 354.94 191.69"/><path class="cls-1" d="M400.42,205.42l-27.35.1v13.53h-.68l.18-14.26h22V189.68h.67v-.77h-4.9v-1.24h-2.94v-6.58h-.5v6.58h-1.78v1.24h-.62v.77h.57V199h-.65l0-3.23-3.35-2.58h-8.93v-.86H355.62v13H366.8l-.16,23.83H366V206l-22.81.06v7.63h6.22l0,18.3h-.68V214.47H313.8v17.44h-.68V213.72l2.1,0v-9.33l4.92.12V197l0-3.5-8.42-5.25h-3.68v-2.54h-9.24v2.54H297v1.65h-.85v9.81h8.46v.73H269.22v28.27h-.68l-.09-29h17.8V194H283l-.08-2.62h-1.16v-1.79h-4.07v-3.35h-3.83v-9.67h-.56v9.67H272v3.35h-1.28v1.79h-1v.85H268v1.52l-22.48-.08v-.73h21.64v-30l.22,0-.22-.28v-.32h-.25l-3.87-5V155H240.84v2.73l-6,4v15h-5.16l.14,46.28-.84-.07,0-46.21h-.48v-1.58h-1.44v-3.78H210.29v2.2H209v1.58h-1v29l8.26,0h.6l.08,27.54h-.68V205H191v28.48h-.68v-28.9h0v-.31l16.26-.06v-2.83l-25.71-.2v28.17h-.68v-28.9h21.21V153.55h0l-5-2.62-3-2.43H181.33v2.62l-5.23-.15,0,76.31h-.68V190.59h-5.56v-8.24l-2.73-3.56V227h-.68V178.4H161.9v-1.87h-14v1.87h-3.46v10.27H150l-.08,39.43h-.68V189.4H134.18v20.3l3.25.13v21.82h-.68V210.44l-27,.14v2.89l-27.18-.19v18H81.9V212.61h0l1.91-.06L83.76,201H96.34l.1-1.34-22.8-.18v17.95H73l-.06-18.68H88.83l.07-24.22-5.47-3.13-20,.22.07,42.29h6.66v16.62h-.68V214.8l-9.44.11v-2H55.84v2h-4.1v16.71h-.61V214.54l-2.26-.09v-2H47.53v2l-16.36-.11v17.82h-.46V213.47h16V198.81H42l-.06-2.32h-.84v-.13H33V196h8.1v-.49H32.65v.93H32v1.81H20v27.47h-.67V210l-16,0v1.12h-1v3.2H16.07l-.12,18.75h-.46V214.94H.52v19.37h400ZM247.13,222.73h-.68v-28.9h.68Zm57.62,6.9h-.68v-28.9h.68Z"/><rect class="cls-1" x="206.59" y="204.19" width="1.37" height="0.03"/><polygon class="cls-1" points="19.29 209.35 19.29 197.77 29.19 197.77 29.19 182.92 4.44 182.92 4.45 209.35 19.29 209.35"/><rect class="cls-1" x="147.79" y="173.87" width="3.93" height="1.85"/><rect class="cls-1" x="115.39" y="167.88" width="10.53" height="1.13"/><rect class="cls-1" x="152.79" y="173.87" width="3.93" height="1.85"/><rect class="cls-1" x="157.85" y="173.92" width="3.93" height="1.85"/><rect class="cls-1" x="240.83" y="152.35" width="21.83" height="1.76"/><rect class="cls-2" x="6.27" y="182.46" width="0.6" height="27.12"/><rect class="cls-2" x="8.78" y="182.56" width="0.6" height="27.12"/><rect class="cls-2" x="14.44" y="182.66" width="0.6" height="27.12"/><rect class="cls-2" x="17.5" y="182.66" width="0.6" height="27.12"/><rect class="cls-2" x="20.51" y="182.66" width="0.6" height="15.39"/><rect class="cls-2" x="23.76" y="182.56" width="0.6" height="15.39"/><rect class="cls-2" x="26.62" y="182.46" width="0.6" height="15.39"/><rect class="cls-2" x="32.04" y="217.2" width="1" height="1.47"/><rect class="cls-2" x="34.51" y="217.2" width="1" height="1.47"/><rect class="cls-2" x="113.89" y="173.49" width="2.26" height="1.47"/><rect class="cls-2" x="122.15" y="173.49" width="2.26" height="1.47"/><rect class="cls-2" x="118.02" y="173.49" width="2.26" height="1.47"/><rect class="cls-2" x="113.89" y="175.97" width="2.26" height="1.47"/><rect class="cls-2" x="122.15" y="175.97" width="2.26" height="1.47"/><rect class="cls-2" x="118.02" y="175.97" width="2.26" height="1.47"/><rect class="cls-2" x="113.89" y="178.44" width="2.26" height="1.47"/><rect class="cls-2" x="122.15" y="178.44" width="2.26" height="1.47"/><rect class="cls-2" x="118.02" y="178.44" width="2.26" height="1.47"/><rect class="cls-2" x="113.89" y="180.92" width="2.26" height="1.47"/><rect class="cls-2" x="122.15" y="180.92" width="2.26" height="1.47"/><rect class="cls-2" x="118.02" y="180.92" width="2.26" height="1.47"/><rect class="cls-2" x="113.89" y="183.4" width="2.26" height="1.47"/><rect class="cls-2" x="122.15" y="183.4" width="2.26" height="1.47"/><rect class="cls-2" x="118.02" y="183.4" width="2.26" height="1.47"/><rect class="cls-2" x="113.89" y="185.87" width="2.26" height="1.47"/><rect class="cls-2" x="122.15" y="185.87" width="2.26" height="1.47"/><rect class="cls-2" x="118.02" y="185.87" width="2.26" height="1.47"/><rect class="cls-2" x="113.89" y="188.35" width="2.26" height="1.47"/><rect class="cls-2" x="118.02" y="188.35" width="2.26" height="1.47"/><rect class="cls-2" x="113.89" y="190.83" width="2.26" height="1.47"/><rect class="cls-2" x="118.02" y="190.83" width="2.26" height="1.47"/><rect class="cls-2" x="113.89" y="193.3" width="2.26" height="1.47"/><rect class="cls-2" x="118.02" y="193.3" width="2.26" height="1.47"/><rect class="cls-2" x="113.89" y="195.78" width="2.26" height="1.47"/><rect class="cls-2" x="118.02" y="195.78" width="2.26" height="1.47"/><rect class="cls-2" x="113.89" y="198.26" width="2.26" height="1.47"/><rect class="cls-2" x="118.02" y="198.26" width="2.26" height="1.47"/><rect class="cls-2" x="113.89" y="200.74" width="2.26" height="1.47"/><rect class="cls-2" x="118.02" y="200.74" width="2.26" height="1.47"/><rect class="cls-2" x="113.89" y="203.21" width="2.26" height="1.47"/><rect class="cls-2" x="118.02" y="203.21" width="2.26" height="1.47"/><rect class="cls-2" x="113.89" y="205.69" width="2.26" height="1.47"/><rect class="cls-2" x="118.02" y="205.69" width="2.26" height="1.47"/><rect class="cls-2" x="36.99" y="217.2" width="1" height="1.47"/><rect class="cls-2" x="39.47" y="217.2" width="1" height="1.47"/><rect class="cls-2" x="41.94" y="217.2" width="1" height="1.47"/><rect class="cls-2" x="44.42" y="217.2" width="1" height="1.47"/><rect class="cls-2" x="64.3" y="173.99" width="18.08" height="1.01"/><rect class="cls-2" x="64.3" y="175.64" width="18.08" height="1.01"/><rect class="cls-2" x="64.3" y="177.29" width="18.08" height="1.01"/><rect class="cls-2" x="64.3" y="178.94" width="18.08" height="1.01"/><rect class="cls-2" x="64.3" y="181.42" width="18.08" height="1.01"/><rect class="cls-2" x="64.3" y="183.07" width="18.08" height="1.01"/><rect class="cls-2" x="64.3" y="184.72" width="18.08" height="1.01"/><rect class="cls-2" x="64.3" y="186.37" width="18.08" height="1.01"/><rect class="cls-2" x="64.3" y="188.85" width="18.08" height="1.01"/><rect class="cls-2" x="64.3" y="190.5" width="18.08" height="1.01"/><rect class="cls-2" x="64.3" y="192.15" width="18.08" height="1.01"/><rect class="cls-2" x="64.3" y="193.8" width="18.08" height="1.01"/><rect class="cls-2" x="64.3" y="196.28" width="18.08" height="1.01"/><rect class="cls-2" x="64.3" y="197.93" width="18.08" height="1.01"/><rect class="cls-2" x="64.3" y="199.58" width="8.69" height="1.01"/><rect class="cls-2" x="64.3" y="201.23" width="8.69" height="1.01"/><rect class="cls-2" x="64.3" y="203.71" width="8.69" height="1.01"/><rect class="cls-2" x="64.3" y="205.36" width="8.69" height="1.01"/><rect class="cls-2" x="64.3" y="207.01" width="8.69" height="1.01"/><rect class="cls-2" x="64.3" y="208.66" width="8.69" height="1.01"/><rect class="cls-2" x="64.3" y="211.14" width="8.56" height="1.01"/><rect class="cls-2" x="46.9" y="217.2" width="1" height="1.47"/><rect class="cls-2" x="49.37" y="217.2" width="1" height="1.47"/><rect class="cls-2" x="32.04" y="219.67" width="1" height="1.47"/><rect class="cls-2" x="34.51" y="219.67" width="1" height="1.47"/><rect class="cls-2" x="36.99" y="219.67" width="1" height="1.47"/><rect class="cls-2" x="39.47" y="219.67" width="1" height="1.47"/><rect class="cls-2" x="41.94" y="219.67" width="1" height="1.47"/><rect class="cls-2" x="44.42" y="219.67" width="1" height="1.47"/><rect class="cls-2" x="46.9" y="219.67" width="1" height="1.47"/><rect class="cls-2" x="49.37" y="219.67" width="1" height="1.47"/><rect class="cls-2" x="32.04" y="222.15" width="1" height="1.47"/><rect class="cls-2" x="34.51" y="222.15" width="1" height="1.47"/><rect class="cls-2" x="36.99" y="222.15" width="1" height="1.47"/><rect class="cls-2" x="39.47" y="222.15" width="1" height="1.47"/><rect class="cls-2" x="41.94" y="222.15" width="1" height="1.47"/><rect class="cls-2" x="44.42" y="222.15" width="1" height="1.47"/><rect class="cls-2" x="46.9" y="222.15" width="1" height="1.47"/><rect class="cls-2" x="49.37" y="222.15" width="1" height="1.47"/><rect class="cls-2" x="32.04" y="224.63" width="1" height="1.47"/><rect class="cls-2" x="34.51" y="224.63" width="1" height="1.47"/><rect class="cls-2" x="36.99" y="224.63" width="1" height="1.47"/><rect class="cls-2" x="39.47" y="224.63" width="1" height="1.47"/><rect class="cls-2" x="41.94" y="224.63" width="1" height="1.47"/><rect class="cls-2" x="44.42" y="224.63" width="1" height="1.47"/><rect class="cls-2" x="46.9" y="224.63" width="1" height="1.47"/><rect class="cls-2" x="49.37" y="224.63" width="1" height="1.47"/><rect class="cls-2" x="32.04" y="227.1" width="1" height="1.47"/><rect class="cls-2" x="34.51" y="227.1" width="1" height="1.47"/><rect class="cls-2" x="36.99" y="227.1" width="1" height="1.47"/><rect class="cls-2" x="39.47" y="227.1" width="1" height="1.47"/><rect class="cls-2" x="41.94" y="227.1" width="1" height="1.47"/><rect class="cls-2" x="44.42" y="227.1" width="1" height="1.47"/><rect class="cls-2" x="46.9" y="227.1" width="1" height="1.47"/><rect class="cls-2" x="49.37" y="227.1" width="1" height="1.47"/><rect class="cls-2" x="32.04" y="229.58" width="1" height="1.47"/><rect class="cls-2" x="34.51" y="229.58" width="1" height="1.47"/><rect class="cls-2" x="36.99" y="229.58" width="1" height="1.47"/><rect class="cls-2" x="39.47" y="229.58" width="1" height="1.47"/><rect class="cls-2" x="41.94" y="229.58" width="1" height="1.47"/><rect class="cls-2" x="44.42" y="229.58" width="1" height="1.47"/><rect class="cls-2" x="46.9" y="229.58" width="1" height="1.47"/><rect class="cls-2" x="49.37" y="229.58" width="1" height="1.47"/><rect class="cls-2" x="11.63" y="182.66" width="0.6" height="27.12"/><rect class="cls-2" x="1.5" y="216.85" width="12.38" height="0.83"/><rect class="cls-2" x="1.5" y="218.5" width="12.38" height="0.83"/><rect class="cls-2" x="1.5" y="220.15" width="12.38" height="0.83"/><rect class="cls-2" x="1.5" y="221.8" width="12.38" height="0.83"/><rect class="cls-2" x="1.5" y="223.45" width="12.38" height="0.83"/><rect class="cls-2" x="1.5" y="225.1" width="12.38" height="0.83"/><rect class="cls-2" x="1.5" y="226.75" width="12.38" height="0.83"/><rect class="cls-2" x="1.5" y="228.4" width="12.38" height="0.83"/><rect class="cls-2" x="1.5" y="230.06" width="12.38" height="0.83"/><rect class="cls-2" x="1.5" y="231.71" width="12.38" height="0.83"/><rect class="cls-2" x="22.66" y="201.02" width="1.24" height="4.47"/><rect class="cls-2" x="22.66" y="205.98" width="1.24" height="4.47"/><rect class="cls-2" x="22.66" y="210.93" width="1.24" height="4.47"/><rect class="cls-2" x="22.66" y="215.88" width="1.24" height="4.47"/><rect class="cls-2" x="22.66" y="220.84" width="1.24" height="4.47"/><rect class="cls-2" x="22.66" y="225.79" width="1.24" height="4.47"/><rect class="cls-2" x="28.44" y="201.02" width="1.24" height="4.47"/><rect class="cls-2" x="28.44" y="205.98" width="1.24" height="4.47"/><rect class="cls-2" x="28.44" y="210.93" width="1.24" height="4.47"/><rect class="cls-2" x="28.44" y="215.88" width="1.24" height="4.47"/><rect class="cls-2" x="28.44" y="220.84" width="1.24" height="4.47"/><rect class="cls-2" x="28.44" y="225.79" width="1.24" height="4.47"/><rect class="cls-2" x="34.21" y="201.02" width="1.24" height="4.47"/><rect class="cls-2" x="34.21" y="205.98" width="1.24" height="4.47"/><rect class="cls-2" x="34.21" y="210.93" width="1.24" height="2.82"/><rect class="cls-2" x="39.99" y="201.02" width="1.24" height="4.47"/><rect class="cls-2" x="39.99" y="205.98" width="1.24" height="4.47"/><rect class="cls-2" x="39.99" y="210.93" width="1.24" height="2.17"/><rect class="cls-2" x="86.1" y="202.94" width="2.56" height="1.85"/><rect class="cls-2" x="86.1" y="206.25" width="2.56" height="1.85"/><rect class="cls-2" x="86.1" y="209.55" width="2.56" height="1.85"/><rect class="cls-2" x="90.74" y="202.94" width="6.99" height="1.85"/><rect class="cls-2" x="54.03" y="216.43" width="2.53" height="15.48"/><rect class="cls-2" x="61.08" y="216.43" width="2.53" height="15.48"/><rect class="cls-2" x="64.6" y="216.43" width="2.53" height="15.48"/><rect class="cls-2" x="57.55" y="216.43" width="2.53" height="15.48"/><rect class="cls-1" x="64.86" y="170.2" width="17.13" height="0.93"/><rect class="cls-2" x="123.52" y="191.39" width="9.08" height="1.1"/><rect class="cls-2" x="123.52" y="200.47" width="9.08" height="1.1"/><rect class="cls-2" x="123.52" y="195.52" width="9.08" height="1.1"/><rect class="cls-2" x="123.52" y="204.6" width="9.08" height="1.1"/><rect class="cls-2" x="160.67" y="180.8" width="3.58" height="50.22"/><rect class="cls-2" x="155.71" y="180.8" width="3.58" height="50.22"/><rect class="cls-2" x="150.76" y="180.8" width="3.58" height="50.22"/><rect class="cls-2" x="145.81" y="180.8" width="3.58" height="7.84"/><rect class="cls-2" x="177.32" y="153.24" width="3.12" height="1.31"/><rect class="cls-2" x="181.64" y="153.24" width="3.12" height="1.31"/><rect class="cls-2" x="185.97" y="153.24" width="3.12" height="1.31"/><rect class="cls-2" x="190.29" y="153.24" width="3.12" height="1.31"/><rect class="cls-2" x="177.32" y="155.72" width="3.12" height="1.31"/><rect class="cls-2" x="181.64" y="155.72" width="3.12" height="1.31"/><rect class="cls-2" x="185.97" y="155.72" width="3.12" height="1.31"/><rect class="cls-2" x="190.29" y="155.72" width="3.12" height="1.31"/><rect class="cls-2" x="177.32" y="158.19" width="3.12" height="1.31"/><rect class="cls-2" x="181.64" y="158.19" width="3.12" height="1.31"/><rect class="cls-2" x="185.97" y="158.19" width="3.12" height="1.31"/><rect class="cls-2" x="190.29" y="158.19" width="3.12" height="1.31"/><rect class="cls-2" x="177.32" y="162.32" width="3.12" height="1.31"/><rect class="cls-2" x="181.64" y="162.32" width="3.12" height="1.31"/><rect class="cls-2" x="185.97" y="162.32" width="3.12" height="1.31"/><rect class="cls-2" x="190.29" y="162.32" width="3.12" height="1.31"/><rect class="cls-2" x="177.32" y="164.8" width="3.12" height="1.31"/><rect class="cls-2" x="181.64" y="164.8" width="3.12" height="1.31"/><rect class="cls-2" x="185.97" y="164.8" width="3.12" height="1.31"/><rect class="cls-2" x="190.29" y="164.8" width="3.12" height="1.31"/><rect class="cls-2" x="177.32" y="167.28" width="3.12" height="1.31"/><rect class="cls-2" x="181.64" y="167.28" width="3.12" height="1.31"/><rect class="cls-2" x="185.97" y="167.28" width="3.12" height="1.31"/><rect class="cls-2" x="190.29" y="167.28" width="3.12" height="1.31"/><rect class="cls-2" x="177.32" y="171.4" width="3.12" height="1.31"/><rect class="cls-2" x="181.64" y="171.4" width="3.12" height="1.31"/><rect class="cls-2" x="185.97" y="171.4" width="3.12" height="1.31"/><rect class="cls-2" x="190.29" y="171.4" width="3.12" height="1.31"/><rect class="cls-2" x="177.32" y="173.88" width="3.12" height="1.31"/><rect class="cls-2" x="181.64" y="173.88" width="3.12" height="1.31"/><rect class="cls-2" x="185.97" y="173.88" width="3.12" height="1.31"/><rect class="cls-2" x="190.29" y="173.88" width="3.12" height="1.31"/><rect class="cls-2" x="177.32" y="176.36" width="3.12" height="1.31"/><rect class="cls-2" x="181.64" y="176.36" width="3.12" height="1.31"/><rect class="cls-2" x="185.97" y="176.36" width="3.12" height="1.31"/><rect class="cls-2" x="190.29" y="176.36" width="3.12" height="1.31"/><rect class="cls-2" x="177.32" y="179.66" width="3.12" height="1.31"/><rect class="cls-2" x="181.64" y="179.66" width="3.12" height="1.31"/><rect class="cls-2" x="185.97" y="179.66" width="3.12" height="1.31"/><rect class="cls-2" x="190.29" y="179.66" width="3.12" height="1.31"/><rect class="cls-2" x="177.32" y="182.14" width="3.12" height="1.31"/><rect class="cls-2" x="181.64" y="182.14" width="3.12" height="1.31"/><rect class="cls-2" x="185.97" y="182.14" width="3.12" height="1.31"/><rect class="cls-2" x="190.29" y="182.14" width="3.12" height="1.31"/><rect class="cls-2" x="177.32" y="184.61" width="3.12" height="1.31"/><rect class="cls-2" x="181.64" y="184.61" width="3.12" height="1.31"/><rect class="cls-2" x="185.97" y="184.61" width="3.12" height="1.31"/><rect class="cls-2" x="190.29" y="184.61" width="3.12" height="1.31"/><rect class="cls-2" x="177.32" y="187.92" width="3.12" height="1.31"/><rect class="cls-2" x="181.64" y="187.92" width="3.12" height="1.31"/><rect class="cls-2" x="185.97" y="187.92" width="3.12" height="1.31"/><rect class="cls-2" x="190.29" y="187.92" width="3.12" height="1.31"/><rect class="cls-2" x="177.32" y="190.39" width="3.12" height="1.31"/><rect class="cls-2" x="181.64" y="190.39" width="3.12" height="1.31"/><rect class="cls-2" x="185.97" y="190.39" width="3.12" height="1.31"/><rect class="cls-2" x="190.29" y="190.39" width="3.12" height="1.31"/><rect class="cls-2" x="177.32" y="192.87" width="3.12" height="1.31"/><rect class="cls-2" x="181.64" y="192.87" width="3.12" height="1.31"/><rect class="cls-2" x="185.97" y="192.87" width="3.12" height="1.31"/><rect class="cls-2" x="190.29" y="192.87" width="3.12" height="1.31"/><rect class="cls-2" x="177.32" y="196.17" width="3.12" height="1.31"/><rect class="cls-2" x="181.64" y="196.17" width="3.12" height="1.31"/><rect class="cls-2" x="185.97" y="196.17" width="3.12" height="1.31"/><rect class="cls-2" x="190.29" y="196.17" width="3.12" height="1.31"/><rect class="cls-2" x="211.44" y="171.99" width="2.75" height="0.83"/><rect class="cls-2" x="215.57" y="171.99" width="2.75" height="0.83"/><rect class="cls-2" x="219.7" y="171.99" width="2.75" height="0.83"/><rect class="cls-2" x="208.83" y="176.94" width="17.61" height="0.83"/><rect class="cls-2" x="208.83" y="178.59" width="17.61" height="0.83"/><rect class="cls-2" x="208.83" y="180.25" width="17.61" height="0.83"/><rect class="cls-2" x="208.83" y="181.9" width="17.61" height="0.83"/><rect class="cls-2" x="208.83" y="183.55" width="17.61" height="0.83"/><rect class="cls-2" x="208.83" y="185.2" width="17.61" height="0.83"/><rect class="cls-2" x="208.83" y="186.85" width="17.61" height="0.83"/><rect class="cls-2" x="208.83" y="188.5" width="17.61" height="0.83"/><rect class="cls-2" x="208.83" y="190.15" width="17.61" height="0.83"/><rect class="cls-2" x="208.83" y="191.8" width="17.61" height="0.83"/><rect class="cls-2" x="208.83" y="195.11" width="17.61" height="0.83"/><rect class="cls-2" x="208.83" y="193.45" width="17.61" height="0.83"/><rect class="cls-2" x="208.83" y="196.76" width="17.61" height="0.83"/><rect class="cls-2" x="208.83" y="198.41" width="17.61" height="0.83"/><rect class="cls-2" x="208.83" y="200.06" width="17.61" height="0.83"/><rect class="cls-2" x="208.83" y="201.71" width="17.61" height="0.83"/><rect class="cls-2" x="216.81" y="205.01" width="9.63" height="0.83"/><rect class="cls-2" x="208.83" y="203.36" width="17.61" height="0.83"/><rect class="cls-2" x="216.81" y="206.66" width="9.63" height="0.83"/><rect class="cls-2" x="216.81" y="208.32" width="9.63" height="0.83"/><rect class="cls-2" x="216.81" y="209.97" width="9.63" height="0.83"/><rect class="cls-2" x="216.81" y="211.62" width="9.63" height="0.83"/><rect class="cls-2" x="216.81" y="213.27" width="9.63" height="0.83"/><rect class="cls-2" x="216.81" y="214.92" width="9.63" height="0.83"/><rect class="cls-2" x="216.81" y="216.57" width="9.63" height="0.83"/><rect class="cls-2" x="216.81" y="216.57" width="9.63" height="0.83"/><rect class="cls-2" x="216.81" y="218.22" width="9.63" height="0.83"/><rect class="cls-2" x="216.81" y="219.87" width="9.63" height="0.83"/><rect class="cls-2" x="216.81" y="221.52" width="9.63" height="0.83"/><rect class="cls-2" x="216.81" y="223.18" width="9.63" height="0.83"/><rect class="cls-2" x="216.81" y="224.83" width="9.63" height="0.83"/><rect class="cls-2" x="216.81" y="226.48" width="9.63" height="0.83"/><rect class="cls-2" x="216.81" y="228.13" width="9.63" height="0.83"/><rect class="cls-2" x="236.44" y="164.69" width="3.36" height="3.96"/><rect class="cls-2" x="245.52" y="164.69" width="3.36" height="3.96"/><rect class="cls-2" x="240.57" y="164.69" width="0.74" height="3.96"/><rect class="cls-2" x="242.22" y="164.69" width="0.74" height="3.96"/><rect class="cls-2" x="243.87" y="164.69" width="0.74" height="3.96"/><rect class="cls-2" x="249.65" y="164.69" width="3.36" height="3.96"/><rect class="cls-2" x="258.73" y="164.69" width="3.36" height="3.96"/><rect class="cls-2" x="253.78" y="164.69" width="0.74" height="3.96"/><rect class="cls-2" x="255.43" y="164.69" width="0.74" height="3.96"/><rect class="cls-2" x="257.08" y="164.69" width="0.74" height="3.96"/><rect class="cls-2" x="236.44" y="169.64" width="3.36" height="3.96"/><rect class="cls-2" x="245.52" y="169.64" width="3.36" height="3.96"/><rect class="cls-2" x="240.57" y="169.64" width="0.74" height="3.96"/><rect class="cls-2" x="242.22" y="169.64" width="0.74" height="3.96"/><rect class="cls-2" x="243.87" y="169.64" width="0.74" height="3.96"/><rect class="cls-2" x="249.65" y="169.64" width="3.36" height="3.96"/><rect class="cls-2" x="258.73" y="169.64" width="3.36" height="3.96"/><rect class="cls-2" x="253.78" y="169.64" width="0.74" height="3.96"/><rect class="cls-2" x="255.43" y="169.64" width="0.74" height="3.96"/><rect class="cls-2" x="257.08" y="169.64" width="0.74" height="3.96"/><rect class="cls-2" x="236.44" y="174.6" width="3.36" height="3.96"/><rect class="cls-2" x="245.52" y="174.6" width="3.36" height="3.96"/><rect class="cls-2" x="240.57" y="174.6" width="0.74" height="3.96"/><rect class="cls-2" x="242.22" y="174.6" width="0.74" height="3.96"/><rect class="cls-2" x="243.87" y="174.6" width="0.74" height="3.96"/><rect class="cls-2" x="249.65" y="174.6" width="3.36" height="3.96"/><rect class="cls-2" x="258.73" y="174.6" width="3.36" height="3.96"/><rect class="cls-2" x="253.78" y="174.6" width="0.74" height="3.96"/><rect class="cls-2" x="255.43" y="174.6" width="0.74" height="3.96"/><rect class="cls-2" x="257.08" y="174.6" width="0.74" height="3.96"/><rect class="cls-2" x="236.44" y="179.55" width="3.36" height="3.96"/><rect class="cls-2" x="245.52" y="179.55" width="3.36" height="3.96"/><rect class="cls-2" x="240.57" y="179.55" width="0.74" height="3.96"/><rect class="cls-2" x="242.22" y="179.55" width="0.74" height="3.96"/><rect class="cls-2" x="243.87" y="179.55" width="0.74" height="3.96"/><rect class="cls-2" x="249.65" y="179.55" width="3.36" height="3.96"/><rect class="cls-2" x="258.73" y="179.55" width="3.36" height="3.96"/><rect class="cls-2" x="253.78" y="179.55" width="0.74" height="3.96"/><rect class="cls-2" x="255.43" y="179.55" width="0.74" height="3.96"/><rect class="cls-2" x="257.08" y="179.55" width="0.74" height="3.96"/><rect class="cls-2" x="236.44" y="184.5" width="3.36" height="3.96"/><rect class="cls-2" x="245.52" y="184.5" width="3.36" height="3.96"/><rect class="cls-2" x="240.57" y="184.5" width="0.74" height="3.96"/><rect class="cls-2" x="242.22" y="184.5" width="0.74" height="3.96"/><rect class="cls-2" x="243.87" y="184.5" width="0.74" height="3.96"/><rect class="cls-2" x="249.65" y="184.5" width="3.36" height="3.96"/><rect class="cls-2" x="258.73" y="184.5" width="3.36" height="3.96"/><rect class="cls-2" x="253.78" y="184.5" width="0.74" height="3.96"/><rect class="cls-2" x="255.43" y="184.5" width="0.74" height="3.96"/><rect class="cls-2" x="257.08" y="184.5" width="0.74" height="3.96"/><rect class="cls-2" x="236.44" y="189.46" width="3.36" height="3.96"/><rect class="cls-2" x="245.52" y="189.46" width="3.36" height="3.96"/><rect class="cls-2" x="240.57" y="189.46" width="0.74" height="3.96"/><rect class="cls-2" x="242.22" y="189.46" width="0.74" height="3.96"/><rect class="cls-2" x="243.87" y="189.46" width="0.74" height="3.96"/><rect class="cls-2" x="249.65" y="189.46" width="3.36" height="3.96"/><rect class="cls-2" x="258.73" y="189.46" width="3.36" height="3.96"/><rect class="cls-2" x="253.78" y="189.46" width="0.74" height="3.96"/><rect class="cls-2" x="255.43" y="189.46" width="0.74" height="3.96"/><rect class="cls-2" x="257.08" y="189.46" width="0.74" height="3.96"/><rect class="cls-2" x="236.44" y="194.41" width="3.36" height="3.96"/><rect class="cls-2" x="245.52" y="194.41" width="0.99" height="3.96"/><rect class="cls-2" x="240.57" y="194.41" width="0.74" height="3.96"/><rect class="cls-2" x="242.22" y="194.41" width="0.74" height="3.96"/><rect class="cls-2" x="243.87" y="194.41" width="0.74" height="3.96"/><rect class="cls-2" x="236.44" y="199.36" width="3.36" height="3.96"/><rect class="cls-2" x="245.52" y="199.36" width="0.99" height="3.96"/><rect class="cls-2" x="240.57" y="199.36" width="0.74" height="3.96"/><rect class="cls-2" x="242.22" y="199.36" width="0.74" height="3.96"/><rect class="cls-2" x="243.87" y="199.36" width="0.74" height="3.96"/><rect class="cls-2" x="236.44" y="204.32" width="3.36" height="3.96"/><rect class="cls-2" x="245.52" y="204.32" width="0.99" height="3.96"/><rect class="cls-2" x="240.57" y="204.32" width="0.74" height="3.96"/><rect class="cls-2" x="242.22" y="204.32" width="0.74" height="3.96"/><rect class="cls-2" x="243.87" y="204.32" width="0.74" height="3.96"/><rect class="cls-2" x="236.44" y="209.27" width="3.36" height="3.96"/><rect class="cls-2" x="245.52" y="209.27" width="0.99" height="3.96"/><rect class="cls-2" x="240.57" y="209.27" width="0.74" height="3.96"/><rect class="cls-2" x="242.22" y="209.27" width="0.74" height="3.96"/><rect class="cls-2" x="243.87" y="209.27" width="0.74" height="3.96"/><rect class="cls-2" x="236.44" y="214.23" width="3.36" height="3.96"/><rect class="cls-2" x="245.52" y="214.23" width="0.99" height="3.96"/><rect class="cls-2" x="240.57" y="214.23" width="0.74" height="3.96"/><rect class="cls-2" x="242.22" y="214.23" width="0.74" height="3.96"/><rect class="cls-2" x="243.87" y="214.23" width="0.74" height="3.96"/><rect class="cls-2" x="236.44" y="219.18" width="3.36" height="3.96"/><rect class="cls-2" x="245.52" y="219.18" width="0.99" height="3.96"/><rect class="cls-2" x="240.57" y="219.18" width="0.74" height="3.96"/><rect class="cls-2" x="242.22" y="219.18" width="0.74" height="3.96"/><rect class="cls-2" x="243.87" y="219.18" width="0.74" height="3.96"/><rect class="cls-2" x="236.44" y="224.13" width="3.36" height="3.96"/><rect class="cls-2" x="245.52" y="224.13" width="0.99" height="3.96"/><rect class="cls-2" x="240.57" y="224.13" width="0.74" height="3.96"/><rect class="cls-2" x="242.22" y="224.13" width="0.74" height="3.96"/><rect class="cls-2" x="243.87" y="224.13" width="0.74" height="3.96"/><rect class="cls-2" x="270.69" y="202.23" width="2.34" height="2.84"/><rect class="cls-2" x="274" y="202.23" width="2.34" height="2.84"/><rect class="cls-2" x="277.3" y="202.23" width="2.34" height="2.84"/><rect class="cls-2" x="280.6" y="202.23" width="2.34" height="2.84"/><rect class="cls-2" x="283.9" y="202.23" width="2.34" height="2.84"/><rect class="cls-2" x="287.21" y="202.23" width="2.34" height="2.84"/><rect class="cls-2" x="290.51" y="202.23" width="2.34" height="2.84"/><rect class="cls-2" x="293.81" y="202.23" width="2.34" height="2.84"/><rect class="cls-2" x="297.11" y="202.23" width="2.34" height="2.84"/><rect class="cls-2" x="300.42" y="202.23" width="2.34" height="2.84"/><rect class="cls-2" x="270.69" y="205.53" width="2.34" height="2.84"/><rect class="cls-2" x="274" y="205.53" width="2.34" height="2.84"/><rect class="cls-2" x="277.3" y="205.53" width="2.34" height="2.84"/><rect class="cls-2" x="280.6" y="205.53" width="2.34" height="2.84"/><rect class="cls-2" x="283.9" y="205.53" width="2.34" height="2.84"/><rect class="cls-2" x="287.21" y="205.53" width="2.34" height="2.84"/><rect class="cls-2" x="290.51" y="205.53" width="2.34" height="2.84"/><rect class="cls-2" x="293.81" y="205.53" width="2.34" height="2.84"/><rect class="cls-2" x="297.11" y="205.53" width="2.34" height="2.84"/><rect class="cls-2" x="300.42" y="205.53" width="2.34" height="2.84"/><rect class="cls-2" x="270.69" y="208.83" width="2.34" height="2.84"/><rect class="cls-2" x="274" y="208.83" width="2.34" height="2.84"/><rect class="cls-2" x="277.3" y="208.83" width="2.34" height="2.84"/><rect class="cls-2" x="280.6" y="208.83" width="2.34" height="2.84"/><rect class="cls-2" x="283.9" y="208.83" width="2.34" height="2.84"/><rect class="cls-2" x="287.21" y="208.83" width="2.34" height="2.84"/><rect class="cls-2" x="290.51" y="208.83" width="2.34" height="2.84"/><rect class="cls-2" x="293.81" y="208.83" width="2.34" height="2.84"/><rect class="cls-2" x="297.11" y="208.83" width="2.34" height="2.84"/><rect class="cls-2" x="300.42" y="208.83" width="2.34" height="2.84"/><rect class="cls-2" x="270.69" y="212.96" width="2.34" height="2.84"/><rect class="cls-2" x="274" y="212.96" width="2.34" height="2.84"/><rect class="cls-2" x="277.3" y="212.96" width="2.34" height="2.84"/><rect class="cls-2" x="280.6" y="212.96" width="2.34" height="2.84"/><rect class="cls-2" x="283.9" y="212.96" width="2.34" height="2.84"/><rect class="cls-2" x="287.21" y="212.96" width="2.34" height="2.84"/><rect class="cls-2" x="290.51" y="212.96" width="2.34" height="2.84"/><rect class="cls-2" x="293.81" y="212.96" width="2.34" height="2.84"/><rect class="cls-2" x="297.11" y="212.96" width="2.34" height="2.84"/><rect class="cls-2" x="300.42" y="212.96" width="2.34" height="2.84"/><rect class="cls-2" x="270.69" y="216.26" width="2.34" height="2.84"/><rect class="cls-2" x="274" y="216.26" width="2.34" height="2.84"/><rect class="cls-2" x="277.3" y="216.26" width="2.34" height="2.84"/><rect class="cls-2" x="280.6" y="216.26" width="2.34" height="2.84"/><rect class="cls-2" x="283.9" y="216.26" width="2.34" height="2.84"/><rect class="cls-2" x="287.21" y="216.26" width="2.34" height="2.84"/><rect class="cls-2" x="290.51" y="216.26" width="2.34" height="2.84"/><rect class="cls-2" x="293.81" y="216.26" width="2.34" height="2.84"/><rect class="cls-2" x="297.11" y="216.26" width="2.34" height="2.84"/><rect class="cls-2" x="300.42" y="216.26" width="2.34" height="2.84"/><rect class="cls-2" x="270.69" y="219.56" width="2.34" height="2.84"/><rect class="cls-2" x="274" y="219.56" width="2.34" height="2.84"/><rect class="cls-2" x="277.3" y="219.56" width="2.34" height="2.84"/><rect class="cls-2" x="280.6" y="219.56" width="2.34" height="2.84"/><rect class="cls-2" x="283.9" y="219.56" width="2.34" height="2.84"/><rect class="cls-2" x="287.21" y="219.56" width="2.34" height="2.84"/><rect class="cls-2" x="290.51" y="219.56" width="2.34" height="2.84"/><rect class="cls-2" x="293.81" y="219.56" width="2.34" height="2.84"/><rect class="cls-2" x="297.11" y="219.56" width="2.34" height="2.84"/><rect class="cls-2" x="300.42" y="219.56" width="2.34" height="2.84"/><rect class="cls-2" x="270.69" y="223.69" width="2.34" height="2.84"/><rect class="cls-2" x="274" y="223.69" width="2.34" height="2.84"/><rect class="cls-2" x="277.3" y="223.69" width="2.34" height="2.84"/><rect class="cls-2" x="280.6" y="223.69" width="2.34" height="2.84"/><rect class="cls-2" x="283.9" y="223.69" width="2.34" height="2.84"/><rect class="cls-2" x="287.21" y="223.69" width="2.34" height="2.84"/><rect class="cls-2" x="290.51" y="223.69" width="2.34" height="2.84"/><rect class="cls-2" x="293.81" y="223.69" width="2.34" height="2.84"/><rect class="cls-2" x="297.11" y="223.69" width="2.34" height="2.84"/><rect class="cls-2" x="300.42" y="223.69" width="2.34" height="2.84"/><rect class="cls-2" x="270.69" y="227" width="2.34" height="2.84"/><rect class="cls-2" x="274" y="227" width="2.34" height="2.84"/><rect class="cls-2" x="277.3" y="227" width="2.34" height="2.84"/><rect class="cls-2" x="280.6" y="227" width="2.34" height="2.84"/><rect class="cls-2" x="283.9" y="227" width="2.34" height="2.84"/><rect class="cls-2" x="287.21" y="227" width="2.34" height="2.84"/><rect class="cls-2" x="290.51" y="227" width="2.34" height="2.84"/><rect class="cls-2" x="293.81" y="227" width="2.34" height="2.84"/><rect class="cls-2" x="297.11" y="227" width="2.34" height="2.84"/><rect class="cls-2" x="300.42" y="227" width="2.34" height="2.84"/><rect class="cls-2" x="249.3" y="195.43" width="1.93" height="4.97"/><rect class="cls-2" x="252.6" y="195.43" width="1.93" height="4.97"/><rect class="cls-2" x="255.91" y="195.43" width="1.93" height="4.97"/><rect class="cls-2" x="259.21" y="195.43" width="1.93" height="4.97"/><rect class="cls-2" x="262.51" y="195.43" width="1.93" height="4.97"/><rect class="cls-2" x="265.81" y="195.43" width="1.93" height="4.97"/><rect class="cls-2" x="249.3" y="202.04" width="1.93" height="4.97"/><rect class="cls-2" x="252.6" y="202.04" width="1.93" height="4.97"/><rect class="cls-2" x="255.91" y="202.04" width="1.93" height="4.97"/><rect class="cls-2" x="259.21" y="202.04" width="1.93" height="4.97"/><rect class="cls-2" x="262.51" y="202.04" width="1.93" height="4.97"/><rect class="cls-2" x="265.81" y="202.04" width="1.93" height="4.97"/><rect class="cls-2" x="249.3" y="208.64" width="1.93" height="4.97"/><rect class="cls-2" x="252.6" y="208.64" width="1.93" height="4.97"/><rect class="cls-2" x="255.91" y="208.64" width="1.93" height="4.97"/><rect class="cls-2" x="259.21" y="208.64" width="1.93" height="4.97"/><rect class="cls-2" x="262.51" y="208.64" width="1.93" height="4.97"/><rect class="cls-2" x="265.81" y="208.64" width="1.93" height="4.97"/><rect class="cls-2" x="249.3" y="215.25" width="1.93" height="4.97"/><rect class="cls-2" x="252.6" y="215.25" width="1.93" height="4.97"/><rect class="cls-2" x="255.91" y="215.25" width="1.93" height="4.97"/><rect class="cls-2" x="259.21" y="215.25" width="1.93" height="4.97"/><rect class="cls-2" x="262.51" y="215.25" width="1.93" height="4.97"/><rect class="cls-2" x="265.81" y="215.25" width="1.93" height="4.97"/><rect class="cls-2" x="249.3" y="221.85" width="1.93" height="4.97"/><rect class="cls-2" x="252.6" y="221.85" width="1.93" height="4.97"/><rect class="cls-2" x="255.91" y="221.85" width="1.93" height="4.97"/><rect class="cls-2" x="259.21" y="221.85" width="1.93" height="4.97"/><rect class="cls-2" x="262.51" y="221.85" width="1.93" height="4.97"/><rect class="cls-2" x="265.81" y="221.85" width="1.93" height="4.97"/><rect class="cls-2" x="269.12" y="195.43" width="1.93" height="4.97"/><rect class="cls-2" x="272.42" y="195.43" width="1.93" height="4.97"/><rect class="cls-2" x="275.72" y="195.43" width="1.93" height="4.97"/><rect class="cls-2" x="279.02" y="195.43" width="1.93" height="4.97"/><rect class="cls-2" x="282.33" y="195.43" width="1.93" height="4.97"/><rect class="cls-2" x="314.85" y="214.99" width="0.76" height="1.72"/><rect class="cls-2" x="316.5" y="214.99" width="0.76" height="1.72"/><rect class="cls-2" x="318.15" y="214.99" width="0.76" height="1.72"/><rect class="cls-2" x="319.8" y="214.99" width="0.76" height="1.72"/><rect class="cls-2" x="321.45" y="214.99" width="0.76" height="1.72"/><rect class="cls-2" x="323.1" y="214.99" width="0.76" height="1.72"/><rect class="cls-2" x="324.75" y="214.99" width="0.76" height="1.72"/><rect class="cls-2" x="326.41" y="214.99" width="0.76" height="1.72"/><rect class="cls-2" x="328.06" y="214.99" width="0.76" height="1.72"/><rect class="cls-2" x="329.71" y="214.99" width="0.76" height="1.72"/><rect class="cls-2" x="331.36" y="214.99" width="0.76" height="1.72"/><rect class="cls-2" x="333.01" y="214.99" width="0.76" height="1.72"/><rect class="cls-2" x="334.66" y="214.99" width="0.76" height="1.72"/><rect class="cls-2" x="336.31" y="214.99" width="0.76" height="1.72"/><rect class="cls-2" x="337.96" y="214.99" width="0.76" height="1.72"/><rect class="cls-2" x="339.62" y="214.99" width="0.76" height="1.72"/><rect class="cls-2" x="341.27" y="214.99" width="0.76" height="1.72"/><rect class="cls-2" x="342.92" y="214.99" width="0.76" height="1.72"/><rect class="cls-2" x="344.57" y="214.99" width="0.76" height="1.72"/><rect class="cls-2" x="346.22" y="214.99" width="0.76" height="1.72"/><rect class="cls-2" x="314.85" y="218.29" width="0.76" height="1.72"/><rect class="cls-2" x="316.5" y="218.29" width="0.76" height="1.72"/><rect class="cls-2" x="318.15" y="218.29" width="0.76" height="1.72"/><rect class="cls-2" x="319.8" y="218.29" width="0.76" height="1.72"/><rect class="cls-2" x="321.45" y="218.29" width="0.76" height="1.72"/><rect class="cls-2" x="323.1" y="218.29" width="0.76" height="1.72"/><rect class="cls-2" x="324.75" y="218.29" width="0.76" height="1.72"/><rect class="cls-2" x="326.41" y="218.29" width="0.76" height="1.72"/><rect class="cls-2" x="328.06" y="218.29" width="0.76" height="1.72"/><rect class="cls-2" x="329.71" y="218.29" width="0.76" height="1.72"/><rect class="cls-2" x="331.36" y="218.29" width="0.76" height="1.72"/><rect class="cls-2" x="333.01" y="218.29" width="0.76" height="1.72"/><rect class="cls-2" x="334.66" y="218.29" width="0.76" height="1.72"/><rect class="cls-2" x="336.31" y="218.29" width="0.76" height="1.72"/><rect class="cls-2" x="337.96" y="218.29" width="0.76" height="1.72"/><rect class="cls-2" x="339.62" y="218.29" width="0.76" height="1.72"/><rect class="cls-2" x="341.27" y="218.29" width="0.76" height="1.72"/><rect class="cls-2" x="342.92" y="218.29" width="0.76" height="1.72"/><rect class="cls-2" x="344.57" y="218.29" width="0.76" height="1.72"/><rect class="cls-2" x="346.22" y="218.29" width="0.76" height="1.72"/><rect class="cls-2" x="314.85" y="221.59" width="0.76" height="1.72"/><rect class="cls-2" x="316.5" y="221.59" width="0.76" height="1.72"/><rect class="cls-2" x="318.15" y="221.59" width="0.76" height="1.72"/><rect class="cls-2" x="319.8" y="221.59" width="0.76" height="1.72"/><rect class="cls-2" x="321.45" y="221.59" width="0.76" height="1.72"/><rect class="cls-2" x="323.1" y="221.59" width="0.76" height="1.72"/><rect class="cls-2" x="324.75" y="221.59" width="0.76" height="1.72"/><rect class="cls-2" x="326.41" y="221.59" width="0.76" height="1.72"/><rect class="cls-2" x="328.06" y="221.59" width="0.76" height="1.72"/><rect class="cls-2" x="329.71" y="221.59" width="0.76" height="1.72"/><rect class="cls-2" x="331.36" y="221.59" width="0.76" height="1.72"/><rect class="cls-2" x="333.01" y="221.59" width="0.76" height="1.72"/><rect class="cls-2" x="334.66" y="221.59" width="0.76" height="1.72"/><rect class="cls-2" x="336.31" y="221.59" width="0.76" height="1.72"/><rect class="cls-2" x="337.96" y="221.59" width="0.76" height="1.72"/><rect class="cls-2" x="339.62" y="221.59" width="0.76" height="1.72"/><rect class="cls-2" x="341.27" y="221.59" width="0.76" height="1.72"/><rect class="cls-2" x="342.92" y="221.59" width="0.76" height="1.72"/><rect class="cls-2" x="344.57" y="221.59" width="0.76" height="1.72"/><rect class="cls-2" x="346.22" y="221.59" width="0.76" height="1.72"/><rect class="cls-2" x="314.85" y="224.9" width="0.76" height="1.72"/><rect class="cls-2" x="316.5" y="224.9" width="0.76" height="1.72"/><rect class="cls-2" x="318.15" y="224.9" width="0.76" height="1.72"/><rect class="cls-2" x="319.8" y="224.9" width="0.76" height="1.72"/><rect class="cls-2" x="321.45" y="224.9" width="0.76" height="1.72"/><rect class="cls-2" x="323.1" y="224.9" width="0.76" height="1.72"/><rect class="cls-2" x="324.75" y="224.9" width="0.76" height="1.72"/><rect class="cls-2" x="326.41" y="224.9" width="0.76" height="1.72"/><rect class="cls-2" x="328.06" y="224.9" width="0.76" height="1.72"/><rect class="cls-2" x="329.71" y="224.9" width="0.76" height="1.72"/><rect class="cls-2" x="331.36" y="224.9" width="0.76" height="1.72"/><rect class="cls-2" x="333.01" y="224.9" width="0.76" height="1.72"/><rect class="cls-2" x="334.66" y="224.9" width="0.76" height="1.72"/><rect class="cls-2" x="336.31" y="224.9" width="0.76" height="1.72"/><rect class="cls-2" x="337.96" y="224.9" width="0.76" height="1.72"/><rect class="cls-2" x="339.62" y="224.9" width="0.76" height="1.72"/><rect class="cls-2" x="341.27" y="224.9" width="0.76" height="1.72"/><rect class="cls-2" x="342.92" y="224.9" width="0.76" height="1.72"/><rect class="cls-2" x="344.57" y="224.9" width="0.76" height="1.72"/><rect class="cls-2" x="346.22" y="224.9" width="0.76" height="1.72"/><rect class="cls-2" x="314.85" y="228.2" width="0.76" height="1.72"/><rect class="cls-2" x="316.5" y="228.2" width="0.76" height="1.72"/><rect class="cls-2" x="318.15" y="228.2" width="0.76" height="1.72"/><rect class="cls-2" x="319.8" y="228.2" width="0.76" height="1.72"/><rect class="cls-2" x="321.45" y="228.2" width="0.76" height="1.72"/><rect class="cls-2" x="323.1" y="228.2" width="0.76" height="1.72"/><rect class="cls-2" x="324.75" y="228.2" width="0.76" height="1.72"/><rect class="cls-2" x="326.41" y="228.2" width="0.76" height="1.72"/><rect class="cls-2" x="328.06" y="228.2" width="0.76" height="1.72"/><rect class="cls-2" x="329.71" y="228.2" width="0.76" height="1.72"/><rect class="cls-2" x="331.36" y="228.2" width="0.76" height="1.72"/><rect class="cls-2" x="333.01" y="228.2" width="0.76" height="1.72"/><rect class="cls-2" x="334.66" y="228.2" width="0.76" height="1.72"/><rect class="cls-2" x="336.31" y="228.2" width="0.76" height="1.72"/><rect class="cls-2" x="337.96" y="228.2" width="0.76" height="1.72"/><rect class="cls-2" x="339.62" y="228.2" width="0.76" height="1.72"/><rect class="cls-2" x="341.27" y="228.2" width="0.76" height="1.72"/><rect class="cls-2" x="342.92" y="228.2" width="0.76" height="1.72"/><rect class="cls-2" x="344.57" y="228.2" width="0.76" height="1.72"/><rect class="cls-2" x="346.22" y="228.2" width="0.76" height="1.72"/><rect class="cls-2" x="193.28" y="206.11" width="0.83" height="25.59"/><rect class="cls-2" x="197.41" y="206.11" width="0.83" height="25.59"/><rect class="cls-2" x="201.53" y="206.11" width="0.83" height="25.59"/><rect class="cls-2" x="206.49" y="206.11" width="0.83" height="25.59"/><rect class="cls-2" x="211.44" y="206.11" width="0.83" height="25.59"/><rect class="cls-2" x="183.41" y="204.32" width="3.19" height="3.19"/><rect class="cls-2" x="183.41" y="209.27" width="3.19" height="3.19"/><rect class="cls-2" x="183.41" y="214.23" width="3.19" height="3.19"/><rect class="cls-2" x="183.41" y="219.18" width="3.19" height="3.19"/><rect class="cls-2" x="183.41" y="224.13" width="3.19" height="3.19"/><rect class="cls-2" x="309.16" y="192.9" width="1.65" height="31.09"/><rect class="cls-2" x="305.03" y="192.9" width="1.65" height="31.09"/><rect class="cls-2" x="300.9" y="192.9" width="1.65" height="6.82"/><rect class="cls-2" x="297.6" y="192.9" width="1.65" height="6.82"/><rect class="cls-2" x="363.96" y="206.38" width="0.55" height="23.94"/><rect class="cls-2" x="363.14" y="206.38" width="0.55" height="23.94"/><rect class="cls-2" x="359.83" y="206.38" width="0.55" height="23.94"/><rect class="cls-2" x="359.01" y="206.38" width="0.55" height="23.94"/><rect class="cls-2" x="355.71" y="206.38" width="0.55" height="23.94"/><rect class="cls-2" x="354.88" y="206.38" width="0.55" height="23.94"/><rect class="cls-2" x="351.58" y="206.38" width="0.55" height="23.94"/><rect class="cls-2" x="350.75" y="206.38" width="0.55" height="23.94"/><rect class="cls-2" x="347.45" y="206.38" width="0.55" height="7.34"/><rect class="cls-2" x="346.62" y="206.38" width="0.55" height="7.34"/><rect class="cls-2" x="375.67" y="206.67" width="4.8" height="1.35"/><rect class="cls-2" x="381.45" y="206.67" width="4.8" height="1.35"/><rect class="cls-2" x="387.23" y="206.67" width="4.8" height="1.35"/><rect class="cls-2" x="393.01" y="206.67" width="4.8" height="1.35"/><rect class="cls-2" x="375.67" y="209.98" width="4.8" height="1.35"/><rect class="cls-2" x="381.45" y="209.98" width="4.8" height="1.35"/><rect class="cls-2" x="387.23" y="209.98" width="4.8" height="1.35"/><rect class="cls-2" x="393.01" y="209.98" width="4.8" height="1.35"/><rect class="cls-2" x="375.67" y="213.28" width="4.8" height="1.35"/><rect class="cls-2" x="381.45" y="213.28" width="4.8" height="1.35"/><rect class="cls-2" x="387.23" y="213.28" width="4.8" height="1.35"/><rect class="cls-2" x="393.01" y="213.28" width="4.8" height="1.35"/><rect class="cls-2" x="375.67" y="216.58" width="4.8" height="1.35"/><rect class="cls-2" x="381.45" y="216.58" width="4.8" height="1.35"/><rect class="cls-2" x="387.23" y="216.58" width="4.8" height="1.35"/><rect class="cls-2" x="393.01" y="216.58" width="4.8" height="1.35"/><rect class="cls-2" x="375.67" y="219.88" width="4.8" height="1.35"/><rect class="cls-2" x="381.45" y="219.88" width="4.8" height="1.35"/><rect class="cls-2" x="387.23" y="219.88" width="4.8" height="1.35"/><rect class="cls-2" x="393.01" y="219.88" width="4.8" height="1.35"/><rect class="cls-2" x="375.67" y="223.19" width="4.8" height="1.35"/><rect class="cls-2" x="381.45" y="223.19" width="4.8" height="1.35"/><rect class="cls-2" x="387.23" y="223.19" width="4.8" height="1.35"/><rect class="cls-2" x="393.01" y="223.19" width="4.8" height="1.35"/><rect class="cls-2" x="375.67" y="226.49" width="4.8" height="1.35"/><rect class="cls-2" x="381.45" y="226.49" width="4.8" height="1.35"/><rect class="cls-2" x="387.23" y="226.49" width="4.8" height="1.35"/><rect class="cls-2" x="393.01" y="226.49" width="4.8" height="1.35"/><rect class="cls-2" x="242.46" y="155.75" width="1.55" height="1.14"/><rect class="cls-2" x="245.76" y="155.75" width="1.55" height="1.14"/><rect class="cls-2" x="249.06" y="155.75" width="1.55" height="1.14"/><rect class="cls-2" x="253.19" y="155.75" width="1.55" height="1.14"/><rect class="cls-2" x="257.32" y="155.75" width="1.55" height="1.14"/><rect class="cls-2" x="272.95" y="187.26" width="3.44" height="1.65"/><rect class="cls-2" x="299.68" y="186.4" width="0.69" height="1.19"/><rect class="cls-2" x="302.15" y="186.4" width="0.69" height="1.19"/><rect class="cls-2" x="304.63" y="186.4" width="0.69" height="1.19"/><rect class="cls-2" x="348.3" y="184.85" width="1.16" height="2.29"/><rect class="cls-2" x="349.95" y="184.85" width="1.16" height="2.29"/><rect class="cls-2" x="352.42" y="184.85" width="1.16" height="2.29"/><rect class="cls-2" x="354.07" y="184.85" width="1.16" height="2.29"/><rect class="cls-2" x="356.55" y="184.85" width="1.16" height="2.29"/><rect class="cls-2" x="358.2" y="184.85" width="1.16" height="2.29"/><rect class="cls-2" x="360.68" y="184.85" width="1.16" height="2.29"/><rect class="cls-2" x="362.33" y="184.85" width="1.16" height="2.29"/><rect class="cls-2" x="348.3" y="188.98" width="1.16" height="2.29"/><rect class="cls-2" x="349.95" y="188.98" width="1.16" height="2.29"/><rect class="cls-2" x="352.42" y="188.98" width="1.16" height="2.29"/><rect class="cls-2" x="354.07" y="188.98" width="1.16" height="2.29"/><rect class="cls-2" x="356.55" y="188.98" width="1.16" height="2.29"/><rect class="cls-2" x="358.2" y="188.98" width="1.16" height="2.29"/><rect class="cls-2" x="360.68" y="188.98" width="1.16" height="2.29"/><rect class="cls-2" x="362.33" y="188.98" width="1.16" height="2.29"/><rect class="cls-2" x="348.3" y="193.11" width="1.16" height="2.29"/><rect class="cls-2" x="349.95" y="193.11" width="1.16" height="2.29"/><rect class="cls-2" x="352.42" y="193.11" width="1.16" height="2.29"/><rect class="cls-2" x="354.07" y="193.11" width="1.16" height="2.29"/><rect class="cls-2" x="348.3" y="197.23" width="1.16" height="2.29"/><rect class="cls-2" x="349.95" y="197.23" width="1.16" height="2.29"/><rect class="cls-2" x="352.42" y="197.23" width="1.16" height="2.29"/><rect class="cls-2" x="354.07" y="197.23" width="1.16" height="2.29"/><rect class="cls-2" x="348.3" y="201.36" width="1.16" height="2.29"/><rect class="cls-2" x="349.95" y="201.36" width="1.16" height="2.29"/><rect class="cls-2" x="352.42" y="201.36" width="1.16" height="2.29"/><rect class="cls-2" x="354.07" y="201.36" width="1.16" height="2.29"/></svg>