<svg xmlns="http://www.w3.org/2000/svg" viewBox="0 0 139.86 160"><defs><style>.cls-1{fill:#89a8ff;}.cls-2{fill:#716dff;}.cls-3{fill:#fff;}</style></defs><title>doc-icon</title><g id="Layer_2" data-name="Layer 2"><g id="apply"><path class="cls-1" d="M0,5.18V154.83A5.17,5.17,0,0,0,5.17,160H134.68a5.17,5.17,0,0,0,5.17-5.17V47.14a5.17,5.17,0,0,0-1.52-3.66L96.42,1.57A5.17,5.17,0,0,0,92.77.05L5.18,0A5.17,5.17,0,0,0,0,5.18Z"/><path class="cls-2" d="M95,0V39.83A5.17,5.17,0,0,0,100.14,45h39.72Z"/><path class="cls-3" d="M28.78,73c0-2.36,1.26-3.54,3.93-3.54h7.2c8.38,0,12.66,7.79,12.66,15.41S47.42,100,39.16,100h-7c-2.52,0-3.34-.47-3.34-3.3Zm6.33,2.75v18H39c4.6,0,7.08-4.4,7.08-8.85,0-4.64-2.2-9.12-6.57-9.12Z"/><path class="cls-3" d="M81.78,84.51c0,7.94-4.52,15.85-13.57,15.85-8.89,0-13.37-8-13.37-16s4.44-15.85,13.37-15.85S81.78,76.57,81.78,84.51Zm-20.49-.2c0,4.91,2.32,9.79,7,9.79s7-4.68,7-9.52S73,74.92,68.22,74.92,61.3,79.56,61.3,84.32Z"/><path class="cls-3" d="M105.57,91a2.93,2.93,0,0,1,3.15,3.18,3.45,3.45,0,0,1-1.18,2.71,13.12,13.12,0,0,1-9,3.5c-9.52,0-14.23-7.9-14.23-15.85s4.84-16.12,14.43-16.12a12.88,12.88,0,0,1,9,3.42A3.62,3.62,0,0,1,109,74.56a3.06,3.06,0,0,1-3.11,3.26,3.6,3.6,0,0,1-2.4-.94A6.78,6.78,0,0,0,98.65,75c-5.19,0-7.71,4.64-7.71,9.32s2.63,9.32,7.75,9.32A6.37,6.37,0,0,0,103.41,92,2.79,2.79,0,0,1,105.57,91Z"/></g></g></svg>