<svg id="layout" xmlns="http://www.w3.org/2000/svg" viewBox="0 0 100 99.98"><defs><style>.cls-1{fill:#3fa9f5;}</style></defs><title>language</title><path class="cls-1" d="M50,0C22.43,0,0,20.47,0,45.64A43.36,43.36,0,0,0,10.94,74.17c2.84,5.17-3.88,14.24-6.79,18.14-1.49,2-2,2.58-2,3.53,0,2,1.47,4.14,4.76,4.14,7.77,0,15.29-4.72,21.88-8.9,1.42-.9,2.76-1.8,4.08-2.58A54,54,0,0,0,50,91.29c27.57,0,50-20.48,50-45.65S77.57,0,50,0ZM31.52,21.73a2.18,2.18,0,0,1,2,1.49l9.78,28.26A2.13,2.13,0,0,1,42,54.2a2,2,0,0,1-.68.14,2.18,2.18,0,0,1-2-1.49l-2.51-7.2H26.29l-2.51,7.2a2.15,2.15,0,0,1-4.08-1.36l9.78-28.26A2.18,2.18,0,0,1,31.52,21.73Zm0,8.83L27.79,41.29h7.47Zm35.87,6.39a2.17,2.17,0,0,1,2.17,2.17v4.35H80.43a2.17,2.17,0,0,1,0,4.35H77.85a34.09,34.09,0,0,1-8.49,14.95A39.85,39.85,0,0,0,77,67.58a2.2,2.2,0,0,1,1,2.92,2.17,2.17,0,0,1-2,1.22,2.2,2.2,0,0,1-1-.2A44.52,44.52,0,0,1,66,65.68a36.91,36.91,0,0,1-11,5.91,2.1,2.1,0,0,1-.68.14,2.17,2.17,0,0,1-2-1.49,2.13,2.13,0,0,1,1.36-2.72,32,32,0,0,0,9-4.82,34.88,34.88,0,0,1-5.77-7.4,2.22,2.22,0,0,1,.88-3,2.15,2.15,0,0,1,2.92.88A32.91,32.91,0,0,0,66,59.84a30.49,30.49,0,0,0,7.27-12h-19a2.17,2.17,0,1,1,0-4.35H65.22V39.12A2.17,2.17,0,0,1,67.39,36.95Z"/></svg>