<svg id="layout" xmlns="http://www.w3.org/2000/svg" viewBox="0 0 86.67 99.98"><defs><style>.cls-1{fill:#3fa9f5;}</style></defs><title>major preferred</title><path class="cls-1" d="M85.58,20.55a2.29,2.29,0,0,0-2.33-.32L45.95,36.33a14.74,14.74,0,0,1-5.74,1,21,21,0,0,1-8-1.59,9.56,9.56,0,0,1-1.82-1c.16-.08.35-.16.56-.25L64.88,19.9l5.07,2.16V15.75a3,3,0,0,0-1.09-2.35,2.28,2.28,0,0,0-2.33-.32L29.2,29.17a8.78,8.78,0,0,0-3,1.86,5.12,5.12,0,0,0-1.52,3.59.82.82,0,0,0,0,.11V91.41s0,0,0,.08,0,0,0,0v.06h0a5.64,5.64,0,0,0,2,4.13c3,2.65,8.08,4.13,13.45,4.25a19.37,19.37,0,0,0,7.53-1.41L85,82.46a2.82,2.82,0,0,0,1.63-2.65V22.91a3,3,0,0,0-1.09-2.36"/><path class="cls-1" d="M61.92,9.77a3,3,0,0,0-1-2.14,2.29,2.29,0,0,0-2.34-.32L21.24,23.41a14.83,14.83,0,0,1-5.74,1,21.07,21.07,0,0,1-8-1.59,9.67,9.67,0,0,1-1.82-1c.16-.08.35-.16.56-.25L40.16,7l5.06,2.16V2.84A3,3,0,0,0,44.13.49,2.29,2.29,0,0,0,41.79.17L4.49,16.26a8.65,8.65,0,0,0-3,1.86A5.1,5.1,0,0,0,0,21.71a.75.75,0,0,0,0,.1V78.5s0,.05,0,.08,0,0,0,.08v.08H0a5.59,5.59,0,0,0,2,4.12c3,2.65,8.08,4.09,13.45,4.22a23.63,23.63,0,0,0,4.35-.46V34.75A9.83,9.83,0,0,1,22.8,27.6a13.5,13.5,0,0,1,4.59-2.91L61.93,9.77"/></svg>