<svg id="layout" xmlns="http://www.w3.org/2000/svg" viewBox="0 0 54.4 100"><defs><style>.cls-1{fill:#ed004c;}.cls-2{fill:#ed663e;}.cls-3{fill:#eda960;}.cls-4{fill:#edd4b8;}.cls-5{fill:#980030;}.cls-6{fill:#fff;}</style></defs><title>match</title><path class="cls-1" d="M49.07,29.28A27.26,27.26,0,0,1,27.2,72.8L22.66,36.4,27.2,0Z"/><path class="cls-2" d="M27.2,72.8A27.26,27.26,0,0,1,5.32,29.28L27.2,0Z"/><path class="cls-3" d="M39.42,41.7a15.07,15.07,0,0,1,3,9.07A15.23,15.23,0,0,1,27.2,66L20.38,45.66,27.2,25.34Z"/><path class="cls-4" d="M27.2,25.34V66A15.23,15.23,0,0,1,12,50.77a15.07,15.07,0,0,1,3-9.08Z"/><path class="cls-5" d="M27.2,42.92,24.93,66.39l10.22-2.65V50.87A8,8,0,0,0,27.2,42.92Z"/><path class="cls-1" d="M19.25,50.87V63.74l8,2.65V42.92A8,8,0,0,0,19.25,50.87Z"/><path class="cls-4" d="M23.82,81.81,27.2,100a52.66,52.66,0,0,0,8-.6V63.74h-8Z"/><path class="cls-6" d="M19.25,63.74V99.4a52.66,52.66,0,0,0,8,.6V63.74Z"/></svg>