<svg xmlns="http://www.w3.org/2000/svg" viewBox="0 0 139.86 160"><defs><style>.cls-1{fill:#f99;}.cls-2{fill:#ff6969;}.cls-3{fill:#fff;}</style></defs><title>pdf-icon</title><g id="Layer_2" data-name="Layer 2"><g id="apply"><path class="cls-1" d="M0,5.18V154.83A5.17,5.17,0,0,0,5.17,160H134.68a5.17,5.17,0,0,0,5.17-5.17V47.14a5.17,5.17,0,0,0-1.52-3.66L96.42,1.57A5.17,5.17,0,0,0,92.77.05L5.18,0A5.17,5.17,0,0,0,0,5.18Z"/><path class="cls-2" d="M95,0V39.83A5.17,5.17,0,0,0,100.14,45h39.72Z"/><path class="cls-3" d="M36.64,72.68c0-2.24,1.14-3.26,3.3-3.26h8.22c6,0,10.34,4.09,10.34,10.07A9.85,9.85,0,0,1,48.4,89.43H42.94v7.39c0,2.16-1.06,3.18-3.15,3.18s-3.15-1-3.15-3.18Zm6.29,3v7.43h5.31a3.53,3.53,0,0,0,3.85-3.7c0-2.36-1.57-3.74-4.44-3.74Z"/><path class="cls-3" d="M60.79,73c0-2.36,1.26-3.54,3.93-3.54h7.2c8.38,0,12.66,7.79,12.66,15.41S79.42,100,71.17,100h-7c-2.52,0-3.34-.47-3.34-3.3Zm6.33,2.75v18H71c4.6,0,7.08-4.4,7.08-8.85,0-4.64-2.2-9.12-6.57-9.12Z"/><path class="cls-3" d="M86.5,73c0-2.36,1.14-3.54,3.3-3.54h10.73c2.16,0,3.18,1,3.18,3.15s-1,3.15-3.18,3.15H92.83v6h5.43c2.12,0,3.11,1.06,3.11,3.18s-1,3.15-3.11,3.15H92.83v9.08c0,1.89-1.06,2.87-3.18,2.87s-3.15-1-3.15-2.87Z"/></g></g></svg>