<svg id="layout" xmlns="http://www.w3.org/2000/svg" viewBox="0 0 100 100"><defs><style>.cls-1{fill:#3fa9f5;}</style></defs><title>twitter stroke</title><path class="cls-1" d="M50.08,2a48,48,0,1,1-48,48,48.05,48.05,0,0,1,48-48m14,32.55a9.93,9.93,0,0,0-6.43-2.27,10.06,10.06,0,0,0-10.11,9.48,20.82,20.82,0,0,1-12.89-7.33l-1.84-2.26L31.38,34.7a9.79,9.79,0,0,0-1.32,5.05,10,10,0,0,0,.2,2l-.37-.25v3.91A9.36,9.36,0,0,0,30.58,49a11,11,0,0,0,1.36,2.35L32.81,54a10,10,0,0,0,4.3,5.39,14.68,14.68,0,0,1-4.87.81,5.46,5.46,0,0,1-1.46-.12l-11.6-2.9,10,6.52a24.58,24.58,0,0,0,13.45,3.86C57.29,67.54,64.93,57.1,67,48.14A24,24,0,0,0,67.62,43a13.81,13.81,0,0,0,3.73-3.92l4.18-6.27-5,2.48,1.24-4.56-4.15,2.31a16.87,16.87,0,0,1-3.55,1.49M50.08,0a50,50,0,1,0,50,50,50,50,0,0,0-50-50Zm-.35,44a5.44,5.44,0,0,1-.18-1.77,8.07,8.07,0,0,1,8.12-7.95,7.72,7.72,0,0,1,5.83,2.47,18,18,0,0,0,5.12-1.94,8,8,0,0,1-3.53,4.42A13.62,13.62,0,0,0,69.68,38a10.73,10.73,0,0,1-4.06,3.89v1.06a21.92,21.92,0,0,1-.53,4.77c-2.12,9-9.71,17.84-22.43,17.84A22.51,22.51,0,0,1,30.3,62a7.24,7.24,0,0,0,1.94.18,16.43,16.43,0,0,0,10.07-3.36,8,8,0,0,1-7.59-5.48,4.89,4.89,0,0,0,1.59.18,8.86,8.86,0,0,0,2.12-.35,8.18,8.18,0,0,1-6-4.95,7.32,7.32,0,0,1-.53-2.83v-.18a7,7,0,0,0,3.71,1.06,8,8,0,0,1-2.47-10.6A23,23,0,0,0,49.72,44Z"/></svg>