<svg xmlns="http://www.w3.org/2000/svg" viewBox="0 0 117.64 25.76"><defs><style>.cls-1{fill:#fff;}</style></defs><title>whitelogo</title><g id="Layer_2" data-name="Layer 2"><g id="mobile"><path class="cls-1" d="M15.05.7a5.25,5.25,0,0,1,3.21,5.22,24.92,24.92,0,0,1-2.35,8.34H2c-.07,0-2.69-5-1.81-8.34a8.21,8.21,0,0,1,4.33-4.6A13.83,13.83,0,0,1,9,.07c.51-.06,4.43-.29,6,.64"/><path class="cls-1" d="M13.55,19l-4.35,6.2L4.51,18.82c0-.08,1.34-1.59,4.68-1.7A5.84,5.84,0,0,1,13.55,19"/><path class="cls-1" d="M30.15,1.34h1v8.8l10.14-8.8H42.6l-11,9.57L45.42,25.34H44L31.21,12V25.34H30.15Z"/><path class="cls-1" d="M59.56,10.94h1v14.4h-1V22.43A5.73,5.73,0,0,1,54,25.7a6.08,6.08,0,0,1-4.51-1.86,6.2,6.2,0,0,1-1.82-4.51V10.94h1v8.38a5.39,5.39,0,0,0,1.55,3.84A5,5,0,0,0,54,24.8a5.41,5.41,0,0,0,3.89-1.63,5.18,5.18,0,0,0,1.68-3.84Z"/><path class="cls-1" d="M65.13,25.34h-1V10.94h1v2.91a5.73,5.73,0,0,1,5.57-3.26,6.08,6.08,0,0,1,4.51,1.86A6.2,6.2,0,0,1,77,17v8.38H76V17a5.39,5.39,0,0,0-1.55-3.84,5,5,0,0,0-3.76-1.63,5.41,5.41,0,0,0-3.89,1.63A5.18,5.18,0,0,0,65.13,17Z"/><path class="cls-1" d="M93,10.94h.93L86.86,25.76l-7.1-14.82h1.12L87,23.59Z"/><path class="cls-1" d="M103.85,25.73h-.29a7.2,7.2,0,0,1-5.3-2.29A7.36,7.36,0,0,1,96,18.11a7.17,7.17,0,0,1,2.24-5.26,7.55,7.55,0,0,1,5.54-2.22,7.38,7.38,0,0,1,5.66,2.62l-10,9.92a6.5,6.5,0,0,0,4,1.66,6.74,6.74,0,0,0,3.44-.88,7.57,7.57,0,0,0,2.51-2.35v1.63A7.18,7.18,0,0,1,103.85,25.73Zm-.34-14.21a6.21,6.21,0,0,0-4.51,2A6.22,6.22,0,0,0,97,18a6.55,6.55,0,0,0,1.7,4.48L108,13.25A6.7,6.7,0,0,0,103.51,11.52Z"/><path class="cls-1" d="M117.64,24.64v.9A5.41,5.41,0,0,1,113.77,24a5.12,5.12,0,0,1-1.6-3.89v-15h1V11h4.42v.9h-4.42v8.26a4.4,4.4,0,0,0,4.45,4.51Z"/></g></g></svg>