<svg id="Layer_1" data-name="Layer 1" xmlns="http://www.w3.org/2000/svg" viewBox="0 0 35 35"><defs><style>.cls-1{fill:#e6e7e8;}.cls-2{fill:#fff;}</style></defs><title>leftarrow</title><path class="cls-1" d="M457,611.25a17.5,17.5,0,1,1,17.5,17.5,17.5,17.5,0,0,1-17.5-17.5" transform="translate(-457 -593.75)"/><path class="cls-2" d="M468.54,610.82l0,0.07-0.05.1s0,0.06,0,.09,0,0.06,0,.09a1,1,0,0,0,0,.38l0,0.09a0.9,0.9,0,0,0,0,.09l0.05,0.1,0,0.06,0.12,0.15,4.84,4.84a1,1,0,1,0,1.37-1.37l-3.19-3.19h8a1,1,0,1,0,0-1.94h-8l3.4-3.4a1,1,0,0,0-1.37-1.37l-5.05,5.05a1,1,0,0,0-.12.15" transform="translate(-457 -593.75)"/></svg>