<?xml version="1.0" encoding="utf-8"?>
<!-- Generator: Adobe Illustrator 19.2.0, SVG Export Plug-In . SVG Version: 6.00 Build 0)  -->
<svg version="1.1" id="Layer_1" xmlns="http://www.w3.org/2000/svg" xmlns:xlink="http://www.w3.org/1999/xlink" x="0px" y="0px"
	 viewBox="0 0 30 19.5" style="enable-background:new 0 0 30 19.5;" xml:space="preserve">
<style type="text/css">
	.st0{fill:#EF5350;}
</style>
<title>sandwich icon</title>
<g id="Layer_2">
	<g id="mobile">
		<path class="st0" d="M1.5,8.2h27c0.8,0,1.5,0.7,1.5,1.5l0,0c0,0.8-0.7,1.5-1.5,1.5h-27C0.7,11.2,0,10.6,0,9.8l0,0
			C0,8.9,0.7,8.2,1.5,8.2z"/>
		<path class="st0" d="M16.5,16.5h12c0.8,0,1.5,0.7,1.5,1.5l0,0c0,0.8-0.7,1.5-1.5,1.5h-12c-0.8,0-1.5-0.7-1.5-1.5l0,0
			C15,17.2,15.7,16.5,16.5,16.5z"/>
		<path class="st0" d="M1.5,0h12C14.3,0,15,0.7,15,1.5l0,0C15,2.3,14.3,3,13.5,3h-12C0.7,3,0,2.3,0,1.5l0,0C0,0.7,0.7,0,1.5,0z"/>
	</g>
</g>
</svg>
