<svg id="Layer_1" data-name="Layer 1" xmlns="http://www.w3.org/2000/svg" viewBox="0 0 35 35"><defs><style>.cls-1{fill:#e6e7e8;}.cls-2{fill:#fff;}</style></defs><title>rightarrow</title><path class="cls-1" d="M489.65,611.25a17.5,17.5,0,1,1,17.5,17.5,17.5,17.5,0,0,1-17.5-17.5" transform="translate(-489.65 -593.75)"/><path class="cls-2" d="M513.11,611.68l0-.06,0.05-.1a0.77,0.77,0,0,0,0-.09,0.81,0.81,0,0,0,0-.09,1,1,0,0,0,0-.38l0-.09a0.75,0.75,0,0,0,0-.09l-0.05-.1,0-.06a0.94,0.94,0,0,0-.12-0.15l-4.84-4.84a1,1,0,1,0-1.37,1.37l3.19,3.19h-8a1,1,0,1,0,0,1.94h8l-3.4,3.4a1,1,0,0,0,1.37,1.37l5.05-5.05a0.93,0.93,0,0,0,.12-0.15" transform="translate(-489.65 -593.75)"/></svg>